<svg width="65" height="27" viewBox="0 0 65 27" fill="none" xmlns="http://www.w3.org/2000/svg">
<path fill-rule="evenodd" clip-rule="evenodd" d="M12.2951 0.902258C11.4853 0.989696 10.6726 1.3552 9.98622 1.94076C9.7871 2.11059 9.251 2.70455 9.05502 2.97239C8.75309 3.3851 8.45498 4.05507 8.33684 4.58659C8.28879 4.80275 8.25478 5.46583 8.28247 5.64632L8.30066 5.76472H8.45876C8.98537 5.76472 9.81557 5.46407 10.4717 5.03577C11.7289 4.21514 12.455 3.23489 12.6921 2.03823C12.7396 1.79872 12.7574 1.08438 12.7194 0.943339C12.6979 0.863457 12.6749 0.861228 12.2951 0.902258ZM22.6955 12.109L22.7021 21.7848H24.1963H25.6905L25.6971 18.4629L25.7038 15.1409L28.2137 15.132C30.9468 15.1222 30.836 15.1276 31.5755 14.9685C32.3004 14.8127 33.1989 14.4463 33.7644 14.076C35.201 13.1354 36.1155 11.7329 36.3989 10.0356C36.5881 8.90289 36.4957 7.72201 36.134 6.64832C35.3568 4.341 33.3265 2.85273 30.6991 2.66439C30.4963 2.64984 28.7615 2.59856 26.8439 2.55042C24.9263 2.50229 23.207 2.45624 23.0232 2.44812L22.6889 2.43332L22.6955 12.109ZM29.8448 5.03661C32.0531 5.28763 33.2805 6.66656 33.2792 8.89474C33.2785 10.1261 32.9288 11.0547 32.2085 11.7383C31.8124 12.1143 31.3763 12.3694 30.8436 12.5368C30.1047 12.769 29.93 12.7823 27.6313 12.7823H25.7036V8.88934V4.99637L27.5975 4.9964C29.1498 4.99642 29.5552 5.00367 29.8448 5.03661ZM11.6922 5.98129C11.1803 6.05997 10.7785 6.18816 9.88745 6.55699C9.09956 6.88313 8.94802 6.92926 8.67754 6.92518C8.39647 6.92096 8.14833 6.8464 7.35585 6.52808C6.20013 6.06387 5.84244 5.96951 5.23938 5.96977C3.92477 5.97031 2.67525 6.51926 1.67775 7.53448C0.994772 8.22961 0.639466 8.84695 0.344688 9.85064C-0.22497 11.7904 0.104751 14.4869 1.22441 17.0448C1.58136 17.8602 2.29287 19.1104 2.80766 19.8267C3.36274 20.5991 3.99327 21.1896 4.58605 21.4921C5.37402 21.8943 6.10909 21.8861 7.15925 21.4632C8.08385 21.091 8.3842 21.0218 9.08386 21.0198C9.80564 21.0178 10.138 21.0935 11.0761 21.4732C12.7332 22.1438 13.8103 21.769 15.1127 20.0688C15.4367 19.6459 15.9261 18.9396 16.1221 18.6121C16.4877 18.0013 16.8404 17.1857 17.094 16.3646C17.1036 16.3336 17.0408 16.2864 16.8472 16.1793C15.5666 15.4709 14.677 14.3113 14.4082 13C14.1219 11.6034 14.4593 10.1912 15.3327 9.13039C15.5668 8.846 16.0089 8.43926 16.2783 8.26055L16.5022 8.11195L16.4472 8.02041C16.4169 7.97008 16.3416 7.85975 16.2798 7.77523C15.5128 6.72651 14.3017 6.07373 12.9296 5.96949C12.4986 5.93673 11.9479 5.94198 11.6922 5.98129ZM42.3495 7.57116C40.3495 7.81403 38.7958 8.74148 38.1031 10.1059C37.854 10.5965 37.7284 11.046 37.693 11.5741L37.6755 11.8347H39.0814H40.4873L40.5032 11.7642C40.5766 11.4389 40.7131 11.1508 40.9156 10.8937C41.2995 10.4063 41.9547 10.0499 42.6998 9.92333C43.0428 9.86506 43.8836 9.88727 44.2483 9.96425C44.7866 10.0779 45.1357 10.2537 45.4719 10.5807C45.6593 10.763 45.7182 10.8412 45.8195 11.0421C46.0324 11.4646 46.0528 11.5807 46.0655 12.4429L46.0766 13.1921L45.976 13.1922C45.7574 13.1923 41.9524 13.3976 41.6942 13.4232C40.6272 13.5288 39.7145 13.7555 39.006 14.0909C37.8218 14.6516 37.1237 15.5602 36.9382 16.7825C36.8724 17.216 36.8784 17.5342 36.9597 17.9099C37.3597 19.7593 38.4148 20.9958 40.0352 21.5142C40.7204 21.7334 41.5582 21.8299 42.284 21.7733C43.9669 21.642 45.308 20.8631 46.1178 19.5467L46.2816 19.2803V20.4365V21.5927H47.6841H49.0865L49.0863 16.6561C49.0862 13.448 49.0767 11.6391 49.0592 11.49C49.0197 11.1531 48.9645 10.9108 48.851 10.5768C48.3067 8.97455 46.8298 7.93851 44.617 7.60671C44.1356 7.53453 42.8209 7.51392 42.3495 7.57116ZM50.6856 7.72695C50.6856 7.73564 51.8532 10.9022 53.2803 14.7637L55.875 21.7848L55.7478 22.2717C55.5449 23.0486 55.3466 23.4576 54.9978 23.8186C54.6796 24.1478 54.2908 24.3536 53.8051 24.4497C53.6445 24.4815 53.4011 24.4972 52.9335 24.506L52.2847 24.5181V25.697V26.876L53.0776 26.8609C54.1382 26.8407 54.6291 26.7728 55.2655 26.5584C55.9026 26.3437 56.3553 26.0675 56.8341 25.6012C57.1713 25.2728 57.3574 25.0442 57.6246 24.6303C57.8253 24.3194 58.1827 23.6214 58.3669 23.1806C58.4405 23.0045 59.7495 19.472 61.2759 15.3307C62.8022 11.1893 64.059 7.78066 64.0688 7.75602C64.0856 7.71366 64.0042 7.7112 62.5808 7.7112H61.0749L59.2816 13.3573C58.2952 16.4626 57.4808 18.9953 57.4718 18.9854C57.4629 18.9756 56.6801 16.5242 55.7323 13.5378C54.7846 10.5515 53.9804 8.01888 53.9453 7.90969L53.8814 7.7112H52.2835C51.4046 7.7112 50.6856 7.7183 50.6856 7.72695ZM46.2743 16.1438C46.2602 17.0226 46.2445 17.1402 46.0865 17.5523C45.8392 18.1977 45.348 18.7019 44.6432 19.0339C44.0658 19.3059 43.4998 19.4211 42.7296 19.4233C42.0286 19.4253 41.5998 19.3378 41.1189 19.0947C40.4256 18.7441 40.0621 18.1315 40.1017 17.3806C40.1422 16.6145 40.6067 16.0554 41.4535 15.7534C41.7965 15.6311 42.1293 15.5765 42.7165 15.5464C43.0121 15.5312 43.8909 15.4807 44.6695 15.4343C45.448 15.3879 46.1305 15.3484 46.1861 15.3467L46.2871 15.3435L46.2743 16.1438Z" fill="white"/>
</svg>
