<svg width="26" height="26" viewBox="0 0 26 26" fill="none" xmlns="http://www.w3.org/2000/svg">
<circle cx="12.5847" cy="13.4375" r="12.5" fill="#6FC05F"/>
<path d="M6.27771 13.0516C6.06458 13.2647 6.06458 13.6103 6.27771 13.8234L9.75101 17.2967C9.96414 17.5099 10.3097 17.5099 10.5228 17.2967C10.736 17.0836 10.736 16.738 10.5228 16.5249L7.43548 13.4375L10.5228 10.3501C10.736 10.137 10.736 9.79143 10.5228 9.57829C10.3097 9.36515 9.96414 9.36515 9.75101 9.57829L6.27771 13.0516ZM19.1636 13.9833C19.4651 13.9833 19.7094 13.7389 19.7094 13.4375C19.7094 13.1361 19.4651 12.8917 19.1636 12.8917V13.9833ZM6.66364 13.9833L19.1636 13.9833V12.8917L6.66364 12.8917V13.9833Z" fill="white"/>
</svg>
