<svg width="18" height="18" viewBox="0 0 18 18" fill="none" xmlns="http://www.w3.org/2000/svg">
<path fill-rule="evenodd" clip-rule="evenodd" d="M0.638256 0.496296C0.236199 0.706347 0.0283861 1.18074 0.158792 1.5907C0.201703 1.72567 0.556488 2.10594 1.86218 3.41644L3.51138 5.07169L3.23396 5.28738C2.81375 5.61403 1.81103 6.63635 1.3806 7.17692C0.934799 7.73679 0.22774 8.76339 0.135002 8.98538C-0.0120575 9.33736 0.0741605 9.60316 0.586005 10.3763C1.27575 11.4181 2.36733 12.6279 3.28075 13.3627C4.58759 14.4141 5.97373 15.0689 7.40617 15.3116C7.90528 15.3962 8.08367 15.4056 8.79394 15.3847C10.0388 15.3479 10.8917 15.1366 12.0426 14.5801L12.6258 14.2981L14.0882 15.7575C15.0788 16.7462 15.6084 17.2433 15.7298 17.2984C15.9736 17.4092 16.2173 17.4015 16.4902 17.2744C16.9407 17.0646 17.161 16.4481 16.9478 15.9938C16.8295 15.7416 1.61128 0.535027 1.38289 0.440775C1.13688 0.339253 0.905853 0.356482 0.638256 0.496296ZM8.20601 3.25755C7.84889 3.38489 7.65104 3.70025 7.64945 4.14472C7.64817 4.50071 7.78087 4.75655 8.0549 4.92632C8.23632 5.03869 8.31258 5.05477 8.82584 5.08879C9.66 5.14413 10.2273 5.28901 10.9747 5.6376C12.2533 6.23391 13.4578 7.27906 14.5716 8.75854L14.963 9.27854L14.7686 9.55169C14.6616 9.7019 14.4928 9.97946 14.3934 10.1684C14.1195 10.6895 14.1501 11.0766 14.4886 11.3739C14.7985 11.646 15.2834 11.7188 15.6216 11.5439C15.7648 11.4698 16.103 11.0414 16.586 10.3225C17.2401 9.34864 17.2379 9.24095 16.5433 8.20427C16.0968 7.53789 15.5911 6.91562 14.9838 6.28538C13.292 4.52949 11.4627 3.51805 9.50818 3.25781C8.91774 3.1792 8.42598 3.17911 8.20601 3.25755ZM5.1119 6.67094L5.37016 6.93193L5.19041 7.29884C4.89461 7.90243 4.85087 8.10305 4.85113 8.85544C4.8514 9.62567 4.93008 9.97633 5.23618 10.5714C5.38593 10.8625 5.51444 11.0221 5.94989 11.4576C6.38534 11.8931 6.54492 12.0217 6.83595 12.1715C7.43093 12.4776 7.78153 12.5563 8.55163 12.5566C9.30037 12.5568 9.49444 12.5148 10.1105 12.2191L10.4799 12.0418L10.8264 12.3864C11.017 12.5759 11.173 12.746 11.173 12.7644C11.173 12.8081 10.7322 13.0297 10.3266 13.1899C9.45981 13.5323 8.44986 13.6159 7.52803 13.4216C5.97875 13.095 4.4926 12.1268 3.15717 10.5739C2.82781 10.191 2.31341 9.51882 2.22913 9.36129C2.19683 9.30097 2.26358 9.18318 2.544 8.80569C3.0272 8.15527 3.45732 7.64867 3.89692 7.212C4.27994 6.83151 4.76597 6.4099 4.82152 6.4099C4.83919 6.4099 4.96986 6.52738 5.1119 6.67094ZM7.93317 9.49269C8.53767 10.0976 9.01832 10.6066 9.00127 10.6236C8.98422 10.6406 8.81663 10.6633 8.62877 10.6739C7.69461 10.727 6.87666 10.0421 6.72 9.07571C6.67109 8.77419 6.71713 8.39277 6.80242 8.39277C6.81983 8.39277 7.32868 8.88774 7.93317 9.49269Z" fill="#9DBDA9"/>
</svg>
