<svg width="66" height="27" viewBox="0 0 66 27" fill="none" xmlns="http://www.w3.org/2000/svg">
<path d="M31.3216 4.69519V11.2656H35.3179C36.2699 11.2656 37.0568 10.942 37.6787 10.2928C38.3188 9.64553 38.6379 8.87319 38.6379 7.97948C38.6379 7.10416 38.3188 6.34101 37.6787 5.69188C37.055 5.02619 36.268 4.69335 35.3179 4.69335L31.3216 4.69519ZM31.3216 13.579V21.2013H28.9355V2.38184H35.2653C36.8736 2.38184 38.2372 2.92615 39.3632 4.01111C40.5073 5.09607 41.0766 6.42008 41.0766 7.97948C41.0766 9.57382 40.5073 10.907 39.3632 11.9736C38.2571 13.0438 36.89 13.5771 35.2653 13.5771L31.3216 13.579Z" fill="white"/>
<path d="M43.4882 17.2569C43.4882 17.8895 43.7512 18.4136 44.2806 18.8347C44.8082 19.2539 45.4265 19.4654 46.1355 19.4654C47.14 19.4654 48.0321 19.0884 48.819 18.3363C49.606 17.5824 49.9994 16.6979 49.9994 15.6828C49.256 15.0851 48.2171 14.7891 46.8862 14.7891C45.9179 14.7891 45.1092 15.0263 44.4619 15.4989C43.8146 15.9715 43.4882 16.5563 43.4882 17.2569ZM46.5761 7.90234C48.3404 7.90234 49.7329 8.37862 50.7537 9.33486C51.7745 10.2911 52.2822 11.5986 52.2822 13.2628V21.2013H49.9994V19.4139H49.8961C48.9097 20.8851 47.5969 21.6206 45.9542 21.6206C44.5526 21.6206 43.3794 21.2013 42.4384 20.361C41.4955 19.5187 41.0241 18.4687 41.0241 17.2054C41.0241 15.874 41.5191 14.8148 42.5146 14.0278C43.51 13.2389 44.8373 12.8453 46.4963 12.8453C47.9142 12.8453 49.0819 13.1083 49.9976 13.6342V13.0826C49.9976 12.2422 49.6694 11.5287 49.013 10.9421C48.3549 10.3536 47.5879 10.0612 46.7048 10.0612C45.3721 10.0612 44.3187 10.6294 43.5408 11.7696L41.4375 10.429C42.5998 8.74273 44.3096 7.90234 46.5761 7.90234Z" fill="white"/>
<path d="M65.3854 8.32227L57.4182 26.8769H54.9559L57.9132 20.3855L52.6731 8.32227H55.2678L59.0555 17.5738H59.1063L62.7889 8.32227H65.3854Z" fill="white"/>
<path d="M21.6776 11.9347C21.6776 11.1734 21.6141 10.4378 21.4945 9.73535H11.4276V13.9005H17.1936C16.947 15.2576 16.1981 16.4124 15.0631 17.1866V19.8917H18.5045C20.5172 18.0086 21.6776 15.2245 21.6776 11.9347Z" fill="#4285F4"/>
<path d="M11.428 22.5028C14.3091 22.5028 16.7334 21.5447 18.5031 19.8916L15.0616 17.1865C14.1043 17.8393 12.8713 18.2218 11.428 18.2218C8.64473 18.2218 6.28214 16.3204 5.43537 13.7588H1.8924V16.5447C3.64757 20.0754 7.25945 22.5028 11.428 22.5028Z" fill="#34A853"/>
<path d="M5.43716 13.7575C5.22139 13.1047 5.10172 12.4077 5.10172 11.6887C5.10172 10.9697 5.21958 10.2727 5.43716 9.61993V6.83398H1.89237C1.16709 8.29408 0.755493 9.94174 0.755493 11.6887C0.755493 13.4357 1.16527 15.0852 1.89237 16.5434L5.43716 13.7575Z" fill="#FABB05"/>
<path d="M11.4283 5.15512C13.0003 5.15512 14.411 5.70312 15.5225 6.77704V6.77888L18.5686 3.69319C16.7192 1.94806 14.3076 0.875977 11.4283 0.875977C7.25792 0.875977 3.64785 3.3015 1.89087 6.83405L5.43566 9.62C6.28242 7.05656 8.64501 5.15512 11.4283 5.15512Z" fill="#E94235"/>
</svg>
