<svg width="100" height="100" viewBox="0 0 100 100" fill="none" xmlns="http://www.w3.org/2000/svg">
<path fill-rule="evenodd" clip-rule="evenodd" d="M48.3728 6.80473V13.6095H50.074H51.7752V6.80473V0H50.074H48.3728V6.80473ZM37.0192 1.6716C36.1854 1.91465 35.503 2.15444 35.503 2.20459C35.503 2.40784 38.8942 15.1269 38.968 15.2009C39.0916 15.3244 42.0886 14.4167 42.0646 14.263C41.9925 13.8012 38.691 1.38891 38.6213 1.31746C38.5741 1.26923 37.8531 1.42855 37.0192 1.6716ZM25 6.7429C24.3084 7.1821 23.7639 7.62544 23.7899 7.72781C23.8546 7.98181 30.3309 19.2167 30.458 19.2953C30.6024 19.3845 33.0621 17.8467 33.0621 17.6672C33.0621 17.4808 26.4325 5.92692 26.3314 5.93698C26.2907 5.94098 25.6916 6.3037 25 6.7429ZM14.6692 14.6945L13.6121 15.7587L18.4642 20.6092L23.3163 25.4596L24.371 24.2916L25.4259 23.1234L20.576 18.3769L15.7262 13.6305L14.6692 14.6945ZM80.3558 19.4223C77.7293 22.0497 75.6297 24.2491 75.6904 24.3096C75.7991 24.4185 85.355 14.9731 85.355 14.7568C85.355 14.6953 85.3047 14.645 85.2432 14.645C85.1818 14.645 82.9824 16.7948 80.3558 19.4223ZM69.9704 15.3846C69.8833 15.5473 69.8454 15.6805 69.8861 15.6805C69.9268 15.6805 70.0312 15.5473 70.1183 15.3846C70.2055 15.2219 70.2433 15.0888 70.2027 15.0888C70.162 15.0888 70.0575 15.2219 69.9704 15.3846ZM69.3787 16.4201C69.2916 16.5828 69.2537 16.716 69.2944 16.716C69.3351 16.716 69.4395 16.5828 69.5266 16.4201C69.6138 16.2574 69.6516 16.1243 69.6109 16.1243C69.5703 16.1243 69.4658 16.2574 69.3787 16.4201ZM68.8609 17.3077C68.7348 17.5518 68.6648 17.7515 68.7055 17.7515C68.7462 17.7515 68.8827 17.5518 69.0089 17.3077C69.1351 17.0636 69.205 16.8639 69.1644 16.8639C69.1237 16.8639 68.9871 17.0636 68.8609 17.3077ZM68.3432 18.1953C68.2561 18.358 68.2182 18.4911 68.2589 18.4911C68.2996 18.4911 68.404 18.358 68.4911 18.1953C68.5783 18.0325 68.6161 17.8994 68.5754 17.8994C68.5348 17.8994 68.4303 18.0325 68.3432 18.1953ZM6.75399 25.0061L6.08388 26.1889L6.4074 26.3972C6.58521 26.5117 9.22707 28.0438 12.2781 29.8018C17.0593 32.5567 17.8459 32.9649 17.9734 32.7572C18.0547 32.6247 18.399 32.088 18.7383 31.5645L19.3555 30.6129L19.0342 30.4104C18.5565 30.1092 8.43373 24.3441 7.89112 24.0642L7.42411 23.8234L6.75399 25.0061ZM87.5447 27.9504C81.1099 31.6617 81.326 31.5259 81.4775 31.7612C81.5581 31.8865 83.329 30.9488 87.4308 28.6092C90.6419 26.7775 93.322 25.2266 93.3864 25.1627C93.4509 25.0988 93.4176 24.9763 93.3124 24.8904C93.1695 24.7735 91.7141 25.5457 87.5447 27.9504ZM1.74852 37.0518L1.37278 38.3047L2.1287 38.5209C4.31834 39.1472 14.1793 41.716 14.3942 41.716C14.5374 41.716 14.645 41.6013 14.645 41.4488C14.645 41.3019 14.7855 40.7657 14.9572 40.2571C15.129 39.7487 15.2377 39.3009 15.1991 39.2621C15.133 39.1962 2.39083 35.7991 2.20858 35.799C2.16213 35.7988 1.95518 36.3626 1.74852 37.0518ZM91.5311 38.5701C85.9811 40.042 85.0592 40.3251 85.0592 40.5575C85.0592 40.7065 85.1531 40.8284 85.2677 40.8284C85.4306 40.8284 97.0501 37.8043 98.0987 37.4891C98.2564 37.4416 98.3155 37.3132 98.2664 37.125C98.2246 36.9651 98.1482 36.8386 98.0966 36.8441C98.0451 36.8494 95.0907 37.626 91.5311 38.5701ZM0 50.074V51.3314H6.80473H13.6095V50.074V48.8166H6.80473H0V50.074ZM86.3905 49.926V50.2959H93.1953H100V49.926V49.5562H93.1953H86.3905V49.926ZM7.69231 60.1416C4.23447 61.0679 1.39808 61.8278 1.3892 61.83C1.3605 61.8376 1.95503 63.9777 1.99941 64.0266C2.04512 64.0771 14.9475 60.6935 15.0323 60.6089C15.0598 60.5812 14.9701 60.0802 14.8328 59.4953C14.6217 58.5957 14.5367 58.4339 14.2812 58.4445C14.1152 58.4515 11.1501 59.2151 7.69231 60.1416ZM85.142 59.4109C85.0885 59.624 85.0646 59.8169 85.0889 59.8398C85.1133 59.8626 88.0578 60.6541 91.6325 61.5987C98.3658 63.3778 98.4334 63.3886 98.3367 62.6581C98.304 62.4118 97.4314 62.142 92.0118 60.7024C88.554 59.7837 85.6155 59.0302 85.4819 59.028C85.3416 59.0254 85.1982 59.187 85.142 59.4109ZM12.2731 70.3515C9.22485 72.1067 6.58343 73.6374 6.40325 73.7534L6.07574 73.9644L6.67692 74.9232C7.2284 75.8028 7.30444 75.8683 7.59616 75.7148C8.05207 75.475 18.3522 69.5396 18.7457 69.2899L19.0744 69.0815L18.622 68.3056C18.3731 67.8788 18.0899 67.4465 17.9925 67.345C17.8524 67.1988 16.6596 67.8259 12.2731 70.3515ZM81.5873 68.1867L81.3596 68.6269L83.0984 69.6481C84.0547 70.2098 86.4682 71.6185 88.4615 72.7784C90.4549 73.9385 92.2987 75.0161 92.559 75.1731L93.0321 75.4586L93.2632 75.0118C93.4836 74.5854 93.4789 74.5553 93.1598 74.3524C92.7505 74.0922 82.5725 68.1519 82.1309 67.9157C81.8525 67.7667 81.7879 67.799 81.5873 68.1867ZM18.6751 79.7716C16.0518 82.3959 13.9053 84.6068 13.9053 84.6846C13.9053 84.8784 15.1129 86.0947 15.3053 86.0947C15.3905 86.0947 17.616 83.9382 20.2507 81.3027L25.0411 76.5105L24.3346 75.7553C23.946 75.3398 23.587 75 23.5365 75C23.4862 75 21.2987 77.1472 18.6751 79.7716ZM75.7751 75.629L75.3019 76.1173L80.0704 80.884C82.6932 83.5058 84.9102 85.6509 84.9972 85.6509C85.188 85.6509 85.7988 85.0229 85.7988 84.8269C85.7988 84.7503 83.65 82.5396 81.0237 79.9142L76.2485 75.1407L75.7751 75.629ZM30.7095 81.2586C30.5549 81.5049 24.4191 92.1646 24.1688 92.6216C24.1411 92.6722 24.4818 92.9549 24.9259 93.2497L25.7336 93.7859L25.9429 93.4536C26.4217 92.6939 32.3766 82.3089 32.4216 82.1553C32.4484 82.0633 32.12 81.7509 31.6916 81.4611L30.9127 80.9342L30.7095 81.2586ZM68.1953 81.5288C67.9105 81.6864 67.6975 81.8896 67.722 81.9805C67.762 82.1287 73.6976 92.4965 74.2068 93.3071L74.4164 93.641L75.0135 93.3362L75.6106 93.0317L75.2493 92.4108C75.0506 92.0694 73.5439 89.4601 71.9013 86.6124C70.2587 83.7648 68.8694 81.3916 68.8139 81.3386C68.7584 81.2858 68.48 81.3713 68.1953 81.5288ZM39.497 84.9916C39.497 85.0357 38.7602 87.9712 37.8595 91.5148C36.9589 95.0583 36.2433 97.9762 36.2692 97.9987C36.2953 98.0213 36.6641 98.1401 37.0888 98.2627C37.7938 98.4663 37.8675 98.4648 37.9358 98.2444C38.2012 97.3883 41.2722 85.6185 41.2722 85.4574C41.2722 85.3391 40.9669 85.1874 40.5213 85.0846C39.6834 84.8911 39.497 84.8743 39.497 84.9916ZM59.2825 85.0892C58.9775 85.1701 58.7278 85.3277 58.7278 85.4391C58.7278 85.6044 61.2567 94.9003 62.0722 97.7327L62.2925 98.4979L62.988 98.266C63.3704 98.1385 63.7024 98.0192 63.7256 98.001C63.7487 97.9828 62.9666 95.0604 61.9874 91.5065C61.0083 87.9528 60.2071 85.0149 60.2071 84.9781C60.2071 84.8843 59.9275 84.9179 59.2825 85.0892ZM49.2604 93.1953V100H50.074H50.8876V93.1953V86.3905H50.074H49.2604V93.1953Z" fill="#6FC05F"/>
</svg>
