<svg width="139" height="25" viewBox="0 0 139 25" fill="none" xmlns="http://www.w3.org/2000/svg">
<path d="M24.3977 3.44238H14.0419V22.3093H24.3977V3.44238Z" fill="#FF5F00"/>
<path d="M14.6994 12.8786C14.6961 9.19586 16.3629 5.71642 19.2198 3.44346C14.0814 -0.652543 6.64162 0.253976 2.60121 5.46313C-1.43921 10.6723 -0.54499 18.2144 4.59347 22.3104C8.88702 25.7298 14.9263 25.7298 19.2198 22.3104C16.3629 20.0374 14.6961 16.558 14.6994 12.8786Z" fill="#EB001B"/>
<path d="M38.3699 12.8779C38.3699 19.5035 33.0704 24.876 26.5347 24.876C23.8817 24.876 21.3042 23.9728 19.2199 22.3097C24.3584 18.2137 25.2526 10.6716 21.2122 5.46246C20.6303 4.71258 19.9596 4.03269 19.2199 3.44279C24.3584 -0.653217 31.7981 0.24997 35.8385 5.45912C37.479 7.57211 38.3699 10.185 38.3699 12.8746V12.8779Z" fill="#F79E1B"/>
<path fill-rule="evenodd" clip-rule="evenodd" d="M81.039 7.46683C81.039 8.58679 81.0105 8.62995 80.2679 8.62995C79.5824 8.62995 79.4968 8.71602 79.4968 9.40536C79.4968 10.0877 79.5857 10.1808 80.2389 10.1808H80.9807L81.0817 12.9237C81.1794 15.5751 81.2077 15.688 81.9289 16.312C82.5739 16.8697 82.8615 16.9416 84.0508 16.8426C85.7201 16.7033 86.0334 16.4518 85.6854 15.5314C85.4512 14.9118 85.363 14.8762 84.6659 15.1204C84.1274 15.3094 83.7465 15.3037 83.3707 15.1015C82.8931 14.8446 82.8383 14.5769 82.8383 12.498V10.1808H84.2521C85.6514 10.1808 85.6658 10.173 85.6658 9.40536C85.6658 8.6377 85.6514 8.62995 84.2521 8.62995H82.8383V7.46683C82.8383 6.30991 82.8335 6.30371 81.9387 6.30371C81.0439 6.30371 81.039 6.30991 81.039 7.46683ZM106.762 8.58136C106.419 8.63434 105.87 8.85482 105.541 9.07142C105.001 9.42708 104.944 9.42475 104.944 9.04738C104.944 8.74264 104.701 8.62995 104.044 8.62995H103.145V14.0578V19.4857H104.044H104.944V17.6364C104.944 15.8162 104.952 15.7943 105.448 16.2453C106.273 16.9969 108.059 17.062 109.258 16.3843C112.512 14.5456 111.853 9.42242 108.266 8.6695C107.782 8.56792 107.105 8.52811 106.762 8.58136ZM47.0577 12.6365L46.9808 16.6433L47.8162 16.6428L48.6516 16.6426L48.6555 14.2517C48.6575 12.8528 48.7932 11.5946 48.9822 11.2191C49.6266 9.93859 51.6475 9.85846 52.2063 11.0914C52.3718 11.4568 52.5073 12.8554 52.5073 14.1992V16.6426H53.2447H53.9822L54.104 13.8862C54.2135 11.4126 54.2857 11.0813 54.8088 10.6553C55.5738 10.0324 56.7487 10.0518 57.3911 10.6977C57.8399 11.149 57.9052 11.5592 57.9052 13.9286V16.6426H58.8048H59.7045L59.7029 14.1225C59.7006 9.78713 59.0197 8.62995 56.4711 8.62995C55.4018 8.62995 54.9515 8.7641 54.3904 9.24925L53.6745 9.86854L52.9427 9.24925C51.9878 8.44127 50.2944 8.40198 49.3289 9.16576L48.6516 9.70131V9.16576C48.6516 8.74471 48.4892 8.62995 47.8931 8.62995H47.1345L47.0577 12.6365ZM63.0458 9.21151C61.3056 10.4062 60.7506 12.8425 61.7642 14.84C62.7088 16.7017 65.5301 17.5245 66.9955 16.3652C67.5569 15.9212 67.6728 15.8992 67.6728 16.236C67.6728 16.5283 67.9257 16.6426 68.5725 16.6426H69.4721V12.6363V8.62995H68.5725C67.9373 8.62995 67.6728 8.746 67.6728 9.02438C67.6728 9.37771 67.5941 9.37771 66.9145 9.02438C65.784 8.43661 64.0529 8.52036 63.0458 9.21151ZM72.9054 8.88635C72.1184 9.20557 71.5285 10.1627 71.5285 11.1201C71.5285 12.2348 72.6756 13.1933 74.2929 13.429C75.7691 13.6443 76.4123 13.9529 76.4123 14.4455C76.4123 15.3303 74.2683 15.6443 72.7065 14.9881C71.8819 14.6417 71.8325 14.6534 71.558 15.2587C71.1753 16.1036 71.1221 16.0256 72.4214 16.5244C73.8976 17.0915 76.1509 16.939 77.1297 16.2063C78.5411 15.1496 78.5329 13.3708 77.1122 12.5C76.6565 12.2206 76.0524 11.9908 75.7697 11.9896C75.4869 11.9883 74.8219 11.866 74.2917 11.7179C73.593 11.523 73.3278 11.3082 73.3278 10.9376C73.3278 9.93756 75.053 9.75146 76.9449 10.5475C77.2232 10.6649 77.443 10.5098 77.6517 10.0495C78.0471 9.17688 78.0751 9.23968 77.1451 8.91375C76.1966 8.5811 73.6971 8.56507 72.9054 8.88635ZM89.0074 9.04841C87.8137 9.80031 87.3525 10.7101 87.2549 12.5057C87.1772 13.9356 87.2544 14.3225 87.7692 15.0917C88.8781 16.7475 91.2393 17.3743 93.2255 16.5397C94.3318 16.075 94.4719 15.8193 93.9948 15.1346C93.6306 14.6115 93.5588 14.6006 92.8617 14.9633C91.3169 15.7663 89.0074 15.0579 89.0074 13.7805C89.0074 13.3173 89.2161 13.2824 91.986 13.2824H94.9646L94.7831 12.1839C94.5292 10.6476 94.0022 9.72432 93.0432 9.13655C92.0333 8.517 89.924 8.47125 89.0074 9.04841ZM96.7187 12.6363V16.6426H97.4898H98.2609V14.3331C98.2609 12.0276 98.5357 10.7525 99.1125 10.3839C99.2804 10.2764 99.8379 10.187 100.351 10.1847C101.242 10.181 101.581 9.81142 101.599 8.8238C101.606 8.45135 99.3595 8.6209 99.0321 9.01766C98.856 9.2309 98.6105 9.40536 98.4866 9.40536C98.3625 9.40536 98.2609 9.2309 98.2609 9.01766C98.2609 8.75919 98.0039 8.62995 97.4898 8.62995H96.7187V12.6363ZM114.61 9.12673C113.379 9.94298 112.792 11.1299 112.792 12.8074C112.792 14.4696 113.261 15.3285 114.709 16.3195C115.725 17.0153 117.22 17.0801 118.376 16.4792C118.937 16.1874 119.217 16.1476 119.284 16.35C119.338 16.511 119.719 16.6426 120.131 16.6426H120.881V12.6363V8.62995H120.11C119.596 8.62995 119.338 8.75919 119.338 9.01766C119.338 9.49996 119.096 9.4979 118.454 9.00939C117.726 8.45574 115.521 8.52294 114.61 9.12673ZM124.178 9.07245C123.435 9.53537 122.937 10.409 122.937 11.2467C122.937 12.1966 124.274 13.2372 125.746 13.4336C126.48 13.5313 127.318 13.8058 127.61 14.0434C128.108 14.4492 128.114 14.5016 127.705 14.9126C127.164 15.4569 125.152 15.4975 124.173 14.9839C123.533 14.6482 123.451 14.6655 123.094 15.2142C122.65 15.8945 122.738 16.0333 123.932 16.5361C125.752 17.3022 128.746 16.7684 129.387 15.564C129.532 15.2923 129.614 14.6422 129.571 14.1199C129.471 12.9275 128.407 12.1348 126.577 11.8908C125.139 11.699 124.492 11.1759 124.973 10.5938C125.455 10.0089 126.39 9.90292 127.665 10.2888C128.768 10.6225 128.876 10.6137 129.11 10.1735C129.51 9.42268 129.419 9.21694 128.554 8.91375C127.337 8.48727 124.978 8.57283 124.178 9.07245ZM132.796 8.88635C131.476 9.42216 130.961 11.5292 131.917 12.4902C132.41 12.9862 133.945 13.5368 134.842 13.5393C135.529 13.5417 136.303 14.0219 136.303 14.4455C136.303 15.3267 134.16 15.6446 132.61 14.9935C131.84 14.6696 131.734 14.681 131.462 15.1194C130.987 15.8842 131.09 16.0553 132.312 16.5244C133.789 17.0915 136.042 16.939 137.021 16.2063C138.319 15.2341 138.434 13.4238 137.247 12.6417C136.923 12.4277 135.912 12.1015 135.002 11.9169C133.616 11.6357 133.334 11.4884 133.265 11.0107C133.112 9.94815 134.757 9.75973 136.916 10.5928C137.094 10.6615 137.373 10.4237 137.536 10.0645C137.805 9.47101 137.763 9.3759 137.08 9.02076C136.266 8.59738 133.706 8.517 132.796 8.88635ZM92.3875 10.6054C92.6209 10.8166 92.8702 11.2147 92.9419 11.4899C93.0625 11.9534 92.9227 11.9901 91.0396 11.9901C88.9267 11.9901 88.6228 11.798 89.3287 10.9084C90.1371 9.88974 91.4537 9.75921 92.3875 10.6054ZM66.8346 10.576C67.4862 11.035 67.9278 12.4018 67.7412 13.3825C67.67 13.757 67.2559 14.3646 66.8212 14.7325C65.2206 16.0868 63.046 14.8842 63.046 12.6448C63.046 11.705 63.1766 11.4085 63.837 10.85C64.7417 10.0844 65.9763 9.97167 66.8346 10.576ZM108.893 10.8621C109.81 11.7846 109.839 13.4569 108.955 14.49C107.724 15.9292 105.231 15.1755 104.847 13.2483C104.665 12.331 105.212 10.8662 105.884 10.4736C106.78 9.94944 108.163 10.128 108.893 10.8621ZM118.395 10.7088C119.738 11.7719 119.506 14.207 117.986 14.9976C116.164 15.9447 114.293 14.5164 114.554 12.3783C114.791 10.4315 116.89 9.51909 118.395 10.7088Z" fill="white"/>
</svg>
