<svg width="47" height="15" viewBox="0 0 47 15" fill="none" xmlns="http://www.w3.org/2000/svg">
<path d="M7.18905 6.79887C6.87851 6.79887 6.58178 6.79887 6.26328 6.79887C6.26328 5.23775 6.26328 3.68841 6.26328 2.13907C6.24523 2.13318 6.22665 2.12675 6.2086 2.12086C6.17038 2.2028 6.12845 2.28259 6.095 2.36667C5.61301 3.5738 5.12836 4.78039 4.65539 5.99126C4.58266 6.17817 4.4903 6.25797 4.28805 6.23655C4.04493 6.21084 3.74554 6.29546 3.56984 6.17924C3.40369 6.06945 3.36281 5.76312 3.27257 5.54033C2.84525 4.4837 2.42006 3.42652 1.99274 2.36989C1.96407 2.29866 1.92797 2.23065 1.85154 2.16852C1.85154 3.70394 1.85154 5.23989 1.85154 6.79405C1.52667 6.79405 1.23046 6.79405 0.913025 6.79405C0.913025 4.83609 0.913025 2.87812 0.913025 0.881064C1.36052 0.881064 1.8165 0.873566 2.27195 0.890168C2.33035 0.89231 2.4036 1.01334 2.43651 1.09314C2.91691 2.27242 3.39095 3.45384 3.86763 4.63419C3.92072 4.76539 3.97805 4.895 4.05502 5.07601C4.32149 4.41782 4.56992 3.80355 4.81835 3.18928C5.09863 2.49574 5.38475 1.80435 5.65282 1.10599C5.72183 0.926585 5.8126 0.866604 5.99998 0.874102C6.38802 0.889097 6.77712 0.878386 7.18852 0.878386C7.18905 2.85135 7.18905 4.80877 7.18905 6.79887Z" fill="#9DBDA9"/>
<path d="M4.89535 9.65931C4.7361 9.91638 4.59171 10.1488 4.46484 10.3534C4.06247 10.2163 3.68983 10.0438 3.29914 9.96993C2.98701 9.91102 2.64727 9.93673 2.33037 9.99082C2.13555 10.024 1.93012 10.1472 1.78361 10.288C1.43273 10.6249 1.51926 11.1439 1.97365 11.3083C2.36753 11.4513 2.79644 11.4957 3.20889 11.5873C3.4414 11.6392 3.67868 11.6799 3.90216 11.7597C4.46272 11.9595 4.87783 12.3097 4.94949 12.947C5.02275 13.5967 4.7913 14.1253 4.25729 14.4964C3.59056 14.9596 2.83997 15.0127 2.0692 14.8868C1.47945 14.7904 0.925788 14.5917 0.424683 14.1772C0.587648 13.9341 0.743712 13.7022 0.86368 13.5233C1.34568 13.6984 1.78574 13.9084 2.24915 14.0101C2.57349 14.0813 2.93817 14.0465 3.26835 13.9785C3.4844 13.9341 3.70681 13.7793 3.86288 13.6127C4.13307 13.3241 4.0561 12.8967 3.69567 12.7419C3.35965 12.5973 2.9886 12.5336 2.63029 12.4468C2.30489 12.3681 1.96622 12.3344 1.64931 12.2316C1.10521 12.0554 0.735219 11.6858 0.649224 11.0967C0.560575 10.4916 0.728318 9.9635 1.20554 9.56291C1.63923 9.19928 2.15891 9.06914 2.70832 9.04397C3.48864 9.00755 4.21004 9.19981 4.89535 9.65931Z" fill="#9DBDA9"/>
<path d="M45.367 6.7983C45.083 6.7983 44.8128 6.7983 44.5304 6.7983C44.516 6.66549 44.5028 6.54553 44.489 6.41699C43.4374 7.11053 42.4559 7.03823 41.7546 6.22848C41.0789 5.44819 41.0762 4.13449 41.7483 3.33706C42.4325 2.52463 43.3928 2.44805 44.5017 3.14051C44.5017 2.33183 44.5017 1.54297 44.5017 0.736435C44.8037 0.736435 45.0739 0.736435 45.3675 0.736435C45.367 2.74421 45.367 4.75572 45.367 6.7983ZM43.37 3.4929C42.6677 3.49076 42.1644 4.01935 42.1544 4.76858C42.1448 5.50067 42.6634 6.06407 43.3519 6.06942C44.0436 6.07478 44.5569 5.53013 44.5611 4.78679C44.5654 4.03702 44.0669 3.49504 43.37 3.4929Z" fill="#9DBDA9"/>
<path d="M31.4104 10.2375C31.1731 10.3977 30.9332 10.5599 30.6688 10.7383C30.207 10.1267 29.5949 9.85193 28.8422 9.93387C28.3305 9.98903 27.8931 10.2054 27.5581 10.6087C26.8638 11.4441 26.9482 12.829 27.736 13.5558C28.5651 14.3205 29.7484 14.2043 30.6736 13.2489C30.9082 13.423 31.1466 13.5997 31.3812 13.7738C30.8918 14.6938 29.5063 15.1614 28.2631 14.8486C26.9456 14.5166 26.1291 13.3946 26.135 11.924C26.1403 10.5701 26.9944 9.44759 28.2604 9.13162C29.5392 8.8119 30.9146 9.28639 31.4104 10.2375Z" fill="#9DBDA9"/>
<path d="M39.8786 11.339C39.8786 10.526 39.8786 9.76338 39.8786 8.98523C40.1695 8.98523 40.4307 8.98523 40.7152 8.98523C40.7152 10.9234 40.7152 12.8626 40.7152 14.8414C40.4753 14.8414 40.2401 14.8484 40.006 14.8356C39.962 14.8329 39.9041 14.7584 39.8845 14.7049C39.8601 14.6363 39.868 14.5555 39.8606 14.4676C38.8902 15.1376 37.8864 15.0626 37.2335 14.2893C36.5487 13.4774 36.5753 12.1808 37.293 11.4188C37.9751 10.6947 38.9789 10.6465 39.8786 11.339ZM39.9312 12.8969C39.9333 12.1653 39.446 11.6383 38.7697 11.6405C38.1062 11.6426 37.6184 12.1653 37.6136 12.8792C37.6088 13.6022 38.1099 14.1431 38.7782 14.1377C39.4449 14.1318 39.9291 13.6102 39.9312 12.8969Z" fill="#9DBDA9"/>
<path d="M36.1814 3.13893C36.1905 3.0179 36.1984 2.90704 36.2085 2.77476C36.4872 2.77476 36.7643 2.77476 37.0621 2.77476C37.0621 4.10346 37.0621 5.4359 37.0621 6.7903C36.7813 6.7903 36.5052 6.7903 36.2149 6.7903C36.2032 6.66659 36.1915 6.54823 36.1756 6.379C35.7048 6.86689 35.1591 6.98899 34.5518 6.87331C34.0916 6.78548 33.7126 6.55252 33.4137 6.19156C32.7539 5.39413 32.7783 4.08953 33.4636 3.30388C34.1531 2.51341 35.1219 2.45022 36.1814 3.13893ZM36.2489 4.79753C36.2547 4.04401 35.7605 3.49775 35.0678 3.49293C34.3591 3.48758 33.8607 4.00492 33.8479 4.75843C33.8352 5.5007 34.3389 6.05981 35.029 6.06945C35.7233 6.07909 36.243 5.53712 36.2489 4.79753Z" fill="#9DBDA9"/>
<path d="M11.287 3.14747C11.2965 3.00662 11.304 2.89362 11.3125 2.76723C11.6028 2.76723 11.881 2.76723 12.1745 2.76723C12.1745 4.11306 12.1745 5.44497 12.1745 6.79455C11.8852 6.79455 11.6081 6.79455 11.3167 6.79455C11.3045 6.66656 11.2933 6.5482 11.2817 6.42235C10.1643 7.10946 9.2162 7.03341 8.52984 6.21241C7.85833 5.40963 7.87426 4.08843 8.56381 3.30224C9.25548 2.51338 10.2264 2.45179 11.287 3.14747ZM10.1521 3.4929C9.44764 3.49022 8.95556 4.0172 8.9545 4.775C8.95344 5.52959 9.44977 6.06996 10.1446 6.07103C10.8352 6.0721 11.3486 5.5237 11.3501 4.7825C11.3517 4.03541 10.8501 3.49558 10.1521 3.4929Z" fill="#9DBDA9"/>
<path d="M24.888 5.10808C24.3768 5.10808 23.8922 5.10808 23.407 5.10808C22.9309 5.10808 22.4547 5.10808 21.9775 5.10808C22.0263 6.12295 23.08 6.39715 24.2988 5.71379C24.4358 5.91248 24.5748 6.11384 24.7389 6.35109C24.5419 6.47266 24.3742 6.60494 24.1852 6.68795C23.6523 6.92199 23.0933 6.9809 22.5253 6.84754C21.6176 6.63386 21.0708 5.90605 21.0183 4.8628C20.9445 3.39647 22.1336 2.36179 23.5042 2.70187C23.9532 2.81326 24.3073 3.06604 24.5579 3.4586C24.8732 3.95237 24.9576 4.49595 24.888 5.10808ZM23.9761 4.40652C23.9469 3.79385 23.5148 3.41682 22.8948 3.44842C22.3873 3.47413 21.9743 3.91328 21.9993 4.40652C22.6575 4.40652 23.3162 4.40652 23.9761 4.40652Z" fill="#9DBDA9"/>
<path d="M9.32295 13.2029C8.36161 13.2029 7.42947 13.2029 6.49627 13.2029C6.57801 14.1995 7.56377 14.4539 8.74009 13.7946C8.87227 13.9869 9.00551 14.1808 9.13609 14.3709C8.57129 14.9412 7.45495 15.1121 6.68365 14.7629C5.96172 14.4362 5.52166 13.6522 5.57846 12.7942C5.6464 11.7697 6.17299 11.0757 7.02497 10.8882C8.23102 10.6226 9.2258 11.3691 9.32135 12.617C9.33462 12.8007 9.32295 12.986 9.32295 13.2029ZM6.49892 12.5436C7.14176 12.5436 7.78406 12.5436 8.42637 12.5436C8.42212 12.0102 8.02665 11.6069 7.50803 11.5941C6.95119 11.5801 6.53979 11.9636 6.49892 12.5436Z" fill="#9DBDA9"/>
<path d="M42.5285 13.2006C42.5795 14.1887 43.578 14.4474 44.7707 13.7983C44.9029 13.99 45.0367 14.1839 45.1683 14.3751C44.5616 14.9744 43.363 15.1238 42.5986 14.7093C41.8501 14.3033 41.4684 13.4025 41.6431 12.4546C41.8894 11.1158 43.225 10.4281 44.3901 11.0408C45.1736 11.4526 45.3982 12.3454 45.3632 13.04C45.3547 13.2124 45.2395 13.2012 45.1206 13.2012C44.3509 13.2001 43.5811 13.2006 42.8114 13.2006C42.7175 13.2006 42.623 13.2006 42.5285 13.2006ZM44.4724 12.5457C44.3901 11.9148 43.991 11.5565 43.4458 11.5956C42.9171 11.6336 42.5301 12.0342 42.5365 12.5457C43.1767 12.5457 43.8168 12.5457 44.4724 12.5457Z" fill="#9DBDA9"/>
<path d="M25.4623 13.2006C24.9453 13.2006 24.4787 13.2006 24.0121 13.2006C23.554 13.2006 23.0954 13.2006 22.5948 13.2006C22.6452 13.553 22.7801 13.825 23.0566 13.9926C23.6904 14.3777 24.2765 14.1603 24.8556 13.7923C24.9915 13.9867 25.1226 14.1731 25.2633 14.3739C25.2022 14.4313 25.1587 14.4864 25.103 14.5228C24.3959 14.9877 23.6342 15.0835 22.8528 14.7772C21.9604 14.427 21.5268 13.4169 21.7614 12.3383C21.9647 11.4027 22.6925 10.8243 23.6527 10.835C24.5477 10.8447 25.2213 11.422 25.3992 12.3576C25.4491 12.6232 25.4411 12.9001 25.4623 13.2006ZM24.5562 12.5445C24.5254 11.9672 24.122 11.5805 23.5774 11.5939C23.0444 11.6073 22.6351 12.0122 22.6282 12.5445C23.2631 12.5445 23.8969 12.5445 24.5562 12.5445Z" fill="#9DBDA9"/>
<path d="M34.0752 10.8351C35.2696 10.8394 36.1401 11.7139 36.138 12.9071C36.1359 14.0682 35.2451 14.9449 34.064 14.9492C32.884 14.9535 31.9758 14.0521 31.9816 12.8825C31.9874 11.7021 32.8782 10.8308 34.0752 10.8351ZM32.8548 12.9023C32.858 13.6103 33.3888 14.1464 34.0763 14.1367C34.7695 14.1271 35.2706 13.5942 35.2648 12.8729C35.2589 12.1536 34.744 11.6325 34.0476 11.6395C33.358 11.647 32.8516 12.1825 32.8548 12.9023Z" fill="#9DBDA9"/>
<path d="M13.1189 6.37037C13.2532 6.15187 13.3817 5.94354 13.5207 5.717C13.9794 6.04101 14.4704 6.16633 14.9943 6.11866C15.1902 6.10099 15.4009 6.04743 15.5682 5.94782C15.8389 5.78662 15.8192 5.46262 15.5289 5.34051C15.2974 5.24304 15.0352 5.22001 14.7873 5.16164C14.5219 5.09951 14.2469 5.06096 13.9937 4.96509C13.5844 4.80978 13.3222 4.51523 13.293 4.0493C13.2606 3.52661 13.4517 3.12066 13.9173 2.87699C14.4794 2.58244 15.0798 2.59583 15.677 2.72864C15.9742 2.79505 16.2582 2.92037 16.5964 3.03605C16.4483 3.30864 16.3278 3.52982 16.2423 3.68781C15.7486 3.60052 15.2964 3.50197 14.8393 3.45056C14.6891 3.43342 14.5028 3.50519 14.3722 3.59409C14.1073 3.7751 14.1551 4.10982 14.4582 4.21532C14.6732 4.28977 14.9073 4.3053 15.1292 4.36046C15.436 4.43704 15.7545 4.49167 16.0422 4.61591C16.8899 4.98009 16.7832 6.01905 16.2991 6.44053C16.219 6.51015 16.134 6.57602 16.0432 6.63011C15.2831 7.08211 13.8477 6.96483 13.1189 6.37037Z" fill="#9DBDA9"/>
<path d="M17.9176 3.56621C17.641 3.56621 17.3979 3.56621 17.1394 3.56621C17.1394 3.28505 17.1394 3.0328 17.1394 2.75539C17.3958 2.75539 17.64 2.75539 17.908 2.75539C17.908 2.34248 17.908 1.9526 17.908 1.54291C18.2085 1.54291 18.4845 1.54291 18.7988 1.54291C18.7988 1.94029 18.7988 2.33552 18.7988 2.757C19.3264 2.757 19.8175 2.757 20.3233 2.757C20.3233 3.02959 20.3233 3.27541 20.3233 3.55175C19.8281 3.55175 19.3376 3.55175 18.802 3.55175C18.802 3.80988 18.8009 4.03803 18.802 4.26617C18.8036 4.64052 18.7908 5.01594 18.8126 5.38868C18.8444 5.93655 19.172 6.1679 19.6975 6.02598C19.8748 5.97832 20.0431 5.89745 20.257 5.81551C20.3621 6.02812 20.4736 6.25305 20.5829 6.4737C20.0781 6.94927 19.0732 7.05424 18.5132 6.70292C18.0949 6.4405 17.9463 6.02866 17.9298 5.56488C17.9102 5.00416 17.9203 4.44183 17.9181 3.88058C17.9171 3.78525 17.9176 3.68939 17.9176 3.56621Z" fill="#9DBDA9"/>
<path d="M14.1663 10.9531C14.4412 10.9531 14.695 10.9531 14.9816 10.9531C14.9869 11.05 14.996 11.1432 14.996 11.2369C14.9975 11.879 14.9864 12.5217 15.0013 13.1633C15.0177 13.8702 15.4456 14.2188 16.1367 14.115C16.5736 14.0491 16.8502 13.7481 16.865 13.2661C16.8857 12.6068 16.8788 11.9465 16.8836 11.2867C16.8841 11.1823 16.8836 11.0779 16.8836 10.9579C17.1697 10.9579 17.4224 10.9579 17.6729 10.9579C17.6862 10.9745 17.7069 10.9884 17.7069 11.0023C17.708 11.8399 17.7494 12.6808 17.6952 13.5151C17.6379 14.4031 16.8034 15.0152 15.8586 14.9451C14.738 14.8615 14.1716 14.2751 14.1482 13.1461C14.1339 12.4596 14.1461 11.7725 14.1472 11.0859C14.1466 11.0505 14.1567 11.0157 14.1663 10.9531Z" fill="#9DBDA9"/>
<path d="M31.8918 5.65255C32.075 5.8582 32.2454 6.04939 32.4126 6.2379C31.998 6.82861 31.0627 7.07121 30.2356 6.81415C29.3582 6.54156 28.8178 5.7709 28.8119 4.78282C28.8066 3.8274 29.3316 3.04818 30.1751 2.76005C31.0064 2.47621 31.9752 2.7081 32.4152 3.3122C32.2401 3.50125 32.0617 3.69405 31.887 3.88256C30.9613 3.36897 30.4018 3.38932 29.9856 3.9404C29.6023 4.44863 29.6422 5.26802 30.0727 5.72056C30.5255 6.19613 31.1433 6.17845 31.8918 5.65255Z" fill="#9DBDA9"/>
<path d="M12.9007 13.7401C13.0695 13.9302 13.2277 14.1085 13.3822 14.2831C13.1709 14.7416 12.2881 15.0693 11.4749 14.8963C10.6245 14.7153 10.0432 14.0486 9.94504 13.1328C9.84259 12.1725 10.2986 11.3382 11.1134 10.997C11.9229 10.658 12.8869 10.8465 13.4018 11.4662C13.2335 11.6488 13.0621 11.8346 12.8758 12.037C12.5244 11.7511 12.1459 11.5358 11.7026 11.6798C11.4712 11.7553 11.2265 11.8967 11.0704 12.0799C10.6728 12.5458 10.7216 13.34 11.1272 13.7819C11.5551 14.2473 12.1475 14.2387 12.9007 13.7401Z" fill="#9DBDA9"/>
<path d="M25.9247 6.81261C25.9247 5.44215 25.9247 4.11077 25.9247 2.76655C26.2109 2.76655 26.4795 2.76655 26.7581 2.76655C26.773 2.87955 26.7863 2.98077 26.8043 3.1184C27.3378 2.59624 27.9371 2.55554 28.6171 2.7537C28.5444 3.05574 28.477 3.33423 28.4074 3.62235C28.2641 3.5854 28.1558 3.55273 28.0449 3.5297C27.3113 3.376 26.8049 3.78141 26.7964 4.53707C26.7895 5.19633 26.7858 5.85613 26.7996 6.51539C26.8043 6.74406 26.7512 6.84421 26.5081 6.81636C26.3255 6.79601 26.1392 6.81261 25.9247 6.81261Z" fill="#9DBDA9"/>
<path d="M38.3584 2.76361C38.6689 2.76361 38.9322 2.76361 39.2135 2.76361C39.2215 2.8809 39.2284 2.99015 39.239 3.14331C39.7794 2.59331 40.3877 2.55957 41.0704 2.74915C40.9987 3.0512 40.934 3.32487 40.8681 3.60174C40.6372 3.5664 40.4238 3.51177 40.2088 3.50588C39.7115 3.49142 39.3484 3.77794 39.282 4.27546C39.2305 4.66159 39.2438 5.05736 39.2379 5.44938C39.2316 5.89335 39.2364 6.33679 39.2364 6.81128C38.9693 6.81128 38.7326 6.81985 38.4974 6.80432C38.4481 6.80111 38.3642 6.71114 38.3642 6.66079C38.3568 5.37012 38.3584 4.07838 38.3584 2.76361Z" fill="#9DBDA9"/>
<path d="M18.8912 10.9588C19.1385 10.9588 19.3981 10.9588 19.6657 10.9588C19.6768 11.0622 19.6864 11.1495 19.698 11.2577C19.7432 11.2378 19.7862 11.2309 19.8127 11.2057C20.2289 10.8062 20.7268 10.7869 21.2523 10.8828C21.3914 10.9079 21.4562 10.9653 21.4121 11.1184C21.3537 11.323 21.3081 11.5313 21.2518 11.7584C21.118 11.73 21.0012 11.7038 20.8834 11.6807C20.2045 11.549 19.7405 11.881 19.7007 12.5805C19.6646 13.2033 19.6869 13.8294 19.6837 14.4538C19.6832 14.569 19.6837 14.6836 19.6837 14.841C19.4353 14.841 19.2086 14.8496 18.9835 14.8341C18.9347 14.8308 18.853 14.7393 18.853 14.6884C18.8508 13.4572 18.8572 12.2265 18.863 10.9952C18.863 10.9883 18.8737 10.9813 18.8912 10.9588Z" fill="#9DBDA9"/>
<path d="M46.4184 6.62217L46.4074 6.63768L46.425 6.63982L46.4184 6.62217Z" fill="#FD0C15"/>
<path d="M46.4184 6.62217L46.425 6.63982L46.4074 6.63768L46.4184 6.62217Z" fill="#FD0C15"/>
</svg>
