<svg width="16" height="10" viewBox="0 0 16 10" fill="none" xmlns="http://www.w3.org/2000/svg">
<path fill-rule="evenodd" clip-rule="evenodd" d="M5.82825 9.00104H10.1487V1.07751H5.82825V9.00104Z" fill="#FF5F00"/>
<path fill-rule="evenodd" clip-rule="evenodd" d="M6.11149 5C6.11149 3.40509 6.85006 1.9847 8 1.06908C7.15881 0.399439 6.09772 0 4.94426 0C2.21356 0 0 2.2387 0 5C0 7.7613 2.21356 10 4.94426 10C6.09772 10 7.15881 9.60056 8 8.93092C6.85006 8.01535 6.11149 6.59491 6.11149 5Z" fill="#EB001B"/>
<path fill-rule="evenodd" clip-rule="evenodd" d="M15.9892 4.99983C15.9892 7.76155 13.7755 10 11.0447 10C9.89117 10 8.83004 9.60055 7.98914 8.93088C9.13912 8.01561 9.87745 6.59484 9.87745 4.99983C9.87745 3.40487 9.13912 1.98443 7.98914 1.06879C8.83004 0.399453 9.89117 0 11.0447 0C13.7755 0 15.9892 2.23845 15.9892 4.99983Z" fill="#F79E1B"/>
</svg>
