<?xml version="1.0" encoding="utf-8"?>
<svg viewBox="0.436 0.01 271.148 126.734" xmlns="http://www.w3.org/2000/svg">
  <path id="path4" style="fill: rgb(157, 189, 169); fill-rule: evenodd;" d="M 0.436 0.01 L 120.819 0.01 C 122.208 0.21 123.617 0.176 125.011 0.347 C 135.272 1.337 145.221 5.248 153.441 11.466 C 160.837 17.013 166.86 24.379 170.804 32.744 C 174.58 40.709 176.426 49.579 176.167 58.389 C 187.585 58.384 198.999 58.387 210.416 58.387 C 212.628 58.407 214.843 58.331 217.053 58.464 C 226.385 58.924 235.588 61.74 243.583 66.576 C 255.565 73.752 264.821 85.39 268.97 98.738 C 271.811 107.751 272.353 117.469 270.514 126.741 C 239.056 126.738 207.6 126.738 176.144 126.738 C 170.168 126.692 164.167 126.94 158.218 126.229 C 148.784 125.152 139.566 122.188 131.272 117.559 C 114.934 108.52 102.305 92.971 96.977 75.06 C 96.22 72.395 95.64 69.683 95.174 66.952 C 87.212 66.945 79.248 66.978 71.286 66.937 C 61.688 66.834 52.107 64.837 43.304 61 C 32.076 56.141 22.14 48.348 14.72 38.624 C 8.194 30.044 3.426 20.01 1.523 9.363 C 0.981 6.473 0.641 3.549 0.436 0.619 L 0.436 0.01 Z M 63.416 22.455 C 63.416 29.829 63.416 37.202 63.416 44.576 C 65.762 44.576 68.105 44.576 70.45 44.576 C 70.447 40.238 70.455 35.903 70.445 31.568 C 70.552 31.55 70.77 31.512 70.877 31.491 C 72.24 35.844 73.573 40.207 74.908 44.568 C 76.593 44.586 78.279 44.571 79.964 44.576 C 81.327 40.2 82.645 35.806 84.026 31.435 C 84.11 31.484 84.284 31.581 84.368 31.63 C 84.432 35.949 84.345 40.269 84.412 44.589 C 86.77 44.561 89.128 44.584 91.486 44.576 C 91.486 37.202 91.486 29.826 91.486 22.453 C 89.097 22.458 86.709 22.44 84.322 22.46 C 82.619 22.481 81.013 23.706 80.578 25.36 C 79.675 28.486 78.765 31.611 77.88 34.744 C 77.747 35.028 77.767 35.489 77.402 35.583 C 77.149 35.391 77.117 35.052 77.015 34.775 C 76.12 31.64 75.22 28.506 74.307 25.376 C 73.854 23.706 72.238 22.455 70.504 22.455 C 68.143 22.445 65.78 22.455 63.416 22.455 Z M 94.43 44.576 C 96.793 44.576 99.159 44.578 101.524 44.576 C 101.524 37.202 101.524 29.826 101.524 22.453 C 99.159 22.45 96.793 22.453 94.43 22.453 C 94.425 29.826 94.425 37.202 94.43 44.576 Z M 103.865 22.455 C 103.98 27.274 108.256 31.445 113.039 31.637 C 117.602 31.683 122.17 31.658 126.734 31.65 C 126.939 30.322 126.868 28.944 126.413 27.675 C 125.418 24.716 122.494 22.537 119.366 22.463 C 114.2 22.44 109.031 22.455 103.865 22.455 Z M 104.338 32.941 C 104.338 36.819 104.338 40.696 104.338 44.573 C 106.704 44.578 109.07 44.576 111.435 44.576 C 111.438 42.402 111.432 40.228 111.435 38.054 C 112.402 38.054 113.371 38.054 114.338 38.051 C 115.673 40.228 117.006 42.404 118.348 44.576 C 121.049 44.571 123.75 44.586 126.448 44.568 C 124.88 42.202 123.307 39.844 121.73 37.486 C 123.875 36.699 125.747 35.082 126.625 32.946 C 119.195 32.931 111.768 32.941 104.338 32.941 Z M 176.093 59.921 C 175.968 62.277 175.651 64.62 175.249 66.945 C 149.085 66.968 122.919 66.95 96.755 66.952 C 98.279 76.714 102.282 85.993 107.834 94.131 C 113.353 102.2 120.551 109.113 128.832 114.305 C 137.574 119.812 147.535 123.357 157.786 124.628 C 163.443 125.365 169.163 125.18 174.853 125.203 C 206.306 125.206 237.759 125.196 269.213 125.208 C 270.882 115.958 270.021 106.29 266.898 97.433 C 262.593 85.124 253.81 74.474 242.609 67.814 C 234.388 62.865 224.867 60.136 215.275 59.926 C 202.217 59.914 189.155 59.926 176.093 59.921 Z M 144.251 81.28 C 144.794 81.277 145.341 81.277 145.888 81.28 C 149.346 88.733 152.784 96.198 156.242 103.653 C 155.604 103.656 154.97 103.656 154.339 103.656 C 153.408 101.587 152.454 99.528 151.533 97.456 C 147.203 97.451 142.87 97.456 138.541 97.454 C 137.581 99.515 136.656 101.592 135.709 103.659 C 135.111 103.656 134.515 103.653 133.921 103.653 C 137.351 96.191 140.822 88.745 144.251 81.28 Z M 139.254 95.914 C 143.106 95.924 146.96 95.917 150.814 95.919 C 148.876 91.694 146.968 87.459 145.042 83.228 C 143.119 87.459 141.177 91.684 139.254 95.914 Z M 230.363 82.3 C 230.895 82.3 231.426 82.3 231.961 82.3 C 231.961 84.026 231.961 85.753 231.961 87.476 C 233.856 87.482 235.754 87.476 237.652 87.479 C 237.649 87.968 237.649 88.459 237.652 88.95 C 235.754 88.95 233.856 88.947 231.961 88.95 C 231.964 92.469 231.956 95.988 231.964 99.505 C 231.966 100.523 232.437 101.613 233.391 102.078 C 234.729 102.705 236.286 102.441 237.585 101.838 C 237.583 102.357 237.585 102.876 237.59 103.397 C 235.744 104.178 233.398 104.255 231.762 102.963 C 230.813 102.2 230.378 100.96 230.365 99.771 C 230.358 96.165 230.365 92.556 230.363 88.95 C 229.572 88.95 228.782 88.95 227.997 88.947 C 227.994 88.456 227.994 87.968 227.997 87.479 C 228.785 87.479 229.572 87.479 230.363 87.479 C 230.363 85.753 230.36 84.026 230.363 82.3 Z M 159.561 90.313 C 161.6 87.538 165.451 86.382 168.699 87.484 C 170.203 87.952 171.446 88.963 172.554 90.049 C 172.173 90.479 171.789 90.906 171.383 91.31 C 170.042 89.837 168.231 88.597 166.168 88.62 C 163.937 88.513 161.751 89.766 160.605 91.661 C 159.006 94.18 159.188 97.671 161.037 100.014 C 162.301 101.643 164.372 102.641 166.444 102.51 C 168.456 102.454 170.244 101.27 171.551 99.812 C 171.924 100.142 172.3 100.474 172.674 100.81 C 171.267 102.536 169.231 103.822 166.978 104.004 C 164.326 104.321 161.561 103.252 159.835 101.211 C 157.195 98.242 157.091 93.415 159.561 90.313 Z M 176.792 89.679 C 179.329 86.855 183.904 86.244 187.101 88.282 C 187.91 88.781 188.615 89.425 189.285 90.093 C 188.892 90.489 188.498 90.883 188.104 91.275 C 186.753 89.911 185.061 88.666 183.063 88.625 C 180.623 88.436 178.211 89.87 177.099 92.027 C 175.485 94.911 176.129 98.894 178.712 101.007 C 180.531 102.587 183.291 102.986 185.467 101.94 C 186.546 101.457 187.449 100.671 188.26 99.825 C 188.638 100.154 189.014 100.485 189.395 100.817 C 187.933 102.543 185.874 103.876 183.569 104.014 C 180.556 104.357 177.48 102.85 175.861 100.3 C 173.699 97.088 174.126 92.472 176.792 89.679 Z M 194.306 88.717 C 196.93 86.528 201.137 86.51 203.697 88.812 C 205.764 90.651 206.508 93.551 206.383 96.234 C 201.905 96.244 197.429 96.239 192.951 96.236 C 193.13 98.753 194.638 101.275 197.099 102.126 C 199.802 103.162 202.95 102.114 204.805 99.968 C 205.186 100.308 205.569 100.651 205.951 100.996 C 204.518 102.536 202.639 103.756 200.505 103.97 C 198.142 104.321 195.623 103.628 193.874 101.975 C 190.191 98.548 190.403 91.893 194.306 88.717 Z M 195.823 89.528 C 194.091 90.689 193.165 92.743 192.951 94.769 C 196.851 94.771 200.751 94.761 204.652 94.774 C 204.478 92.953 203.846 91.07 202.432 89.84 C 200.636 88.257 197.767 88.157 195.823 89.528 Z M 211.688 90.978 C 212.958 89.024 214.948 87.395 217.332 87.142 C 220.636 86.671 224.058 88.633 225.394 91.676 C 226.754 94.707 226.427 98.533 224.317 101.144 C 222.478 103.477 219.237 104.579 216.363 103.812 C 214.406 103.323 212.805 101.935 211.693 100.295 C 211.693 103.098 211.693 105.904 211.693 108.707 C 211.158 108.707 210.623 108.705 210.094 108.707 C 210.094 101.631 210.094 94.556 210.094 87.479 C 210.623 87.479 211.158 87.479 211.693 87.479 C 211.69 88.645 211.695 89.812 211.688 90.978 Z M 216.409 88.898 C 215.449 89.178 214.575 89.704 213.833 90.367 C 211.385 92.569 210.907 96.543 212.639 99.318 C 213.762 101.203 215.882 102.454 218.079 102.5 C 220.373 102.564 222.659 101.265 223.659 99.18 C 225.028 96.354 224.68 92.584 222.378 90.336 C 220.831 88.845 218.467 88.234 216.409 88.898 Z"/>
</svg>