<svg width="47" height="14" viewBox="0 0 47 14" fill="none" xmlns="http://www.w3.org/2000/svg">
<path fill-rule="evenodd" clip-rule="evenodd" d="M42.0413 0.274536H33.106C33.5863 3.25297 36.4687 6.03924 39.6393 6.03924H46.7491C46.8452 5.75101 46.8452 5.36669 46.8452 5.07846C46.8452 2.38826 44.7314 0.274536 42.0413 0.274536Z" fill="url(#paint0_linear)"/>
<path fill-rule="evenodd" clip-rule="evenodd" d="M33.8745 6.51963V13.7255H38.198V9.88238H42.0412C44.1549 9.88238 45.9804 8.4412 46.5569 6.51963H33.8745Z" fill="#00754E"/>
<path fill-rule="evenodd" clip-rule="evenodd" d="M18.502 0.274536V13.7255H22.3451C22.3451 13.7255 23.3059 13.7255 23.7863 12.7647C26.3804 7.5765 27.149 6.03924 27.149 6.03924H27.6294V13.7255H31.9529V0.274536H28.1098C28.1098 0.274536 27.149 0.370615 26.6686 1.23532C24.4588 5.65493 23.3059 7.96081 23.3059 7.96081H22.8255V0.274536H18.502Z" fill="#00754E"/>
<path fill-rule="evenodd" clip-rule="evenodd" d="M0.24707 13.7255V0.274536H4.5706C4.5706 0.274536 5.81962 0.274536 6.49217 2.1961C8.22158 7.28826 8.41374 7.96081 8.41374 7.96081C8.41374 7.96081 8.79805 6.71179 10.3353 2.1961C11.0079 0.274536 12.2569 0.274536 12.2569 0.274536H16.5804V13.7255H12.2569V6.51963H11.7765L9.37452 13.7255H7.45295L5.05099 6.51963H4.5706V13.7255H0.24707Z" fill="#00754E"/>
<defs>
<linearGradient id="paint0_linear" x1="33.0812" y1="3.15689" x2="46.8452" y2="3.15689" gradientUnits="userSpaceOnUse">
<stop stop-color="#02AFFF"/>
<stop offset="1" stop-color="#1F5BD7"/>
</linearGradient>
</defs>
</svg>