<svg width="129" height="20" viewBox="0 0 129 20" fill="none" xmlns="http://www.w3.org/2000/svg">
<path fill-rule="evenodd" clip-rule="evenodd" d="M4.70321 0.054525C4.70321 0.0678634 4.65768 0.0787767 4.60204 0.0787767C4.54639 0.0787767 4.50086 0.0896899 4.50086 0.103028C4.50086 0.116367 4.45534 0.12728 4.39969 0.12728C4.34405 0.12728 4.29852 0.138193 4.29852 0.151531C4.29852 0.16487 4.27575 0.175783 4.24793 0.175783C4.22011 0.175783 4.19734 0.186696 4.19734 0.200035C4.19734 0.213373 4.17458 0.224286 4.14676 0.224286C4.11893 0.224286 4.09617 0.2352 4.09617 0.248538C4.09617 0.261876 4.07798 0.27279 4.05573 0.27279C4.03349 0.27279 3.98339 0.305529 3.94441 0.345544C3.90543 0.38556 3.86084 0.418299 3.84534 0.418299C3.8058 0.418299 3.43854 0.774386 3.43854 0.812703C3.43854 0.829995 3.41578 0.859848 3.38795 0.87908C3.36006 0.89836 3.33737 0.941867 3.33737 0.976086C3.33737 1.01031 3.31468 1.05381 3.28678 1.07309C3.25155 1.09744 3.23619 1.13588 3.23619 1.19971C3.23619 1.25011 3.22481 1.29136 3.2109 1.29136C3.19699 1.29136 3.18561 1.3241 3.18561 1.36411C3.18561 1.40413 3.17423 1.43687 3.16031 1.43687C3.14458 1.43687 3.13502 1.5743 3.13502 1.80064C3.13502 2.02698 3.14458 2.16442 3.16031 2.16442C3.17423 2.16442 3.18561 2.19715 3.18561 2.23717C3.18561 2.27719 3.19699 2.30992 3.2109 2.30992C3.22481 2.30992 3.23619 2.34266 3.23619 2.38268C3.23619 2.42269 3.24758 2.45543 3.26149 2.45543C3.2754 2.45543 3.28678 2.48817 3.28678 2.52819C3.28678 2.5682 3.29816 2.60094 3.31207 2.60094C3.32599 2.60094 3.33737 2.63368 3.33737 2.6737C3.33737 2.71371 3.34875 2.74645 3.36266 2.74645C3.37657 2.74645 3.38795 2.76828 3.38795 2.79496C3.38795 2.82163 3.39934 2.84346 3.41325 2.84346C3.42716 2.84346 3.43854 2.86529 3.43854 2.89196C3.43854 2.91864 3.44992 2.94047 3.46384 2.94047C3.47775 2.94047 3.48913 2.9579 3.48913 2.97925C3.48913 3.00056 3.52327 3.0486 3.56501 3.08598C3.60674 3.12335 3.64089 3.16899 3.64089 3.18735C3.64089 3.20573 3.66365 3.23651 3.69148 3.25574C3.7193 3.27497 3.74206 3.30477 3.74206 3.32197C3.74206 3.36004 4.36251 3.95903 4.40194 3.95903C4.41737 3.95903 4.46189 3.99177 4.50086 4.03179C4.53984 4.0718 4.58537 4.10454 4.60204 4.10454C4.61871 4.10454 4.66423 4.13728 4.70321 4.1773C4.74219 4.21731 4.78979 4.25005 4.80894 4.25005C4.82811 4.25005 4.86021 4.27188 4.88026 4.29856C4.90032 4.32523 4.93447 4.34706 4.95615 4.34706C4.97782 4.34706 5.01197 4.36889 5.03203 4.39556C5.05213 4.42231 5.09751 4.44407 5.1332 4.44407C5.16889 4.44407 5.21426 4.46582 5.23437 4.49257C5.25448 4.51932 5.29986 4.54107 5.33555 4.54107C5.37123 4.54107 5.41661 4.56283 5.43672 4.58958C5.45814 4.61805 5.5022 4.63808 5.54348 4.63808C5.58213 4.63808 5.61377 4.64899 5.61377 4.66233C5.61377 4.67567 5.63654 4.68658 5.66436 4.68658C5.69218 4.68658 5.71495 4.6975 5.71495 4.71083C5.71495 4.72417 5.74909 4.73509 5.79083 4.73509C5.84984 4.73509 5.86671 4.74585 5.86671 4.78359C5.86671 4.83178 5.84984 4.83209 3.22175 4.83209C0.963153 4.83209 0.571485 4.83716 0.540653 4.86675C0.486449 4.9187 0.486449 8.48024 0.540653 8.53218C0.595185 8.58447 15.9946 8.58447 16.0491 8.53218C16.1033 8.48024 16.1033 4.9187 16.0491 4.86675C16.0183 4.83716 15.6266 4.83209 13.368 4.83209C10.7399 4.83209 10.723 4.83178 10.723 4.78359C10.723 4.74585 10.7399 4.73509 10.7989 4.73509C10.8407 4.73509 10.8748 4.72417 10.8748 4.71083C10.8748 4.6975 10.8976 4.68658 10.9254 4.68658C10.9532 4.68658 10.976 4.67567 10.976 4.66233C10.976 4.64899 11.0101 4.63808 11.0519 4.63808C11.0936 4.63808 11.1277 4.62717 11.1277 4.61383C11.1277 4.60049 11.1505 4.58958 11.1783 4.58958C11.2061 4.58958 11.2289 4.57866 11.2289 4.56532C11.2289 4.55199 11.2492 4.54107 11.2739 4.54107C11.2987 4.54107 11.3353 4.51925 11.3554 4.49257C11.3755 4.46582 11.4209 4.44407 11.4565 4.44407C11.4922 4.44407 11.5376 4.42231 11.5577 4.39556C11.5778 4.36889 11.6119 4.34706 11.6336 4.34706C11.6553 4.34706 11.6894 4.32523 11.7095 4.29856C11.7295 4.27188 11.7637 4.25005 11.7854 4.25005C11.807 4.25005 11.8412 4.22823 11.8612 4.20155C11.8813 4.17487 11.9131 4.15305 11.932 4.15305C11.9509 4.15305 12.0101 4.10939 12.0636 4.05604C12.1171 4.00269 12.1732 3.95903 12.1883 3.95903C12.2274 3.95903 12.7971 3.40828 12.7971 3.37047C12.7971 3.35328 12.8199 3.32347 12.8477 3.30424C12.8755 3.28501 12.8983 3.25448 12.8983 3.23636C12.8983 3.21824 12.9438 3.1615 12.9994 3.11023C13.0614 3.05316 13.1006 2.99486 13.1006 2.95984C13.1006 2.92839 13.1234 2.88694 13.1512 2.86771C13.1791 2.84843 13.2018 2.80492 13.2018 2.77071C13.2018 2.73649 13.2245 2.69298 13.2524 2.6737C13.2876 2.64935 13.303 2.61091 13.303 2.54708C13.303 2.49669 13.3143 2.45543 13.3283 2.45543C13.3422 2.45543 13.3535 2.43361 13.3535 2.40693C13.3535 2.38025 13.3649 2.35843 13.3788 2.35843C13.3929 2.35843 13.4041 2.29375 13.4041 2.21292C13.4041 2.13209 13.4154 2.06741 13.4294 2.06741C13.4448 2.06741 13.4547 1.96233 13.4547 1.80064C13.4547 1.63896 13.4448 1.53387 13.4294 1.53387C13.4154 1.53387 13.4041 1.46919 13.4041 1.38836C13.4041 1.30753 13.3929 1.24285 13.3788 1.24285C13.3649 1.24285 13.3535 1.22103 13.3535 1.19435C13.3535 1.16767 13.3422 1.14585 13.3283 1.14585C13.3143 1.14585 13.303 1.11551 13.303 1.07845C13.303 1.03887 13.2821 0.996627 13.2524 0.976086C13.2246 0.956855 13.2018 0.924115 13.2018 0.903331C13.2018 0.882548 13.179 0.849808 13.1512 0.830577C13.1234 0.811345 13.1006 0.781492 13.1006 0.764249C13.1006 0.720135 12.6796 0.321293 12.633 0.321293C12.612 0.321293 12.5947 0.31038 12.5947 0.297041C12.5947 0.283703 12.572 0.27279 12.5442 0.27279C12.5163 0.27279 12.4936 0.261876 12.4936 0.248538C12.4936 0.2352 12.4708 0.224286 12.443 0.224286C12.4152 0.224286 12.3924 0.213373 12.3924 0.200035C12.3924 0.186696 12.3696 0.175783 12.3418 0.175783C12.314 0.175783 12.2912 0.16487 12.2912 0.151531C12.2912 0.138193 12.2457 0.12728 12.1901 0.12728C12.1344 0.12728 12.0889 0.116367 12.0889 0.103028C12.0889 0.0896899 12.0661 0.0787767 12.0383 0.0787767C12.0105 0.0787767 11.9877 0.0678634 11.9877 0.054525C11.9877 0.0396103 11.8612 0.0302734 11.6589 0.0302734C11.4565 0.0302734 11.3301 0.0396103 11.3301 0.054525C11.3301 0.0678634 11.2732 0.0787767 11.2036 0.0787767C11.1341 0.0787767 11.0771 0.0896899 11.0771 0.103028C11.0771 0.116367 11.043 0.12728 11.0013 0.12728C10.9595 0.12728 10.9254 0.138193 10.9254 0.151531C10.9254 0.16487 10.8912 0.175783 10.8495 0.175783C10.8078 0.175783 10.7736 0.186696 10.7736 0.200035C10.7736 0.213373 10.7395 0.224286 10.6977 0.224286C10.656 0.224286 10.6219 0.2352 10.6219 0.248538C10.6219 0.261876 10.5991 0.27279 10.5713 0.27279C10.5435 0.27279 10.5207 0.283703 10.5207 0.297041C10.5207 0.31038 10.4979 0.321293 10.4701 0.321293C10.4423 0.321293 10.4195 0.332206 10.4195 0.345544C10.4195 0.358883 10.3993 0.369796 10.3745 0.369796C10.3498 0.369796 10.3131 0.391622 10.2931 0.418299C10.273 0.444976 10.2363 0.466802 10.2116 0.466802C10.1868 0.466802 10.1666 0.477716 10.1666 0.491054C10.1666 0.504392 10.1463 0.515306 10.1216 0.515306C10.0968 0.515306 10.0602 0.537132 10.0401 0.563809C10.0201 0.590486 9.98821 0.612312 9.96932 0.612312C9.95043 0.612312 9.89124 0.655965 9.83777 0.709319C9.7843 0.762672 9.72817 0.806325 9.71305 0.806325C9.67397 0.806325 9.00309 1.45418 9.00309 1.49192C9.00309 1.50911 8.98032 1.53889 8.9525 1.55813C8.92468 1.57736 8.90191 1.6101 8.90191 1.63088C8.90191 1.65166 8.87915 1.6844 8.85133 1.70363C8.8235 1.72287 8.80074 1.75561 8.80074 1.77639C8.80074 1.79717 8.77798 1.82991 8.75015 1.84914C8.72233 1.86838 8.69957 1.90112 8.69957 1.9219C8.69957 1.94268 8.6768 1.97542 8.64898 1.99465C8.62108 2.01393 8.59839 2.05744 8.59839 2.09166C8.59839 2.12588 8.5757 2.16939 8.54781 2.18867C8.51991 2.20795 8.49722 2.25145 8.49722 2.28567C8.49722 2.31989 8.47453 2.3634 8.44663 2.38268C8.41694 2.40322 8.39605 2.44547 8.39605 2.48505C8.39605 2.5221 8.38466 2.55244 8.37075 2.55244C8.35684 2.55244 8.34546 2.57427 8.34546 2.60094C8.34546 2.63327 8.32859 2.64945 8.29487 2.64945C8.25643 2.64945 8.24429 2.63327 8.24429 2.58205C8.24429 2.54247 8.22339 2.50023 8.1937 2.47969C8.1658 2.46041 8.14311 2.4169 8.14311 2.38268C8.14311 2.34846 8.12042 2.30495 8.09253 2.28567C8.06463 2.26639 8.04194 2.22289 8.04194 2.18867C8.04194 2.15445 8.01925 2.11094 7.99135 2.09166C7.96353 2.07243 7.94076 2.03729 7.94076 2.01355C7.94076 1.98983 7.92938 1.9704 7.91547 1.9704C7.90156 1.9704 7.89018 1.94858 7.89018 1.9219C7.89018 1.89522 7.8788 1.8734 7.86488 1.8734C7.85097 1.8734 7.83959 1.85596 7.83959 1.83462C7.83959 1.8133 7.80545 1.76526 7.76371 1.72789C7.72198 1.69051 7.68783 1.64686 7.68783 1.63088C7.68783 1.6149 7.65369 1.57125 7.61195 1.53387C7.57022 1.4965 7.53607 1.45382 7.53607 1.43903C7.53607 1.40422 6.91297 0.806325 6.8767 0.806325C6.86157 0.806325 6.80545 0.762672 6.75198 0.709319C6.69851 0.655965 6.63932 0.612312 6.62043 0.612312C6.60153 0.612312 6.56969 0.590486 6.54963 0.563809C6.52957 0.537132 6.49542 0.515306 6.47375 0.515306C6.45207 0.515306 6.41793 0.493479 6.39787 0.466802C6.37781 0.440126 6.34116 0.418299 6.3164 0.418299C6.29166 0.418299 6.2714 0.407386 6.2714 0.394048C6.2714 0.380709 6.24864 0.369796 6.22081 0.369796C6.19299 0.369796 6.17023 0.358883 6.17023 0.345544C6.17023 0.332206 6.14746 0.321293 6.11964 0.321293C6.09182 0.321293 6.06905 0.31038 6.06905 0.297041C6.06905 0.283703 6.04629 0.27279 6.01847 0.27279C5.99064 0.27279 5.96788 0.261876 5.96788 0.248538C5.96788 0.2352 5.93373 0.224286 5.892 0.224286C5.85027 0.224286 5.81612 0.213373 5.81612 0.200035C5.81612 0.186696 5.79336 0.175783 5.76553 0.175783C5.73771 0.175783 5.71495 0.16487 5.71495 0.151531C5.71495 0.138193 5.65804 0.12728 5.58848 0.12728C5.51892 0.12728 5.46201 0.116367 5.46201 0.103028C5.46201 0.0896899 5.41648 0.0787767 5.36084 0.0787767C5.30519 0.0787767 5.25967 0.0678634 5.25967 0.054525C5.25967 0.0398286 5.15007 0.0302734 4.98144 0.0302734C4.81281 0.0302734 4.70321 0.0398286 4.70321 0.054525ZM5.10791 1.46112C5.10791 1.47446 5.14205 1.48537 5.18379 1.48537C5.22552 1.48537 5.25967 1.49628 5.25967 1.50962C5.25967 1.52296 5.30269 1.53387 5.35525 1.53387C5.42182 1.53387 5.46191 1.54859 5.48731 1.58238C5.50736 1.60905 5.54401 1.63088 5.56878 1.63088C5.59351 1.63088 5.61377 1.64179 5.61377 1.65513C5.61377 1.66847 5.63196 1.67938 5.65422 1.67938C5.67645 1.67938 5.72656 1.71212 5.76553 1.75214C5.80451 1.79215 5.84956 1.82489 5.86562 1.82489C5.88166 1.82489 5.96184 1.89037 6.04376 1.9704C6.12569 2.05043 6.21042 2.11591 6.23207 2.11591C6.2537 2.11591 6.2714 2.13335 6.2714 2.15469C6.2714 2.17601 6.30555 2.22405 6.34728 2.26142C6.38902 2.29879 6.42316 2.34443 6.42316 2.36279C6.42316 2.38118 6.44593 2.41195 6.47375 2.43118C6.50157 2.45041 6.52434 2.48315 6.52434 2.50394C6.52434 2.52472 6.5471 2.55746 6.57492 2.57669C6.60274 2.59592 6.62551 2.63106 6.62551 2.65481C6.62551 2.67853 6.63689 2.69795 6.6508 2.69795C6.66471 2.69795 6.6761 2.71978 6.6761 2.74645C6.6761 2.77313 6.68748 2.79496 6.70139 2.79496C6.7153 2.79496 6.72668 2.81678 6.72668 2.84346C6.72668 2.87014 6.73806 2.89196 6.75198 2.89196C6.76589 2.89196 6.77727 2.91379 6.77727 2.94047C6.77727 2.96714 6.78865 2.98897 6.80256 2.98897C6.81647 2.98897 6.82786 3.0108 6.82786 3.03747C6.82786 3.06415 6.83924 3.08598 6.85315 3.08598C6.86706 3.08598 6.87844 3.1078 6.87844 3.13448C6.87844 3.16116 6.88982 3.18298 6.90374 3.18298C6.91765 3.18298 6.92903 3.20481 6.92903 3.23149C6.92903 3.25816 6.94041 3.27999 6.95432 3.27999C6.96823 3.27999 6.97962 3.31273 6.97962 3.35274C6.97962 3.39276 6.991 3.4255 7.00491 3.4255C7.01882 3.4255 7.0302 3.44733 7.0302 3.474C7.0302 3.50068 7.04158 3.52251 7.0555 3.52251C7.06941 3.52251 7.08079 3.55525 7.08079 3.59526C7.08079 3.65184 7.06956 3.66802 7.0302 3.66802C7.00238 3.66802 6.97962 3.6571 6.97962 3.64376C6.97962 3.63043 6.93409 3.61951 6.87844 3.61951C6.8228 3.61951 6.77727 3.6086 6.77727 3.59526C6.77727 3.58192 6.75451 3.57101 6.72668 3.57101C6.69886 3.57101 6.6761 3.5601 6.6761 3.54676C6.6761 3.53342 6.64195 3.52251 6.60022 3.52251C6.55848 3.52251 6.52434 3.51159 6.52434 3.49825C6.52434 3.48492 6.49019 3.474 6.44846 3.474C6.40672 3.474 6.37257 3.46309 6.37257 3.44975C6.37257 3.43641 6.34981 3.4255 6.32199 3.4255C6.29417 3.4255 6.2714 3.41459 6.2714 3.40125C6.2714 3.38791 6.24864 3.377 6.22081 3.377C6.19299 3.377 6.17023 3.36608 6.17023 3.35274C6.17023 3.33941 6.13608 3.32849 6.09435 3.32849C6.05261 3.32849 6.01847 3.31758 6.01847 3.30424C6.01847 3.2909 5.99821 3.27999 5.97347 3.27999C5.94871 3.27999 5.91206 3.25816 5.892 3.23149C5.87194 3.20481 5.83529 3.18298 5.81053 3.18298C5.78579 3.18298 5.76553 3.17207 5.76553 3.15873C5.76553 3.14539 5.74735 3.13448 5.72509 3.13448C5.70286 3.13448 5.65275 3.10174 5.61377 3.06172C5.5748 3.02171 5.52719 2.98897 5.50805 2.98897C5.48887 2.98897 5.45678 2.96714 5.43672 2.94047C5.41666 2.91379 5.38553 2.89196 5.36754 2.89196C5.34956 2.89196 5.23824 2.79935 5.1202 2.68616C5.00215 2.57298 4.90556 2.46625 4.90556 2.44901C4.90556 2.43176 4.88279 2.40191 4.85497 2.38268C4.82715 2.36345 4.80438 2.33071 4.80438 2.30992C4.80438 2.28914 4.78162 2.2564 4.7538 2.23717C4.7241 2.21663 4.70321 2.17438 4.70321 2.1348C4.70321 2.09775 4.69183 2.06741 4.67792 2.06741C4.66401 2.06741 4.65262 2.04558 4.65262 2.01891C4.65262 1.99223 4.64124 1.9704 4.62733 1.9704C4.61327 1.9704 4.60204 1.90572 4.60204 1.82489C4.60204 1.74406 4.61327 1.67938 4.62733 1.67938C4.64124 1.67938 4.65262 1.66253 4.65262 1.64191C4.65262 1.6213 4.68057 1.57765 4.71472 1.54491C4.74887 1.51217 4.79439 1.48537 4.81589 1.48537C4.83739 1.48537 4.85497 1.47446 4.85497 1.46112C4.85497 1.44778 4.91188 1.43687 4.98144 1.43687C5.051 1.43687 5.10791 1.44778 5.10791 1.46112ZM11.8494 1.52095C11.8977 1.56717 11.9371 1.62174 11.9371 1.64221C11.9371 1.66265 11.9485 1.67938 11.9624 1.67938C11.9763 1.67938 11.9877 1.73395 11.9877 1.80064C11.9877 1.86733 11.9763 1.9219 11.9624 1.9219C11.9485 1.9219 11.9371 1.96555 11.9371 2.01891C11.9371 2.07226 11.9257 2.11591 11.9118 2.11591C11.8979 2.11591 11.8865 2.13774 11.8865 2.16442C11.8865 2.19109 11.8752 2.21292 11.8612 2.21292C11.8473 2.21292 11.8359 2.23036 11.8359 2.2517C11.8359 2.27301 11.8018 2.32106 11.7601 2.35843C11.7183 2.3958 11.6842 2.43853 11.6842 2.45337C11.6842 2.48861 11.2635 2.89196 11.2268 2.89196C11.2113 2.89196 11.1667 2.9247 11.1277 2.96472C11.0888 3.00473 11.0412 3.03747 11.022 3.03747C11.0028 3.03747 10.9707 3.0593 10.9507 3.08598C10.9306 3.11265 10.894 3.13448 10.8692 3.13448C10.8445 3.13448 10.8242 3.14539 10.8242 3.15873C10.8242 3.17207 10.8014 3.18298 10.7736 3.18298C10.7458 3.18298 10.723 3.1939 10.723 3.20723C10.723 3.22057 10.7028 3.23149 10.678 3.23149C10.6533 3.23149 10.6166 3.25331 10.5966 3.27999C10.5765 3.30674 10.5311 3.32849 10.4954 3.32849C10.4597 3.32849 10.4143 3.35025 10.3942 3.377C10.3695 3.40986 10.3287 3.4255 10.2678 3.4255C10.2068 3.4255 10.166 3.44114 10.1413 3.474C10.1159 3.50778 10.0758 3.52251 10.0092 3.52251C9.95667 3.52251 9.91365 3.53342 9.91365 3.54676C9.91365 3.5601 9.89089 3.57101 9.86306 3.57101C9.83524 3.57101 9.81248 3.58192 9.81248 3.59526C9.81248 3.6086 9.76695 3.61951 9.7113 3.61951C9.65566 3.61951 9.61013 3.63043 9.61013 3.64376C9.61013 3.6571 9.57598 3.66802 9.53425 3.66802C9.4435 3.66802 9.42964 3.60157 9.50896 3.54676C9.53685 3.52748 9.55954 3.48397 9.55954 3.44975C9.55954 3.41553 9.58223 3.37202 9.61013 3.35274C9.63982 3.3322 9.66072 3.28996 9.66072 3.25038C9.66072 3.21332 9.6721 3.18298 9.68601 3.18298C9.69992 3.18298 9.7113 3.16116 9.7113 3.13448C9.7113 3.1078 9.72268 3.08598 9.7366 3.08598C9.75051 3.08598 9.76189 3.06415 9.76189 3.03747C9.76189 3.0108 9.77327 2.98897 9.78718 2.98897C9.80109 2.98897 9.81248 2.96714 9.81248 2.94047C9.81248 2.91379 9.82386 2.89196 9.83777 2.89196C9.85168 2.89196 9.86306 2.87014 9.86306 2.84346C9.86306 2.81678 9.87444 2.79496 9.88836 2.79496C9.90227 2.79496 9.91365 2.77313 9.91365 2.74645C9.91365 2.71978 9.92503 2.69795 9.93894 2.69795C9.95285 2.69795 9.96424 2.67853 9.96424 2.65481C9.96424 2.63106 9.987 2.59592 10.0148 2.57669C10.0426 2.55746 10.0654 2.52472 10.0654 2.50394C10.0654 2.48315 10.0882 2.45041 10.116 2.43118C10.1438 2.41195 10.1666 2.38215 10.1666 2.36493C10.1666 2.34771 10.286 2.21915 10.4319 2.07924C10.5778 1.93936 10.7119 1.82489 10.7298 1.82489C10.7478 1.82489 10.7789 1.80307 10.7989 1.77639C10.819 1.74971 10.8531 1.72789 10.8748 1.72789C10.8965 1.72789 10.9306 1.70606 10.9507 1.67938C10.9707 1.65271 11.0074 1.63088 11.0321 1.63088C11.0569 1.63088 11.0771 1.61997 11.0771 1.60663C11.0771 1.59329 11.0999 1.58238 11.1277 1.58238C11.1556 1.58238 11.1783 1.57146 11.1783 1.55813C11.1783 1.54479 11.2125 1.53387 11.2542 1.53387C11.2959 1.53387 11.3301 1.52296 11.3301 1.50962C11.3301 1.49628 11.3642 1.48537 11.406 1.48537C11.4477 1.48537 11.4818 1.47446 11.4818 1.46112C11.4818 1.44778 11.5448 1.43687 11.6218 1.43687C11.7478 1.43687 11.7705 1.44526 11.8494 1.52095ZM0.656269 10.3857C0.656269 10.399 0.638386 10.41 0.616533 10.41C0.502283 10.41 0.504509 10.3728 0.504509 12.2773C0.504509 13.8033 0.509972 14.0807 0.540653 14.1101C0.595185 14.1623 15.9946 14.1623 16.0491 14.1101C16.0798 14.0807 16.0852 13.8034 16.0852 12.278V10.4805L16.0175 10.4156C15.9743 10.3741 15.9461 10.3614 15.9396 10.3803C15.9262 10.4188 0.757442 10.4242 0.757442 10.3857C0.757442 10.3724 0.734678 10.3615 0.706856 10.3615C0.679033 10.3615 0.656269 10.3724 0.656269 10.3857ZM0.605682 15.9636C0.605682 15.9769 0.582918 15.9878 0.555095 15.9878C0.504964 15.9878 0.504509 16.004 0.504509 17.8206C0.504509 19.3766 0.509972 19.6585 0.540653 19.6879C0.571789 19.7178 1.63611 19.7226 8.26892 19.7226H15.9611L16.0231 19.663L16.0852 19.6035V17.831V16.0584L16.0231 15.9989C15.9603 15.9386 15.8829 15.9191 15.8829 15.9636C15.8829 15.9988 15.7381 15.9934 15.7206 15.9575C15.7088 15.9333 15.7029 15.9333 15.6911 15.9575C15.6726 15.9954 15.1241 16.0012 15.1241 15.9636C15.1241 15.9245 1.27181 15.9305 1.25276 15.9696C1.24098 15.9939 1.23506 15.9939 1.22327 15.9696C1.21515 15.953 1.18763 15.9393 1.16214 15.9393C1.13664 15.9393 1.10998 15.953 1.10292 15.9696C1.09326 15.9925 1.08297 15.9911 1.06096 15.9636C1.03896 15.9361 1.02866 15.9346 1.019 15.9575C1.00357 15.9939 0.757442 15.9996 0.757442 15.9636C0.757442 15.9502 0.723296 15.9393 0.681562 15.9393C0.639828 15.9393 0.605682 15.9502 0.605682 15.9636Z" fill="#009FE3"/>
<path fill-rule="evenodd" clip-rule="evenodd" d="M26.7831 5.1633C26.7584 5.22426 26.7492 7.38729 26.7626 9.97013L26.787 14.6662L27.6763 14.6922C28.1654 14.7064 28.6604 14.6957 28.7762 14.6683L28.9868 14.6185V11.3241C28.9868 9.47182 29.0222 8.06654 29.0676 8.11386C29.1119 8.16011 29.2856 8.61669 29.4534 9.12839C30.1437 11.2331 30.4189 12.0138 30.5076 12.1188C30.6104 12.2407 32.4224 12.278 32.5922 12.1618C32.6863 12.0972 33.426 10.0108 33.7774 8.81827C33.878 8.47714 33.9996 8.16011 34.0478 8.11386C34.1021 8.06158 34.1353 9.27618 34.1353 11.3163C34.1353 14.2315 34.1521 14.6091 34.2834 14.6567C34.5012 14.7359 36.1283 14.7196 36.2658 14.637C36.3585 14.5812 36.3785 13.5605 36.3594 9.83156L36.3351 5.09685L34.931 5.07142C34.1587 5.05751 33.4404 5.06619 33.3349 5.09082C33.1736 5.12848 33.0255 5.50275 32.4042 7.44276C31.9978 8.71176 31.6314 9.71779 31.5899 9.67845C31.5483 9.63911 31.2001 8.61545 30.8159 7.4036C30.4318 6.19174 30.0632 5.16764 29.9968 5.12777C29.7885 5.00266 26.8349 5.03536 26.7831 5.1633ZM37.5472 5.16552C37.5081 5.26192 38.1393 6.59605 39.6316 9.57141C39.8149 9.93691 40.1279 10.5749 40.3272 10.9891C40.5264 11.4033 40.7301 11.8098 40.7798 11.8922C40.8856 12.068 40.6943 12.5724 40.4488 12.7653C40.3069 12.8767 39.7028 12.9071 39.1434 12.831C38.9686 12.8072 38.9544 12.8631 38.9293 13.6726L38.9026 14.5396L39.2558 14.6794C39.7069 14.8578 40.9708 14.8019 41.41 14.5841C42.0028 14.2902 42.4147 13.7135 43.0126 12.3401C44.3543 9.25837 46.0179 5.20388 45.9705 5.13132C45.8869 5.00328 43.629 5.03279 43.522 5.1633C43.4721 5.22426 43.3593 5.49336 43.2715 5.76139C42.7886 7.23463 41.9526 9.57123 41.9088 9.57035C41.8453 9.56893 41.5326 8.82155 40.7352 6.76484C40.3815 5.85274 40.0498 5.13238 39.9705 5.10349C39.8933 5.07549 39.3268 5.05255 38.7116 5.05255C37.8914 5.05255 37.5808 5.08267 37.5472 5.16552ZM47.3853 5.1633C47.365 5.22426 47.3254 6.56991 47.2972 8.15373C47.2253 12.19 47.0823 12.7769 46.1565 12.8333C45.9053 12.8487 45.6778 12.8944 45.6511 12.935C45.6244 12.9754 45.616 13.3737 45.6326 13.8199C45.6614 14.5913 45.6743 14.6353 45.8961 14.7151C46.293 14.858 47.3434 14.8114 47.7593 14.6325C48.9202 14.1335 49.3901 12.5267 49.5444 8.5303L49.6067 6.91325H50.4831H51.3595V10.7056C51.3595 13.537 51.3879 14.5248 51.4718 14.6042C51.6125 14.7374 53.6611 14.7526 53.747 14.6211C53.8201 14.5093 53.8154 5.24659 53.7422 5.13459C53.7111 5.08692 52.3753 5.05255 50.5554 5.05255C48.1307 5.05255 47.4136 5.07762 47.3853 5.1633ZM56.196 5.11164C56.1616 5.14407 56.1335 7.26927 56.1335 9.8343C56.1335 13.3433 56.1613 14.5242 56.2459 14.6042C56.4112 14.7607 59.2945 14.7454 60.1892 14.5834C61.7403 14.3024 62.4894 13.6294 62.7914 12.2453C62.8848 11.8171 62.8878 11.5451 62.8048 11.0104C62.5308 9.24508 61.5955 8.49743 59.4711 8.34574L58.643 8.28664L58.656 6.79399C58.6649 5.77122 58.6347 5.26219 58.56 5.17695C58.4776 5.08311 58.1816 5.05255 57.3546 5.05255C56.7516 5.05255 56.2302 5.07913 56.196 5.11164ZM62.7061 5.15772C62.5796 5.27751 62.5481 6.62121 62.6677 6.79931C62.7151 6.87002 63.0859 6.91556 63.7489 6.93222L64.7578 6.95756L64.7489 10.711C64.7424 13.4258 64.7698 14.4984 64.8478 14.5874C64.9901 14.7497 66.9917 14.7642 67.1607 14.6042C67.2446 14.5248 67.2731 13.5376 67.2731 10.7085V6.9191L68.3262 6.89403L69.3793 6.86895V5.9829V5.09685L66.0995 5.07354C63.6267 5.056 62.7917 5.07673 62.7061 5.15772ZM70.8536 5.1112C70.6871 5.17482 70.6825 14.4466 70.849 14.6042C70.9737 14.7223 73.2314 14.7561 73.4178 14.6427C73.5083 14.5876 74.4862 12.2128 75.5233 9.52924C75.6735 9.14052 75.8271 8.79346 75.8647 8.75784C75.9023 8.72231 75.9175 9.98786 75.8987 11.5702C75.8726 13.7608 75.8919 14.4785 75.9798 14.5788C76.1291 14.7491 78.1242 14.7709 78.3003 14.6042C78.4622 14.4509 78.4622 5.31216 78.3003 5.15887C78.1399 5.00709 75.754 5.01099 75.6324 5.1633C75.5838 5.22426 75.2572 6.0117 74.9066 6.91325C74.5561 7.81481 74.2152 8.67207 74.1492 8.81827C74.0831 8.96447 73.8749 9.48165 73.6865 9.96757C73.498 10.4535 73.3105 10.9074 73.2698 10.9763C73.2291 11.0452 73.2171 9.80134 73.2433 8.21212C73.2804 5.95836 73.2648 5.29302 73.1724 5.18767C73.0785 5.08054 72.8381 5.05396 72.0123 5.05955C71.4394 5.06336 70.918 5.08666 70.8536 5.1112ZM59.8821 10.3033C60.213 10.4989 60.346 10.8606 60.346 11.5654C60.346 12.2227 60.3345 12.2581 60.0277 12.5485C59.8372 12.7289 59.6164 12.8498 59.4777 12.8498C59.3503 12.8498 59.1144 12.8747 58.9535 12.9052L58.661 12.9606V11.5216V10.0827L59.1909 10.1453C59.4824 10.1798 59.7934 10.2508 59.8821 10.3033ZM97.1244 5.17252C96.2705 5.50505 95.7518 5.93186 95.2045 6.75261C94.4989 7.81047 94.22 9.83643 94.5707 11.3548C95.0788 13.554 96.5658 14.7995 98.6791 14.7959C99.8914 14.7938 100.66 14.5246 101.481 13.8147C102.42 13.002 103.035 11.4027 103.03 9.78601C103.028 9.07726 102.752 7.80648 102.471 7.20397C102.016 6.23162 101.177 5.48281 100.127 5.11333C99.4517 4.87569 97.8033 4.90821 97.1244 5.17252ZM124.42 5.12334C123.677 5.36665 123.134 5.71053 122.548 6.30941C121.641 7.23702 121.282 8.21735 121.274 9.79292C121.263 11.7604 121.959 13.1718 123.386 14.0754C124.33 14.6726 125.07 14.8401 126.468 14.7725C127.042 14.7448 127.721 14.6697 127.979 14.6056L128.447 14.489L128.473 13.4817L128.5 12.4744L128.239 12.5232C128.096 12.5501 127.747 12.6371 127.464 12.7165C127.112 12.8152 126.718 12.8497 126.22 12.8255C125.599 12.7953 125.433 12.7516 125.1 12.5298C124.557 12.1689 124.124 11.5998 123.943 11.0121C123.73 10.3171 123.797 8.80524 124.067 8.23152C124.337 7.6594 124.874 7.12768 125.361 6.9518C125.936 6.74384 127.243 6.80719 127.872 7.07354C128.122 7.17951 128.364 7.24428 128.41 7.21744C128.517 7.15515 128.517 5.57939 128.411 5.42043C128.132 5.00443 125.404 4.80135 124.42 5.12334ZM86.6932 5.1633C86.6685 5.22426 86.6593 7.36736 86.6727 9.92583L86.697 14.5776H88.9905H91.2839L91.8272 14.3172C92.4548 14.0165 92.952 13.5334 93.2356 12.9492C93.397 12.6165 93.4337 12.3736 93.4311 11.6536C93.4276 10.6549 93.2751 10.2116 92.7345 9.62883C92.1773 9.02817 91.6584 8.85451 90.2074 8.78283L89.1309 8.72966V7.79931V6.86895L90.9563 6.82465L92.7817 6.78035L92.8097 6.11687C92.825 5.75191 92.8137 5.36319 92.7845 5.25297L92.7313 5.05255H89.7347C87.4236 5.05255 86.7277 5.07789 86.6932 5.1633ZM104.501 5.10899C104.465 5.14292 104.436 7.29842 104.436 9.89899V14.6272L105.63 14.6024L106.823 14.5776L106.87 12.6726L106.917 10.7676H108.04H109.163L109.189 12.6947L109.214 14.6219H110.43H111.646L111.621 9.85938L111.597 5.09685H110.427H109.257L109.21 6.91325L109.163 8.72966L108.018 8.75456L106.874 8.77937L106.848 6.93815L106.823 5.09685L105.695 5.07213C105.074 5.05848 104.537 5.07514 104.501 5.10899ZM112.767 5.18669C112.767 5.26041 112.808 5.39004 112.858 5.47466C112.937 5.60837 114.69 9.16587 115.291 10.4132C115.408 10.6568 115.626 11.0993 115.774 11.3964C116.072 11.9933 116.092 12.1204 115.94 12.4372C115.775 12.7786 115.474 12.8806 114.785 12.8282L114.171 12.7816V13.6543C114.171 14.7014 114.194 14.7234 115.342 14.7793C116.024 14.8126 116.136 14.7934 116.605 14.5613C117.425 14.1561 117.69 13.694 119.269 9.92025C120.032 8.09587 120.777 6.33732 120.924 6.01232C121.369 5.03119 121.389 5.05228 120.045 5.05387C119.415 5.05467 118.852 5.08453 118.795 5.12033C118.738 5.15612 118.647 5.32501 118.592 5.49557C118.137 6.90324 117.232 9.45436 117.164 9.51976C117.113 9.56884 117.063 9.5513 117.037 9.47545C116.981 9.31047 116.042 6.89855 115.66 5.9386C115.496 5.52437 115.314 5.15612 115.257 5.12033C115.201 5.08453 114.617 5.05467 113.961 5.05387C112.957 5.05272 112.767 5.07381 112.767 5.18669ZM99.3863 6.78283C99.9744 7.07079 100.293 7.811 100.415 9.17269C100.606 11.3089 100.101 12.7719 99.0849 13.0309C98.3892 13.2083 97.7491 12.8973 97.3931 12.2089C96.8032 11.0688 96.8236 8.46872 97.4306 7.42814C97.844 6.7193 98.6877 6.4409 99.3863 6.78283ZM90.5319 10.7087C91.0672 11.0038 91.1866 11.9404 90.7611 12.506C90.5417 12.7977 90.0386 12.9648 89.5053 12.9233L89.1309 12.8941L89.1045 11.7914C89.0899 11.185 89.1013 10.6314 89.1298 10.5611C89.1989 10.3907 90.1335 10.4891 90.5319 10.7087Z" fill="white"/>
</svg>
