<svg width="41" height="16" viewBox="0 0 41 16" fill="none" xmlns="http://www.w3.org/2000/svg">
<path d="M27.9328 8.89298L28.3356 9.01383C28.3088 9.12797 28.2685 9.22197 28.2081 9.29583C28.1476 9.36968 28.0805 9.43011 27.9932 9.46368C27.9059 9.50396 27.7985 9.52411 27.6642 9.52411C27.5031 9.52411 27.3755 9.50396 27.2681 9.45696C27.1674 9.40997 27.0801 9.3294 27.0062 9.20854C26.9324 9.0944 26.8921 8.93998 26.8921 8.7587C26.8921 8.51699 26.9592 8.32899 27.0868 8.19471C27.2144 8.06043 27.4024 8 27.6374 8C27.8254 8 27.9663 8.04029 28.0738 8.11414C28.1812 8.188 28.2618 8.30214 28.3088 8.46328L27.9059 8.55056C27.8925 8.50356 27.8791 8.46999 27.8589 8.44985C27.8321 8.41628 27.8052 8.38942 27.7649 8.36928C27.7246 8.34914 27.6844 8.34242 27.6441 8.34242C27.5434 8.34242 27.4628 8.38271 27.4091 8.46999C27.3688 8.53042 27.3486 8.63113 27.3486 8.7587C27.3486 8.91984 27.3755 9.03398 27.4225 9.0944C27.4695 9.15483 27.5434 9.1884 27.6306 9.1884C27.7179 9.1884 27.7851 9.16154 27.8254 9.11454C27.8791 9.05412 27.9126 8.98698 27.9328 8.89298Z" fill="#9DBDA9"/>
<path d="M28.4968 8.75858C28.4968 8.51687 28.5639 8.32887 28.6982 8.19459C28.8325 8.06031 29.0205 7.99317 29.2622 7.99317C29.5106 7.99317 29.6986 8.06031 29.8329 8.18788C29.9672 8.32216 30.0343 8.50344 30.0343 8.74515C30.0343 8.91971 30.0074 9.06071 29.947 9.16814C29.8866 9.27556 29.806 9.36285 29.6919 9.42327C29.5845 9.4837 29.4435 9.51727 29.2823 9.51727C29.1145 9.51727 28.9802 9.49041 28.866 9.4367C28.7586 9.38299 28.6713 9.30242 28.5975 9.18156C28.5236 9.06071 28.4968 8.93314 28.4968 8.75858ZM28.9533 8.75858C28.9533 8.90629 28.9802 9.01371 29.0339 9.08085C29.0876 9.14799 29.1615 9.18156 29.2622 9.18156C29.3629 9.18156 29.4367 9.14799 29.4905 9.08757C29.5442 9.02043 29.571 8.90629 29.571 8.74515C29.571 8.60415 29.5442 8.50344 29.4837 8.44301C29.43 8.37587 29.3495 8.34902 29.2555 8.34902C29.1615 8.34902 29.0876 8.38259 29.0339 8.44973C28.9802 8.50344 28.9533 8.61087 28.9533 8.75858Z" fill="#9DBDA9"/>
<path d="M30.2693 8.02002H30.8668L31.0951 8.91971L31.3234 8.02002H31.921V9.49713H31.545V8.36916L31.2563 9.49713H30.9206L30.6318 8.36916V9.49713H30.2559V8.02002H30.2693Z" fill="#9DBDA9"/>
<path d="M32.2164 8.02002H32.9751C33.1429 8.02002 33.2638 8.06031 33.3443 8.14088C33.4249 8.22145 33.4652 8.32887 33.4652 8.47658C33.4652 8.62429 33.4182 8.74515 33.3309 8.82572C33.2436 8.913 33.1026 8.95328 32.9214 8.95328H32.6729V9.50384H32.2164V8.02002ZM32.6729 8.65115H32.7871C32.8744 8.65115 32.9348 8.63772 32.9751 8.60415C33.0086 8.57058 33.0288 8.53701 33.0288 8.49001C33.0288 8.44301 33.0153 8.40273 32.9818 8.36916C32.9482 8.33558 32.8945 8.32216 32.8072 8.32216H32.6796V8.65115H32.6729Z" fill="#9DBDA9"/>
<path d="M33.7069 8.02002H34.1635V9.13456H34.8752V9.49713H33.7069V8.02002Z" fill="#9DBDA9"/>
<path d="M35.1035 8.02002H35.56V9.49713H35.1035V8.02002Z" fill="#9DBDA9"/>
<path d="M36.7954 9.2487H36.2784L36.2045 9.49041H35.7413L36.2985 8.0133H36.7954L37.3527 9.49041H36.876L36.7954 9.2487ZM36.7014 8.93314L36.5403 8.40272L36.3791 8.93314H36.7014Z" fill="#9DBDA9"/>
<path d="M37.4937 8.02002H37.9166L38.4739 8.83914V8.02002H38.9036V9.49713H38.4739L37.9234 8.68472V9.49713H37.4937V8.02002Z" fill="#9DBDA9"/>
<path d="M39.105 8.02002H40.4949V8.38258H40.0316V9.49713H39.575V8.38258H39.1118V8.02002H39.105Z" fill="#9DBDA9"/>
<path d="M22.4406 10.2691L23.7633 9.85278L23.3336 8.89937C23.018 9.2955 22.7025 9.80578 22.4406 10.2691ZM21.9908 5.91159L19.3991 0.137464L0.425049 1.21172L5.68219 15.5531L15.8004 12.3639C15.1558 11.4373 14.9208 10.3362 15.6661 9.79906C16.4986 9.19479 17.7542 9.89306 18.5531 10.88C19.3253 9.59092 21.4939 6.58972 21.9908 5.91159Z" fill="#9DBDA9"/>
<path d="M18.808 4.31036C19.6003 4.31036 20.2449 3.70609 20.2449 2.95411C20.2449 2.20213 19.6003 1.59786 18.808 1.59786C18.0158 1.59786 17.3712 2.20213 17.3712 2.95411C17.3712 3.69937 18.0158 4.31036 18.808 4.31036ZM17.6331 4.89448H19.983V11.0379H17.6331V4.89448Z" fill="#EAEFF6"/>
<path d="M16.4715 6.68715C16.4917 6.69386 16.5051 6.68715 16.5051 6.66701V5.10933C16.5051 5.08919 16.4917 5.06905 16.4715 5.05562C16.4715 5.05562 16.1627 4.8542 15.2227 4.80048C15.1757 4.77363 14.3499 4.76691 14.1283 4.80048C10.7041 5.07576 10.5765 7.55327 10.5765 7.66069V8.26496C10.5765 8.33882 10.5765 10.87 14.1283 11.0916C14.4774 11.1185 15.1556 11.0916 15.2227 11.0916C16.0418 11.0916 16.6058 10.8432 16.6058 10.8432C16.6259 10.8365 16.6394 10.8163 16.6394 10.7962V9.33922C16.6394 9.31908 16.6259 9.31236 16.6125 9.32579C16.6125 9.32579 16.3574 9.52722 15.2428 9.64136C14.9273 9.67493 14.7729 9.6615 14.6587 9.64136C13.0742 9.37279 13.0003 8.21796 13.0003 8.21796C13.0003 8.19782 12.9936 8.16425 12.9936 8.15082V7.70769C12.9936 7.68755 12.9936 7.65398 13.0003 7.64055C13.0003 7.64055 13.1078 6.39844 14.6587 6.26416H15.2428C15.921 6.35144 16.4715 6.68715 16.4715 6.68715Z" fill="#EAEFF6"/>
<path d="M4.05042 11.0176C4.05042 11.0378 4.06384 11.0512 4.08399 11.0512H6.3735C6.39364 11.0512 6.40707 11.0378 6.40707 11.0176V9.23168C6.40707 9.21153 6.42049 9.19811 6.44064 9.19811C6.44064 9.19811 10.0998 9.45996 10.0998 7.00931C10.0998 5.06893 7.8036 4.86079 7.05162 4.89436C7.03819 4.89436 4.08399 4.89436 4.08399 4.89436C4.06384 4.89436 4.05042 4.90779 4.05042 4.92793V11.0176ZM6.36678 7.83514V6.23047H6.93077C6.93077 6.23047 7.74317 6.26404 7.81032 6.82131C7.82374 6.8616 7.82374 7.13687 7.81032 7.1503C7.70289 7.80157 6.99791 7.83514 6.99791 7.83514H6.36678Z" fill="#EAEFF6"/>
<path d="M18.8754 14.0022C19.0634 14.0022 19.2111 14.0022 19.4528 13.8948C20.2854 13.4583 23.0986 6.58981 26.0662 4.47487C26.0864 4.46144 26.1065 4.4413 26.12 4.42116C26.1401 4.3943 26.1401 4.36744 26.1401 4.36744C26.1401 4.36744 26.1401 4.22645 25.7037 4.22645C23.065 4.15259 20.319 9.69173 18.8754 11.8805C18.8553 11.9074 18.7613 11.8805 18.7613 11.8805C18.7613 11.8805 17.7945 10.7391 16.9552 10.3027C16.9351 10.296 16.8411 10.2624 16.7403 10.2691C16.6732 10.2691 16.2838 10.3497 16.1025 10.5377C15.8877 10.766 15.8944 10.8936 15.8944 11.1688C15.8944 11.189 15.9078 11.283 15.9347 11.33C16.1428 11.6925 17.0761 12.9816 17.8482 13.6933C17.9623 13.7806 18.1436 14.0022 18.8754 14.0022Z" fill="#9DBDA9"/>
<path d="M26.8451 2.4003H29.0406C29.477 2.4003 29.8262 2.46073 30.088 2.57487C30.3566 2.69572 30.5781 2.86357 30.746 3.07843C30.9206 3.29999 31.0481 3.55513 31.122 3.84383C31.2025 4.13254 31.2428 4.44139 31.2428 4.77038C31.2428 5.28065 31.1824 5.67678 31.0683 5.95878C30.9541 6.24077 30.793 6.47576 30.5849 6.67047C30.3767 6.85847 30.1551 6.98603 29.9202 7.05317C29.5979 7.14046 29.3025 7.18074 29.0406 7.18074H26.8451V2.4003ZM28.3222 3.48127V6.09306H28.6848C28.9936 6.09306 29.2152 6.05949 29.3427 5.99235C29.4703 5.92521 29.5777 5.80435 29.6516 5.6365C29.7254 5.46865 29.7657 5.18665 29.7657 4.80395C29.7657 4.29368 29.6852 3.95126 29.5173 3.76326C29.3495 3.57527 29.0809 3.48127 28.6915 3.48127H28.3222Z" fill="#9DBDA9"/>
<path d="M31.6523 5.60293L33.0623 5.51564C33.0959 5.74392 33.1563 5.91849 33.2503 6.03934C33.4047 6.23405 33.6196 6.32805 33.9016 6.32805C34.1097 6.32805 34.2776 6.28105 34.3917 6.18034C34.5058 6.07963 34.5663 5.96549 34.5663 5.83792C34.5663 5.71707 34.5126 5.60293 34.4051 5.50222C34.2977 5.4015 34.0426 5.31422 33.6464 5.22694C32.9952 5.07923 32.5386 4.88452 32.2566 4.64281C31.9746 4.4011 31.8403 4.09225 31.8403 3.71626C31.8403 3.46784 31.9142 3.23956 32.0552 3.018C32.1962 2.79643 32.411 2.62858 32.6997 2.50101C32.9885 2.37344 33.3779 2.31301 33.8747 2.31301C34.4857 2.31301 34.9557 2.42715 35.2712 2.65543C35.5935 2.88371 35.7815 3.24628 35.8419 3.74312L34.4454 3.82369C34.4051 3.60884 34.3313 3.45441 34.2104 3.3537C34.0896 3.25299 33.9284 3.20599 33.7203 3.20599C33.5457 3.20599 33.4182 3.23956 33.3309 3.31342C33.2436 3.38727 33.2033 3.47456 33.2033 3.58198C33.2033 3.65584 33.2369 3.72969 33.3107 3.79012C33.3779 3.85055 33.5457 3.91097 33.8076 3.96468C34.4521 4.10568 34.9154 4.24668 35.1974 4.38767C35.4794 4.52867 35.6808 4.70995 35.8084 4.91809C35.9359 5.12622 35.9964 5.36793 35.9964 5.62978C35.9964 5.93863 35.9091 6.22062 35.7412 6.47576C35.5734 6.73761 35.3317 6.93232 35.0295 7.0666C34.7274 7.20088 34.338 7.26802 33.8747 7.26802C33.0623 7.26802 32.4983 7.1136 32.1828 6.79804C31.8739 6.48247 31.6993 6.08634 31.6523 5.60293Z" fill="#9DBDA9"/>
<path d="M36.3724 5.60283L37.7823 5.51555C37.8159 5.74382 37.8763 5.91839 37.9703 6.03925C38.1248 6.23396 38.3396 6.32795 38.6216 6.32795C38.8297 6.32795 38.9976 6.28095 39.1117 6.18024C39.2259 6.07953 39.2863 5.96539 39.2863 5.83782C39.2863 5.71697 39.2326 5.60283 39.1252 5.50212C39.0177 5.40141 38.7626 5.31412 38.3665 5.22684C37.7152 5.07913 37.2586 4.88442 36.9766 4.64271C36.7014 4.401 36.5604 4.09216 36.5604 3.71617C36.5604 3.46774 36.6342 3.23946 36.7752 3.0179C36.9162 2.79633 37.1311 2.62848 37.4198 2.50091C37.7085 2.37334 38.0979 2.31292 38.5947 2.31292C39.2057 2.31292 39.6757 2.42706 39.9913 2.65534C40.3136 2.88362 40.5015 3.24618 40.562 3.74302L39.1654 3.82359C39.1252 3.60874 39.0513 3.45432 38.9304 3.3536C38.8096 3.25289 38.6485 3.20589 38.4403 3.20589C38.2658 3.20589 38.1382 3.23946 38.0509 3.31332C37.9636 3.38717 37.9233 3.47446 37.9233 3.58188C37.9233 3.65574 37.9569 3.72959 38.0308 3.79002C38.0979 3.85045 38.2658 3.91087 38.5276 3.96459C39.1722 4.10558 39.6354 4.24658 39.9174 4.38758C40.1994 4.52857 40.4008 4.70985 40.5284 4.91799C40.656 5.12613 40.7164 5.36784 40.7164 5.62969C40.7164 5.93853 40.6291 6.22053 40.4613 6.47566C40.2934 6.73751 40.0517 6.93222 39.7496 7.0665C39.4474 7.20079 39.058 7.26793 38.5947 7.26793C37.7823 7.26793 37.2184 7.1135 36.9028 6.79794C36.5872 6.48238 36.4127 6.08625 36.3724 5.60283Z" fill="#9DBDA9"/>
</svg>
