<svg width="26" height="26" viewBox="0 0 26 26" fill="none" xmlns="http://www.w3.org/2000/svg">
<circle cx="12.5706" cy="12.5354" r="12.5" fill="#6FC05F"/>
<path fill-rule="evenodd" clip-rule="evenodd" d="M17.6163 12.5353C17.6163 12.8367 17.372 13.0811 17.0706 13.0811L9.07056 13.0811C8.76913 13.0811 8.52478 12.8367 8.52478 12.5353C8.52478 12.2339 8.76913 11.9895 9.07056 11.9895L17.0706 11.9895C17.372 11.9895 17.6163 12.2339 17.6163 12.5353Z" fill="white"/>
<path fill-rule="evenodd" clip-rule="evenodd" d="M13.0706 17.0811C12.7691 17.0811 12.5248 16.8367 12.5248 16.5353L12.5248 8.53528C12.5248 8.23386 12.7691 7.9895 13.0706 7.9895C13.372 7.9895 13.6163 8.23386 13.6163 8.53528L13.6163 16.5353C13.6163 16.8367 13.372 17.0811 13.0706 17.0811Z" fill="white"/>
</svg>
