<svg width="16" height="16" viewBox="0 0 16 16" fill="none" xmlns="http://www.w3.org/2000/svg">
<path fill-rule="evenodd" clip-rule="evenodd" d="M6.68663 0.0746944C3.60198 0.469022 1.07598 2.6542 0.310757 5.59028C0.113706 6.34641 0.0705566 6.69655 0.0705566 7.53943C0.0705566 8.3823 0.113706 8.73245 0.310757 9.48858C0.976773 12.044 3.04588 14.1109 5.62241 14.7946C6.36803 14.9925 6.7233 15.0364 7.57076 15.0356C8.41114 15.0349 8.77285 14.9907 9.50816 14.7992C12.0771 14.1302 14.1439 12.0677 14.8285 9.49001C15.0246 8.75204 15.0698 8.38768 15.0705 7.53943C15.0713 6.69151 15.0274 6.33742 14.8285 5.58885C14.0696 2.73143 11.7038 0.604613 8.73696 0.11271C8.22959 0.0285949 7.19705 0.00941816 6.68663 0.0746944ZM8.71815 0.712943C11.1857 1.15382 13.1676 2.78975 14.0546 5.11774C14.1957 5.48819 14.3507 6.07568 14.4257 6.52419C14.4974 6.95341 14.4847 8.22803 14.4043 8.66747C13.9484 11.1609 12.3495 13.1098 10.0208 14.0105C8.7668 14.4955 7.23455 14.5859 5.90482 14.2533C3.45432 13.6405 1.49765 11.7121 0.877834 9.29911C0.704069 8.6225 0.66961 8.33139 0.66961 7.53943C0.66961 6.74746 0.704069 6.45635 0.877834 5.77975C1.56868 3.09019 3.88247 1.05692 6.6867 0.675266C7.16669 0.609915 8.25453 0.630107 8.71815 0.712943ZM4.79877 4.68115C4.69715 4.72311 4.63644 4.83144 4.63644 4.97087C4.63644 5.05998 4.82897 5.26931 5.83996 6.27948L7.04348 7.48197L5.95534 8.57294C5.2452 9.28493 4.85835 9.69994 4.84173 9.76758C4.79459 9.95943 5.00131 10.1633 5.19482 10.1158C5.25765 10.1004 5.70024 9.68727 6.38627 9.00367L7.47776 7.91605L8.68083 9.11899C9.74994 10.188 9.89711 10.3219 10.0022 10.3219C10.1776 10.3219 10.2944 10.2105 10.2944 10.0431C10.2944 9.91201 10.2336 9.84422 9.09296 8.70369L7.89154 7.50239L9.08295 6.30828C9.83643 5.55313 10.2834 5.07739 10.2989 5.01422C10.3463 4.8208 10.1424 4.61422 9.95046 4.66126C9.88236 4.67795 9.43631 5.09578 8.65202 5.87755L7.45734 7.06839L6.26318 5.87714C5.51184 5.12759 5.03419 4.6787 4.97501 4.66656C4.92329 4.65595 4.84398 4.6625 4.79877 4.68115Z" fill="#9DBDA9"/>
</svg>
