<svg width="117" height="18" viewBox="0 0 117 18" fill="none" xmlns="http://www.w3.org/2000/svg">
<path fill-rule="evenodd" clip-rule="evenodd" d="M80.4136 0.689778C79.9051 0.878812 79.324 1.17047 79.1227 1.33741C78.8172 1.59027 78.756 1.55394 78.756 1.11989C78.756 0.651971 78.6181 0.598943 77.4036 0.598943H76.0512V8.95869V17.3187L77.3421 17.2443L78.6331 17.1702L78.7029 14.531C78.7413 13.0794 78.8008 11.8919 78.8352 11.8919C78.8696 11.8919 79.3319 12.1129 79.8625 12.3829C81.2713 13.1 83.2401 13.0416 84.862 12.2349C90.3105 9.52408 88.6647 0.960318 82.5974 0.451398C81.8587 0.389286 80.9558 0.487977 80.4136 0.689778ZM94.2458 0.568501C93.0406 0.962528 92.0967 1.56793 91.3324 2.43675C89.2583 4.79551 89.1937 8.21729 91.1743 10.81C92.5941 12.6684 95.9783 13.4418 98.0586 12.3829C99.2123 11.7957 99.1651 11.8008 99.1651 12.2602C99.1651 12.543 99.4793 12.6284 100.517 12.6284H101.87V6.61368V0.598943H100.517C99.3367 0.598943 99.1651 0.660318 99.1651 1.0816C99.1651 1.55836 99.1547 1.55836 98.3177 1.06539C97.3875 0.517192 95.2138 0.252052 94.2458 0.568501ZM103.948 1.88782C104.265 2.59682 105.427 5.15861 106.53 7.58071L108.535 11.985L107.44 14.5001C106.838 15.8833 106.408 17.0776 106.485 17.154C106.561 17.2303 107.155 17.2929 107.804 17.2929C108.696 17.2929 109.042 17.1832 109.225 16.8429C109.401 16.5144 114.594 4.39952 116.056 0.905817C116.15 0.680449 115.797 0.598943 114.727 0.598943H113.271L111.599 4.78496C110.68 7.08725 109.898 8.93783 109.862 8.89707C109.825 8.85657 109.132 7.27653 108.321 5.38619C106.033 0.0509879 106.436 0.598943 104.795 0.598943H103.372L103.948 1.88782ZM1.59822 2.44191C0.758748 2.80598 0.0697579 3.99297 0.0714792 5.07146C0.0729545 6.06548 0.937512 7.08234 2.60687 8.05403C4.52434 9.16983 4.80761 9.4632 4.69991 10.2213C4.64065 10.6391 4.43336 10.8083 3.90863 10.8682C3.1321 10.9568 2.7849 10.6112 2.779 9.7438C2.77556 9.23832 2.66023 9.19143 1.4229 9.19143H0.0704956L0.074184 9.9893C0.0825443 11.8558 1.4079 12.8729 3.83265 12.8734C6.22739 12.8742 7.44726 11.899 7.44726 9.9839C7.44726 8.37416 6.95818 7.7064 4.88605 6.48701C2.9617 5.35452 2.50803 4.77612 3.04087 4.13512C3.53438 3.5415 4.36132 3.80713 4.45131 4.58831C4.52557 5.2325 4.59049 5.26344 5.86519 5.26344C7.19227 5.26344 7.20137 5.25828 7.20137 4.51073C7.20137 3.49928 6.83942 2.88798 5.97683 2.44264C5.07367 1.97644 2.67228 1.97595 1.59822 2.44191ZM34.8343 2.42472C33.7855 2.88037 33.266 3.70599 33.266 4.91679C33.266 6.25378 33.8627 6.98021 35.972 8.21017C37.6605 9.19462 38.0891 9.73963 37.7891 10.5203C37.6763 10.8142 37.4036 10.9143 36.8614 10.8618C36.1938 10.797 36.0836 10.6833 36.0167 9.9893L35.9395 9.19143H34.4477H32.9556L33.0995 10.0767C33.4007 11.929 34.6611 12.8739 36.8314 12.8739C39.222 12.8739 40.3968 11.8556 40.3968 9.78357C40.3968 8.22735 39.9395 7.5866 38.1449 6.62915C37.4225 6.24372 36.6379 5.7618 36.4011 5.55779C35.805 5.0447 35.8466 4.10836 36.4744 3.9095C37.1218 3.70427 37.692 4.18005 37.692 4.92514C37.692 5.46204 37.7909 5.50893 38.9215 5.50893H40.1509V4.63348C40.1509 4.15206 40.0314 3.53512 39.8854 3.26261C39.3046 2.17947 36.4778 1.71057 34.8343 2.42472ZM65.5708 2.42472C64.1544 3.04019 64.0025 3.52088 64.0025 7.38602C64.0025 10.755 64.0234 10.8969 64.6229 11.6084C65.8828 13.1032 69.2528 13.1037 70.5125 11.6091C71.0694 10.9482 71.1334 10.6583 71.1334 8.79347V6.71483L69.3506 6.78701L67.5679 6.85918V7.59568C67.5679 8.18365 67.6855 8.34887 68.1507 8.41442C68.6813 8.48954 68.7217 8.58627 68.5997 9.49315C68.416 10.8601 67.6412 11.3162 66.8477 10.5242C66.308 9.98513 66.2819 4.73586 66.8167 4.29273C67.4521 3.76613 68.2889 4.0789 68.4283 4.89519C68.5473 5.59167 68.6243 5.63561 69.8439 5.70583L71.1334 5.78021V4.83995C71.1334 3.68021 70.587 2.86319 69.5107 2.41417C68.4785 1.98356 66.5745 1.98872 65.5708 2.42472ZM10.8858 2.50156C10.8836 2.60271 10.4966 4.72947 10.0259 7.22743C9.55505 9.72539 9.16974 11.9626 9.16925 12.1988C9.16876 12.555 9.39522 12.6284 10.4944 12.6284C12.0526 12.6284 11.8391 13.1253 12.6302 7.65927C12.9378 5.53398 13.2176 3.82333 13.2523 3.8577C13.3088 3.91417 14.5781 12.1858 14.5781 12.4978C14.5781 12.5697 15.1867 12.6284 15.9305 12.6284C17.0875 12.6284 17.283 12.5621 17.283 12.1696C17.283 11.9172 16.8957 9.63014 16.4223 7.08725C15.949 4.54437 15.5617 2.43086 15.5617 2.3906C15.5617 2.22243 10.8895 2.33315 10.8858 2.50156ZM19.4483 6.61368C19.422 8.97662 19.3942 11.2688 19.3868 11.7078C19.373 12.4993 19.3834 12.5062 20.664 12.5798L21.9549 12.6542L21.977 8.28357C22.0016 3.4595 22.0515 3.49265 23.0678 9.0073L23.7352 12.6284H25.0406H26.3461L26.6025 11.3396C26.7434 10.6305 27.1108 8.72498 27.4189 7.10468L27.9793 4.15869L28.0466 8.39355L28.1138 12.6284H29.4974H30.8813L30.7224 10.2348C30.6352 8.91843 30.5631 6.59404 30.5624 5.06974L30.5611 2.29829L28.4174 2.36924L26.2738 2.44019L25.7335 5.67808C25.4365 7.45869 25.1515 9.11581 25.1004 9.36058C25.049 9.60509 24.7441 8.12056 24.4224 6.06131L23.8377 2.31744H21.6667H19.496L19.4483 6.61368ZM42.8558 6.68169C42.8558 10.3193 42.9226 11.1414 43.2568 11.6177C44.4481 13.3158 48.4591 13.2854 49.5066 11.5701C49.9313 10.8748 49.9849 10.3136 49.9856 6.55231L49.9866 2.31744H48.6401H47.2934L47.2262 6.55231L47.1589 10.7872L46.5773 10.8694C46.2574 10.9146 45.8878 10.8439 45.7563 10.7125C45.6176 10.5741 45.5301 8.75739 45.5483 6.39543L45.5795 2.31744H44.2177H42.8558V6.68169ZM52.6914 7.35018V12.3829H54.0576H55.4235L55.278 8.39355L55.1327 4.40419L55.7383 6.24543C56.0715 7.25812 56.6353 9.05346 56.9916 10.2348L57.639 12.3829H59.4685H61.2977V7.35018V2.31744H60.0682H58.8387L58.822 6.06131L58.8051 9.80518L57.6811 6.06131L56.5571 2.31744H54.6244H52.6914V7.35018ZM83.6146 3.29821C85.2958 4.32145 85.9051 6.69396 84.9845 8.63095C84.1804 10.3224 81.7581 10.9723 80.0752 9.94781C78.5728 9.03308 78.0641 5.98619 79.1399 4.34699C80.0988 2.88577 82.1481 2.40533 83.6146 3.29821ZM97.615 3.28864C98.8562 4.04428 99.2895 4.90795 99.2777 6.60288C99.2602 9.1303 98.1427 10.4189 95.9685 10.4189C93.8275 10.4189 92.5285 9.04167 92.527 6.76982C92.5248 3.68119 95.2249 1.83381 97.615 3.28864Z" fill="white"/>
</svg>
