<svg width="55" height="31" viewBox="0 0 55 31" fill="none" xmlns="http://www.w3.org/2000/svg">
<g clip-path="url(#clip0_24_5073)">
<path d="M54.4126 13.5073V20.8418H51.6797V15.6968H49.0483V20.8418H46.3154V13.5068H54.4126V13.5073Z" fill="white"/>
<path fill-rule="evenodd" clip-rule="evenodd" d="M40.7027 21.1042C43.1492 21.1042 44.9658 19.6667 44.9658 17.4875C44.9658 15.3782 43.6255 14.0087 41.3854 14.0087C40.3516 14.0087 39.4985 14.3575 38.856 14.9592C39.0094 13.7155 40.1069 12.8075 41.3152 12.8075C41.5941 12.8075 43.6936 12.8032 43.6936 12.8032L44.8808 10.626C44.8808 10.626 42.245 10.6835 41.0197 10.6835C38.22 10.7302 36.329 13.169 36.329 16.131C36.329 19.5817 38.1733 21.1042 40.7027 21.1042ZM40.7176 15.9372C41.6259 15.9372 42.2557 16.5092 42.2557 17.4872C42.2557 18.3675 41.6961 19.0927 40.7176 19.0947C39.7816 19.0947 39.1518 18.4227 39.1518 17.5022C39.1518 16.524 39.7816 15.9372 40.7176 15.9372Z" fill="white"/>
<path d="M34.1046 18.3861C34.1046 18.3861 33.4592 18.7426 32.4953 18.8101C31.3871 18.8416 30.3997 18.1708 30.3997 16.9791C30.3997 15.8166 31.271 15.1503 32.4674 15.1503C33.201 15.1503 34.1714 15.6376 34.1714 15.6376C34.1714 15.6376 34.8815 14.3888 35.2493 13.7643C34.5757 13.2751 33.6786 13.0068 32.6351 13.0068C30.0017 13.0068 27.9619 14.6523 27.9619 16.9643C27.9619 19.3058 29.879 20.9131 32.6351 20.8646C33.4055 20.8371 34.4683 20.5778 35.116 20.1791L34.1046 18.3861Z" fill="white"/>
<path d="M0.5 7.40625L4.29096 13.9V17.861L0.504435 24.342L0.5 7.40625Z" fill="#5B57A2"/>
<path d="M15.0558 11.5364L18.608 9.44986L25.878 9.44336L15.0558 15.7969V11.5364Z" fill="#D90751"/>
<path d="M15.0356 7.36772L15.0557 15.9652L11.2559 13.7277V0.875977L15.0359 7.36772H15.0356Z" fill="#FAB718"/>
<path d="M25.8779 9.44372L18.6077 9.45022L15.0356 7.36772L11.2559 0.875977L25.8776 9.44372H25.8779Z" fill="#ED6F26"/>
<path d="M15.0557 24.378V20.2067L11.2559 18.0117L11.2579 30.8762L15.0557 24.378Z" fill="#63B22F"/>
<path d="M18.5991 22.3105L4.2907 13.9L0.5 7.40625L25.8625 22.302L18.5989 22.3105H18.5991Z" fill="#1487C9"/>
<path d="M11.2583 30.876L15.0555 24.3778L18.5989 22.3103L25.8623 22.3018L11.2583 30.876Z" fill="#017F36"/>
<path d="M0.504272 24.3414L11.2868 18.0114L7.66175 15.8799L4.29079 17.8604L0.504272 24.3414Z" fill="#984995"/>
</g>
<defs>
<clipPath id="clip0_24_5073">
<rect width="54" height="30" fill="white" transform="translate(0.5 0.875977)"/>
</clipPath>
</defs>
</svg>
