<svg width="87" height="13" viewBox="0 0 87 13" fill="none" xmlns="http://www.w3.org/2000/svg">
<path d="M5.33057 8.04838C5.33057 7.88237 5.30452 7.73588 5.25244 7.60893C5.20361 7.47872 5.11572 7.36153 4.98877 7.25737C4.86507 7.1532 4.69255 7.05392 4.47119 6.95952C4.25309 6.86511 3.9764 6.76909 3.64111 6.67143C3.28955 6.56726 2.97217 6.4517 2.68896 6.32475C2.40576 6.19454 2.16325 6.04643 1.96143 5.88041C1.7596 5.7144 1.60498 5.52397 1.49756 5.30912C1.39014 5.09428 1.33643 4.84851 1.33643 4.57182C1.33643 4.29513 1.39339 4.03959 1.50732 3.80522C1.62126 3.57084 1.78402 3.36739 1.99561 3.19487C2.21045 3.01909 2.46598 2.88237 2.76221 2.78471C3.05843 2.68705 3.38883 2.63823 3.75342 2.63823C4.28727 2.63823 4.73975 2.74077 5.11084 2.94584C5.48519 3.14767 5.77002 3.41297 5.96533 3.74174C6.16064 4.06726 6.2583 4.41557 6.2583 4.78666H5.3208C5.3208 4.51974 5.26383 4.28373 5.1499 4.07866C5.03597 3.87032 4.86344 3.70756 4.63232 3.59037C4.4012 3.46993 4.10824 3.40971 3.75342 3.40971C3.41813 3.40971 3.14144 3.46017 2.92334 3.56108C2.70524 3.66199 2.54248 3.79871 2.43506 3.97123C2.33089 4.14376 2.27881 4.3407 2.27881 4.56205C2.27881 4.71179 2.30973 4.84851 2.37158 4.97221C2.43669 5.09265 2.53597 5.20496 2.66943 5.30912C2.80615 5.41329 2.97868 5.50932 3.18701 5.59721C3.3986 5.6851 3.65088 5.76974 3.94385 5.85112C4.34749 5.96505 4.6958 6.092 4.98877 6.23198C5.28174 6.37195 5.52262 6.52983 5.71143 6.70561C5.90348 6.87814 6.04508 7.07508 6.13623 7.29643C6.23063 7.51453 6.27783 7.76192 6.27783 8.03862C6.27783 8.32833 6.21924 8.59037 6.10205 8.82475C5.98486 9.05912 5.81722 9.25932 5.59912 9.42534C5.38102 9.59135 5.11898 9.71993 4.81299 9.81108C4.51025 9.89897 4.17171 9.94291 3.79736 9.94291C3.46859 9.94291 3.14469 9.89734 2.82568 9.8062C2.50993 9.71505 2.22184 9.57833 1.96143 9.39604C1.70426 9.21375 1.49756 8.98914 1.34131 8.72221C1.18831 8.45203 1.11182 8.13953 1.11182 7.78471H2.04932C2.04932 8.02885 2.09652 8.23881 2.19092 8.41459C2.28532 8.58712 2.4139 8.73035 2.57666 8.84428C2.74268 8.95821 2.92985 9.04285 3.13818 9.09819C3.34977 9.15027 3.5695 9.17631 3.79736 9.17631C4.12614 9.17631 4.40446 9.13074 4.63232 9.03959C4.86019 8.94845 5.03271 8.81824 5.1499 8.64897C5.27035 8.4797 5.33057 8.2795 5.33057 8.04838ZM9.53467 9.94291C9.16683 9.94291 8.83317 9.88107 8.53369 9.75737C8.23747 9.63041 7.98193 9.45301 7.76709 9.22514C7.5555 8.99728 7.39274 8.72709 7.27881 8.41459C7.16488 8.10209 7.10791 7.7603 7.10791 7.3892V7.18412C7.10791 6.75444 7.17139 6.37195 7.29834 6.03666C7.42529 5.69812 7.59782 5.41166 7.81592 5.17729C8.03402 4.94291 8.28141 4.76551 8.55811 4.64506C8.8348 4.52462 9.12126 4.4644 9.41748 4.4644C9.79508 4.4644 10.1206 4.5295 10.394 4.65971C10.6707 4.78992 10.897 4.97221 11.0728 5.20659C11.2485 5.43771 11.3787 5.71114 11.4634 6.0269C11.548 6.3394 11.5903 6.6812 11.5903 7.05229V7.45756H7.64502V6.72026H10.687V6.6519C10.674 6.41752 10.6252 6.18966 10.5405 5.9683C10.4591 5.74695 10.3289 5.56466 10.1499 5.42143C9.97087 5.2782 9.72673 5.20659 9.41748 5.20659C9.2124 5.20659 9.0236 5.25053 8.85107 5.33842C8.67855 5.42306 8.53044 5.55001 8.40674 5.71928C8.28304 5.88855 8.18701 6.09526 8.11865 6.3394C8.05029 6.58354 8.01611 6.86511 8.01611 7.18412V7.3892C8.01611 7.63985 8.05029 7.87586 8.11865 8.09721C8.19027 8.31531 8.29281 8.50737 8.42627 8.67338C8.56299 8.8394 8.72738 8.96961 8.91943 9.06401C9.11475 9.15841 9.3361 9.20561 9.5835 9.20561C9.90251 9.20561 10.1727 9.14051 10.394 9.0103C10.6154 8.88009 10.8091 8.70593 10.9751 8.48784L11.522 8.92241C11.408 9.09493 11.2632 9.25932 11.0874 9.41557C10.9116 9.57182 10.6951 9.69877 10.438 9.79643C10.1841 9.89409 9.88298 9.94291 9.53467 9.94291ZM14.7593 9.20073C14.9741 9.20073 15.1727 9.15678 15.355 9.06889C15.5373 8.981 15.687 8.86056 15.8042 8.70756C15.9214 8.55131 15.9881 8.3739 16.0044 8.17534H16.8638C16.8475 8.48784 16.7417 8.77918 16.5464 9.04936C16.3543 9.31629 16.1021 9.53276 15.7896 9.69877C15.4771 9.86153 15.1336 9.94291 14.7593 9.94291C14.3621 9.94291 14.0155 9.87293 13.7192 9.73295C13.4263 9.59298 13.1821 9.40092 12.9868 9.15678C12.7948 8.91264 12.6499 8.63269 12.5522 8.31694C12.4578 7.99793 12.4106 7.66101 12.4106 7.3062V7.10112C12.4106 6.7463 12.4578 6.41101 12.5522 6.09526C12.6499 5.77625 12.7948 5.49467 12.9868 5.25053C13.1821 5.00639 13.4263 4.81433 13.7192 4.67436C14.0155 4.53439 14.3621 4.4644 14.7593 4.4644C15.1727 4.4644 15.534 4.54903 15.8433 4.7183C16.1525 4.88432 16.395 5.11218 16.5708 5.4019C16.7498 5.68836 16.8475 6.01388 16.8638 6.37846H16.0044C15.9881 6.16036 15.9263 5.96342 15.8188 5.78764C15.7147 5.61186 15.5715 5.47189 15.3892 5.36772C15.2101 5.2603 15.0002 5.20659 14.7593 5.20659C14.4826 5.20659 14.2498 5.26192 14.061 5.3726C13.8755 5.48002 13.7274 5.62651 13.6167 5.81205C13.5093 5.99435 13.4312 6.1978 13.3823 6.42241C13.3368 6.64376 13.314 6.87 13.314 7.10112V7.3062C13.314 7.53732 13.3368 7.76518 13.3823 7.98979C13.4279 8.2144 13.5044 8.41785 13.6118 8.60014C13.7225 8.78243 13.8706 8.92892 14.0562 9.03959C14.245 9.14702 14.4793 9.20073 14.7593 9.20073ZM21.1118 8.62455V4.56205H22.02V9.84526H21.1558L21.1118 8.62455ZM21.2827 7.51127L21.6587 7.50151C21.6587 7.85307 21.6213 8.17859 21.5464 8.47807C21.4748 8.77429 21.3576 9.03146 21.1948 9.24955C21.0321 9.46765 20.8188 9.63855 20.5552 9.76225C20.2915 9.88269 19.9709 9.94291 19.5933 9.94291C19.3361 9.94291 19.1001 9.90548 18.8853 9.83061C18.6737 9.75574 18.4914 9.64018 18.3384 9.48393C18.1854 9.32768 18.0666 9.12423 17.9819 8.87358C17.9006 8.62293 17.8599 8.32182 17.8599 7.97026V4.56205H18.7632V7.98002C18.7632 8.21765 18.7892 8.41459 18.8413 8.57084C18.8966 8.72384 18.9699 8.84591 19.061 8.93705C19.1554 9.02495 19.2596 9.08679 19.3735 9.1226C19.4907 9.15841 19.6112 9.17631 19.7349 9.17631C20.119 9.17631 20.4233 9.10307 20.6479 8.95659C20.8726 8.80685 21.0337 8.60665 21.1313 8.356C21.2323 8.10209 21.2827 7.82052 21.2827 7.51127ZM24.3003 5.39213V9.84526H23.397V4.56205H24.2759L24.3003 5.39213ZM25.9507 4.53276L25.9458 5.3726C25.8709 5.35633 25.7993 5.34656 25.731 5.3433C25.6659 5.33679 25.591 5.33354 25.5063 5.33354C25.298 5.33354 25.1141 5.36609 24.9546 5.4312C24.7951 5.4963 24.66 5.58745 24.5493 5.70463C24.4386 5.82182 24.3507 5.96179 24.2856 6.12455C24.2238 6.28406 24.1831 6.45984 24.1636 6.6519L23.9097 6.79838C23.9097 6.47937 23.9406 6.17989 24.0024 5.89995C24.0675 5.62 24.1668 5.3726 24.3003 5.15776C24.4338 4.93966 24.603 4.77039 24.8081 4.64995C25.0164 4.52625 25.2638 4.4644 25.5503 4.4644C25.6154 4.4644 25.6903 4.47254 25.7749 4.48881C25.8595 4.50183 25.9181 4.51648 25.9507 4.53276ZM28.8804 9.94291C28.5125 9.94291 28.1789 9.88107 27.8794 9.75737C27.5832 9.63041 27.3276 9.45301 27.1128 9.22514C26.9012 8.99728 26.7384 8.72709 26.6245 8.41459C26.5106 8.10209 26.4536 7.7603 26.4536 7.3892V7.18412C26.4536 6.75444 26.5171 6.37195 26.644 6.03666C26.771 5.69812 26.9435 5.41166 27.1616 5.17729C27.3797 4.94291 27.6271 4.76551 27.9038 4.64506C28.1805 4.52462 28.467 4.4644 28.7632 4.4644C29.1408 4.4644 29.4663 4.5295 29.7397 4.65971C30.0164 4.78992 30.2427 4.97221 30.4185 5.20659C30.5942 5.43771 30.7244 5.71114 30.8091 6.0269C30.8937 6.3394 30.936 6.6812 30.936 7.05229V7.45756H26.9907V6.72026H30.0327V6.6519C30.0197 6.41752 29.9709 6.18966 29.8862 5.9683C29.8049 5.74695 29.6746 5.56466 29.4956 5.42143C29.3166 5.2782 29.0724 5.20659 28.7632 5.20659C28.5581 5.20659 28.3693 5.25053 28.1968 5.33842C28.0243 5.42306 27.8761 5.55001 27.7524 5.71928C27.6287 5.88855 27.5327 6.09526 27.4644 6.3394C27.396 6.58354 27.3618 6.86511 27.3618 7.18412V7.3892C27.3618 7.63985 27.396 7.87586 27.4644 8.09721C27.536 8.31531 27.6385 8.50737 27.772 8.67338C27.9087 8.8394 28.0731 8.96961 28.2651 9.06401C28.4604 9.15841 28.6818 9.20561 28.9292 9.20561C29.2482 9.20561 29.5184 9.14051 29.7397 9.0103C29.9611 8.88009 30.1548 8.70593 30.3208 8.48784L30.8677 8.92241C30.7537 9.09493 30.6089 9.25932 30.4331 9.41557C30.2573 9.57182 30.0409 9.69877 29.7837 9.79643C29.5298 9.89409 29.2287 9.94291 28.8804 9.94291ZM35.3208 8.81987V2.34526H36.229V9.84526H35.3989L35.3208 8.81987ZM31.7661 7.26225V7.15971C31.7661 6.75607 31.8149 6.38985 31.9126 6.06108C32.0135 5.72905 32.1551 5.44422 32.3374 5.20659C32.5229 4.96896 32.7427 4.78666 32.9966 4.65971C33.2537 4.5295 33.5402 4.4644 33.856 4.4644C34.188 4.4644 34.4777 4.52299 34.7251 4.64018C34.9757 4.75411 35.1873 4.92176 35.3599 5.14311C35.5356 5.36121 35.674 5.62488 35.7749 5.93412C35.8758 6.24337 35.9458 6.5933 35.9849 6.98393V7.43315C35.9491 7.82052 35.8791 8.16883 35.7749 8.47807C35.674 8.78732 35.5356 9.05099 35.3599 9.26909C35.1873 9.48718 34.9757 9.65483 34.7251 9.77202C34.4744 9.88595 34.1815 9.94291 33.8462 9.94291C33.5369 9.94291 33.2537 9.87618 32.9966 9.74272C32.7427 9.60926 32.5229 9.42208 32.3374 9.1812C32.1551 8.94031 32.0135 8.65711 31.9126 8.33159C31.8149 8.00281 31.7661 7.64636 31.7661 7.26225ZM32.6743 7.15971V7.26225C32.6743 7.52592 32.7004 7.77332 32.7524 8.00444C32.8078 8.23556 32.8924 8.43901 33.0063 8.61479C33.1203 8.79057 33.2651 8.92892 33.4409 9.02983C33.6167 9.12748 33.8267 9.17631 34.0708 9.17631C34.3703 9.17631 34.616 9.11284 34.8081 8.98588C35.0034 8.85893 35.1597 8.69129 35.2769 8.48295C35.394 8.27462 35.4852 8.04838 35.5503 7.80424V6.62748C35.5112 6.44845 35.4543 6.27592 35.3794 6.10991C35.3078 5.94064 35.2134 5.7909 35.0962 5.66069C34.9823 5.52722 34.8407 5.42143 34.6714 5.3433C34.5054 5.26518 34.3084 5.22612 34.0806 5.22612C33.8332 5.22612 33.62 5.2782 33.4409 5.38237C33.2651 5.48328 33.1203 5.62325 33.0063 5.80229C32.8924 5.97807 32.8078 6.18315 32.7524 6.41752C32.7004 6.64864 32.6743 6.89604 32.6743 7.15971ZM40.1108 2.34526H41.019V8.81987L40.9409 9.84526H40.1108V2.34526ZM44.5884 7.15971V7.26225C44.5884 7.64636 44.5428 8.00281 44.4517 8.33159C44.3605 8.65711 44.2271 8.94031 44.0513 9.1812C43.8755 9.42208 43.6606 9.60926 43.4067 9.74272C43.1528 9.87618 42.8615 9.94291 42.5327 9.94291C42.1974 9.94291 41.9028 9.88595 41.6489 9.77202C41.3983 9.65483 41.1867 9.48718 41.0142 9.26909C40.8416 9.05099 40.7033 8.78732 40.5991 8.47807C40.4982 8.16883 40.4282 7.82052 40.3892 7.43315V6.98393C40.4282 6.5933 40.4982 6.24337 40.5991 5.93412C40.7033 5.62488 40.8416 5.36121 41.0142 5.14311C41.1867 4.92176 41.3983 4.75411 41.6489 4.64018C41.8996 4.52299 42.1909 4.4644 42.5229 4.4644C42.855 4.4644 43.1496 4.5295 43.4067 4.65971C43.6639 4.78666 43.8787 4.96896 44.0513 5.20659C44.2271 5.44422 44.3605 5.72905 44.4517 6.06108C44.5428 6.38985 44.5884 6.75607 44.5884 7.15971ZM43.6802 7.26225V7.15971C43.6802 6.89604 43.6558 6.64864 43.6069 6.41752C43.5581 6.18315 43.48 5.97807 43.3726 5.80229C43.2651 5.62325 43.1235 5.48328 42.9478 5.38237C42.772 5.2782 42.5555 5.22612 42.2983 5.22612C42.0705 5.22612 41.8719 5.26518 41.7026 5.3433C41.5366 5.42143 41.395 5.52722 41.2778 5.66069C41.1606 5.7909 41.0646 5.94064 40.9897 6.10991C40.9181 6.27592 40.8644 6.44845 40.8286 6.62748V7.80424C40.8807 8.03211 40.9653 8.25183 41.0825 8.46342C41.203 8.67176 41.3625 8.84265 41.561 8.97612C41.7629 9.10958 42.0119 9.17631 42.3081 9.17631C42.5522 9.17631 42.7606 9.12748 42.9331 9.02983C43.1089 8.92892 43.2505 8.79057 43.3579 8.61479C43.4686 8.43901 43.55 8.23556 43.6021 8.00444C43.6541 7.77332 43.6802 7.52592 43.6802 7.26225ZM47.1567 9.29838L48.6265 4.56205H49.5933L47.4741 10.6607C47.4253 10.7909 47.3602 10.9309 47.2788 11.0806C47.2007 11.2336 47.0998 11.3785 46.9761 11.5152C46.8524 11.6519 46.7026 11.7626 46.5269 11.8472C46.3543 11.9351 46.1476 11.979 45.9067 11.979C45.8351 11.979 45.744 11.9693 45.6333 11.9497C45.5226 11.9302 45.4445 11.9139 45.3989 11.9009L45.394 11.1685C45.4201 11.1718 45.4608 11.175 45.5161 11.1783C45.5747 11.1848 45.6154 11.188 45.6382 11.188C45.8433 11.188 46.0174 11.1604 46.1606 11.105C46.3039 11.0529 46.4243 10.9634 46.522 10.8365C46.6229 10.7128 46.7091 10.5419 46.7808 10.3238L47.1567 9.29838ZM46.0776 4.56205L47.4497 8.66362L47.6841 9.61577L47.0347 9.9478L45.0913 4.56205H46.0776Z" fill="#9DBDA9"/>
<path d="M58.1251 9.44274V4.31067H56.768V8.59369C56.693 8.62513 56.5867 8.65029 56.4491 8.67545C56.3115 8.7006 56.1552 8.70689 55.9801 8.71318C55.6799 8.71318 55.4548 8.644 55.3047 8.50563C55.1484 8.36727 55.0733 8.15343 55.0733 7.85784V4.31067H53.7163V7.82639C53.7163 8.2918 53.8039 8.67545 53.9727 8.97104C54.1416 9.26664 54.3979 9.48048 54.7356 9.62513C55.0733 9.7635 55.4861 9.83268 55.9801 9.83268C56.2615 9.83268 56.5367 9.81381 56.8056 9.78237C57.0745 9.75092 57.3184 9.7006 57.5435 9.644C57.7749 9.5874 57.9687 9.51821 58.1251 9.44274ZM63.3218 9.71318V6.01507C63.3218 5.62513 63.2405 5.29809 63.0716 5.02136C62.9028 4.75092 62.6464 4.54337 62.3024 4.40501C61.9585 4.26035 61.5207 4.19117 60.9892 4.19117C60.5514 4.19117 60.1512 4.22891 59.801 4.29809C59.4508 4.36727 59.1319 4.46161 58.8505 4.58111V9.70689H60.2075V5.4113C60.295 5.37356 60.4139 5.34211 60.5577 5.31696C60.7015 5.2918 60.8516 5.27922 61.0142 5.27922C61.3269 5.27922 61.5583 5.35469 61.7209 5.51193C61.8772 5.66287 61.9585 5.87671 61.9585 6.15343V9.70689H63.3218V9.71318ZM65.5168 2.70689C65.5168 2.56853 65.4792 2.44903 65.4105 2.33583C65.3417 2.22262 65.2479 2.14086 65.129 2.07796C65.0102 2.01507 64.8789 1.98362 64.7351 1.97734C64.5912 1.97734 64.4599 2.00878 64.3411 2.07796C64.2223 2.14086 64.1347 2.22262 64.0659 2.33583C63.9971 2.44903 63.9596 2.56853 63.9596 2.70689C63.9596 2.84526 63.9971 2.97105 64.0659 3.07796C64.1347 3.19117 64.2285 3.27922 64.3411 3.3484C64.4599 3.4113 64.5912 3.44903 64.7351 3.44903C64.8789 3.44903 65.0102 3.4113 65.129 3.3484C65.2479 3.27922 65.3354 3.19117 65.4105 3.07796C65.4792 2.97105 65.5168 2.84526 65.5168 2.70689ZM65.4167 4.31067H64.0659V9.71318H65.4167V4.31067ZM68.8562 9.63771V8.50563C68.8124 8.5245 68.7499 8.54337 68.6811 8.56224C68.6123 8.57482 68.5372 8.5874 68.4684 8.5874C68.3496 8.5874 68.2433 8.56853 68.1558 8.53079C68.062 8.49306 67.9869 8.43016 67.9369 8.3484C67.8806 8.26035 67.8556 8.14086 67.8556 7.9962V5.32953H68.8624V4.31067H67.8493V2.71947L66.5173 3.10941V4.31067H65.8294V5.32953H66.5173V8.08425C66.5173 8.65029 66.6361 9.07796 66.8925 9.36098C67.1427 9.644 67.5242 9.78865 68.0432 9.78865C68.1558 9.78865 68.2621 9.78236 68.3621 9.7635C68.4684 9.75721 68.5622 9.73205 68.6498 9.71318C68.7311 9.69431 68.7999 9.66916 68.8562 9.63771ZM73.8402 6.644C73.8402 6.27922 73.7902 5.9396 73.6902 5.644C73.5901 5.34211 73.44 5.08425 73.2462 4.87042C73.0523 4.65658 72.8084 4.48677 72.5207 4.37356C72.2331 4.26035 71.9079 4.19746 71.5327 4.19746C71.1387 4.19746 70.7885 4.26664 70.4821 4.40501C70.1757 4.54337 69.913 4.73834 69.7004 4.98362C69.4878 5.2352 69.3189 5.53079 69.2126 5.8767C69.1 6.21633 69.0438 6.59998 69.0438 7.01507C69.0438 7.43016 69.1 7.81381 69.2189 8.15972C69.3314 8.50563 69.5065 8.80123 69.7379 9.05281C69.963 9.30438 70.2444 9.49935 70.5821 9.63771C70.9198 9.76979 71.3138 9.84526 71.7516 9.84526C72.008 9.84526 72.2643 9.82639 72.5145 9.79494C72.7584 9.7635 72.9898 9.71318 73.1961 9.65658C73.4025 9.59998 73.5838 9.53079 73.7339 9.45532L73.3462 8.43016C73.2149 8.49935 73.0711 8.56224 72.9085 8.60626C72.7459 8.65658 72.5708 8.69431 72.3957 8.72576C72.2143 8.75092 72.033 8.76979 71.8516 8.76979C71.589 8.76979 71.3513 8.72576 71.145 8.63771C70.9323 8.55595 70.7635 8.42387 70.6259 8.24777C70.4946 8.07167 70.407 7.85155 70.3633 7.5874L73.8215 7.1157C73.8277 7.03394 73.8402 6.95847 73.8402 6.88299C73.8402 6.79494 73.8402 6.71947 73.8402 6.644ZM72.527 6.40501L70.2757 6.71318C70.282 6.37356 70.3383 6.09683 70.4446 5.87042C70.5509 5.644 70.6947 5.47419 70.8761 5.35469C71.0574 5.24148 71.2638 5.17859 71.5014 5.17859C71.714 5.17859 71.8954 5.22262 72.0455 5.31696C72.2018 5.40501 72.3206 5.54337 72.4019 5.72576C72.4832 5.90815 72.527 6.13457 72.527 6.40501ZM75.7476 1.84526H74.3906V9.70689H75.7476V1.84526ZM77.9426 1.84526H76.5856V9.70689H77.9426V1.84526ZM83.2956 6.644C83.2956 6.27922 83.2456 5.9396 83.1455 5.644C83.0392 5.34211 82.8954 5.08425 82.6953 4.87042C82.5014 4.65658 82.2575 4.48677 81.9699 4.37356C81.6822 4.26035 81.3508 4.19746 80.9818 4.19746C80.5878 4.19746 80.2376 4.26664 79.9312 4.40501C79.6248 4.54337 79.3621 4.73834 79.1495 4.98362C78.9369 5.2352 78.7743 5.53079 78.6617 5.8767C78.5492 6.21633 78.4929 6.59998 78.4929 7.01507C78.4929 7.43016 78.5554 7.81381 78.668 8.15972C78.7868 8.50563 78.9556 8.80123 79.187 9.05281C79.4122 9.30438 79.6998 9.49935 80.0313 9.63771C80.3689 9.76979 80.7629 9.84526 81.2007 9.84526C81.4633 9.84526 81.7135 9.82639 81.9636 9.79494C82.2075 9.7635 82.4326 9.71318 82.6452 9.65658C82.8516 9.59998 83.033 9.53079 83.1831 9.45532L82.7953 8.43016C82.6703 8.49935 82.5264 8.56224 82.3576 8.60626C82.195 8.65658 82.0261 8.69431 81.8448 8.72576C81.6634 8.75092 81.4821 8.76979 81.3007 8.76979C81.0381 8.76979 80.8004 8.72576 80.5941 8.63771C80.3877 8.55595 80.2126 8.42387 80.0813 8.24777C79.95 8.07167 79.8624 7.85155 79.8186 7.5874L83.2706 7.1157C83.2831 7.03394 83.2894 6.95847 83.2894 6.88299C83.2956 6.79494 83.2956 6.71947 83.2956 6.644ZM81.9824 6.40501L79.7311 6.71318C79.7373 6.37356 79.7936 6.09683 79.8999 5.87042C80.0062 5.644 80.1501 5.47419 80.3314 5.35469C80.5128 5.24148 80.7192 5.17859 80.963 5.17859C81.1757 5.17859 81.357 5.22262 81.5071 5.31696C81.6634 5.40501 81.776 5.54337 81.8636 5.72576C81.9386 5.90815 81.9824 6.13457 81.9824 6.40501ZM86.7163 4.24148C86.6288 4.22891 86.5224 4.21633 86.4036 4.20375C86.2911 4.19746 86.1597 4.19117 86.0159 4.19117C85.5782 4.19117 85.1779 4.22891 84.8027 4.30438C84.4338 4.37356 84.1023 4.4679 83.8209 4.58111V9.70689H85.1779V5.39872C85.2655 5.36727 85.3655 5.33582 85.4844 5.31696C85.6032 5.29809 85.7282 5.28551 85.8533 5.28551C85.9659 5.28551 86.0722 5.2918 86.1722 5.30438C86.2786 5.31696 86.3724 5.34211 86.4599 5.36098L86.7163 4.24148Z" fill="#9DBDA9"/>
</svg>
