<svg width="97" height="22" viewBox="0 0 97 22" fill="none" xmlns="http://www.w3.org/2000/svg">
<path d="M18.3647 4.65234C18.8482 5.27583 19.2511 5.95966 19.5935 6.68371L10.2866 13.5421L6.37854 11.0883V8.15192L10.2665 10.5855L18.3647 4.65234Z" fill="#21A038"/>
<path d="M2.41004 10.8862C2.41004 10.7454 2.41004 10.6247 2.43019 10.484L0.0732454 10.3633C0.0732454 10.5242 0.0531006 10.7052 0.0531006 10.8661C0.0531006 13.6818 1.20135 16.2361 3.05467 18.0865L4.72669 16.4171C3.29641 15.0093 2.41004 13.0584 2.41004 10.8862Z" fill="url(#paint0_linear_24_5053)"/>
<path d="M10.2666 3.04262C10.4077 3.04262 10.5285 3.04262 10.6695 3.06273L10.7904 0.709566C10.6292 0.709566 10.4479 0.689453 10.2868 0.689453C7.46652 0.689453 4.90813 1.83587 3.05481 3.68622L4.72683 5.35556C6.13696 3.92757 8.11115 3.04262 10.2666 3.04262Z" fill="url(#paint1_linear_24_5053)"/>
<path d="M10.2666 18.7299C10.1255 18.7299 10.0047 18.7299 9.86367 18.7098L9.7428 21.063C9.90396 21.063 10.0853 21.0831 10.2464 21.0831C13.0667 21.0831 15.6251 19.9367 17.4784 18.0863L15.8064 16.417C14.3962 17.8651 12.4422 18.7299 10.2666 18.7299Z" fill="url(#paint2_linear_24_5053)"/>
<path d="M14.6985 4.40987L16.6928 2.94166C14.9402 1.53378 12.7041 0.668945 10.2666 0.668945V3.02211C11.9185 3.04222 13.4495 3.54503 14.6985 4.40987Z" fill="url(#paint3_linear_24_5053)"/>
<path d="M20.5002 10.8859C20.5002 10.2624 20.4397 9.65904 20.339 9.05566L18.1432 10.6848C18.1432 10.7451 18.1432 10.8256 18.1432 10.8859C18.1432 13.1988 17.136 15.2704 15.5446 16.6984L17.136 18.4482C19.1908 16.5979 20.5002 13.8827 20.5002 10.8859Z" fill="#21A038"/>
<path d="M10.2667 18.7293C7.95005 18.7293 5.87514 17.7237 4.44486 16.1348L2.69226 17.7237C4.56573 19.7952 7.26513 21.0824 10.2667 21.0824V18.7293Z" fill="url(#paint4_linear_24_5053)"/>
<path d="M5.00872 5.07401L3.41728 3.32422C1.34237 5.19468 0.0531006 7.88976 0.0531006 10.8865H2.41004C2.41004 8.5937 3.41728 6.502 5.00872 5.07401Z" fill="url(#paint5_linear_24_5053)"/>
<path d="M37.1217 12.9248H39.3901C39.3296 13.7276 39.1069 14.4398 38.722 15.0612C38.337 15.6771 37.8008 16.1611 37.1134 16.513C36.426 16.865 35.5929 17.041 34.614 17.041C33.8606 17.041 33.1815 16.909 32.5765 16.645C31.9771 16.3755 31.4629 15.9933 31.034 15.4984C30.6106 14.998 30.2861 14.3986 30.0606 13.7001C29.8352 12.9962 29.7224 12.2071 29.7224 11.3327V10.4171C29.7224 9.5427 29.8379 8.75355 30.0689 8.04965C30.2998 7.34574 30.6298 6.74632 31.0587 6.25139C31.4932 5.75095 32.0129 5.366 32.6178 5.09654C33.2282 4.82708 33.9101 4.69234 34.6635 4.69234C35.6424 4.69234 36.47 4.87382 37.1464 5.23677C37.8228 5.59422 38.348 6.08641 38.722 6.71332C39.0959 7.34024 39.3214 8.06065 39.3984 8.87454H37.1299C37.0859 8.36861 36.976 7.93966 36.8 7.58771C36.6295 7.23576 36.371 6.96904 36.0246 6.78756C35.6836 6.60059 35.2299 6.5071 34.6635 6.5071C34.2236 6.5071 33.8359 6.58959 33.5004 6.75457C33.1705 6.91955 32.8955 7.16701 32.6755 7.49697C32.4556 7.82143 32.2906 8.22837 32.1806 8.71781C32.0706 9.20174 32.0156 9.76267 32.0156 10.4006V11.3327C32.0156 11.9431 32.0651 12.4903 32.1641 12.9742C32.2631 13.4582 32.4171 13.8679 32.626 14.2033C32.835 14.5388 33.1045 14.7945 33.4344 14.9705C33.7644 15.1465 34.1576 15.2344 34.614 15.2344C35.1694 15.2344 35.6204 15.1465 35.9668 14.9705C36.3188 14.7945 36.5855 14.536 36.767 14.1951C36.954 13.8541 37.0722 13.4307 37.1217 12.9248ZM46.9709 7.95066V9.67468H42.6072V7.95066H46.9709ZM43.1846 7.95066V16.876H40.9987V7.95066H43.1846ZM48.6207 7.95066V16.876H46.4265V7.95066H48.6207ZM55.5167 14.9787V10.8625C55.5167 10.5601 55.4645 10.2988 55.36 10.0789C55.2555 9.85891 55.0961 9.68843 54.8816 9.56745C54.6671 9.44646 54.3949 9.38597 54.0649 9.38597C53.7735 9.38597 53.5178 9.43546 53.2978 9.53445C53.0833 9.63344 52.9183 9.77367 52.8029 9.95514C52.6874 10.1311 52.6296 10.3346 52.6296 10.5656H50.4437C50.4437 10.1971 50.5317 9.84791 50.7076 9.51795C50.8836 9.1825 51.1338 8.88554 51.4583 8.62707C51.7882 8.36311 52.1814 8.15688 52.6379 8.0084C53.0998 7.85992 53.6167 7.78568 54.1887 7.78568C54.8651 7.78568 55.4673 7.90117 55.9952 8.13214C56.5286 8.35761 56.9466 8.69856 57.249 9.155C57.557 9.61144 57.711 10.1861 57.711 10.879V14.7725C57.711 15.2179 57.7385 15.6001 57.7934 15.9191C57.8539 16.2326 57.9419 16.5048 58.0574 16.7357V16.876H55.8385C55.734 16.6505 55.6542 16.3645 55.5992 16.0181C55.5442 15.6661 55.5167 15.3197 55.5167 14.9787ZM55.822 11.4399L55.8385 12.735H54.4609C54.1199 12.735 53.8202 12.7708 53.5618 12.8423C53.3033 12.9083 53.0916 13.0072 52.9266 13.1392C52.7616 13.2657 52.6379 13.4197 52.5554 13.6012C52.4729 13.7771 52.4317 13.9779 52.4317 14.2033C52.4317 14.4233 52.4811 14.6213 52.5801 14.7973C52.6846 14.9732 52.8331 15.1135 53.0256 15.2179C53.2235 15.3169 53.4545 15.3664 53.7185 15.3664C54.1034 15.3664 54.4389 15.2894 54.7249 15.1355C55.0108 14.976 55.2335 14.7835 55.393 14.558C55.5525 14.3326 55.6377 14.1181 55.6487 13.9146L56.2756 14.855C56.1987 15.0805 56.0832 15.3197 55.9292 15.5726C55.7752 15.8256 55.5772 16.0621 55.3353 16.2821C55.0933 16.502 54.8018 16.6835 54.4609 16.8265C54.1199 16.9695 53.724 17.041 53.273 17.041C52.6956 17.041 52.1787 16.9255 51.7222 16.6945C51.2658 16.4635 50.9056 16.1473 50.6416 15.7459C50.3777 15.3444 50.2457 14.888 50.2457 14.3766C50.2457 13.9036 50.3337 13.4857 50.5097 13.1227C50.6856 12.7598 50.9469 12.4546 51.2933 12.2071C51.6398 11.9541 52.0687 11.7644 52.5801 11.6379C53.0971 11.5059 53.6882 11.4399 54.3537 11.4399H55.822ZM63.3367 15.3252C63.6447 15.3252 63.9196 15.2647 64.1616 15.1437C64.4036 15.0227 64.596 14.8522 64.739 14.6323C64.8875 14.4123 64.9672 14.1566 64.9782 13.8651H67.0322C67.0212 14.47 66.8507 15.0117 66.5208 15.4902C66.1908 15.9686 65.7509 16.348 65.201 16.6285C64.6565 16.9035 64.0461 17.041 63.3697 17.041C62.6823 17.041 62.0829 16.9255 61.5714 16.6945C61.06 16.4635 60.6338 16.1418 60.2929 15.7294C59.9574 15.3169 59.7044 14.8385 59.534 14.2941C59.369 13.7496 59.2865 13.1667 59.2865 12.5453V12.2813C59.2865 11.6599 59.369 11.077 59.534 10.5326C59.7044 9.98814 59.9574 9.5097 60.2929 9.09726C60.6338 8.68481 61.06 8.36311 61.5714 8.13214C62.0829 7.90117 62.6795 7.78568 63.3615 7.78568C64.0819 7.78568 64.7143 7.92591 65.2587 8.20638C65.8086 8.48684 66.2376 8.88279 66.5455 9.39422C66.859 9.90565 67.0212 10.5078 67.0322 11.2007H64.9782C64.9672 10.8818 64.8958 10.5958 64.7638 10.3428C64.6318 10.0899 64.4448 9.8864 64.2028 9.73242C63.9609 9.57844 63.6667 9.50145 63.3202 9.50145C62.9518 9.50145 62.6438 9.57844 62.3963 9.73242C62.1544 9.8864 61.9646 10.0981 61.8272 10.3676C61.6952 10.6316 61.6017 10.9285 61.5467 11.2585C61.4972 11.5829 61.4725 11.9239 61.4725 12.2813V12.5453C61.4725 12.9083 61.4972 13.2547 61.5467 13.5847C61.6017 13.9146 61.6952 14.2116 61.8272 14.4755C61.9646 14.734 62.1544 14.9402 62.3963 15.0942C62.6438 15.2482 62.9573 15.3252 63.3367 15.3252ZM70.6865 13.7661L73.9366 7.95066H76.1225V16.876H73.9366V11.0522L70.6865 16.876H68.5005V7.95066H70.6865V13.7661ZM83.629 4.03243H85.3943C85.3943 4.49987 85.3338 4.89307 85.2128 5.21202C85.0918 5.52548 84.9048 5.78945 84.6519 6.00392C84.3989 6.21289 84.0745 6.38612 83.6785 6.5236C83.2826 6.66108 82.8096 6.78207 82.2597 6.88655C81.7978 6.98004 81.3908 7.13402 81.0389 7.34849C80.6869 7.56296 80.3927 7.85717 80.1562 8.23112C79.9253 8.60507 79.7575 9.08076 79.653 9.65818C79.5486 10.2356 79.5156 10.9313 79.5541 11.7452V12.2236L77.8465 12.4216V11.9431C77.8465 10.8818 77.9428 9.95789 78.1352 9.1715C78.3277 8.3796 78.5999 7.71419 78.9519 7.17526C79.3038 6.63084 79.7245 6.19914 80.214 5.88019C80.7089 5.55573 81.2616 5.32751 81.872 5.19553C82.2789 5.11304 82.6117 5.0278 82.8701 4.93981C83.1341 4.85182 83.3266 4.73909 83.4475 4.6016C83.5685 4.45862 83.629 4.2689 83.629 4.03243ZM82.4082 8.45384C83.0076 8.45384 83.5383 8.55833 84.0002 8.7673C84.4677 8.97078 84.8609 9.25949 85.1798 9.63344C85.4988 10.0019 85.7407 10.4391 85.9057 10.945C86.0762 11.4454 86.1614 11.9926 86.1614 12.5865V12.7598C86.1614 13.3757 86.0679 13.9449 85.881 14.4673C85.6995 14.9897 85.4328 15.4434 85.0808 15.8284C84.7289 16.2133 84.2944 16.513 83.7775 16.7275C83.2606 16.942 82.6694 17.0492 82.004 17.0492C81.3441 17.0492 80.7556 16.9365 80.2387 16.711C79.7218 16.48 79.2846 16.1611 78.9271 15.7541C78.5697 15.3472 78.3002 14.8687 78.1187 14.3188C77.9373 13.7634 77.8465 13.1585 77.8465 12.5041V12.3308C77.841 12.2208 77.8768 12.1164 77.9538 12.0174C78.0308 11.9184 78.1215 11.8084 78.226 11.6874C78.336 11.5664 78.435 11.4207 78.5229 11.2502C78.8254 10.6673 79.1664 10.1669 79.5458 9.74892C79.9308 9.33098 80.3597 9.01202 80.8326 8.79205C81.3056 8.56658 81.8308 8.45384 82.4082 8.45384ZM81.9875 10.1696C81.52 10.1696 81.1406 10.2824 80.8491 10.5078C80.5632 10.7278 80.3542 11.022 80.2222 11.3905C80.0902 11.7534 80.0242 12.1521 80.0242 12.5865V12.7598C80.0242 13.1117 80.06 13.4444 80.1315 13.7579C80.2085 14.0658 80.324 14.3381 80.4779 14.5745C80.6319 14.811 80.8354 14.998 81.0884 15.1355C81.3413 15.2674 81.6465 15.3334 82.004 15.3334C82.3614 15.3334 82.6639 15.2674 82.9114 15.1355C83.1643 14.998 83.3678 14.811 83.5218 14.5745C83.6758 14.3381 83.7885 14.0658 83.86 13.7579C83.937 13.4444 83.9755 13.1117 83.9755 12.7598V12.5865C83.9755 12.2621 83.937 11.9541 83.86 11.6627C83.7885 11.3712 83.6758 11.1155 83.5218 10.8955C83.3678 10.67 83.1616 10.4941 82.9031 10.3676C82.6501 10.2356 82.3449 10.1696 81.9875 10.1696ZM87.2833 12.5041V12.3308C87.2833 11.6764 87.3768 11.0742 87.5637 10.5243C87.7507 9.96889 88.0229 9.48771 88.3804 9.08076C88.7378 8.67381 89.175 8.35761 89.692 8.13214C90.2089 7.90117 90.7973 7.78568 91.4572 7.78568C92.1281 7.78568 92.7221 7.90117 93.239 8.13214C93.7614 8.35761 94.2014 8.67381 94.5588 9.08076C94.9163 9.48771 95.1885 9.96889 95.3755 10.5243C95.5624 11.0742 95.6559 11.6764 95.6559 12.3308V12.5041C95.6559 13.153 95.5624 13.7551 95.3755 14.3106C95.1885 14.8605 94.9163 15.3417 94.5588 15.7541C94.2014 16.1611 93.7642 16.4773 93.2472 16.7027C92.7303 16.9282 92.1391 17.041 91.4737 17.041C90.8138 17.041 90.2226 16.9282 89.7002 16.7027C89.1778 16.4773 88.7378 16.1611 88.3804 15.7541C88.0229 15.3417 87.7507 14.8605 87.5637 14.3106C87.3768 13.7551 87.2833 13.153 87.2833 12.5041ZM89.461 12.3308V12.5041C89.461 12.8945 89.4995 13.2602 89.5765 13.6012C89.6535 13.9421 89.7717 14.2418 89.9312 14.5003C90.0907 14.7588 90.2969 14.9622 90.5498 15.1107C90.8083 15.2537 91.1163 15.3252 91.4737 15.3252C91.8257 15.3252 92.1281 15.2537 92.3811 15.1107C92.6341 14.9622 92.8403 14.7588 92.9998 14.5003C93.1648 14.2418 93.2857 13.9421 93.3627 13.6012C93.4397 13.2602 93.4782 12.8945 93.4782 12.5041V12.3308C93.4782 11.9459 93.4397 11.5857 93.3627 11.2502C93.2857 10.9093 93.1648 10.6096 92.9998 10.3511C92.8403 10.0871 92.6313 9.8809 92.3729 9.73242C92.1199 9.57844 91.8147 9.50145 91.4572 9.50145C91.1053 9.50145 90.8028 9.57844 90.5498 9.73242C90.2969 9.8809 90.0907 10.0871 89.9312 10.3511C89.7717 10.6096 89.6535 10.9093 89.5765 11.2502C89.4995 11.5857 89.461 11.9459 89.461 12.3308Z" fill="white"/>
<defs>
<linearGradient id="paint0_linear_24_5053" x1="2.81087" y1="17.8002" x2="0.405367" y2="10.858" gradientUnits="userSpaceOnUse">
<stop offset="0.1444" stop-color="#F2E913"/>
<stop offset="0.3037" stop-color="#E7E518"/>
<stop offset="0.5823" stop-color="#CADB26"/>
<stop offset="0.891" stop-color="#A3CD39"/>
</linearGradient>
<linearGradient id="paint1_linear_24_5053" x1="3.72666" y1="3.41339" x2="9.83913" y2="1.08777" gradientUnits="userSpaceOnUse">
<stop offset="0.0592" stop-color="#0FA8E0"/>
<stop offset="0.5385" stop-color="#0099F9"/>
<stop offset="0.9234" stop-color="#0291EB"/>
</linearGradient>
<linearGradient id="paint2_linear_24_5053" x1="9.6044" y1="19.0758" x2="16.8895" y2="17.4319" gradientUnits="userSpaceOnUse">
<stop offset="0.1226" stop-color="#A3CD39"/>
<stop offset="0.2846" stop-color="#86C339"/>
<stop offset="0.8693" stop-color="#21A038"/>
</linearGradient>
<linearGradient id="paint3_linear_24_5053" x1="9.78234" y1="2.17454" x2="15.8408" y2="4.04086" gradientUnits="userSpaceOnUse">
<stop offset="0.0566" stop-color="#0291EB"/>
<stop offset="0.79" stop-color="#0C8ACB"/>
</linearGradient>
<linearGradient id="paint4_linear_24_5053" x1="3.29155" y1="18.1059" x2="9.79718" y2="20.5327" gradientUnits="userSpaceOnUse">
<stop offset="0.1324" stop-color="#F2E913"/>
<stop offset="0.2977" stop-color="#EBE716"/>
<stop offset="0.5306" stop-color="#D9E01F"/>
<stop offset="0.8023" stop-color="#BBD62D"/>
<stop offset="0.9829" stop-color="#A3CD39"/>
</linearGradient>
<linearGradient id="paint5_linear_24_5053" x1="1.84651" y1="11.1708" x2="4.44772" y2="4.41491" gradientUnits="userSpaceOnUse">
<stop offset="0.0698" stop-color="#A3CD39"/>
<stop offset="0.2599" stop-color="#81C55F"/>
<stop offset="0.9216" stop-color="#0FA8E0"/>
</linearGradient>
</defs>
</svg>
