<svg width="13" height="15" viewBox="0 0 13 15" fill="none" xmlns="http://www.w3.org/2000/svg">
<path d="M6.0705 3.2091C4.88381 3.2091 3.72377 3.55121 2.73708 4.19219C1.75038 4.83316 0.981347 5.74421 0.527221 6.81011C0.0730952 7.87601 -0.0457247 9.0489 0.185787 10.1805C0.417298 11.312 0.988742 12.3514 1.82786 13.1672C2.66697 13.983 3.73607 14.5386 4.89996 14.7637C6.06384 14.9888 7.27024 14.8732 8.3666 14.4317C9.46295 13.9902 10.4 13.2425 11.0593 12.2833C11.7186 11.324 12.0705 10.1962 12.0705 9.04243C12.0673 7.49628 11.4342 6.01434 10.3096 4.92104C9.1851 3.82775 7.66082 3.21218 6.0705 3.2091ZM6.0705 13.4758C5.16861 13.4758 4.28699 13.2158 3.5371 12.7286C2.78721 12.2415 2.20274 11.5491 1.85761 10.739C1.51247 9.92891 1.42217 9.03751 1.59812 8.17753C1.77407 7.31755 2.20836 6.5276 2.84609 5.90759C3.48382 5.28758 4.29633 4.86534 5.18089 4.69428C6.06544 4.52322 6.9823 4.61101 7.81553 4.94656C8.64876 5.28211 9.36094 5.85034 9.862 6.5794C10.3631 7.30846 10.6305 8.1656 10.6305 9.04243C10.6289 10.2177 10.148 11.3445 9.29315 12.1756C8.43833 13.0066 7.2794 13.4742 6.0705 13.4758ZM8.6145 6.5691C8.68144 6.63363 8.73457 6.71041 8.77083 6.79501C8.80709 6.87961 8.82576 6.97036 8.82576 7.06201C8.82576 7.15366 8.80709 7.24441 8.77083 7.32901C8.73457 7.41361 8.68144 7.49039 8.6145 7.55493L6.5805 9.53826C6.44463 9.66864 6.2614 9.74175 6.0705 9.74175C5.87959 9.74175 5.69637 9.66864 5.5605 9.53826C5.49337 9.47323 5.44012 9.39595 5.40378 9.31087C5.36744 9.22578 5.34873 9.13456 5.34873 9.04243C5.34873 8.9503 5.36744 8.85907 5.40378 8.77399C5.44012 8.6889 5.49337 8.61163 5.5605 8.54659L7.6005 6.5691C7.66687 6.50401 7.74585 6.45236 7.83287 6.41711C7.91989 6.38185 8.01323 6.3637 8.1075 6.3637C8.20177 6.3637 8.2951 6.38185 8.38212 6.41711C8.46914 6.45236 8.54812 6.50401 8.6145 6.5691ZM3.9105 1.57576C3.9105 1.39011 3.98635 1.21206 4.12138 1.08079C4.25641 0.949513 4.43954 0.875763 4.6305 0.875763H7.5105C7.70145 0.875763 7.88459 0.949513 8.01961 1.08079C8.15464 1.21206 8.2305 1.39011 8.2305 1.57576C8.2305 1.76141 8.15464 1.93946 8.01961 2.07074C7.88459 2.20201 7.70145 2.27576 7.5105 2.27576H4.6305C4.43954 2.27576 4.25641 2.20201 4.12138 2.07074C3.98635 1.93946 3.9105 1.76141 3.9105 1.57576Z" fill="#6FC05F"/>
</svg>
