<svg width="46" height="31" viewBox="0 0 46 31" fill="none" xmlns="http://www.w3.org/2000/svg">
<g clip-path="url(#clip0_253_3104)">
<path d="M44.2074 0.739258C42.6546 1.20587 41.1019 1.59472 39.5492 2.06134C37.9965 2.52796 36.4438 2.9168 34.8911 3.38342C33.9595 3.61673 33.1831 4.86104 33.1831 6.02758V9.2939V12.5602C33.1831 13.7268 33.9595 14.9711 34.8911 15.2044C36.4438 15.671 37.9965 16.0598 39.5492 16.5265C41.1019 16.9931 42.6546 17.3819 44.2074 17.8485C45.139 18.0818 45.8377 16.7598 45.9153 14.8933V3.77227C45.9153 1.98357 45.2166 0.739258 44.4403 0.739258C44.3626 0.739258 44.285 0.739258 44.2074 0.739258Z" fill="#033D41"/>
<path d="M11.8331 3.38341C10.2804 2.91679 8.72767 2.52794 7.17496 2.06133C5.62225 1.59471 4.06953 1.20586 2.51682 0.739246C1.58519 0.505937 0.808838 1.90579 0.808838 3.92779V9.37165V14.8155C0.808838 16.8375 1.58519 18.2374 2.51682 17.9263C4.06953 17.4597 5.62225 17.0708 7.17496 16.6042C8.72767 16.1376 10.2804 15.7487 11.8331 15.2821C12.7647 15.0488 13.5411 13.8045 13.5411 12.638V9.29388V6.02757C13.5411 4.86103 12.7647 3.69448 11.8331 3.38341Z" fill="#8FC584"/>
<path d="M26.6614 3.38344C27.4377 2.91682 28.2141 2.52797 28.9904 2.06136C29.7668 1.59474 30.5432 1.20589 31.3195 0.739276C31.7853 0.505968 32.1735 1.90582 32.1735 3.85005V9.29391V14.7378C32.1735 16.7598 31.7853 18.1596 31.3195 17.8485C30.5432 17.3819 29.7668 16.9931 28.9904 16.5265C28.2141 16.0598 27.4377 15.671 26.6614 15.2044C26.1956 14.9711 25.8074 13.7268 25.8074 12.5602V9.29391V6.02759C25.8074 4.86105 26.1956 3.69451 26.6614 3.38344Z" fill="#025842"/>
<path d="M20.0625 3.38344C19.2862 2.91682 18.5098 2.52797 17.7335 2.06136C16.9571 1.59474 16.1808 1.20589 15.4044 0.739276C14.9386 0.505968 14.5504 1.90582 14.5504 3.85005V9.29391V14.7378C14.5504 16.7598 14.9386 18.1596 15.4044 17.8485C16.1808 17.3819 16.9571 16.9931 17.7335 16.5265C18.5098 16.0598 19.2862 15.671 20.0625 15.2044C20.5283 14.9711 20.9165 13.7268 20.9165 12.5602V9.29391V6.02759C20.9165 4.86105 20.5283 3.69451 20.0625 3.38344Z" fill="#6BB86F"/>
<path d="M24.0218 3.38344C24.0995 2.91682 24.2548 2.52797 24.3324 2.06136C24.4877 1.59474 24.5653 1.20589 24.7206 0.739276C24.7982 0.505968 24.8758 1.90582 24.8758 3.85005V9.29391V14.7378C24.8758 16.7598 24.7982 18.1596 24.7206 17.8485C24.6429 17.3819 24.4877 16.9931 24.3324 16.5265C24.2548 16.0598 24.0995 15.671 24.0218 15.2044C23.9442 14.9711 23.8666 13.7268 23.8666 12.5602V9.29391V6.02759C23.8666 4.86105 23.9442 3.69451 24.0218 3.38344Z" fill="#2F7433"/>
<path d="M22.7799 3.38344C22.6246 2.91682 22.547 2.52797 22.3917 2.06136C22.2364 1.59474 22.1588 1.20589 22.0035 0.739276C21.9259 0.505968 21.8483 1.90582 21.8483 3.85005V9.29391V14.7378C21.8483 16.7598 21.9259 18.1596 22.0035 17.8485C22.1588 17.3819 22.2364 16.9931 22.3917 16.5265C22.547 16.0598 22.6246 15.671 22.7799 15.2044C22.8575 14.9711 22.9352 13.7268 22.9352 12.5602V9.29391V6.02759C22.8575 4.86105 22.7799 3.69451 22.7799 3.38344Z" fill="#3C8340"/>
<path d="M10.9791 29.6699V24.4593H9.58162V28.8144C9.50399 28.8144 9.42635 28.8922 9.27108 28.8922C9.11581 28.8922 8.96054 28.8922 8.80526 28.8922C8.49472 28.8922 8.26182 28.8144 8.10654 28.6589C7.95127 28.5033 7.87364 28.27 7.87364 28.0367V24.3816H6.4762V27.9589C6.4762 28.4256 6.55383 28.8144 6.7091 29.1255C6.86437 29.4366 7.17492 29.6699 7.48546 29.8254C7.796 29.981 8.26182 30.0587 8.72763 30.0587C9.03817 30.0587 9.27108 30.0587 9.58162 29.981C9.89216 29.981 10.1251 29.9032 10.358 29.8254C10.5909 29.8254 10.8238 29.7476 10.9791 29.6699ZM16.2583 29.981V26.1703C16.2583 25.7814 16.1806 25.4703 16.0254 25.1592C15.8701 24.8482 15.5596 24.6926 15.249 24.5371C14.8608 24.3816 14.4727 24.3038 13.9292 24.3038C13.4634 24.3038 13.0752 24.3816 12.687 24.3816C12.2989 24.4593 11.9883 24.5371 11.6778 24.6926V29.9032H13.0752V25.6259C13.1529 25.6259 13.3081 25.5481 13.4634 25.5481C13.6187 25.5481 13.7739 25.4703 13.9292 25.4703C14.2398 25.4703 14.4727 25.5481 14.6279 25.7036C14.7832 25.8592 14.8608 26.0925 14.8608 26.3258V29.981H16.2583ZM18.5097 22.8262C18.5097 22.6706 18.5097 22.5929 18.4321 22.4373C18.3544 22.3596 18.2768 22.204 18.1215 22.204C17.9663 22.1262 17.8886 22.1262 17.7334 22.1262C17.5781 22.1262 17.4228 22.1262 17.3452 22.204C17.1899 22.2818 17.1123 22.3596 17.0346 22.4373C16.957 22.5151 16.957 22.6706 16.957 22.8262C16.957 22.9817 16.957 23.0595 17.0346 23.215C17.1123 23.2928 17.1899 23.4483 17.3452 23.5261C17.5005 23.6039 17.5781 23.6039 17.7334 23.6039C17.8886 23.6039 18.0439 23.6039 18.1215 23.5261C18.2768 23.4483 18.3544 23.3706 18.4321 23.215C18.5097 23.1372 18.5097 22.9817 18.5097 22.8262ZM18.4321 24.4593H17.0346V29.981H18.4321V24.4593ZM22.0033 29.9032V28.7366C21.9257 28.7366 21.9257 28.8144 21.848 28.8144C21.7704 28.8144 21.6928 28.8144 21.6151 28.8144C21.4599 28.8144 21.3822 28.8144 21.3046 28.7366C21.227 28.7366 21.1493 28.6589 21.0717 28.5811C20.9941 28.5033 20.9941 28.3478 20.9941 28.1923V25.4703H22.0033V24.4593H20.9941V22.8262L19.5966 23.215V24.4593H18.8979V25.4703H19.5966V28.27C19.5966 28.8144 19.7519 29.281 19.9848 29.5921C20.2177 29.9032 20.6059 30.0587 21.1493 30.0587C21.227 30.0587 21.3822 30.0587 21.4599 30.0587C21.5375 30.0587 21.6928 30.0587 21.7704 29.981C21.8481 29.981 21.9257 29.9032 22.0033 29.9032ZM27.0496 26.8702C27.0496 26.4813 26.972 26.1703 26.8944 25.8592C26.8167 25.5481 26.6615 25.3148 26.4286 25.0815C26.1956 24.8482 25.9627 24.6926 25.6522 24.5371C25.3417 24.3816 25.0311 24.3816 24.6429 24.3816C24.2548 24.3816 23.8666 24.4593 23.556 24.6149C23.2455 24.7704 22.9349 24.9259 22.7797 25.237C22.5468 25.4703 22.3915 25.7814 22.3139 26.1703C22.2362 26.5591 22.1586 26.8702 22.1586 27.3368C22.1586 27.7256 22.2362 28.1145 22.3139 28.5033C22.4691 28.8922 22.6244 29.1255 22.8573 29.4366C23.0902 29.6699 23.4008 29.9032 23.7113 30.0587C24.0218 30.2143 24.4877 30.292 24.8758 30.292C25.1087 30.292 25.4193 30.292 25.6522 30.2143C25.8851 30.2143 26.118 30.1365 26.3509 30.0587C26.5838 29.981 26.7391 29.9032 26.8944 29.8254L26.5062 28.8144C26.3509 28.8922 26.1956 28.9699 26.0404 28.9699C25.8851 29.0477 25.7298 29.0477 25.4969 29.1255C25.3417 29.1255 25.1087 29.2033 24.9535 29.2033C24.7206 29.2033 24.41 29.1255 24.2548 29.0477C24.0218 28.97 23.8666 28.8144 23.7113 28.6589C23.556 28.5033 23.4784 28.27 23.4784 27.9589L27.0496 27.4923C27.0496 27.4146 27.0496 27.3368 27.0496 27.259C27.0496 27.0257 27.0496 26.9479 27.0496 26.8702ZM25.7298 26.6369L23.4008 26.9479C23.4008 26.6369 23.4784 26.3258 23.556 26.0925C23.6337 25.8592 23.7889 25.7036 24.0218 25.5481C24.1771 25.3926 24.41 25.3926 24.6429 25.3926C24.8758 25.3926 25.0311 25.4703 25.1864 25.5481C25.3417 25.6259 25.4969 25.7814 25.5746 25.9369C25.6522 26.0925 25.7298 26.3258 25.7298 26.6369ZM29.0682 21.9707H27.6707V29.981H29.0682V21.9707ZM31.3196 21.9707H29.9222V29.981H31.3196V21.9707ZM36.7541 26.8702C36.7541 26.4813 36.6765 26.1703 36.5988 25.8592C36.5212 25.5481 36.3659 25.3148 36.133 25.0815C35.9001 24.8482 35.6672 24.6926 35.3566 24.5371C35.0461 24.3816 34.7356 24.3816 34.3474 24.3816C33.9592 24.3816 33.571 24.4593 33.2605 24.6149C32.9499 24.7704 32.6394 24.9259 32.4841 25.237C32.2512 25.4703 32.096 25.7814 32.0183 26.1703C31.9407 26.4036 31.863 26.7924 31.863 27.259C31.863 27.6479 31.9407 28.0367 32.0183 28.4256C32.1736 28.8144 32.3289 29.0477 32.5618 29.3588C32.7947 29.5921 33.1052 29.8254 33.4158 29.981C33.7263 30.1365 34.1921 30.2143 34.5803 30.2143C34.8132 30.2143 35.1237 30.2143 35.3566 30.1365C35.5896 30.1365 35.8225 30.0587 36.0554 29.981C36.2883 29.9032 36.4435 29.8254 36.5988 29.7476L36.2106 28.7366C36.0554 28.8144 35.9001 28.8922 35.7448 28.8922C35.5896 28.97 35.4343 28.97 35.2014 29.0477C35.0461 29.0477 34.8132 29.1255 34.6579 29.1255C34.425 29.1255 34.1145 29.0477 33.9592 28.9699C33.7263 28.8922 33.571 28.7366 33.4158 28.5811C33.2605 28.4256 33.1829 28.1923 33.1829 27.8812L36.7541 27.4146C36.7541 27.3368 36.7541 27.259 36.7541 27.1813C36.7541 27.0257 36.7541 26.9479 36.7541 26.8702ZM35.4343 26.6369L33.1052 26.9479C33.1052 26.6369 33.1828 26.3258 33.2605 26.0925C33.3381 25.8592 33.4934 25.7036 33.7263 25.5481C33.8816 25.3926 34.1145 25.3926 34.3474 25.3926C34.5803 25.3926 34.7356 25.4703 34.8908 25.5481C35.0461 25.6259 35.2014 25.7814 35.279 25.9369C35.3566 26.0925 35.4343 26.3258 35.4343 26.6369ZM40.2477 24.3816C40.1701 24.3816 40.0148 24.3816 39.9372 24.3816C39.7819 24.3816 39.7042 24.3816 39.549 24.3816C39.0832 24.3816 38.695 24.4593 38.3068 24.4593C37.9186 24.5371 37.6081 24.6149 37.2975 24.7704V29.981H38.695V25.5481C38.7726 25.5481 38.9279 25.4703 39.0055 25.4703C39.1608 25.4703 39.2384 25.4703 39.3937 25.4703C39.4713 25.4703 39.6266 25.4703 39.7042 25.4703C39.7819 25.4703 39.9371 25.4703 40.0148 25.5481L40.2477 24.3816Z" fill="#4A4A49"/>
</g>
<defs>
<clipPath id="clip0_253_3104">
<rect width="45.1063" height="29.3968" fill="white" transform="translate(0.808838 0.739258)"/>
</clipPath>
</defs>
</svg>
