<svg width="31" height="16" viewBox="0 0 31 16" fill="none" xmlns="http://www.w3.org/2000/svg">
<path d="M2.02657 5.57138L0.424622 0.595691H1.10977L1.87486 3.048C2.0853 3.71892 2.26801 4.32539 2.39851 4.90872H2.4132C2.55186 4.332 2.75577 3.70405 2.97437 3.05461L3.80634 0.595691H4.48334L2.72641 5.57138H2.02657Z" fill="#9DBDA9"/>
<path d="M4.81939 3.90393C4.83407 4.78306 5.38708 5.14331 6.02982 5.14331C6.48985 5.14331 6.76555 5.06233 7.00698 4.95822L7.11628 5.42423C6.88953 5.52834 6.50454 5.64567 5.94336 5.64567C4.85691 5.64567 4.20764 4.92187 4.20764 3.84279C4.20764 2.76535 4.83407 1.91597 5.8618 1.91597C7.01351 1.91597 7.32019 2.94217 7.32019 3.59822C7.32019 3.73042 7.30551 3.83452 7.29736 3.90228H4.81939V3.90393ZM6.70029 3.43792C6.70845 3.0248 6.53227 2.38197 5.81123 2.38197C5.16196 2.38197 4.87974 2.98844 4.82754 3.43792H6.70029Z" fill="#9DBDA9"/>
<path d="M7.82264 3.11232C7.82264 2.69258 7.81448 2.33068 7.79327 1.99688H8.35445L8.37566 2.69919H8.40502C8.56489 2.21997 8.95151 1.91756 9.38218 1.91756C9.45396 1.91756 9.50616 1.92582 9.56325 1.93904V2.55212C9.498 2.53725 9.43275 2.52898 9.34466 2.52898C8.89278 2.52898 8.57304 2.87601 8.48495 3.3635C8.47027 3.45273 8.45559 3.55519 8.45559 3.66756V5.57289H7.82264V3.11232Z" fill="#9DBDA9"/>
<path d="M10.6596 0.994043C10.6677 1.21548 10.5062 1.3923 10.2517 1.3923C10.0266 1.3923 9.86511 1.21548 9.86511 0.994043C9.86511 0.765998 10.0331 0.587527 10.2664 0.587527C10.5062 0.587527 10.6596 0.765998 10.6596 0.994043ZM9.94342 1.99876H10.5862V5.57148H9.94342V1.99876Z" fill="#9DBDA9"/>
<path d="M11.4247 5.57135V2.49274H10.9288V1.99864H11.4247V1.82843C11.4247 1.32607 11.534 0.868327 11.8325 0.580791C12.074 0.344483 12.3937 0.248638 12.6922 0.248638C12.919 0.248638 13.1147 0.299866 13.2387 0.352746L13.1523 0.855107C13.0576 0.810489 12.9255 0.774134 12.7428 0.774134C12.1963 0.774134 12.0593 1.26162 12.0593 1.80695V1.99864H12.9108V2.49274H12.0593V5.57135H11.4247Z" fill="#9DBDA9"/>
<path d="M14.2567 0.994043C14.2648 1.21548 14.1033 1.3923 13.8488 1.3923C13.6237 1.3923 13.4622 1.21548 13.4622 0.994043C13.4622 0.765998 13.6302 0.587527 13.8635 0.587527C14.1033 0.587527 14.2567 0.765998 14.2567 0.994043ZM13.5438 1.99876H14.1849V5.57148H13.5438V1.99876Z" fill="#9DBDA9"/>
<path d="M15.3154 3.90393C15.3301 4.78306 15.8831 5.14331 16.5258 5.14331C16.9859 5.14331 17.2616 5.06233 17.503 4.95822L17.6123 5.42423C17.3855 5.52834 16.9989 5.64567 16.4377 5.64567C15.3513 5.64567 14.702 4.92187 14.702 3.84279C14.702 2.76535 15.3285 1.91597 16.3562 1.91597C17.5079 1.91597 17.8146 2.94217 17.8146 3.59822C17.8146 3.73042 17.7999 3.83452 17.7917 3.90228H15.3154V3.90393ZM17.1947 3.43792C17.2012 3.0248 17.0267 2.38197 16.3056 2.38197C15.658 2.38197 15.3741 2.98844 15.3219 3.43792H17.1947Z" fill="#9DBDA9"/>
<path d="M21.3659 0.329677V4.64767C21.3659 4.96495 21.3724 5.32684 21.3936 5.57141H20.8194L20.79 4.95173H20.7754C20.578 5.34998 20.1489 5.65239 19.5731 5.65239C18.7199 5.65239 18.0657 4.92198 18.0657 3.83629C18.0576 2.64814 18.7868 1.91773 19.6481 1.91773C20.1865 1.91773 20.5519 2.17717 20.7117 2.46471H20.7264V0.329677H21.3659ZM20.7232 3.45291C20.7232 3.37193 20.7166 3.26122 20.6938 3.17859C20.5992 2.76547 20.2484 2.42505 19.7688 2.42505C19.1049 2.42505 18.7117 3.01499 18.7117 3.80654C18.7117 4.53034 19.0608 5.12689 19.7542 5.12689C20.1832 5.12689 20.5763 4.83936 20.6938 4.35187C20.715 4.26428 20.7232 4.17505 20.7232 4.07259V3.45291Z" fill="#9DBDA9"/>
<path d="M23.7395 5.57141C23.7542 5.32684 23.7689 4.96495 23.7689 4.64767V0.329677H24.4034V2.57377H24.4181C24.6433 2.17552 25.0511 1.91608 25.6204 1.91608C26.4948 1.91608 27.1147 2.65475 27.1082 3.73879C27.1082 5.01617 26.3137 5.65073 25.5258 5.65073C25.0152 5.65073 24.6074 5.45243 24.3447 4.97982H24.3235L24.2942 5.56976H23.7395V5.57141ZM24.4034 4.14035C24.4034 4.22132 24.4181 4.30229 24.4328 4.37666C24.5568 4.82779 24.9271 5.13681 25.3937 5.13681C26.0641 5.13681 26.4654 4.58322 26.4654 3.76358C26.4654 3.04804 26.1 2.43496 25.4165 2.43496C24.9793 2.43496 24.5715 2.73737 24.4393 3.23312C24.4247 3.30749 24.4034 3.39507 24.4034 3.49918V4.14035Z" fill="#9DBDA9"/>
<path d="M27.808 1.99885L28.5797 4.11075C28.6596 4.34706 28.7477 4.62798 28.8048 4.84115H28.8195C28.8863 4.62633 28.9581 4.35367 29.0462 4.09422L29.7461 1.9972H30.4247L29.4622 4.54536C29.0038 5.77151 28.6906 6.39946 28.2534 6.78285C27.9402 7.06212 27.627 7.17284 27.4671 7.20423L27.3056 6.65725C27.4671 6.60603 27.6775 6.50192 27.8668 6.33997C28.0413 6.19951 28.2599 5.94998 28.4067 5.61618C28.4361 5.55008 28.4573 5.49885 28.4573 5.46084C28.4573 5.42449 28.4426 5.37161 28.4133 5.29064L27.1082 1.9972H27.808V1.99885Z" fill="#9DBDA9"/>
<path d="M11.0641 8.01045L9.11954 12.9911L8.33325 8.75738C8.24352 8.28477 7.87811 8.01045 7.47191 8.01045H4.29247L4.25006 8.22197C4.90259 8.36739 5.64321 8.59709 6.09345 8.84331C6.36751 8.99534 6.44744 9.12754 6.53554 9.48779L8.02656 15.3277H10.0005L13.0282 8.01045H11.0641Z" fill="#9DBDA9"/>
<path d="M13.8292 8.01045L12.2844 15.3277H14.1539L15.6954 8.01045H13.8292Z" fill="#9DBDA9"/>
<path d="M18.1472 10.0382C18.1538 9.77545 18.4001 9.49783 18.9401 9.42346C19.2092 9.38876 19.9449 9.36232 20.7834 9.75066L21.1113 8.20061C20.6627 8.03536 20.082 7.87507 19.3642 7.87507C17.5159 7.87507 16.2174 8.87153 16.206 10.296C16.1962 11.3486 17.1358 11.9353 17.8422 12.2873C18.5697 12.6442 18.8161 12.8739 18.8112 13.1978C18.8079 13.6886 18.2304 13.9034 17.6954 13.9117C16.7541 13.9265 16.2092 13.6555 15.7737 13.4506L15.4376 15.0535C15.8732 15.2568 16.6791 15.4336 17.5159 15.4419C19.4768 15.4419 20.7606 14.4586 20.7671 12.9383C20.7737 11.0066 18.1293 10.9008 18.1472 10.0382Z" fill="#9DBDA9"/>
<path d="M23.5584 12.7366L24.5518 9.9885L25.1114 12.7366H23.5584ZM24.268 8.01045C23.9091 8.01045 23.6057 8.22197 23.4719 8.54752L20.6693 15.3277H22.6334L23.0233 14.2354H25.4148L25.6399 15.3277H27.3724L25.8651 8.01045H24.268Z" fill="#9DBDA9"/>
</svg>
