<svg width="22" height="7" viewBox="0 0 22 7" fill="none" xmlns="http://www.w3.org/2000/svg">
<path fill-rule="evenodd" clip-rule="evenodd" d="M10.7321 0.123629L9.28402 6.89363H7.53254L8.98075 0.123629H10.7321ZM18.1005 4.4952L19.0226 1.95273L19.5529 4.4952H18.1005ZM20.0557 6.89363H21.6751L20.2602 0.123629H18.7663C18.4295 0.123629 18.1458 0.318881 18.0202 0.619916L15.392 6.89363H17.2315L17.5967 5.88263H19.8434L20.0557 6.89363ZM15.4833 4.68355C15.491 2.89694 13.0135 2.79787 13.0299 1.99949C13.0353 1.75687 13.2666 1.4986 13.7727 1.43255C14.0234 1.40018 14.7155 1.374 15.5001 1.73543L15.8069 0.299194C15.3853 0.146834 14.8431 0 14.1686 0C12.4371 0 11.219 0.919685 11.2092 2.23777C11.1982 3.21245 12.0795 3.75597 12.7419 4.08056C13.4249 4.41225 13.6538 4.62513 13.6506 4.92156C13.6458 5.37575 13.1057 5.57692 12.6031 5.58442C11.722 5.59824 11.2114 5.34641 10.8043 5.15655L10.4864 6.64081C10.8962 6.8283 11.6516 6.99171 12.4335 7C14.2742 7 15.478 6.0911 15.4833 4.68355ZM8.22941 0.123629L5.39154 6.8936H3.54033L2.1437 1.49065C2.05909 1.15856 1.98528 1.03633 1.7278 0.89608C1.30664 0.667147 0.611282 0.453213 0 0.320196L0.0413135 0.123629H3.02167C3.40139 0.123629 3.74282 0.376245 3.82965 0.813585L4.56738 4.73136L6.38938 0.123629H8.22941Z" fill="#3A83F1"/>
</svg>
