<svg width="559" height="88" viewBox="0 0 559 88" fill="none" xmlns="http://www.w3.org/2000/svg">
<g clip-path="url(#clip0_8_1309)">
<path d="M250.102 26.5545L261.742 18.0002H222.815V69.3798H261.742V60.7714H233.914V47.6694H257.681V39.1151H233.914V26.5545H250.102Z" fill="#21A038"/>
<path d="M193.362 38.1406H179.881V26.5545H201.537L213.124 18.0002H168.566V69.3798H191.738C204.678 69.3798 212.203 63.4785 212.203 53.1376C212.203 42.7967 205.652 38.1406 193.362 38.1406ZM191.521 60.9339H179.881V46.5866H191.521C198.614 46.5866 201.862 48.9146 201.862 53.7331C201.862 58.5517 198.343 60.7714 191.521 60.7714V60.9339Z" fill="#21A038"/>
<path d="M293.089 18.0002H271.974V69.3798H283.073V54.816H293.089C306.57 54.816 314.746 47.7777 314.746 36.4081C314.746 25.0385 306.787 18.0002 293.089 18.0002ZM293.089 46.2617H283.073V26.5545H293.089C300.29 26.5545 303.917 30.0736 303.917 36.4081C303.917 42.7426 300.128 46.2617 293.089 46.2617Z" fill="#21A038"/>
<path d="M149.725 58.281C146.78 59.8705 143.488 60.7074 140.142 60.7174C137.856 60.8161 135.576 60.4406 133.443 59.6144C131.31 58.7883 129.371 57.5295 127.749 55.9172C126.126 54.3049 124.855 52.3742 124.016 50.2465C123.176 48.1189 122.786 45.8405 122.871 43.5547C122.809 41.2824 123.216 39.0218 124.066 36.9134C124.915 34.8051 126.19 32.8942 127.81 31.2996C129.43 29.7049 131.361 28.4608 133.482 27.6445C135.604 26.8281 137.871 26.4571 140.142 26.5545C143.766 26.5409 147.305 27.6574 150.266 29.7489L158.279 24.0641L157.737 23.5227C152.741 19.3002 146.355 17.0817 139.817 17.2965C132.558 17.1417 125.512 19.7549 120.11 24.6055C117.558 27.0415 115.55 29.9885 114.216 33.2538C112.882 36.5192 112.252 40.0293 112.367 43.5547C112.311 47.0967 112.967 50.6138 114.297 53.8971C115.627 57.1803 117.604 60.1625 120.11 62.6664C125.419 67.6227 132.447 70.3213 139.708 70.192C143.353 70.3199 146.985 69.6934 150.376 68.3518C153.767 67.0103 156.845 64.9825 159.416 62.3957L152.269 56.9816L149.725 58.281Z" fill="#21A038"/>
<path d="M448.852 18.0544V69.434H460.005V48.4273H483.665V69.434H494.493V18.0544H483.665V39.1693H460.005V18.0544H448.852ZM429.741 69.434H441.435L419.779 18.0544H408.463L386.265 69.434H397.473L401.966 59.0931H425.518L429.741 69.434ZM405.323 50.5388L413.931 29.9112L421.998 50.5388H405.323ZM519.722 48.9688H526.598L543.653 69.6505H557.946L535.207 43.0674L555.076 18.2709H542.137L525.894 40.0355H519.722V18.0002H508.569V69.3798H519.722V48.9688ZM349.558 38.1406V26.6628H378.632V18.0544H338.459V69.434H361.577C374.571 69.434 382.097 63.5868 382.097 53.1917C382.097 42.7967 375.329 38.1406 363.039 38.1406H349.558ZM349.558 60.9339V46.6407H361.198C368.237 46.6407 371.539 49.0229 371.539 53.8414C371.539 58.6599 368.074 60.988 361.198 60.988H349.558V60.9339Z" fill="#21A038"/>
<path d="M77.5549 17.6753C79.6407 20.3002 81.4547 23.13 82.969 26.1213L44.0418 54.8158L27.7996 44.5832V32.2933L44.0418 42.4718L77.5549 17.6753Z" fill="#21A038"/>
<path d="M10.8537 43.5547C10.8537 42.9592 10.8537 42.4719 10.8537 41.8764L1.05422 41.5515C1.05422 42.2012 1.05422 42.9592 1.05422 43.663C1.0482 49.2658 2.15006 54.8145 4.29641 59.99C6.44277 65.1654 9.59125 69.8653 13.5607 73.8194L20.599 66.8352C17.4837 63.8163 15.0136 60.1963 13.3385 56.1946C11.6634 52.1929 10.818 47.8927 10.8537 43.5547V43.5547Z" fill="url(#paint0_linear_8_1309)"/>
<path d="M43.7171 11.0702C44.2754 11.0182 44.8373 11.0182 45.3955 11.0702L45.8828 1.16245H44.042C38.3814 1.11411 32.7676 2.18991 27.5259 4.32746C22.2843 6.46502 17.5191 9.62181 13.5066 13.6148L20.5449 20.599C23.5842 17.5558 27.1976 15.1464 31.1754 13.5106C35.1532 11.8749 39.4162 11.0454 43.7171 11.0702V11.0702Z" fill="url(#paint1_linear_8_1309)"/>
<path d="M43.7171 76.5264C43.1408 76.5802 42.5608 76.5802 41.9846 76.5264L41.4973 86.38H43.6088C54.9633 86.3708 65.8493 81.8528 73.8735 73.8194L66.8352 66.8352C63.8344 69.926 60.2394 72.3778 56.2665 74.0433C52.2936 75.7087 48.0249 76.5534 43.7171 76.5264V76.5264Z" fill="url(#paint2_linear_8_1309)"/>
<path d="M62.2332 16.4842L70.5709 10.5287C62.9119 4.3336 53.3513 0.968278 43.5005 0.999978V0.999978V11.0702C50.1482 10.9415 56.679 12.8291 62.2332 16.4842V16.4842Z" fill="url(#paint3_linear_8_1309)"/>
<path d="M86.4883 43.5547C86.4737 40.9946 86.2382 38.4405 85.7845 35.9209L76.5264 42.9051V43.5547C76.54 48.1415 75.5822 52.6791 73.7158 56.869C71.8495 61.0589 69.117 64.8061 65.6982 67.8639L72.3576 75.1729C76.8031 71.1921 80.3594 66.3186 82.7942 60.8705C85.2291 55.4225 86.4878 49.5222 86.4883 43.5547V43.5547Z" fill="#21A038"/>
<path d="M43.717 76.5264C39.1238 76.5306 34.5811 75.5688 30.3837 73.7033C26.1864 71.8378 22.4284 69.1104 19.3536 65.6982L11.9905 72.3034C15.9992 76.7394 20.8944 80.2845 26.3596 82.7093C31.8247 85.1341 37.738 86.3846 43.717 86.38V76.5264Z" fill="url(#paint4_linear_8_1309)"/>
<path d="M21.6818 19.4079L15.0766 12.0989C10.6532 16.0598 7.11365 20.9079 4.68832 26.3276C2.26299 31.7473 1.00627 37.617 1 43.5546H10.8536C10.8829 38.9985 11.8609 34.4985 13.7252 30.3411C15.5895 26.1838 18.2992 22.4603 21.6818 19.4079V19.4079Z" fill="url(#paint5_linear_8_1309)"/>
</g>
<defs>
<linearGradient id="paint0_linear_8_1309" x1="12.3929" y1="68.7101" x2="2.42203" y2="39.7695" gradientUnits="userSpaceOnUse">
<stop offset="0.14" stop-color="#F2E913"/>
<stop offset="0.3" stop-color="#E7E518"/>
<stop offset="0.58" stop-color="#CADB26"/>
<stop offset="0.89" stop-color="#A3CD39"/>
</linearGradient>
<linearGradient id="paint1_linear_8_1309" x1="21.9618" y1="15.4448" x2="47.4684" y2="5.60792" gradientUnits="userSpaceOnUse">
<stop offset="0.06" stop-color="#0FA8E0"/>
<stop offset="0.54" stop-color="#0099F9"/>
<stop offset="0.92" stop-color="#0291EB"/>
</linearGradient>
<linearGradient id="paint2_linear_8_1309" x1="46.3429" y1="80.392" x2="76.7561" y2="73.6327" gradientUnits="userSpaceOnUse">
<stop offset="0.12" stop-color="#A3CD39"/>
<stop offset="0.28" stop-color="#86C339"/>
<stop offset="0.87" stop-color="#21A038"/>
</linearGradient>
<linearGradient id="paint3_linear_8_1309" x1="45.3824" y1="7.04858" x2="70.6909" y2="14.8671" gradientUnits="userSpaceOnUse">
<stop offset="0.06" stop-color="#0291EB"/>
<stop offset="0.79" stop-color="#0C8ACB"/>
</linearGradient>
<linearGradient id="paint4_linear_8_1309" x1="14.9168" y1="74.5383" x2="41.9186" y2="84.8761" gradientUnits="userSpaceOnUse">
<stop offset="0.13" stop-color="#F2E913"/>
<stop offset="0.3" stop-color="#EBE716"/>
<stop offset="0.53" stop-color="#D9E01F"/>
<stop offset="0.8" stop-color="#BBD62D"/>
<stop offset="0.98" stop-color="#A3CD39"/>
</linearGradient>
<linearGradient id="paint5_linear_8_1309" x1="6.23703" y1="45.6445" x2="16.9862" y2="17.1526" gradientUnits="userSpaceOnUse">
<stop offset="0.07" stop-color="#A3CD39"/>
<stop offset="0.26" stop-color="#81C55F"/>
<stop offset="0.92" stop-color="#0FA8E0"/>
</linearGradient>
<clipPath id="clip0_8_1309">
<rect width="557" height="85.38" fill="white" transform="translate(1 1)"/>
</clipPath>
</defs>
</svg>
