<svg width="527" height="116" viewBox="0 0 527 116" fill="none" xmlns="http://www.w3.org/2000/svg">
<path d="M239.73 69.3391L236.988 86.2631H253.506L256.248 69.3391H268.399L260.953 114.865H248.903L252.05 95.3343H235.533L232.385 114.865H220.2L227.781 69.3391H239.865H239.73V69.3391ZM287.862 69.3391H275.169L267.553 114.865H280.009L283.394 95.1989L296.256 115H312.401L295.477 91.0018L318.156 69.4745H302.924L284.68 88.2262L287.862 69.3391V69.3391ZM201.549 97.8052L198.909 83.2506L191.293 97.8052H201.549ZM203.377 106.843H186.182L181.613 114.729H168.344L194.306 69.2037H207.845L218.338 114.729H205.103L203.377 106.843V106.843ZM170.714 101.055C170.356 104.113 169.082 106.992 167.058 109.314C162.218 114.289 154.873 114.56 150.134 114.695H131.89L139.777 69.3391H170.849L169.394 78.2411H150.54L149.085 87.2785H154.467C159.054 86.9583 163.608 88.2645 167.329 90.9679C168.727 92.2203 169.775 93.8156 170.368 95.5963C170.962 97.377 171.081 99.2817 170.714 101.122V101.055V101.055ZM151.048 95.7743H147.663L145.971 105.489H149.119C156.193 105.489 157.648 103.526 158.055 100.885C158.461 98.2452 158.055 95.7743 150.98 95.7743H151.048ZM465.767 27.1645H478.358C478.07 25.7591 477.292 24.501 476.165 23.6149C475.038 22.7284 473.633 22.2711 472.198 22.3242C470.712 22.1726 469.226 22.5869 468.034 23.4842C466.843 24.3815 466.031 25.6958 465.767 27.1645V27.1645ZM488.411 32.3432V33.5279H465.597C465.489 34.4432 465.587 35.3713 465.892 36.2418C466.193 37.1128 466.687 37.9041 467.341 38.5557C467.99 39.2073 468.782 39.7028 469.652 40.0044C470.522 40.3063 471.453 40.4065 472.367 40.2975C473.409 40.3862 474.455 40.1591 475.366 39.6459C476.276 39.1328 477.014 38.3573 477.478 37.4204H487.971C486.278 44.7654 479.441 48.0487 472.502 48.0487C462.348 48.0487 454.8 42.2945 454.8 31.5309C454.671 29.2932 455.023 27.0538 455.836 24.964C456.645 22.8743 457.897 20.9828 459.498 19.4174C461.102 17.8516 463.025 16.6483 465.134 15.8887C467.242 15.1288 469.49 14.8303 471.724 15.0131C482.352 15.0131 488.377 21.7827 488.377 32.3432H488.411V32.3432ZM187.502 24.0843C186.571 24.0373 185.64 24.1835 184.767 24.5132C183.895 24.8432 183.1 25.3496 182.433 26.0011C181.765 26.6527 181.24 27.4349 180.889 28.2994C180.538 29.1636 180.37 30.0906 180.394 31.0232C180.371 31.9408 180.535 32.8533 180.875 33.7059C181.215 34.5582 181.726 35.3323 182.375 35.9815C183.024 36.6304 183.798 37.1408 184.65 37.481C185.503 37.8215 186.416 37.9854 187.333 37.962C188.26 38.0216 189.189 37.8831 190.058 37.5555C190.926 37.2278 191.715 36.7188 192.372 36.0621C193.029 35.4055 193.538 34.6165 193.865 33.7476C194.193 32.8787 194.332 31.9499 194.272 31.0232C194.295 30.1055 194.132 29.193 193.791 28.3404C193.45 27.4881 192.94 26.714 192.291 26.0648C191.642 25.4159 190.868 24.9055 190.016 24.5653C189.163 24.2248 188.251 24.061 187.333 24.0843H187.502V24.0843ZM204.765 15.5546V46.5255H193.933V43.1407C192.909 44.602 191.529 45.7788 189.925 46.5604C188.32 47.3419 186.543 47.7028 184.761 47.6087C182.661 47.5572 180.593 47.0857 178.678 46.2226C176.763 45.3591 175.041 44.1213 173.612 42.5822C172.183 41.0428 171.077 39.233 170.358 37.2596C169.639 35.286 169.323 33.1884 169.428 31.0909C169.314 29.0004 169.619 26.9083 170.326 24.9376C171.032 22.9667 172.125 21.1572 173.541 19.615C174.957 18.0729 176.667 16.8293 178.571 15.9578C180.474 15.0862 182.533 14.6038 184.625 14.5392C186.376 14.4982 188.114 14.8371 189.721 15.5323C191.328 16.2279 192.765 17.2629 193.933 18.5671V15.5546H204.765V15.5546ZM363.343 24.0843C362.425 24.061 361.511 24.2248 360.659 24.5653C359.809 24.9055 359.034 25.4159 358.384 26.0648C357.734 26.714 357.226 27.4881 356.884 28.3404C356.543 29.193 356.38 30.1055 356.404 31.0232C356.38 31.9408 356.543 32.8533 356.884 33.7059C357.226 34.5582 357.734 35.3323 358.384 35.9815C359.034 36.6304 359.809 37.1408 360.659 37.481C361.511 37.8215 362.425 37.9854 363.343 37.962C364.27 38.0216 365.197 37.8831 366.067 37.5555C366.937 37.2278 367.726 36.7188 368.383 36.0621C369.039 35.4055 369.547 34.6165 369.875 33.7476C370.204 32.8787 370.342 31.9499 370.281 31.0232C370.305 30.1055 370.143 29.193 369.801 28.3404C369.459 27.4881 368.951 26.714 368.301 26.0648C367.651 25.4159 366.876 24.9055 366.027 24.5653C365.174 24.2248 364.26 24.061 363.343 24.0843ZM380.673 15.5546V46.5255H369.943V43.1407C368.917 44.602 367.54 45.7788 365.935 46.5604C364.331 47.3419 362.554 47.7028 360.77 47.6087C358.672 47.5572 356.603 47.0857 354.688 46.2226C352.772 45.3591 351.049 44.1213 349.621 42.5822C348.192 41.0428 347.085 39.233 346.368 37.2596C345.65 35.286 345.332 33.1884 345.437 31.0909C345.329 29.0004 345.637 26.9093 346.348 24.94C347.058 22.9711 348.155 21.1639 349.577 19.6252C350.995 18.0861 352.708 16.8466 354.613 15.9791C356.515 15.1112 358.577 14.6333 360.669 14.573C362.446 14.5165 364.209 14.8509 365.844 15.5529C367.475 16.2546 368.931 17.3069 370.112 18.6348V15.5546H380.673ZM133.583 46.5255V1H151.962C164.283 1 167.837 9.80048 167.837 15.9608C167.923 18.0337 167.564 20.1008 166.786 22.0237C166.008 23.9466 164.828 25.6809 163.324 27.1107C161.821 28.5401 160.03 29.6317 158.07 30.3124C156.11 30.993 154.028 31.2469 151.962 31.057H145.192V46.5255H133.583V46.5255ZM145.26 10.8498V21.3088H149.186C154.568 21.3088 155.076 17.924 155.076 16.1977C155.076 14.4715 154.298 11.0867 149.186 11.0867H145.802L145.395 10.8498H145.26V10.8498ZM211.636 15.5885V46.5594H222.129L232.893 29.6354V46.5594H243.792V15.5546H233.299L222.535 32.2078V15.5546L211.636 15.5885V15.5885ZM228.56 11.6621C231.113 11.8676 233.668 11.2783 235.874 9.97581C238.079 8.673 239.828 6.72014 240.881 4.3848L233.806 1.74466C233.544 2.8807 232.885 3.88605 231.949 4.58071C231.012 5.27534 229.859 5.61385 228.695 5.53563C227.529 5.6281 226.369 5.29504 225.429 4.59811C224.49 3.90118 223.834 2.8875 223.584 1.74466L216.51 4.3848C217.577 6.67556 219.311 8.59007 221.486 9.87663C223.661 11.1635 226.174 11.7623 228.695 11.5944L228.56 11.6621V11.6621ZM266.199 59.997V47.0333C259.768 47.0333 249.004 44.3931 249.004 31.0232C249.004 17.6532 259.632 15.1485 266.199 15.1485V1.60926H277.098V15.1485C283.664 15.1485 294.022 17.7886 294.022 31.0232C294.022 44.2577 283.394 47.0333 277.098 47.0333V60.1663L266.199 59.997V59.997ZM276.353 22.7643V39.959C280.043 39.959 283.698 37.3189 283.698 31.2939C283.698 25.269 280.009 22.6289 276.353 22.7643V22.7643ZM266.91 39.6882V22.7643C263.22 22.7643 259.565 25.4044 259.565 31.4293C259.565 37.4543 263.254 39.959 266.91 39.8236V39.6882ZM315.042 60.1324V47.0333C308.61 47.0333 297.847 44.3931 297.847 31.0232C297.847 17.6532 308.475 15.1485 315.042 15.1485V1.60926H325.941V15.1485C332.507 15.1485 343.135 17.7886 343.135 31.0232C343.135 44.2577 332.507 47.0333 325.941 47.0333V60.1663H315.042V60.1324V60.1324ZM325.196 22.8996V40.0944C328.885 40.0944 332.541 37.4543 332.541 31.4293C332.541 25.4044 328.852 22.7643 325.196 22.8996V22.8996ZM315.617 39.8236V22.8996C311.928 22.8996 308.137 25.5398 308.137 31.5647C308.035 32.6228 308.16 33.6897 308.502 34.6963C308.841 35.703 309.392 36.6264 310.113 37.4059C310.834 38.1854 311.714 38.8038 312.693 39.2205C313.671 39.6371 314.723 39.8426 315.786 39.8236H315.617V39.8236ZM387.781 15.5546V46.5255H398.274L409.037 29.6015V46.5255H419.936V15.5546H409.444L398.545 32.0724V15.5546H387.781V15.5546ZM404.705 11.6283C407.216 11.7863 409.714 11.1788 411.874 9.88509C414.03 8.59176 415.746 6.67373 416.789 4.3848L409.714 1.74466C409.45 2.8807 408.794 3.88605 407.856 4.58071C406.919 5.27534 405.768 5.61385 404.603 5.53563C403.436 5.64296 402.268 5.31565 401.323 4.61628C400.382 3.91692 399.729 2.89454 399.492 1.74466L392.384 4.3848C393.45 6.67556 395.187 8.59007 397.36 9.87663C399.536 11.1635 402.048 11.7623 404.569 11.5944L404.705 11.6283V11.6283ZM428.06 24.4567C430.412 22.8272 433.188 21.9106 436.048 21.8165C437.368 21.8165 440.381 22.0873 440.381 24.5582C440.381 27.0291 437.74 27.1983 436.725 27.1983H431.343V33.9679H436.082C437.673 33.9679 440.55 33.9679 440.55 36.6081C440.55 37.6574 439.907 39.6205 436.082 39.6205C432.761 39.6128 429.519 38.6109 426.774 36.7435L424.1 44.1562C428.331 46.5851 433.134 47.8466 438.011 47.8118C450.467 47.8118 452.058 40.6021 452.058 38.2328C452.072 36.4256 451.449 34.6716 450.298 33.2788C449.144 31.8856 447.539 30.9433 445.762 30.617C447.14 29.9976 448.301 28.9801 449.1 27.6952C449.895 26.4107 450.288 24.9177 450.23 23.4074C450.23 16.1977 442.615 14.7423 437.91 14.7423C433.499 14.8239 429.16 15.8511 425.183 17.7547L428.06 24.4567V24.4567ZM493.894 46.4917H504.793V34.171H514.778V46.4917H525.644V15.5546H514.745V26.4537H504.76V15.5546H493.86L493.894 46.4917V46.4917Z" fill="black"/>
<path d="M4.8219 5H110.822V111H4.8219V5Z" fill="#FFED00"/>
<path d="M57.9324 70.8961L25.2691 103.559L12.2714 90.5618L45.0024 57.9323L38.2328 51.1627V37.6235L33.4941 32.8848V44.5624L29.4324 48.6241L12.7792 32.2417L8.71741 36.3034C8.73941 32.6644 9.48068 29.0657 10.8979 25.7141C12.3154 22.3625 14.3808 19.3239 16.9763 16.7732C19.4814 13.9661 22.9884 12.2551 26.7421 12.008C30.4962 11.7613 34.1972 12.9984 37.0482 15.4531L53.566 32.1063L49.3688 36.3034L57.9324 45.0024L66.5975 36.3373L62.4003 32.1401L78.8504 15.4192C81.6977 12.9561 85.4007 11.7136 89.1571 11.9607C92.9139 12.2077 96.4223 13.9245 98.9223 16.7393C101.518 19.2901 103.583 22.3286 105.001 25.6803C106.418 29.0319 107.159 32.6306 107.181 36.2696L103.119 32.2078L86.4662 48.7257L82.4045 44.6639V32.8848L77.6996 37.6235V51.1627L70.93 57.9323L103.593 90.5956L90.5957 103.559L57.9324 70.8961Z" fill="black"/>
<path d="M114.729 114.729H1V1H114.729V114.729ZM111.04 4.79097H4.79098V111.04H111.04V4.79097Z" fill="black"/>
</svg>
