<svg width="603" height="112" viewBox="0 0 603 112" fill="none" xmlns="http://www.w3.org/2000/svg">
<path fill-rule="evenodd" clip-rule="evenodd" d="M47.2446 1.41364C14.0135 6.89195 -6.6308 40.7544 3.65796 72.9074C10.1221 93.1079 28.3182 108.172 49.183 110.595C62.7585 112.173 75.5812 109.131 87.1235 101.595C91.1035 98.9963 98.8746 91.275 101.612 87.1998C114.421 68.1284 114.495 44.2079 101.804 24.8439C99.2525 20.9499 91.0492 12.7796 87.1235 10.2219C80.8702 6.14801 74.4353 3.4243 67.392 1.87093C63.25 0.957182 51.6141 0.693074 47.2446 1.41364ZM60.1896 6.68876C86.0608 9.10288 105.497 30.2183 105.497 55.9105C105.497 78.3644 90.4829 97.8481 68.6865 103.679C51.8985 108.171 34.31 103.481 21.7563 91.1669C12.8969 82.4763 8.19455 72.7009 6.95434 60.3958C5.82311 49.1734 8.78877 37.8275 15.4337 27.9557C18.2754 23.7341 24.3119 17.8048 28.7704 14.8553C35.346 10.5056 43.8735 7.42684 51.3469 6.70335C53.2247 6.52186 54.9489 6.34787 55.1786 6.31658C55.4083 6.2857 57.6632 6.45302 60.1896 6.68876ZM66.8709 12.0949C65.7225 12.5267 63.0107 13.3691 60.8448 13.967C53.1187 16.0995 47.4287 18.8825 42.9055 22.7398C41.6945 23.7729 40.6314 24.6178 40.5424 24.6178C39.8501 24.6178 42.7606 20.0724 44.8836 17.8377C45.7012 16.9774 46.1919 16.2731 45.9735 16.2731C44.7717 16.2731 38.8913 18.59 37.8311 19.4812C35.2584 21.6442 32.3704 27.6352 30.1255 35.4659C28.9333 39.6249 28.7086 40.1039 28.438 39.0613C28.2664 38.3995 28.2271 35.1605 28.3507 31.8639C28.4743 28.5669 28.4255 25.8695 28.2426 25.8695C27.8722 25.8695 24.314 29.9371 22.8942 31.9837C22.1676 33.0309 21.981 33.8963 21.981 36.219C21.981 40.1452 23.3402 47.8507 24.8723 52.6114C25.5609 54.7501 26.0595 56.5639 25.981 56.6423C25.9025 56.7208 25.1629 55.996 24.337 55.0322C22.5242 52.916 19.987 48.6427 18.6082 45.3824C18.0515 44.0668 17.4707 42.987 17.3166 42.9833C16.9057 42.9728 15.6914 48.6005 15.4241 51.7548C15.1494 55.0001 15.7507 56.4483 19.3974 61.3287C23.0479 66.2133 27.5686 70.4599 33.525 74.5985C34.2069 75.0725 34.1242 75.1108 32.8381 74.9214C30.8516 74.6281 22.4867 70.4011 19.3995 68.1301C18.0185 67.1145 16.7863 66.386 16.661 66.5112C16.3608 66.8108 18.0206 71.3566 19.5218 74.346C20.9257 77.1419 22.2916 78.2676 26.7264 80.2829C31.4417 82.4254 36.8815 83.8052 42.7735 84.3535C45.5968 84.6159 47.7578 84.976 47.5757 85.1533C47.3937 85.3302 45.6599 85.7942 43.7227 86.1839C41.0435 86.7229 38.9949 86.8368 35.1623 86.6599C32.3912 86.5323 29.654 86.2973 29.0798 86.138C28.1311 85.8743 28.1691 85.9669 29.4974 87.1552C31.9244 89.3261 36.3816 91.8128 39.8208 92.9147C47.4467 95.3585 55.2496 92.6089 58.5602 86.312C59.0421 85.3949 59.3623 83.6283 59.4834 81.2154L59.6693 77.5225L57.748 79.4422C55.2012 81.9869 54.0628 82.1367 55.8739 79.6887C57.1913 77.9088 57.3688 74.4816 56.2372 72.68C54.6946 70.2242 52.7704 69.6989 45.2807 69.6884C39.2968 69.6801 36.5963 69.2967 36.5963 68.4555C36.5963 68.3153 38.1463 67.8564 40.0413 67.4358C48.8614 65.4785 48.1741 65.6992 47.151 65.1518C46.4457 64.7742 45.7709 64.7684 44.3411 65.1285C43.3064 65.3888 41.9388 65.4702 41.3024 65.3091L40.1457 65.0171L41.816 64.3979C45.9167 62.8787 46.1898 62.832 47.7139 63.3828C49.5555 64.0478 49.9852 63.679 48.7763 62.4703C47.9829 61.6775 47.3035 61.5219 44.0835 61.3967C40.0609 61.2402 37.0397 61.917 34.87 63.4604C33.2682 64.6003 33.1112 64.4801 33.4047 62.3397C34.0971 57.2928 36.3679 55.0756 42.391 53.5648C45.7567 52.7207 45.9881 52.5914 46.3038 51.3739C46.9911 48.7236 51.9616 47.4222 63.3686 46.9065C69.5045 46.6291 69.6695 46.6437 69.4168 47.4377C69.1826 48.1762 69.4757 48.303 72.4719 48.7611C74.2946 49.0399 76.9329 49.6553 78.3347 50.128C81.1884 51.091 82.4687 50.9537 83.3106 49.5939C83.8054 48.7937 83.7916 48.6039 83.2062 48.1762C82.8341 47.9046 82.5301 47.3709 82.5301 46.9904C82.5301 46.4626 82.285 46.3595 81.4979 46.5569C80.6811 46.7618 80.1808 46.516 79.0968 45.3769C78.3439 44.5855 77.4461 43.8298 77.1016 43.6976C76.5449 43.4835 76.5449 43.4076 77.1016 43.0141C77.8987 42.4513 80.7278 42.425 81.0694 42.9778C81.2118 43.2082 81.7868 43.2816 82.3468 43.141C83.2016 42.9269 83.3653 43.0375 83.3653 43.8303C83.3653 44.7185 83.4104 44.7336 84.129 44.0839C84.5491 43.7042 85.5718 43.3934 86.4023 43.3934C88.2059 43.3934 89.4661 42.3507 91.0392 39.5578L92.1416 37.6001L90.7811 36.5854C90.0324 36.0275 88.1461 34.7758 86.5886 33.8041C83.4997 31.8764 82.5322 30.5138 82.5259 28.0808C82.5238 27.2088 82.0837 25.5566 81.5484 24.4092C80.4197 21.9896 76.3817 17.3913 75.6367 17.6771C75.3578 17.7839 74.0248 17.3145 72.6744 16.634L70.219 15.3965L70.2153 13.4451C70.2107 11.121 69.8499 10.9754 66.8709 12.0949ZM67.4972 14.9379C67.4972 15.1215 67.2951 15.4737 67.0483 15.7202C66.8015 15.9668 66.3526 16.8864 66.0507 17.7634C65.6131 19.0352 65.1826 19.4691 63.9261 19.9034C63.0596 20.2034 62.2658 20.3641 62.1618 20.2606C61.8023 19.9009 63.8096 17.1101 65.3266 15.8604C66.8654 14.5933 67.4972 14.325 67.4972 14.9379ZM320.366 17.2006C318.141 20.3741 322.132 23.6014 327.22 22.7423C329.649 22.3322 330.99 21.1239 330.99 19.3448C330.99 17.206 330.346 16.2731 328.869 16.2731C327.669 16.2731 327.624 16.3369 327.874 17.6691C328.192 19.3619 327.309 20.4454 325.612 20.4454C323.705 20.4454 322.888 19.5576 323.174 17.796C323.411 16.339 323.37 16.2731 322.219 16.2731C321.449 16.2731 320.782 16.6073 320.366 17.2006ZM372.285 20.4738C368.685 21.0029 365.366 22.7682 362.46 25.6997C359.651 28.5327 358.52 30.8847 357.698 35.5982C357.142 38.7875 357.875 43.6342 359.403 46.8836C360.544 49.3086 363.317 52.2179 365.594 53.3783C371.934 56.6106 380.85 55.9009 386.388 51.7231L388.619 50.0404L387.774 48.3861C386.965 46.8001 386.339 46.3303 386.041 47.0839C385.793 47.7135 381.766 50.3537 380.307 50.844C378.478 51.4586 374.754 51.4548 372.689 50.8365C370.456 50.1681 368.023 47.9709 366.886 45.5952C366.125 44.0055 365.893 42.6657 365.741 38.9778C365.515 33.5174 366.169 30.6498 368.267 27.9019C371.921 23.1145 379.712 22.5909 384.335 26.8221C384.85 27.2944 385.321 27.6019 385.381 27.5055C385.958 26.5746 388.626 20.7325 388.521 20.6282C388.446 20.5531 387.732 20.6349 386.934 20.8101C386.134 20.9862 383.521 20.8965 381.1 20.6102C376.066 20.0153 375.472 20.0061 372.285 20.4738ZM126.376 20.8022C126.376 21.0379 126.564 21.3467 126.794 21.4885C127.374 21.8469 127.36 52.7662 126.779 53.8518C126.364 54.6271 126.528 54.6588 130.969 54.6588C135.41 54.6588 135.575 54.6271 135.16 53.8518C134.922 53.4079 134.728 51.061 134.728 48.6364V44.2279H137.803C145.391 44.2279 150.254 41.8684 152.419 37.1349C153.5 34.7704 153.561 29.3856 152.533 27.0415C151.562 24.826 149.175 22.6927 146.47 21.6225C144.362 20.788 143.219 20.677 135.25 20.5335C129.353 20.4275 126.376 20.5176 126.376 20.8022ZM58.9402 26.8855C56.0159 31.2422 54.2958 36.8482 56.1182 36.0826C56.5203 35.914 57.3024 35.6783 57.857 35.5594C58.7189 35.3737 58.8161 35.4572 58.5276 36.1343C56.8815 40.0025 56.7153 43.4956 58.1221 44.6622C59.2199 45.5722 58.7594 45.8968 56.3691 45.8968H54.0106L54.262 42.3349L54.5138 38.7734L53.0715 39.0437C52.2781 39.1923 51.6292 39.2085 51.6292 39.0796C51.6292 37.6685 52.8485 33.8612 54.0207 31.6115C55.4166 28.932 59.4421 24.2006 60.3253 24.2006C60.5541 24.2006 59.9311 25.4089 58.9402 26.8855ZM142.131 25.4372C147.744 27.9832 146.975 37.7979 141.022 39.5799C140.148 39.8415 138.374 40.0555 137.08 40.0555H134.728V32.3367V24.6178L137.546 24.627C139.417 24.6332 140.959 24.9053 142.131 25.4372ZM198.054 25.0313C191.252 26.2525 186.215 31.9862 185.763 39.0212C185.307 46.1296 188.135 51.6004 193.606 54.1923C195.625 55.1482 196.409 55.2767 200.079 55.2513C204.942 55.2175 206.884 54.6187 210.168 52.1416C212.232 50.5845 212.347 50.4042 211.956 49.3344C211.726 48.7061 211.45 47.9438 211.343 47.6409C211.207 47.2541 210.619 47.5174 209.372 48.5242C207.019 50.4247 206.32 50.7564 203.648 51.2416C199.424 52.0085 196.237 50.5427 194.297 46.9399C193.519 45.4967 193.398 44.5942 193.398 40.2641C193.398 35.806 193.506 35.0516 194.386 33.3797C196.459 29.4419 198.578 28.2056 202.845 28.4468C205.225 28.5811 205.994 28.8248 207.596 29.953L209.507 31.299L210.744 28.5457C211.423 27.0311 211.98 25.6684 211.98 25.5178C211.98 25.3671 210.711 25.2386 209.161 25.2328C207.611 25.227 204.933 25.0972 203.211 24.9449C201.488 24.7926 199.168 24.8314 198.054 25.0313ZM226.144 25.0171C220.87 25.9705 216.657 29.5829 214.702 34.8276C213.543 37.9364 213.641 43.3563 214.919 46.7855C217.086 52.6022 222.573 55.89 229.257 55.3777C233.052 55.0869 236.492 53.7934 238.718 51.8199L240.469 50.2665L239.787 48.6347L239.104 47.0025L237.756 48.3059C235.86 50.1397 232.891 51.3472 230.199 51.3793C226.14 51.4277 224.079 50.2219 222.563 46.914C219.75 40.7744 221.55 31.8564 226.121 29.2892C229.136 27.596 233.486 28.1163 236.601 30.543L237.628 31.3432L238.621 29.1281C240.528 24.8706 240.635 25.2436 237.507 25.2428C235.984 25.242 233.235 25.1135 231.397 24.9566C229.56 24.7997 227.196 24.8268 226.144 25.0171ZM155.189 25.2524C155.189 25.3722 155.654 26.1724 156.223 27.0303C156.791 27.8885 158.217 30.7478 159.392 33.3843C160.566 36.0208 163.121 41.7274 165.069 46.0658C167.451 51.3735 168.534 54.2561 168.378 54.8782C168.25 55.3873 167.367 56.5055 166.417 57.3637C164.758 58.8608 164.589 58.9167 162.228 58.746C160.068 58.59 159.573 58.3793 158.181 57.0203L156.594 55.4728L155.609 57.5736C154.642 59.6368 154.639 59.6856 155.429 60.2823C158.544 62.6351 163.309 63.2476 166.805 61.7447C170.745 60.0511 172.321 57.6654 176.172 47.5658C177.441 44.2383 179.552 38.6995 180.862 35.2573C182.173 31.8151 183.698 28.1772 184.25 27.1729C184.803 26.1687 185.255 25.2695 185.255 25.1744C185.255 25.0793 183.736 25.0559 181.88 25.1227L178.505 25.2436L178.375 27.3298C178.304 28.4772 177.562 31.1997 176.726 33.3797C175.89 35.5598 174.616 38.9394 173.895 40.89C173.175 42.8406 172.442 44.6021 172.267 44.8045C172.092 45.0064 171.676 44.537 171.341 43.7614C165.602 30.4612 164.735 28.1242 164.975 26.5997L165.221 25.035H160.205C157.446 25.035 155.189 25.1331 155.189 25.2524ZM244.402 25.7652C244.917 26.8145 245.083 52.0623 244.585 53.4901L244.177 54.6588H248.518H252.859L252.451 53.4897C252.227 52.8471 252.096 49.6369 252.16 46.3562L252.277 40.3914L257.079 46.2652C259.72 49.4959 262.061 52.7061 262.28 53.3987L262.68 54.6588H268.117H273.555L272.022 53.3966C270.405 52.0652 259.584 39.045 259.584 38.4312C259.584 38.2339 262.604 35.1326 266.294 31.5389L273.004 25.0054L268.695 25.1243C264.526 25.2399 264.382 25.2758 264.247 26.2271C264.125 27.0849 253.435 38.7333 252.376 39.1614C251.917 39.3471 252.173 26.7749 252.649 25.7652C252.965 25.0939 252.632 25.035 248.518 25.035C244.399 25.035 244.073 25.093 244.402 25.7652ZM276.955 25.9738C277.465 27.3536 277.646 52.0857 277.156 53.4897L276.748 54.6588H281.126C285.325 54.6588 285.486 54.6258 285.071 53.8518C284.312 52.4341 284.556 49.9015 285.558 48.792C289.564 44.3597 296.575 36.9 296.839 36.7873C297.316 36.5845 297.241 52.3231 296.759 53.5886L296.352 54.6588H300.741C304.989 54.6588 305.115 54.6321 304.686 53.8306C304.151 52.8309 304.285 26.88 304.832 25.7652C305.161 25.093 304.834 25.035 300.712 25.035C296.256 25.035 296.235 25.0396 296.539 25.9738C296.706 26.4903 296.936 27.6198 297.049 28.4847C297.241 29.9459 297.064 30.2688 294.536 33.0743C293.04 34.7337 290.206 37.7816 288.237 39.8469L284.657 43.602L284.753 35.0487C284.805 30.3444 285.009 26.167 285.206 25.7652C285.535 25.093 285.208 25.035 281.085 25.035C276.617 25.035 276.608 25.0371 276.955 25.9738ZM311.631 26.5997C311.828 27.4604 311.99 33.8153 311.99 40.7223C311.99 50.7526 311.875 53.4187 311.418 53.9695C310.89 54.6037 311.221 54.6588 315.54 54.6588C319.344 54.6588 320.15 54.5557 319.785 54.1164C319.537 53.8185 319.21 52.795 319.058 51.8424L318.78 50.1101L324.956 43.4139C328.352 39.7309 331.287 36.7176 331.478 36.7176C331.669 36.7176 331.826 40.1031 331.826 44.2412C331.826 49.8672 331.673 52.1299 331.22 53.2118L330.615 54.6588H335.155H339.696L339.084 53.4334C338.577 52.4178 338.496 50.0421 338.615 39.5603C338.693 32.6041 338.911 26.4903 339.099 25.9738C339.438 25.04 339.418 25.035 335.24 25.035C331.424 25.035 329.894 25.4009 330.96 26.0589C331.18 26.1949 331.485 27.1387 331.637 28.1564L331.915 30.0064L325.782 36.5954C322.409 40.2195 319.462 43.252 319.233 43.3346C318.743 43.5107 318.979 27.4471 319.489 25.9738C319.811 25.0405 319.789 25.035 315.542 25.035H311.271L311.631 26.5997ZM390.391 25.5566C390.163 25.8436 389.577 26.9914 389.09 28.108L388.203 30.1382L389.141 29.8349C389.656 29.668 392.106 29.4377 394.585 29.3225L399.093 29.1139L398.97 41.1562C398.902 47.7794 398.686 53.5272 398.489 53.9286C398.16 54.6008 398.485 54.6588 402.575 54.6588C406.84 54.6588 407.002 54.6262 406.587 53.8518C406.318 53.3495 406.155 48.5438 406.155 41.1262V29.2074L409.391 29.2099C411.303 29.2116 413.073 29.4448 413.716 29.7802C414.786 30.3381 414.824 30.3089 415.908 28.0992C416.515 26.8629 417.012 25.6676 417.012 25.4431C417.012 24.7884 390.914 24.8994 390.391 25.5566ZM424.12 25.3329C424.125 25.5132 424.497 26.1303 424.946 26.704C425.395 27.2777 425.767 27.8752 425.772 28.032C425.792 28.6625 415.273 52.331 414.474 53.4526L413.615 54.6588H416.889H420.163L420.184 53.0941C420.195 52.2338 420.512 50.8206 420.888 49.954L421.572 48.3781L427.952 48.4937L434.331 48.6089L434.944 49.8606C435.281 50.549 435.565 51.9096 435.576 52.8843L435.594 54.6563L440.525 54.6575C445.644 54.6588 445.723 54.6237 444.315 52.9744C443.885 52.4691 441.412 46.9733 439.441 42.1417C439.301 41.7975 437.604 37.8546 435.671 33.3797L432.156 25.2436L428.133 25.1243C425.921 25.0584 424.115 25.1523 424.12 25.3329ZM449.016 26.1824C449.473 27.6457 449.488 52.4675 449.033 53.72C448.693 54.6559 448.705 54.6588 453.119 54.6588C457.367 54.6588 457.529 54.6262 457.114 53.8518C456.877 53.4079 456.682 50.4977 456.682 47.3847V41.7245H462.978H469.273L469.12 47.4615C469.036 50.617 468.813 53.5272 468.626 53.9286C468.313 54.5995 468.645 54.6588 472.729 54.6588C477.032 54.6588 477.159 54.6325 476.729 53.8306C476.194 52.8309 476.328 26.88 476.875 25.7652C477.204 25.093 476.877 25.035 472.755 25.035C468.294 25.035 468.278 25.0388 468.599 25.9738C468.776 26.4903 469.001 29.3067 469.098 32.2324L469.276 37.5521H462.956H456.637L456.77 32.0237C456.843 28.9829 457.061 26.167 457.255 25.7652C457.579 25.0934 457.249 25.035 453.132 25.035H448.657L449.016 26.1824ZM485.392 25.2779C485.258 25.411 485.414 26.1561 485.739 26.933C486.46 28.6554 486.557 40.4903 485.886 44.6451C485.336 48.0431 483.853 50.6224 481.754 51.8295C480.199 52.7232 480.125 52.8642 479.994 55.172C479.919 56.4967 479.93 57.5807 480.017 57.5803C480.105 57.5798 480.763 57.2206 481.479 56.7817C484.501 54.9304 487.069 54.5787 496.477 54.7276L505.33 54.8674L507.831 56.1191C509.206 56.8075 510.474 57.4334 510.649 57.5097C510.824 57.5865 510.968 56.6056 510.968 55.3301C510.968 53.1772 510.878 52.9652 509.719 52.3661C507.197 51.063 507.172 50.9141 507.301 38.1271C507.365 31.7296 507.579 26.167 507.776 25.7652C508.112 25.0788 507.456 25.035 496.884 25.035C490.697 25.035 485.525 25.1443 485.392 25.2779ZM523.368 25.3016C523.221 25.4481 523.563 26.1169 524.128 26.7878C525.124 27.9711 525.135 28.0529 524.489 29.5462C524.123 30.3923 523.301 32.3054 522.663 33.797C516.807 47.4832 514.862 51.7698 513.715 53.5114L512.959 54.6588H516.276H519.592L519.415 53.4542C519.316 52.7816 519.614 51.4002 520.09 50.325L520.943 48.4002H527.251H533.559L534.238 49.9649C534.612 50.8256 534.927 52.2338 534.938 53.0941L534.96 54.6588H539.897H544.834L543.841 53.3028C543.294 52.5567 541.012 47.6284 538.767 42.3503C536.523 37.0723 533.927 31.0169 532.999 28.8945L531.31 25.035H527.472C525.361 25.035 523.514 25.1548 523.368 25.3016ZM547.591 25.3146C547.459 25.527 547.525 25.9734 547.736 26.3068C548.279 27.165 548.246 52.833 547.7 53.8518C547.285 54.6262 547.447 54.6588 551.712 54.6588C555.79 54.6588 556.129 54.5987 555.829 53.9286C555.649 53.5272 555.423 51.5821 555.327 49.6065L555.153 46.0145L559.054 45.7963C565.661 45.427 569.499 43.4468 571.363 39.4468C573.089 35.7451 572.376 31.0253 569.702 28.4355C567.211 26.023 564.384 25.3601 555.602 25.131C551.048 25.0125 547.731 25.0884 547.591 25.3146ZM575.376 25.5566C574.782 26.2988 573.187 29.5174 573.187 29.9764C573.187 30.1883 573.962 30.0949 574.908 29.769C576.018 29.3872 577.91 29.2191 580.232 29.2963L583.835 29.416V41.3481C583.835 50.8486 583.718 53.4204 583.262 53.9695C582.735 54.6033 583.061 54.6588 587.312 54.6588H591.935L591.324 53.1955C590.828 52.0093 590.733 49.6207 590.823 40.5742L590.934 29.416L594.157 29.2942C596.416 29.2091 597.746 29.3609 598.598 29.8015L599.815 30.4307L600.908 27.914C601.509 26.5296 602 25.3158 602 25.2161C602 25.1164 596.104 25.035 588.897 25.035C578.917 25.035 575.695 25.1594 575.376 25.5566ZM80.0246 29.2537V30.9694L78.5071 30.6848C77.3404 30.4662 77.0377 30.5275 77.1972 30.9514C77.7104 32.3141 77.9776 33.3797 77.8064 33.3797C77.4406 33.3797 74.1071 28.7226 74.3201 28.5094C74.4395 28.3904 75.4429 28.4918 76.5499 28.7355C78.3622 29.134 78.6203 29.096 79.136 28.3583C79.9349 27.2151 80.0246 27.3052 80.0246 29.2537ZM499.902 39.8469V50.695L494.352 50.8114L488.801 50.9283L489.49 49.599C490.329 47.9763 490.889 42.1304 490.909 34.7704C490.919 30.7816 491.066 29.2174 491.446 29.0593C491.733 28.9395 493.753 28.8769 495.935 28.9199L499.902 28.9988V39.8469ZM561.158 29.2808C564.206 30.1933 565.65 33.0389 565.06 36.9696C564.607 39.9833 562.808 41.6502 559.375 42.2356C555.082 42.9674 555.231 43.2011 555.231 35.7572C555.231 32.2311 555.356 29.2212 555.51 29.0684C555.958 28.6199 559.38 28.7484 561.158 29.2808ZM429.729 36.509C430.351 38.1154 431.302 40.5562 431.845 41.9331L432.831 44.4365L428.206 44.555C425.663 44.6201 423.49 44.5809 423.377 44.4678C423.207 44.2984 427.069 34.3949 427.756 33.2391C428.09 32.6767 428.528 33.4031 429.729 36.509ZM529.766 38.4863C530.951 41.5242 532.009 44.1528 532.117 44.3276C532.225 44.502 530.062 44.6451 527.31 44.6451H522.306L524.675 38.8117C525.978 35.6032 527.172 32.9746 527.328 32.9704C527.484 32.9663 528.581 35.448 529.766 38.4863ZM90.7585 50.9641C90.3501 51.1928 88.8548 51.6163 87.4358 51.9054L84.8565 52.4312L88.238 54.1226C90.0983 55.0526 92.7592 56.5864 94.151 57.531C95.5432 58.4756 96.7863 59.2484 96.9137 59.2484C97.041 59.2484 97.1454 58.4235 97.1454 57.415V55.5821L94.4266 54.4944C92.9316 53.8965 91.4283 53.4071 91.0859 53.4071C90.2971 53.4071 90.3055 53.2022 91.1469 51.9192C91.9411 50.708 91.8067 50.3779 90.7585 50.9641ZM48.5194 51.9714C48.1344 52.5588 47.878 53.4505 47.9495 53.9532C48.0873 54.9208 48.9007 55.0335 51.3557 54.4239L52.5441 54.1289L51.8776 55.4165C50.6687 57.7522 50.9051 58.0964 54.6207 59.4077C65.1187 63.1124 72.0981 68.6558 76.0894 76.4598C77.7789 79.7626 78.5543 82.5126 78.9707 86.6741C79.3206 90.1705 79.2843 90.1685 82.9226 86.8948L85.1939 84.8508L84.2276 82.4721C83.0275 79.5173 79.8756 74.9844 77.5814 72.9141C76.6284 72.0542 75.8488 71.256 75.8488 71.1408C75.8488 71.0253 76.7412 70.9235 77.8323 70.9143L79.8158 70.8976L78.1981 70.0911C77.3083 69.6471 75.5419 68.4814 74.272 67.5C69.5417 63.843 68.2259 62.9292 65.7008 61.5469C62.9882 60.062 58.3831 58.6659 54.6341 58.1919C52.9216 57.9758 52.4485 57.7618 52.5474 57.2486C52.6631 56.6486 54.7072 54.8106 58.1017 52.2555L59.3544 51.3126L54.6566 51.5846C51.2538 51.7819 49.9588 51.7256 49.9588 51.3801C49.9588 50.5649 49.2515 50.8553 48.5194 51.9714ZM77.5192 61.6575C81.7125 64.4713 86.267 69.1323 88.9178 73.3217C90.113 75.2106 91.1903 76.7598 91.3122 76.7639C91.4342 76.7685 92.243 75.3403 93.1095 73.59L94.6859 70.4078L93.7234 69.3784C91.1811 66.6601 82.1585 61.6091 77.862 60.4992C76.8698 60.2431 75.6818 59.926 75.2225 59.7945C74.7631 59.6635 75.7966 60.5017 77.5192 61.6575ZM127.062 70.8267C127.557 71.836 127.755 96.4141 127.278 97.6666C127.067 98.2224 126.918 98.8344 126.948 99.0272C127.022 99.5054 140.314 99.3648 142.56 98.8616C146.863 97.8982 149.343 94.8015 149.343 90.3925C149.343 84.6814 145.522 81.7791 138.002 81.7791C136.11 81.7791 134.72 81.603 134.709 81.3619C134.698 81.1324 134.681 79.302 134.67 77.2938L134.65 73.643L139.067 73.5245C142.367 73.4361 143.791 73.565 144.697 74.0331L145.91 74.6602L146.792 72.6141C147.276 71.4884 147.673 70.4616 147.673 70.3322C147.673 70.2025 142.955 70.0965 137.188 70.0965C127.346 70.0965 126.726 70.1411 127.062 70.8267ZM162.677 71.3081C163.152 71.9749 163.541 72.6458 163.541 72.7989C163.541 73.0547 159.004 83.5369 154.522 93.637C153.511 95.913 152.374 98.1193 151.993 98.5395C151.328 99.2734 151.43 99.303 154.612 99.303H157.922L157.943 97.7384C157.955 96.878 158.27 95.4699 158.643 94.6091L159.322 93.0445H165.781H172.241L172.952 94.9045C173.343 95.9272 173.578 97.3353 173.476 98.0338L173.29 99.303H178.253C182.106 99.303 183.149 99.1862 182.914 98.7815C182.748 98.4948 182.298 97.7905 181.913 97.2168C181.528 96.6431 178.708 90.3066 175.645 83.1351L170.077 70.0965H165.945H161.814L162.677 71.3081ZM187.628 71.0353C187.815 71.5518 187.969 77.7006 187.969 84.6998C187.969 91.6989 187.815 97.8477 187.628 98.3642C187.288 99.3001 187.3 99.303 191.714 99.303C196.003 99.303 196.127 99.2771 195.697 98.474C195.428 97.9699 195.299 95.3914 195.369 91.9025L195.486 86.1601H201.54H207.595V91.7928C207.595 94.8907 207.442 97.8477 207.254 98.3642C206.914 99.3001 206.926 99.303 211.34 99.303C215.643 99.303 215.755 99.2796 215.319 98.4656C215.018 97.904 214.91 93.0979 214.991 83.8624L215.112 70.0961H210.996C207.218 70.0965 206.909 70.1566 207.236 70.8267C207.433 71.228 207.594 73.9038 207.594 76.7723L207.595 81.9877L201.436 82.1033L195.277 82.2185V76.9646C195.277 74.0748 195.471 71.3474 195.709 70.9034C196.124 70.129 195.962 70.0965 191.714 70.0965C187.3 70.0965 187.288 70.0994 187.628 71.0353ZM222.822 70.9034C223.094 71.4104 223.255 76.544 223.255 84.6998C223.255 92.8555 223.094 97.9891 222.822 98.4961C222.408 99.2705 222.57 99.303 226.834 99.303C230.923 99.303 231.25 99.2446 230.924 98.5728C230.729 98.1715 230.512 94.9325 230.442 91.3755C230.33 85.6594 230.387 84.981 230.934 85.5342C233.266 87.8929 240.455 97.2156 240.65 98.1331L240.888 99.2579L246.306 99.3848C249.285 99.4545 251.793 99.4411 251.879 99.3543C251.964 99.268 251.444 98.7986 250.722 98.3112C249.404 97.4213 237.87 83.7593 237.87 83.0876C237.87 82.8902 240.781 79.8865 244.338 76.4126L250.806 70.0965H246.635C242.709 70.0965 242.463 70.147 242.463 70.951C242.463 71.4801 240.298 74.0607 236.775 77.7311C233.646 80.9901 230.921 83.7193 230.72 83.7956C230.217 83.9867 230.255 72.4977 230.761 71.1667L231.168 70.0965H226.779C222.569 70.0965 222.408 70.1295 222.822 70.9034ZM68.9216 76.877C69.5734 79.7334 69.6503 81.8993 69.1939 84.5508C68.5583 88.2425 67.2868 90.9942 64.8139 94.0275L62.8262 96.4658L64.2221 96.1629C64.9901 95.9964 66.6516 95.5479 67.9148 95.1661C70.9372 94.2532 71.3586 93.3632 71.5862 87.4118C71.7361 83.4939 71.6283 82.4292 70.8516 80.1373C70.3514 78.6603 69.6532 77.0643 69.3008 76.5908C68.679 75.7546 68.6677 75.7634 68.9216 76.877ZM168.519 83.5982C169.685 86.5494 170.64 89.0369 170.64 89.1266C170.64 89.2159 168.479 89.2893 165.837 89.2893C163.196 89.2893 161.035 89.1771 161.035 89.0398C161.035 88.7553 165.18 78.417 165.508 77.8834C165.894 77.2558 166.369 78.1571 168.519 83.5982ZM140.17 85.7499C141.766 86.5748 142.662 88.366 142.662 90.7351C142.662 92.3206 142.423 92.8997 141.237 94.1923C139.891 95.6601 139.673 95.7457 137.246 95.7511L134.678 95.7565L134.688 90.6454C134.694 87.834 134.706 85.4403 134.713 85.3256C134.747 84.8366 139.05 85.1712 140.17 85.7499Z" fill="black"/>
</svg>
