<svg width="497" height="153" viewBox="0 0 497 153" fill="none" xmlns="http://www.w3.org/2000/svg">
<path d="M1 50.5344V152H51.3333L101.667 101.267H51.3333V1L1 50.5344Z" fill="#2C2F86"/>
<path d="M152 102.466L152 1L101.667 1L51.3333 51.7328L101.667 51.7328L101.667 152L152 102.466Z" fill="#E95616"/>
<path d="M229.346 126.211H203V26.5865H295.61V126.211H270.063V48.5038H229.346V126.211Z" fill="#2C2F86"/>
<path d="M383.431 58.8647L399.797 42.5263C395.14 36.0175 380.716 23 360.278 23C334.73 23 306.388 40.1353 306.388 76C306.388 111.865 334.73 129 360.278 129C380.716 129 395.938 114.654 400.995 107.481L385.027 91.1429C382.1 95.6591 373.052 104.692 360.278 104.692C344.311 104.692 333.134 93.1353 333.134 76C333.134 58.8647 345.508 47.3083 360.278 47.3083C372.094 47.3083 380.636 55.0125 383.431 58.8647Z" fill="#2C2F86"/>
<path d="M486.819 26.5865H410.575V85.1654H459.475C464.876 85.1654 469.255 89.5365 469.255 94.9286C469.255 100.321 464.876 104.692 459.475 104.692H410.575V126.211H464.465C481.881 126.211 496 112.116 496 94.7293C496 77.3427 481.881 63.2481 464.465 63.2481H436.921V48.9023H486.819V26.5865Z" fill="#2C2F86"/>
<path d="M410.575 84.7669H436.921V104.692H410.575V84.7669Z" fill="#2C2F86"/>
</svg>
