<svg width="651" height="88" viewBox="0 0 651 88" fill="none" xmlns="http://www.w3.org/2000/svg">
<path d="M190.099 25.1973C184.679 25.1973 180.056 29.7855 180.056 35.2359V43.889H166.156V25.1973H165.697C160.277 25.1973 155.623 29.7855 155.623 35.2359V69.4786H156.083C161.502 69.4786 166.156 64.8903 166.156 59.4396V51.0947H180.056V69.4786H190.589V25.1973H190.099ZM608.513 25.1973C603.093 25.1973 598.441 29.7855 598.441 35.2359V43.889H584.54V25.1973H584.082C578.662 25.1973 574.007 29.7855 574.007 35.2359V69.4786H574.468C579.888 69.4786 584.511 64.8903 584.511 59.4396V51.0947H598.409V69.4786H608.942V25.1973H608.513V25.1973ZM130.487 61.6571C124.057 61.6571 119.801 51.0639 119.801 38.6541C119.801 26.2443 124.302 17.5607 130.487 17.5607C136.702 17.5607 141.417 26.2443 141.417 38.6541C141.417 52.696 137.375 61.6571 130.487 61.6571ZM130.487 9C118.27 9 110.371 19.5928 109.269 34.9896H96.8383V9.89292H96.7467C90.6842 9.89292 86 14.7274 86 20.6398V69.4786H86.0916C92.0315 69.4169 96.8383 64.5516 96.8383 58.4851V42.9036H109.269C110.218 57.3767 118.148 70.4024 130.487 70.4024C144.663 70.4024 152.164 56.6376 152.164 38.7158C152.194 21.964 144.172 9 130.487 9V9ZM228.064 25.1973C224.604 25.1973 221.512 26.306 219.063 30.2476L205.315 54.2664V25.1973H194.783V69.4786H199.253C202.651 69.4786 205.744 68.3699 208.255 64.4283L222.767 39.5779V59.4396C222.767 64.8903 227.39 69.4786 232.809 69.4786H233.299V25.1973H228.064V25.1973ZM439.783 25.1973C436.321 25.1973 433.231 26.306 430.779 30.2476L417.032 54.2664V25.1973H406.499V69.4786H410.971C414.371 69.4786 417.462 68.3699 419.971 64.4283L434.486 39.5779V59.4396C434.486 64.8903 439.109 69.4786 444.557 69.4786H445.019V25.1973H439.783V25.1973ZM270.683 47.8923C268.234 42.3495 264.59 38.4079 259.324 36.3446L278.276 9.86209H266.458L248.149 36.0983V9.9854H247.904C241.842 9.9854 237.28 14.4195 237.28 20.4244V69.4786H237.525C243.587 69.4786 248.118 65.0441 248.118 59.0396V40.8403C253.538 40.8403 257.64 44.474 259.6 49.2164L267.376 69.4478H279.317L270.683 47.8923ZM478.941 25.1973H447.283V33.6655H457.939V69.4786H458.397C463.878 69.4786 468.285 64.9516 468.285 59.5013V33.6655H478.941V25.1973V25.1973ZM369.884 61.4104C374.752 56.2063 377.078 46.8761 378.181 39.6703L378.884 33.2654H387.059L389.569 61.4104H369.884V61.4104ZM399.305 61.1025L395.692 25.2281H370.464L368.903 35.975C367.493 45.5519 365.261 57.5613 356.747 62.7037L357.454 81.026H358.002C362.167 81.026 365.535 77.6389 365.535 73.4507L365.69 69.4786H394.408L394.805 81.026H395.357C399.522 81.026 402.89 77.6389 402.89 73.4507L403.254 62.6729L399.305 61.1025V61.1025ZM643.174 55.3134C640.844 50.6635 638.06 47.1223 633.895 45.3978L649.481 25.2281H638.151L623.056 45.1823V25.1973H612.526V69.4786H612.984C618.404 69.4786 623.056 64.8903 623.056 59.4396V49.3702C627.434 49.3702 630.589 52.6651 632.334 56.5143L638.67 69.4786H650L643.174 55.3134ZM513.631 62.1804H507.263V41.0253C508.611 40.7174 510.966 40.2553 512.989 40.2553C520.612 40.2553 525.051 44.8128 525.051 50.4789C525.08 56.5451 520.796 62.1804 513.631 62.1804ZM514.121 32.1875C511.518 32.1875 508.763 32.6188 507.291 33.0188V19.1311H521.254C526.245 19.1311 530.287 15.0662 530.287 10.0471V9.89292H496.762V69.4786H513.815C526.584 69.4786 536.104 62.55 536.104 50.6943C536.075 40.5324 528.174 32.1875 514.121 32.1875V32.1875ZM329.009 44.2586C329.009 36.4371 331.764 32.2492 337.642 32.0951H338.042C340.949 32.0951 346.369 33.0496 346.675 41.8257L329.009 44.2586V44.2586ZM355.798 46.1677C355.798 32.8959 349.43 25.2281 337.949 25.2281C326.316 25.2281 319.242 34.0042 319.242 47.5227C319.242 61.4413 326.867 70.1253 339.665 70.1253C346.737 70.1253 351.695 68.3699 354.36 66.9533V58.1771C351.695 60.0863 347.991 62.4575 340.675 62.4575C334.09 62.4575 330.448 58.67 329.59 51.4643L355.77 47.8306V46.1677H355.798ZM561.548 64.0895C560.538 64.3358 557.934 64.4899 555.731 64.4899C550.066 64.4899 546.759 62.0263 546.759 56.5759C546.759 49.2164 552.331 47.3377 561.515 46.4757V64.0895H561.548V64.0895ZM537.42 56.9147C537.42 65.2291 543.482 70.1253 555.086 70.1253H557.293C561.364 70.1253 568.129 69.4786 571.039 68.9241V40.7791C571.039 29.7239 563.661 25.1973 554.779 25.1973C548.014 25.1973 542.84 27.1681 540.085 28.523V35.5441C544.708 33.0805 548.873 31.5101 553.034 31.5101C558.057 31.5101 561.515 33.0188 561.515 38.6233V41.5487C548.411 42.842 537.42 45.5211 537.42 56.9147V56.9147ZM295.575 63.3196C294.075 63.3196 292.911 63.1658 291.87 62.7654V32.6492C293.217 32.1875 294.534 31.9413 296.279 31.9413C303.107 31.9413 306.107 36.9296 306.107 47.5227C306.107 54.6051 304.301 63.3196 295.575 63.3196ZM296.493 25.1973C290.523 25.1973 285.563 26.2135 281.736 28.2768L281.491 28.4305V87H282.042C287.461 87 291.87 82.5042 291.87 77.0535V69.3861C293.371 69.7865 295.422 70.0944 297.688 70.0944C309.077 70.0944 316.548 60.9179 316.548 47.184C316.548 33.5117 309.016 25.1973 296.493 25.1973V25.1973Z" fill="black"/>
<path d="M38.994 19.8447C39.0245 19.8142 39.0245 19.7837 39.0551 19.7532C39.6344 18.93 39.3905 18.3198 38.994 17.9844C38.7502 17.7711 33.1092 14.356 33.1092 14.356C32.7127 14.0816 32.4383 13.6241 32.4383 13.0753C32.4383 12.2518 32.926 11.6115 34.0849 11.276C37.7133 10.2697 50.5206 9.7515 54.8504 9.7515C56.3447 9.7515 58.9672 9.7515 61.2843 9.81255L61.1931 9.72097C54.8198 4.2933 46.5259 1 37.5 1C17.3441 1 1 17.3441 1 37.5C1 46.3736 4.1712 54.4848 9.41606 60.7966C13.9901 54.21 25.3335 37.9575 27.8032 34.6337C30.6695 30.7916 37.1951 22.284 38.293 20.851L38.3537 20.79L38.994 19.8447ZM15.2402 66.438C21.3998 71.1948 29.1145 74 37.5 74C57.6559 74 74 57.6559 74 37.5C74 31.4015 72.506 25.6384 69.853 20.6068C71.1032 19.3872 72.567 17.4662 71.5913 15.0876C71.2863 14.3865 69.8835 12.7399 69.5176 12.3434L69.5786 12.4957C70.4628 15.1792 68.7246 16.8563 67.4439 17.9844C66.7429 18.6247 57.4728 27.3461 46.6175 36.8597C37.0428 45.2452 26.3092 53.7528 20.1191 58.418C11.3981 64.9436 9.69044 65.8888 9.69044 65.8888C9.44659 66.011 9.08062 66.1331 8.80624 66.1331C8.28765 66.1331 7.79994 65.8888 7.52555 65.5229C7.4645 65.645 7.4645 65.7366 7.49503 65.7976C8.44028 67.3222 9.99535 69.06 10.8796 69.06C11.1543 69.06 11.5504 68.9383 11.7946 68.8162C11.7641 68.7857 12.4655 68.4197 15.2402 66.438Z" fill="#E2001A"/>
<path d="M39.0666 19.9394C39.6183 19.1213 39.4038 18.515 39.0052 18.1816C38.76 17.9696 33.0888 14.5758 33.0888 14.5758C32.6902 14.3032 32.4143 13.8485 32.4143 13.3031C32.4143 12.4544 32.9353 11.8484 34.0698 11.515C37.7176 10.515 50.5936 10 54.9466 10C57.0007 10 61.1085 10 63.7757 10.1513C66.7801 10.3333 69.0794 10.9697 69.6618 12.3937C70.7656 15.2122 68.926 16.9696 67.6077 18.1516C66.9029 18.788 57.6138 27.4546 46.6695 36.909C37.0432 45.2422 26.2524 53.6969 20.029 58.333C11.2613 64.8179 9.54443 65.7573 9.54443 65.7573C9.29926 65.8787 8.93134 66 8.62479 66C7.70516 66 7 65.303 7 64.4239C7 64.0909 7.09207 63.7576 7.27585 63.5149C7.27585 63.5149 24.5662 38.909 27.693 34.7272C30.8505 30.5757 38.3921 20.818 38.3921 20.818C38.3921 20.818 38.5149 20.7274 39.0666 19.9394Z" fill="#FEFEFE"/>
</svg>
