<svg width="420" height="115" viewBox="0 0 420 115" fill="none" xmlns="http://www.w3.org/2000/svg">
<path d="M54.5046 90.3252L54.2067 90.613C49.4044 95.4977 43.8461 98.0865 38.1187 98.0865C26.1636 98.0865 17.4854 89.1327 17.4854 76.7784C17.4854 64.4464 26.1636 55.4799 38.1187 55.4799C43.8461 55.4799 49.4044 58.0794 54.2067 62.977L54.5046 63.2734L62.1931 53.992L61.9876 53.7402C55.5935 46.1968 47.9216 42.5246 38.4898 42.5246C29.0254 42.5246 20.3737 45.7045 14.1384 51.4392C7.3636 57.6495 3.78662 66.4077 3.78662 76.7784C3.78662 87.1439 7.3636 95.9238 14.1384 102.136C20.3737 107.897 29.0254 111.059 38.4898 111.059C47.9216 111.059 55.5935 107.389 61.9876 99.8426L62.1931 99.6083L54.5046 90.3252Z" fill="#003B70"/>
<path d="M69.9625 109.796H83.545V43.6001H69.9625V109.796V109.796Z" fill="#003B70"/>
<path d="M136.749 95.4023C133.125 97.6051 129.753 98.7125 126.724 98.7125C122.336 98.7125 120.353 96.4002 120.353 91.2497V56.1259H134.186V43.6604H120.353V23.0632L107.04 30.176V43.6604H95.5554V56.1259H107.04V93.4903C107.04 103.67 113.08 110.625 122.097 110.805C128.219 110.925 131.909 109.104 134.151 107.773L134.282 107.676L137.552 94.9124L136.749 95.4023V95.4023Z" fill="#003B70"/>
<path d="M147.998 109.796H161.59V43.6001H147.998V109.796V109.796Z" fill="#003B70"/>
<path d="M378.218 18.4128V81.557L382.449 74.982C382.446 75.0112 401.459 47.5251 403.895 44.0203H412.368C410.565 46.4396 395.616 66.9785 395.616 66.9785C395.616 66.9785 415.088 107.488 416.213 109.796H407.893C407.435 108.851 390.707 73.4962 390.707 73.4962L378.218 90.966V109.796H370.466V22.8326C371.144 22.4439 376.394 19.4397 378.218 18.4128V18.4128ZM314.537 51.8622C318.536 45.8941 324.801 42.6034 332.131 42.6034C346.747 42.6034 354.493 51.9099 354.493 69.5207V109.796H346.722V71.1884C346.722 56.2055 341.511 49.2504 330.222 49.2504C319.417 49.2504 312.966 57.4549 312.966 71.1884V109.796H305.216V44.0203H312.966V54.2204L314.537 51.8622V51.8622ZM266.891 42.6034C281.931 42.6034 289.243 49.4699 289.243 63.5993V109.796H281.49V100.2L279.982 101.861C274.276 108.145 267.727 111.218 259.93 111.218C253.819 111.218 239.603 109.199 239.603 90.4737C239.603 75.168 252.258 69.7355 264.113 69.7355C270.066 69.7355 275.947 71.1039 280.214 73.4914L281.49 74.1974V64.7544C281.49 54.2849 276.368 48.9828 266.248 48.9828C260.007 48.9828 254.374 50.5554 248.598 53.8053C248.089 52.6365 246.297 48.6823 245.799 47.5543C251.835 44.3781 259.289 42.6034 266.891 42.6034ZM247.204 89.8291C247.204 99.6618 252.307 105.081 261.579 105.081C269.47 105.081 276.478 101.359 281.344 94.5902L281.49 94.3579V79.937L281.059 79.6879C276.111 76.8717 271.043 75.7357 263.594 75.7357C253.34 75.7357 247.204 81.0029 247.204 89.8291ZM187.344 18.4128V53.5992L188.845 51.9586C194.554 45.6629 200.874 42.6034 208.14 42.6034C222.68 42.6034 231.026 54.7028 231.026 75.8047C231.026 97.3162 221.547 111.218 206.871 111.218C199.72 111.218 193.995 108.448 188.853 102.511L187.344 100.758V109.796H179.607V22.8326C180.266 22.4439 185.525 19.4397 187.344 18.4128ZM187.528 59.3301L187.344 59.573V93.8124L187.482 94.0224C191.758 100.629 198.725 104.58 206.14 104.58C217.59 104.58 223.395 94.9442 223.395 75.945C223.395 58.9723 216.964 49.2504 205.752 49.2504C198.956 49.2504 192.824 52.6403 187.528 59.3301" fill="#003B70"/>
<path fill-rule="evenodd" clip-rule="evenodd" d="M169.726 31.8543C157.292 14.272 136.644 3.78194 115.636 3.78194C94.6359 3.78194 73.9833 14.272 61.5705 31.8543L60.9337 32.759H76.5892L76.7627 32.5714C87.4182 21.5917 101.328 15.7853 115.636 15.7853C129.945 15.7853 143.852 21.5917 154.528 32.5714L154.701 32.759H170.352L169.726 31.8543Z" fill="#D9261C"/>
</svg>
