<svg width="646" height="63" viewBox="0 0 646 63" fill="none" xmlns="http://www.w3.org/2000/svg">
<path fill-rule="evenodd" clip-rule="evenodd" d="M1 28.1647V55.329L17.1205 55.1482C34.2281 54.956 35.7133 54.7966 39.8031 52.7143C42.9804 51.0969 43.1418 50.4622 43.1435 39.5734C43.1456 28.7047 42.9547 27.7963 40.3033 26.0451C37.7367 24.3502 33.7801 23.7261 25.5496 23.7177L18.2795 23.7105V15.7198V7.72904H28.8158H39.3521V4.36452V1H20.176H1V28.1647ZM62.3132 1.52571C62.2074 1.81505 59.4094 13.9744 56.0951 28.547L50.0696 55.0426L58.2584 55.157C62.7625 55.2197 66.5336 55.1852 66.639 55.08C66.7772 54.9417 69.2136 42.7285 69.2684 41.8999C69.2722 41.8423 71.9012 41.7948 75.1106 41.7948H80.9456L82.0957 47.9981C82.7279 51.4102 83.3205 54.4382 83.4119 54.7272C83.6374 55.44 100.041 55.4939 100.041 54.7818C100.041 54.3045 88.9696 5.47986 88.203 2.57712L87.7866 1H75.146C65.4172 1 62.4611 1.12112 62.3132 1.52571ZM108.47 28.1353V55.2701L117.005 55.1566L125.539 55.0426L125.651 42.7411L125.762 30.4395H129.338H132.914V42.8462V55.2529H141.343H149.772V28.1264V1H141.343H132.914V11.7244V22.4488H130.649C129.403 22.4488 127.791 22.567 127.067 22.7117L125.75 22.9745V11.9873V1H117.11H108.47V28.1353ZM162.416 28.1264V55.2529H170.628H178.84L178.952 43.1616L179.063 31.0704L185.385 43.0565L191.707 55.0426L199.658 55.157C205.963 55.2483 207.563 55.1612 207.388 54.7364C207.267 54.4425 204.092 47.9329 200.333 40.2711L193.498 26.3403L199.511 13.9858C202.818 7.19072 205.603 1.4887 205.7 1.31542C205.796 1.14215 202.196 1 197.699 1H189.522L184.293 11.6193L179.063 22.2385L178.951 11.6193L178.838 1H170.627H162.416V28.1264ZM250.454 28.0213L244.309 55.0426L252.523 55.157C257.04 55.2197 260.803 55.2041 260.886 55.1221C260.968 55.0401 261.511 52.3392 262.094 49.1202C262.677 45.9008 263.25 42.8412 263.367 42.3205C263.576 41.3953 263.709 41.3742 269.4 41.3742H275.22L276.438 48.3136L277.655 55.2529H285.993C290.579 55.2529 294.33 55.1149 294.33 54.9459C294.33 54.6119 282.614 2.94091 282.265 1.73599C282.068 1.05594 281.083 1 269.326 1H256.599L250.454 28.0213ZM302.759 28.1264V55.2529H316.005C333.849 55.2529 338.625 54.498 341.508 51.2222L342.797 49.7561V40.1916C342.797 29.4096 342.763 29.2742 339.686 27.88C338.732 27.4472 337.002 27.0704 335.843 27.0422L333.736 26.9905L336.437 26.4013C339.872 25.6514 341.781 24.232 342.39 21.9761C342.667 20.9482 342.799 17.4365 342.719 13.185C342.571 5.26075 342.34 4.56134 339.359 3.01745C336.072 1.31542 332.789 1.01514 317.405 1.00715L302.759 1V28.1264ZM361.146 1.5194C360.807 2.55525 349.119 54.3335 349.119 54.7987C349.119 55.1355 351.494 55.2382 357.418 55.1566L365.717 55.0426L366.217 52.3089C366.491 50.8054 367.046 47.7302 367.45 45.4747L368.184 41.3742H373.97H379.755L380.909 47.5776C381.543 50.9896 382.155 54.1123 382.267 54.5169C382.452 55.1864 383.227 55.2529 390.832 55.2529H399.193L398.952 54.3352C398.82 53.8301 396.033 41.6707 392.758 27.3139L386.805 1.21028L374.062 1.09883C364.083 1.01178 361.282 1.10304 361.146 1.5194ZM407.701 28.1264V55.2529H416.341H424.98V42.8462V30.4395H428.563H432.145V42.855V55.2701L440.679 55.1566L449.214 55.0426L449.322 28.0213L449.431 1H440.788H432.145V11.9347V22.8694H428.563H424.98V11.9347V1H416.341H407.701V28.1264ZM463.332 28.1264V55.2529H471.551H479.769V31.491V7.72904H488.198H496.627V4.36452V1H479.98H463.332V28.1264ZM504.892 1.73599C504.68 2.4417 493.459 51.7134 492.967 54.0963L492.729 55.2529H500.971C508.458 55.2529 509.234 55.1852 509.432 54.5169C509.551 54.1123 510.154 51.0838 510.771 47.7879L511.892 41.7948H517.746C520.966 41.7948 523.601 41.8423 523.602 41.8999C523.603 41.9576 524.171 44.9385 524.864 48.5238C525.558 52.1092 526.126 55.0901 526.127 55.1477C526.128 55.2054 529.942 55.2529 534.603 55.2529C541.197 55.2529 543.037 55.1364 542.897 54.7272C542.798 54.4382 539.98 42.2313 536.636 27.6007L530.555 1H517.834C506.084 1 505.096 1.05636 504.892 1.73599ZM550.151 28.1264V55.2529H558.37H566.588V45.6304V36.0082L574.49 35.8005C582.818 35.5814 585.172 35.1516 587.637 33.4007C590.315 31.4968 590.4 31.0334 590.4 18.2432C590.4 7.0574 590.37 6.62884 589.472 5.18967C588.358 3.40059 586.132 2.09852 583.109 1.46683C581.709 1.17411 575.147 1 565.514 1H550.151V28.1264ZM600.726 23.1962C600.726 47.5536 600.831 46.5337 598.182 47.9006C597.507 48.2492 595.811 48.6538 594.414 48.7993L591.875 49.0643V55.5321V62L599.988 61.886L608.101 61.7716L608.224 58.5123L608.347 55.2529H618.444H628.541V58.6267V62L636.654 61.886L644.767 61.7716L644.884 55.358L645 48.9444H642.882H640.764V24.9722V1H620.745H600.726V23.1962ZM326.265 15.4043L326.38 22.8694H322.788H319.196V15.2824V7.69498L322.673 7.81736L326.15 7.93932L326.265 15.4043ZM575.776 8.23372C576.141 8.59793 576.281 11.52 576.281 18.7331C576.281 28.1841 576.237 28.7514 575.466 29.1631C575.018 29.4024 572.837 29.5984 570.62 29.5984H566.588V18.6637V7.72904H570.929C573.744 7.72904 575.448 7.90652 575.776 8.23372ZM626.504 28.0213C626.427 39.1818 626.328 48.348 626.286 48.3905C626.244 48.433 623.557 48.589 620.316 48.7371C614.572 48.9999 614.446 48.9873 615.35 48.2395C615.859 47.8177 616.475 46.9396 616.719 46.2885C617.005 45.5261 617.162 38.4526 617.162 26.4168V7.72904H621.904L626.645 7.72862L626.504 28.0213ZM271.907 20.6614C273.123 27.3118 274.114 32.9894 274.109 33.2784C274.103 33.6682 272.839 33.8041 269.221 33.8041H264.34L264.575 32.6475C264.704 32.0116 265.671 26.7596 266.723 20.9768C269.01 8.41162 268.976 8.57017 269.378 8.57017C269.554 8.57017 270.692 14.0114 271.907 20.6614ZM75.5969 9.19387C75.5969 9.30574 76.5452 14.6456 77.7042 21.0601C78.8632 27.475 79.8115 32.9667 79.8115 33.2636C79.8115 33.6724 78.6297 33.8041 74.9567 33.8041C70.137 33.8041 70.1037 33.7973 70.325 32.8578C70.4476 32.3371 71.3095 27.7479 72.2405 22.6591C74.6091 9.71074 74.765 8.99073 75.2054 8.99073C75.4208 8.99073 75.5969 9.082 75.5969 9.19387ZM374.414 9.09588C374.419 9.15349 375.426 14.7365 376.654 21.5025L378.886 33.8041H373.946C369.456 33.8041 369.022 33.7372 369.18 33.0681C369.374 32.2492 373.563 9.37723 373.563 9.14046C373.563 8.97349 374.401 8.92975 374.414 9.09588ZM518.289 10.1473C518.418 10.7832 519.39 16.0352 520.449 21.818C521.508 27.6007 522.474 32.6631 522.594 33.0681C522.795 33.7393 522.385 33.8041 517.939 33.8041C513.722 33.8041 513.064 33.712 513.064 33.1215C513.064 32.5365 516.416 13.4828 517.106 10.1473C517.238 9.51139 517.505 8.99073 517.7 8.99073C517.895 8.99073 518.16 9.51139 518.289 10.1473ZM25.3477 30.371C25.759 30.6317 25.8568 32.7514 25.7691 39.512L25.6549 48.3136L21.9672 48.4351L18.2795 48.5566V39.2878V30.019L21.5458 30.0253C23.342 30.0291 25.0531 30.1847 25.3477 30.371ZM325.897 31.0191C326.232 31.4224 326.344 34.1472 326.265 39.9561L326.15 48.3136L322.673 48.4355L319.196 48.5579V39.4985V30.4395H322.305C324.433 30.4395 325.567 30.6225 325.897 31.0191Z" fill="#004624"/>
</svg>
