<svg width="431" height="85" viewBox="0 0 431 85" fill="none" xmlns="http://www.w3.org/2000/svg">
<path d="M74.5716 58.3853C73.5201 58.3853 72.9111 59.0025 72.9111 60.1189V68.9381H59.0758V60.1189C59.0758 59.0081 58.4668 58.3853 57.4154 58.3853C56.3754 58.3853 55.7549 59.0025 55.7549 60.1189V81.3814C55.7549 82.4923 56.3754 83.1094 57.4154 83.1094C58.4668 83.1094 59.0758 82.4923 59.0758 81.3814V71.9676H72.9111V81.3814C72.9111 82.4923 73.5201 83.1094 74.5716 83.1094C75.6115 83.1094 76.2205 82.4923 76.2205 81.3814V60.1189C76.2263 59.0025 75.6115 58.3853 74.5716 58.3853ZM91.653 70.4584L101.277 61.0614C101.731 60.6182 101.926 60.2591 101.926 59.7542C101.926 59.0137 101.403 58.3853 100.507 58.3853C100.042 58.3853 99.668 58.5424 99.2486 58.9464L89.8432 68.1302C89.3146 68.6464 88.7803 68.9325 88.0333 68.9325H86.0971V60.1133C86.0971 59.0025 85.4881 58.3797 84.4366 58.3797C83.3967 58.3797 82.7762 58.9968 82.7762 60.1133V81.3758C82.7762 82.4867 83.3967 83.1038 84.4366 83.1038C85.4881 83.1038 86.0971 82.4867 86.0971 81.3758V71.962H87.8093C88.5504 71.962 89.0848 72.2537 89.6134 72.7642L99.5991 82.5147C100.042 82.9411 100.426 83.1038 100.921 83.1038C101.863 83.1038 102.409 82.4474 102.409 81.6732C102.409 81.1402 102.202 80.7643 101.725 80.2987L91.653 70.4584ZM112.435 29.1114C110.941 29.88 108.895 30.4298 106.936 30.4298C103.707 30.4298 101.685 29.0666 101.685 26.6878C101.685 24.5448 103.414 22.8841 106.913 22.8841C108.757 22.8841 110.389 23.1478 112.435 23.7425V29.1114ZM107.379 9.36923C104.569 9.36923 102.035 10.0705 100.415 10.7157C99.0475 11.2599 98.4672 12.0341 98.473 13.0663C98.4845 14.2837 99.4267 15.1758 100.599 15.1758C101.162 15.1758 101.788 14.9626 102.455 14.7045C103.512 14.2894 105.253 13.8405 106.994 13.8405C110.86 13.8405 112.435 15.2655 112.435 18.1772V20.1408C110.211 19.5573 108.396 19.2992 106.316 19.2992C99.984 19.2992 96.8929 22.8224 96.8929 26.6878C96.8929 31.1592 100.358 34.5253 106.494 34.5253C111.263 34.5253 114.894 32.9768 116.347 32.0007C117.043 31.5294 117.29 31.0806 117.29 30.1662V18.2838C117.284 12.1687 113.681 9.36923 107.379 9.36923ZM167.948 25.2124C166.81 25.2348 166.173 25.8968 165.742 26.6317C164.868 28.4663 163.024 29.7622 160.502 29.7622C156.94 29.7622 154.842 27.664 154.549 24.5616C154.394 22.901 154.394 20.9823 154.549 19.3217C154.842 16.2136 156.968 14.1154 160.502 14.1154C163.024 14.1154 164.851 15.3889 165.742 17.2684C166.19 17.9808 166.81 18.6597 167.948 18.6709C169.407 18.6821 170.39 17.7957 170.39 16.3988C170.39 15.6751 170.108 14.9514 169.66 14.1603C168.195 11.4955 165.012 9.36362 160.433 9.36362C154.251 9.36362 150.091 13.1729 149.574 18.6204C149.396 20.4325 149.396 23.4339 149.574 25.2516C150.114 30.6991 154.251 34.5196 160.433 34.5196C165.012 34.5196 168.195 32.399 169.677 29.7173C170.126 28.9207 170.396 28.2026 170.396 27.4789C170.39 26.1044 169.402 25.1787 167.948 25.2124ZM55.0999 30.0932L46.4357 21.6331L54.6575 13.6049C55.2953 12.9822 55.6228 12.3651 55.6228 11.6526C55.6228 10.4688 54.7437 9.58802 53.4912 9.58802C52.7615 9.58802 52.2157 9.84609 51.509 10.5361L43.155 18.6933C42.7011 19.1422 42.2127 19.3946 41.5635 19.3946H39.857V12.1799C39.857 10.5418 38.8803 9.58802 37.3405 9.58802C35.8122 9.58802 34.8412 10.5418 34.8412 12.1799V31.7033C34.8412 33.3415 35.8179 34.3065 37.3405 34.3065C38.8803 34.3065 39.857 33.3415 39.857 31.7033V23.9108H41.2819C41.9312 23.9108 42.4195 24.1633 42.8734 24.6121L51.7905 33.3135C52.5259 34.0316 53.1005 34.3121 53.8647 34.3121C55.1861 34.3121 56.1112 33.392 56.1112 32.1409C56.1112 31.3948 55.7722 30.744 55.0999 30.0932ZM139.691 24.5672C139.398 27.6808 137.416 29.7847 133.785 29.7847C131.906 29.7847 129.545 29.2236 128.378 28.4214V15.4731C129.545 14.6596 131.9 14.0986 133.785 14.0986C137.416 14.0986 139.404 16.2136 139.691 19.3273C139.835 20.8925 139.847 22.8729 139.691 24.5672ZM133.94 9.36923C129.551 9.36923 126.04 10.884 124.627 11.6974C123.472 12.3651 123.351 12.8924 123.351 14.7718V39.7932C123.351 41.4202 124.322 42.3851 125.85 42.3851C127.39 42.3851 128.373 41.4202 128.373 39.7932V33.263C129.878 33.9755 132.182 34.5253 134.377 34.5253C140.18 34.5253 144.167 30.7496 144.69 25.3021C144.868 23.4676 144.868 20.4437 144.69 18.5924C144.179 13.1337 140.186 9.36923 133.94 9.36923ZM46.4127 78.61C44.5741 79.575 42.0748 80.2819 39.7594 80.2819C35.6168 80.2819 33.2784 78.5651 33.2784 75.5974C33.2784 72.9325 35.3353 70.9409 39.7594 70.9409C41.9542 70.9409 43.81 71.2551 46.4127 72.0068V78.61ZM40.4718 58.1722C37.5761 58.1722 34.755 58.9407 33.2267 59.6196C32.1982 60.0572 31.7329 60.5228 31.7558 61.3251C31.7846 62.1554 32.4396 62.8118 33.2497 62.8118C33.6461 62.8118 34.123 62.6603 34.5884 62.4471C35.7605 61.959 37.9725 61.3139 40.1386 61.3139C44.4247 61.3139 46.4127 63.0193 46.4127 66.8174V69.0783C43.7238 68.3153 41.7875 68.0517 39.4663 68.0517C33.1865 68.0517 29.9977 71.5805 29.9977 75.5693C29.9977 80.2538 33.6059 83.3338 39.3227 83.3338C44.0455 83.3338 47.6595 81.7125 48.9924 80.7643C49.5325 80.3885 49.6876 80.0855 49.6876 79.3674V66.7333C49.6876 60.8875 46.2231 58.1722 40.4718 58.1722ZM16.2601 79.704H6.87193V66.7052H16.2601C21.1726 66.7052 23.195 69.0559 23.195 73.1177C23.195 77.2692 21.1726 79.704 16.2601 79.704ZM16.6853 63.586H6.87193V53.555H23.2237C24.3154 53.555 25.068 52.9603 25.068 51.9392C25.068 50.9631 24.3154 50.3572 23.2237 50.3572H6.45251C4.57372 50.3572 3.49931 51.3782 3.49931 53.2352V80.007C3.49931 81.8639 4.56798 82.8906 6.45251 82.8906H16.6796C22.9652 82.8906 26.6078 79.3225 26.6078 73.0896C26.6078 67.025 22.9709 63.586 16.6853 63.586ZM74.3762 18.6765H82.6038C86.4935 18.6765 88.2287 20.612 88.2287 23.9501C88.2287 27.3442 86.4935 29.3695 82.6038 29.3695H74.3762V18.6765V18.6765ZM73.1352 34.0877H83.1439C89.6536 34.0877 93.5088 30.3962 93.5088 23.8435C93.5088 17.6611 89.6536 14.2052 83.1439 14.2052H74.3762V6.30607H89.1078C90.7165 6.30607 91.7622 5.38039 91.7622 3.8993C91.7622 2.49115 90.7165 1.55986 89.1078 1.55986H73.1352C70.6071 1.55986 69.2225 2.90069 69.2225 5.38039V30.2727C69.2167 32.7524 70.6014 34.0877 73.1352 34.0877ZM10.71 19.4058L15.3064 6.60341C15.4845 6.1546 15.6339 5.99751 15.9786 5.99751C16.3176 5.99751 16.467 6.1546 16.6336 6.60341L21.253 19.4058H10.71ZM30.9917 31.9446C30.9917 31.4902 30.9112 31.0469 30.6469 30.3625L21.3737 5.64407C20.2533 2.62579 18.6215 1.34106 16.0246 1.34106C13.4391 1.34106 11.7959 2.62579 10.6812 5.64407L1.34473 30.3737C1.05746 31.1423 1 31.6024 1 31.9614C1 33.2461 2.04569 34.3121 3.49931 34.3121C4.68863 34.3121 5.57919 33.7286 6.07331 32.3036L9.09546 23.8996H22.8847L25.9299 32.3261C26.4125 33.7286 27.3031 34.3121 28.4751 34.3121C29.9517 34.3121 30.9917 33.2405 30.9917 31.9446Z" fill="#170030"/>
<path d="M428.594 39.7072C425.181 31.2808 416.754 26.6918 407.633 28.2977L388.89 31.5889C385.778 32.1351 383.713 35.0388 384.268 38.0732C384.827 41.1077 387.8 43.1244 390.907 42.5829L409.65 39.2917C414.11 38.5074 416.864 41.1123 417.954 43.806C419.048 46.5043 418.857 50.2437 415.057 52.6479L387.547 70.0562C384.989 71.6715 381.878 71.7835 379.215 70.369C376.548 68.9545 374.951 66.3355 374.951 63.3711V6.96325C374.951 3.87746 372.394 1.37521 369.234 1.37521C366.074 1.37521 363.517 3.87746 363.517 6.96325V63.3804C363.517 70.5044 367.341 76.788 373.751 80.1912C376.729 81.7691 379.937 82.5581 383.13 82.5581C386.816 82.5581 390.487 81.5171 393.766 79.4396L421.276 62.0313C429.068 57.1015 432.007 48.1336 428.594 39.7072ZM331.829 28.3023L313.086 31.5935C309.979 32.1397 307.914 35.0435 308.468 38.0779C309.028 41.1123 312.001 43.1291 315.108 42.5876L333.851 39.2963C338.316 38.5121 341.064 41.117 342.159 43.8107C343.249 46.509 343.063 50.2483 339.257 52.6525L311.748 70.0609C309.195 71.6761 306.083 71.7882 303.416 70.3737C300.748 68.9592 299.157 66.3402 299.157 63.3758V20.5202C299.157 13.3916 295.332 7.10797 288.922 3.70473C282.512 0.306157 275.031 0.58626 268.908 4.45634L199.71 48.2409C191.923 53.1661 188.983 62.134 192.396 70.5604C195.804 78.9821 204.227 83.5665 213.357 81.9652L273.774 71.3587C276.881 70.8125 278.951 67.9088 278.391 64.8743C277.832 61.8399 274.859 59.8185 271.752 60.3647L211.335 70.9712C206.87 71.7555 204.122 69.1505 203.032 66.4569C201.937 63.7586 202.124 60.0192 205.929 57.6104L275.112 13.8351C277.66 12.2245 280.777 12.1078 283.444 13.5223C286.111 14.9415 287.703 17.5604 287.703 20.5248V63.3804C287.703 70.5044 291.527 76.788 297.938 80.1912C300.916 81.7691 304.128 82.5581 307.321 82.5581C311.007 82.5581 314.673 81.5171 317.952 79.4396L345.467 62.0313C353.249 57.1062 356.189 48.1382 352.781 39.7118C349.382 31.2808 340.95 26.7011 331.829 28.3023Z" fill="#009C32"/>
</svg>
