<svg width="455" height="151" viewBox="0 0 455 151" fill="none" xmlns="http://www.w3.org/2000/svg">
<path d="M31.4817 1H137L130.034 21H24L31.4817 1Z" fill="#00ABFF"/>
<path d="M20.5479 33H127L119.973 52H13L20.5479 33Z" fill="#00ABFF"/>
<path d="M8.41553 64H113L106.096 84H1L8.41553 64Z" fill="#00ABFF"/>
<path d="M448.47 33H363.68V99.3709H406.536C415.316 99.3709 422.434 105.943 422.434 114.049C422.434 122.156 415.316 128.727 406.536 128.727H363.68V150H414.6C436.36 150 454 133.714 454 113.624C454 93.5335 436.36 77.2473 414.6 77.2473H391.79V54.6982H440.176L448.47 33Z" fill="#233F81"/>
<path d="M211.513 149.787H160V127.664H203.662C211.743 127.664 218.293 121.616 218.293 114.155C218.293 106.695 211.743 100.647 203.662 100.647H160V87.4582H221.157C237.136 87.4582 250.089 99.4178 250.089 114.171C250.089 133.841 232.818 149.787 211.513 149.787Z" fill="#233F81"/>
<path d="M245.481 65.3345V53.746C245.481 42.2883 235.421 33 223.011 33H160V55.3364H204.929C211.037 55.3364 215.989 59.9209 215.989 65.5602V68.3243C215.989 73.9636 211.049 78.5236 204.941 78.5236H160V87.4582H221.519C234.753 87.4582 245.481 77.5531 245.481 65.3345Z" fill="#233F81"/>
<path d="M160 55.1236H188.11V127.876H160V55.1236Z" fill="#233F81"/>
<path d="M356.307 33H252.624V55.2044H288.337V150H316.216V55.2044H347.552L356.307 33Z" fill="#233F81"/>
<path d="M363.68 33H391.79V150H363.68V33Z" fill="#233F81"/>
</svg>
