<svg width="614" height="114" viewBox="0 0 614 114" fill="none" xmlns="http://www.w3.org/2000/svg">
<path d="M378.4 64.382C380.362 64.4853 382.286 63.8274 383.772 62.546C384.472 61.8544 385.016 61.019 385.363 60.0973C385.707 59.1759 385.849 58.1899 385.778 57.208C385.829 56.2886 385.693 55.3686 385.377 54.5036C385.061 53.6387 384.574 52.8468 383.942 52.176C383.214 51.4548 382.347 50.8898 381.395 50.5158C380.443 50.1414 379.423 49.966 378.4 50H370.75V64.212L378.4 64.382ZM363.27 43.404H378.74C382.742 43.2 386.676 44.511 389.756 47.076C391.116 48.4312 392.173 50.0588 392.86 51.852C393.544 53.6451 393.843 55.5634 393.734 57.48C393.802 59.3112 393.503 61.138 392.847 62.8499C392.194 64.5618 391.201 66.1238 389.926 67.442C386.995 69.9168 383.211 71.1385 379.386 70.842H370.988V86.448H363.508V43.404H363.27ZM410.87 53.978C408.714 57.2355 407.643 61.0911 407.81 64.994C407.528 68.9091 408.609 72.8014 410.87 76.01C411.87 77.3146 413.158 78.3713 414.63 79.0985C416.106 79.8261 417.728 80.2042 419.37 80.2042C421.012 80.2042 422.634 79.8261 424.11 79.0985C425.582 78.3713 426.87 77.3146 427.87 76.01C430.026 72.7524 431.097 68.8968 430.93 64.994C431.212 61.0789 430.131 57.1866 427.87 53.978C426.901 52.617 425.616 51.5147 424.12 50.7677C422.627 50.0207 420.971 49.6518 419.302 49.694C417.629 49.6209 415.963 49.9758 414.464 50.7255C412.964 51.4752 411.679 52.5945 410.734 53.978H410.87ZM433.242 48.776C436.958 53.3497 438.913 59.1035 438.75 64.994C438.991 70.896 437.026 76.6767 433.242 81.212C431.484 83.152 429.329 84.6909 426.925 85.7234C424.518 86.756 421.92 87.2582 419.302 87.196C416.681 87.2932 414.069 86.8067 411.659 85.7717C409.248 84.7368 407.096 83.1796 405.362 81.212C401.646 76.638 399.694 70.8845 399.854 64.994C399.681 59.0606 401.731 53.2762 405.6 48.776C407.361 46.8421 409.517 45.3097 411.921 44.2829C414.328 43.2564 416.925 42.7593 419.54 42.826C422.151 42.7726 424.745 43.2755 427.149 44.3016C429.553 45.3274 431.712 46.8526 433.48 48.776H433.242ZM540.75 43.744V73.426L560.81 43.744H568.154V86.414H560.81V56.562L540.75 86.38H533.27V43.71L540.75 43.744Z" fill="#073D59"/>
<path d="M594.946 50C592.056 50 584.984 48.776 584.984 56.8C584.984 59.996 586.208 64.314 595.184 64.314H605.588V50H594.946ZM585.46 86.414H576.586L588.078 70.026C585.004 69.6499 582.196 68.105 580.234 65.7114C578.269 63.3181 577.307 60.2605 577.538 57.174C577.538 51.836 579.85 43.574 591.92 43.574H613V86.414H605.656V70.808H596L585.46 86.414ZM474.212 73.8C473.824 74.651 473.369 75.4697 472.852 76.248C471.893 77.6216 470.608 78.7371 469.112 79.4963C467.619 80.2552 465.96 80.6343 464.284 80.5999C462.611 80.673 460.945 80.3181 459.446 79.5684C457.946 78.8187 456.661 77.6994 455.716 76.316C453.56 73.0584 452.489 69.2028 452.656 65.3C452.374 61.3849 453.455 57.4925 455.716 54.284C456.685 52.9229 457.974 51.8207 459.466 51.0737C460.959 50.3267 462.615 49.9578 464.284 50C465.96 49.9269 467.623 50.2818 469.122 51.0315C470.622 51.7812 471.907 52.9005 472.852 54.284C473.668 55.4777 474.328 56.7683 474.824 58.126H482.78C482.001 54.7957 480.427 51.704 478.19 49.116C476.429 47.182 474.273 45.6497 471.869 44.6229C469.462 43.5964 466.865 43.0993 464.25 43.166C461.632 43.0646 459.021 43.5457 456.61 44.5746C454.2 45.6038 452.047 47.1548 450.31 49.116C446.614 53.7015 444.666 59.4469 444.802 65.334C444.561 71.236 446.526 77.0167 450.31 81.552C452.068 83.492 454.223 85.0308 456.627 86.0634C459.034 87.096 461.632 87.5982 464.25 87.536C466.871 87.6332 469.483 87.1467 471.893 86.1117C474.304 85.0767 476.456 83.5195 478.19 81.552C480.135 79.311 481.553 76.6617 482.338 73.8H474.212ZM517.8 73.8C517.412 74.651 516.957 75.4697 516.44 76.248C515.454 77.661 514.128 78.801 512.581 79.5623C511.034 80.3232 509.32 80.6802 507.6 80.5999C505.927 80.673 504.261 80.3181 502.762 79.5684C501.262 78.8187 499.977 77.6994 499.032 76.316C496.876 73.0584 495.805 69.2028 495.972 65.3C495.69 61.3849 496.771 57.4925 499.032 54.284C500.001 52.9229 501.29 51.8207 502.782 51.0737C504.275 50.3267 505.931 49.9578 507.6 50C509.276 49.9269 510.939 50.2818 512.438 51.0315C513.938 51.7812 515.223 52.9005 516.168 54.284C516.984 55.4777 517.644 56.7683 518.14 58.126H526.096C525.317 54.7957 523.743 51.704 521.506 49.116C519.745 47.182 517.589 45.6497 515.185 44.6229C512.778 43.5964 510.181 43.0993 507.566 43.166C504.948 43.0646 502.337 43.5457 499.926 44.5746C497.516 45.6038 495.363 47.1548 493.626 49.116C489.93 53.7015 487.982 59.4469 488.118 65.334C487.877 71.236 489.842 77.0167 493.626 81.552C495.401 83.4719 497.567 84.9876 499.977 85.9968C502.388 87.0055 504.989 87.4843 507.6 87.4C510.221 87.4972 512.833 87.0107 515.243 85.9757C517.654 84.9407 519.806 83.3835 521.54 81.416C523.505 79.2243 524.957 76.6226 525.79 73.8H517.8Z" fill="#073D59"/>
<path d="M187.524 79.988H198.2C200.158 80.0774 202.078 79.4212 203.572 78.152C204.157 77.6321 204.623 76.9926 204.94 76.2772C205.257 75.5615 205.416 74.7863 205.408 74.004C205.41 73.1217 205.234 72.2479 204.889 71.4356C204.544 70.6233 204.038 69.8893 203.402 69.278C201.697 67.9989 199.574 67.4046 197.452 67.612H187.354L187.524 79.988ZM180.01 86.55V43.574H209.556V50.612H187.66V61.016H197.316C201.4 60.458 205.545 61.4396 208.944 63.77C210.38 65.0079 211.522 66.5508 212.287 68.2859C213.052 70.0209 213.419 71.9048 213.364 73.8C213.416 75.5734 213.087 77.3373 212.401 78.9731C211.715 80.6091 210.687 82.0797 209.386 83.286C206.268 85.7564 202.338 86.9695 198.37 86.686L180.01 86.55ZM238.456 53.196C238.09 51.8945 237.84 50.5634 237.708 49.218C237.59 50.4998 237.386 51.7717 237.096 53.026L231.146 73.052H244.304L238.49 53.162L238.456 53.196ZM248.656 86.414L246.514 79.614H229.14L227.134 86.414H219.654L233.254 43.574H242.4L256.476 86.414H248.656ZM263.956 43.574H271.436V61.016H290.578V43.574H297.82V86.55H290.476V67.578H271.334V86.55H263.854L263.956 43.574Z" fill="#073D59"/>
<path d="M340.184 43.71L321.246 63.6L341.646 86.55H332.296L313.8 66.83V86.584H306.32V43.71H313.8V61.322L330.8 43.71H340.184Z" fill="#073D59"/>
<path d="M143.29 61.0159V58.874C141.454 45.274 128.908 31.6739 117.892 26.5739C111.029 23.1195 103.642 20.8218 96.0303 19.7739C90.4023 19.1783 84.9174 17.6262 79.812 15.1839C79.37 14.8779 78.8943 14.7079 78.4183 14.4359C77.9899 14.2214 77.5806 13.9712 77.194 13.6879C74.7127 11.7853 72.434 9.63195 70.394 7.26195C69.1207 5.79498 68.0568 4.15877 67.232 2.39995L66.62 1.34595V61.6279H73.0463V18.9239C74.1547 19.9864 75.3879 20.9112 76.7183 21.6779C81.9207 24.0049 87.4464 25.5298 93.106 26.1999C99.9016 27.2247 106.569 28.9686 112.996 31.4019C127.072 37.8279 135.81 52.8219 136.796 61.2539V71.9639H78.4183V101.952C80.39 101.952 81.818 101.952 83.79 101.646H84.232V77.8459H143.29V61.152" fill="#CD1F45"/>
<path d="M66.79 73.8C61.0896 74.0434 55.4109 74.6565 49.79 75.636C46.5457 76.2446 43.3344 77.0164 40.168 77.948C38.6645 78.3662 37.1882 78.8772 35.748 79.478C35.136 77.948 34.83 76.554 34.388 75.024V74.412C33.8685 72.1731 33.505 69.9012 33.3 67.612H66.79V73.8ZM66.79 104.842H66.484C65.26 104.536 64.036 104.366 62.812 104.06C60.0532 103.342 57.3846 102.316 54.856 101C53.1873 100.185 51.6039 99.2055 50.13 98.076C46.3767 95.4655 43.1185 92.2073 40.508 88.454C39.896 87.536 39.42 86.788 38.978 86.006C39.284 86.006 39.59 86.006 39.896 85.7C40.202 85.394 40.338 85.7 40.508 85.7C43.6676 84.6606 46.8793 83.7865 50.13 83.082C55.6839 82.0124 61.3092 81.3534 66.96 81.11L66.79 104.842ZM40.338 99.64C38.1868 98.8519 36.0863 97.9322 34.048 96.886L33.13 96.58L27.928 93.826C27.928 93.826 27.486 93.826 27.316 93.52C27.4972 93.2799 27.6458 93.0171 27.758 92.738L28.2 92.126C29.2197 91.1148 30.3617 90.2353 31.6 89.508H32.042C32.142 89.5372 32.248 89.5372 32.348 89.508C32.654 89.814 32.79 90.29 33.096 90.596L33.878 91.82C35.7585 94.5403 37.8625 97.0992 40.168 99.47C40.474 99.776 40.78 100.252 41.086 100.558C40.78 100.082 40.474 99.946 40.338 99.946V99.64ZM23.032 87.4L21.672 89.236C20.6809 88.4438 19.7595 87.568 18.918 86.618C13.2771 81.673 9.53774 74.9159 8.344 67.51H25.956C26.2688 71.08 26.8832 74.6174 27.792 78.084C28.1391 79.6198 28.6522 81.1131 29.322 82.538C29.322 82.538 28.88 82.844 28.71 82.98L27.962 83.422C26.1872 84.5763 24.5355 85.9094 23.032 87.4ZM9.432 55.882C10.4136 53.0393 11.8113 50.3584 13.58 47.926C15.1314 45.7901 16.8722 43.7987 18.782 41.976C19.1499 41.5707 19.5603 41.2059 20.006 40.888C20.3249 40.5466 20.6782 40.2389 21.06 39.97C22.9467 42.2762 25.2542 44.203 27.86 45.648H28.166C28.5091 45.885 28.8732 46.0897 29.254 46.26C28.812 47.484 28.336 48.878 27.894 50.238V50.714C27.588 51.802 27.282 52.856 26.976 54.114C26.5272 56.359 26.2205 58.6302 26.058 60.914H8.344C8.53644 59.1916 8.94784 57.5004 9.568 55.882H9.432ZM27.18 35.482C27.5193 35.3327 27.8297 35.1257 28.098 34.87C29.934 33.782 31.77 32.898 33.776 31.81H34.218L39.114 29.6C39.5934 29.4596 40.051 29.2535 40.474 28.988H40.916L40.304 29.6C37.9471 31.9242 35.8391 34.4882 34.014 37.25L33.096 38.61C32.8815 39.0384 32.6312 39.4478 32.348 39.834C30.8333 38.9653 29.439 37.9025 28.2 36.672C27.7458 36.2626 27.3354 35.8067 26.976 35.312C26.976 35.618 26.976 35.618 26.976 35.312L27.18 35.482ZM140.672 82.742H88.992V88.862H124.318C122.933 90.1203 121.443 91.2576 119.864 92.262C105.843 100.867 89.6655 105.313 73.216 105.08V67.68H132.58V61.016H32.96C32.96 59.18 33.402 57.616 33.708 55.678C33.8841 55.0806 33.9868 54.4642 34.014 53.842C34.4084 52.2205 34.9198 50.6297 35.544 49.082L36.462 49.388C37.686 49.83 38.91 50.136 40.134 50.612C43.2855 51.6007 46.5161 52.3171 49.79 52.754H50.708C53.156 53.196 55.91 53.672 59.14 53.978L66.79 54.42V47.552C64.4375 47.5425 62.0875 47.3949 59.752 47.11C57.0806 46.908 54.4235 46.5449 51.796 46.022C51.1724 46.0077 50.5543 45.9047 49.96 45.716C46.6912 45.1326 43.4738 44.2911 40.338 43.2C39.896 43.2 39.556 43.2 39.114 42.894C38.672 42.588 38.808 42.894 38.672 42.894C39.0246 42.2038 39.4339 41.5442 39.896 40.922C39.896 40.616 40.202 40.48 40.338 40.14C42.9033 36.3395 46.1687 33.0626 49.96 30.484C54.7625 26.9851 60.3161 24.6567 66.178 23.684H66.79V16.34H66.348C66.1501 16.27 65.9339 16.27 65.736 16.34C60.4881 16.6674 55.2718 17.3831 50.13 18.482C46.8578 19.1566 43.6414 20.0769 40.508 21.236C38.536 21.848 36.53 22.596 34.218 23.548C32.518 24.296 30.546 25.248 28.268 26.438C25.0428 28.1536 21.9712 30.1443 19.088 32.388C14.9522 35.5085 11.2976 39.22 8.242 43.404C6.04934 46.482 4.2878 49.845 3.006 53.4C1.7004 56.8799 1.02108 60.5635 1 64.28C1 75.772 7.256 86.924 18.612 95.798C19.224 96.24 19.972 96.716 20.618 97.192C21.264 97.668 21.978 98.11 22.624 98.586L26.466 100.864C26.908 101.17 27.384 101.34 27.826 101.646C29.526 102.564 31.226 103.312 33.028 104.094L33.776 104.4C35.612 105.182 37.618 105.93 40.066 106.848C43.2848 107.913 46.492 108.831 49.688 109.602C57.2799 111.273 65.0342 112.094 72.808 112.05C90.8151 112.417 108.538 107.525 123.808 97.974C126.439 96.3304 128.899 94.4285 131.152 92.296C132.988 90.63 138.496 85.088 140.332 82.81H140.808L140.672 82.742Z" fill="#073D59"/>
</svg>
