<svg width="484" height="159" viewBox="0 0 484 159" fill="none" xmlns="http://www.w3.org/2000/svg">
<path d="M92.3212 46.7807C92.3212 71.9984 71.8783 92.4413 46.6606 92.4413C21.4429 92.4413 1 71.9984 1 46.7807C1 21.563 21.4429 1.12012 46.6606 1.12012C71.8783 1.12012 92.3212 21.563 92.3212 46.7807Z" fill="#DC4344"/>
<path d="M1 126.137V121.742C1 112.572 21.4429 105.138 46.6606 105.138C71.8783 105.138 92.3212 112.572 92.3212 121.742V126.137C92.3212 135.307 71.8783 142.741 46.6606 142.741C21.4429 142.741 1 135.307 1 126.137Z" fill="#DC4344"/>
<path d="M92.3212 157.31C92.3212 157.338 92.3184 157.365 92.3128 157.392H92.3212V157.88H1V157.392H1.00835C1.00274 157.365 1 157.338 1 157.31C1 154.927 21.4429 152.997 46.6606 152.997C71.8783 152.997 92.3212 154.927 92.3212 157.31Z" fill="#DC4344"/>
<path fill-rule="evenodd" clip-rule="evenodd" d="M261.387 35.1264C260.606 35.3168 258.955 35.6381 257.717 35.8402C256.48 36.0424 254.936 36.4252 254.284 36.6907C253.633 36.9562 252.535 37.3133 251.845 37.4842C251.154 37.6549 250.45 37.9098 250.28 38.0507C250.11 38.1914 249.351 38.5198 248.593 38.7801C247.835 39.0407 247.042 39.4098 246.831 39.6003C246.62 39.7909 246.024 40.0959 245.507 40.2782C244.99 40.4603 244.155 40.8887 243.651 41.2301C243.148 41.5715 242.645 41.8508 242.534 41.8508C242.423 41.8508 241.86 42.1967 241.282 42.6192C240.705 43.0417 239.841 43.6536 239.363 43.9787C236.715 45.7799 230.938 51.5543 229.306 54.0315C229.111 54.328 228.631 55.0666 228.24 55.6731C227.85 56.2795 227.291 57.0771 226.997 57.4454C226.704 57.8138 226.465 58.2614 226.465 58.4399C226.465 58.6186 226.192 59.1651 225.859 59.6545C225.526 60.1439 225.108 61.0299 224.929 61.6233C224.75 62.2168 224.444 62.8784 224.25 63.0938C224.056 63.3089 223.729 64.2074 223.525 65.0905C223.32 65.9734 222.988 67.013 222.787 67.4005C222.587 67.7883 222.26 69.2469 222.061 70.6421C221.862 72.0376 221.525 73.7111 221.312 74.3613C220.721 76.1663 220.743 86.0705 221.345 89.0206C221.583 90.191 221.911 92.1061 222.072 93.2765C222.233 94.4469 222.536 95.7343 222.745 96.1372C222.954 96.5401 223.247 97.3913 223.395 98.0287C223.644 99.0986 224.625 101.441 225.415 102.852C225.597 103.177 225.909 103.816 226.107 104.271C226.306 104.726 226.622 105.365 226.81 105.69C226.998 106.015 227.385 106.706 227.669 107.226C227.953 107.747 228.27 108.227 228.373 108.294C228.476 108.36 229.106 109.158 229.772 110.067C231.249 112.083 233.091 114.206 234.515 115.534C235.101 116.081 235.858 116.811 236.198 117.157C236.537 117.502 237.086 117.963 237.418 118.18C237.75 118.398 238.721 119.108 239.576 119.758C240.431 120.408 241.675 121.259 242.34 121.649C243.006 122.039 243.939 122.611 244.414 122.92C244.889 123.229 245.686 123.626 246.186 123.802C246.685 123.978 247.368 124.337 247.702 124.6C248.037 124.863 248.547 125.078 248.836 125.078C249.124 125.078 249.861 125.344 250.473 125.669C251.086 125.994 252.339 126.431 253.258 126.64C254.177 126.848 255.37 127.209 255.909 127.441C256.448 127.674 258.102 127.987 259.585 128.137C261.067 128.287 262.972 128.57 263.817 128.765C265.914 129.251 275.252 129.124 277.842 128.575C278.819 128.368 280.494 128.086 281.564 127.949C282.634 127.811 283.819 127.539 284.197 127.343C284.576 127.148 285.652 126.828 286.589 126.633C287.526 126.438 288.631 126.076 289.046 125.828C289.46 125.58 290.332 125.249 290.983 125.093C291.634 124.936 292.38 124.615 292.64 124.379C292.901 124.143 293.38 123.872 293.706 123.777C294.031 123.681 294.457 123.465 294.653 123.296C294.848 123.127 295.487 122.74 296.073 122.435C297.038 121.934 297.145 121.793 297.203 120.938C297.249 120.27 297.11 119.76 296.73 119.193C295.988 118.087 295.381 117.115 294.453 115.542C294.017 114.805 293.566 114.201 293.451 114.201C293.336 114.201 293.021 113.803 292.751 113.315C292.482 112.827 291.92 111.882 291.504 111.215C289.799 108.486 289.444 108.054 288.908 108.057C288.119 108.06 286.184 108.691 285.314 109.228C284.893 109.488 283.85 109.799 282.996 109.92C282.141 110.041 281.245 110.24 281.004 110.363C278.337 111.723 265.126 111.904 262.216 110.621C261.63 110.363 260.618 110.05 259.967 109.926C256.504 109.265 249.449 104.558 246.708 101.079C246.317 100.583 245.773 99.9016 245.498 99.5644C245.224 99.227 244.811 98.5787 244.583 98.1236C244.354 97.6684 243.981 97.0832 243.754 96.8231C243.526 96.563 243.223 95.9998 243.08 95.5714C242.936 95.143 242.615 94.5046 242.366 94.1528C242.117 93.801 241.799 93.0342 241.66 92.449C241.521 91.8638 241.194 90.7949 240.934 90.0735C239.803 86.9404 239.781 76.394 240.899 73.8567C241.136 73.3191 241.405 72.4147 241.497 71.847C241.681 70.7031 243.283 67.2033 244.143 66.0637C244.447 65.6613 244.695 65.2501 244.695 65.1503C244.695 64.628 250.039 59.0807 251.719 57.8594C255.334 55.2302 260.216 53.1297 263.69 52.7079C264.882 52.5632 266.114 52.3471 266.428 52.2279C267.049 51.9922 273.186 51.8924 273.542 52.1123C273.662 52.1863 275.591 52.4532 277.827 52.705C280.243 52.9772 282.106 53.3018 282.416 53.5044C282.703 53.6922 283.495 53.9653 284.177 54.1112C284.859 54.2573 285.924 54.6327 286.543 54.9453C287.162 55.2581 288.069 55.5721 288.56 55.643C289.341 55.7563 289.5 55.6934 289.844 55.1364C290.06 54.7864 290.533 54.0215 290.895 53.4364C291.257 52.8512 291.745 52.1196 291.978 51.8108C292.383 51.2758 292.759 50.6958 293.824 48.9639C295.288 46.5831 296.19 45.221 296.608 44.7597C296.867 44.4741 297.158 43.8099 297.254 43.2841C297.423 42.3631 297.392 42.2969 296.404 41.4886C295.84 41.027 295.028 40.5324 294.601 40.3898C294.174 40.247 293.605 39.9335 293.338 39.6928C293.071 39.4523 292.342 39.1022 291.718 38.9144C291.094 38.7269 290.399 38.4073 290.174 38.2044C289.95 38.0013 289.191 37.7263 288.488 37.5932C287.786 37.4603 286.779 37.1426 286.251 36.8874C285.723 36.6321 284.015 36.2072 282.455 35.9431C280.895 35.679 279.298 35.3364 278.908 35.1815C277.762 34.7278 263.21 34.6822 261.387 35.1264ZM136.365 36.9931L135.784 37.5733V81.9111V126.249L136.394 126.648C136.956 127.016 138.64 127.043 157.88 126.998C180.67 126.944 184.353 126.799 186.397 125.874C186.823 125.682 187.872 125.378 188.729 125.199C189.585 125.02 190.478 124.699 190.714 124.486C190.949 124.273 191.605 123.958 192.171 123.785C193.685 123.323 195.532 122.168 198.831 119.621C200.509 118.326 201.255 117.549 202.67 115.625C203.061 115.094 203.603 114.37 203.874 114.016C204.405 113.326 205.676 110.934 206.721 108.658C207.077 107.884 207.503 106.448 207.668 105.466C207.833 104.484 208.133 102.935 208.334 102.025C208.943 99.2637 208.823 95.478 207.996 91.42C207.605 89.5001 207.073 87.5365 206.813 87.0563C206.553 86.5763 206.234 85.7577 206.104 85.2376C205.854 84.2362 203.867 81.0233 202.624 79.6093C202.217 79.1459 201.814 78.5733 201.729 78.3373C201.562 77.8699 198.879 75.4941 196.988 74.1381C194.583 72.4142 194.129 72.1177 193.318 71.743C192.862 71.5323 192.071 71.1438 191.56 70.8795C191.05 70.6154 190.008 70.2539 189.246 70.0761C188.483 69.8985 187.61 69.5897 187.304 69.3902C186.989 69.1835 185.273 68.8298 183.323 68.5697C181.439 68.3184 179.607 68.0025 179.253 67.8677C178.84 67.711 174.476 67.6228 167.14 67.6228C155.988 67.6228 155.659 67.6098 155.199 67.1499C154.749 66.7004 154.725 66.3618 154.725 60.2931C154.725 54.2244 154.749 53.8858 155.199 53.4364C155.666 52.9701 155.988 52.9635 178.591 52.9635C196.101 52.9635 201.577 52.8966 201.794 52.6797C202.175 52.2988 202.197 38.2437 201.818 37.1572L201.558 36.4127H169.252H136.946L136.365 36.9931ZM313.351 37.0191C313.075 37.7433 313.032 126.228 313.307 126.66C313.563 127.062 330.558 127.147 330.956 126.749C331.163 126.542 331.262 117.372 331.351 90.0846C331.447 60.671 331.528 53.6376 331.777 53.3891C332.023 53.1432 335.809 53.0687 350.692 53.0169C371.253 52.9455 370.174 52.8684 370.623 54.4424C370.752 54.8952 370.848 69.7453 370.858 90.6757C370.874 124.371 370.896 126.163 371.297 126.567C371.688 126.961 372.364 126.994 380.33 127.009C387.365 127.022 388.979 126.965 389.146 126.701C389.451 126.22 389.419 37.4402 389.113 36.8699C388.872 36.4207 388.199 36.4127 351.225 36.4127H313.582L313.351 37.0191ZM410.958 36.5708C410.792 36.6375 410.499 36.9962 410.307 37.3681C410.001 37.9578 409.957 43.6858 409.957 82.1466V126.249L410.56 126.644C411.114 127.007 412.899 127.036 432.165 126.999C454.776 126.956 458.416 126.816 460.624 125.905C461.34 125.609 462.389 125.291 462.955 125.198C463.521 125.105 464.571 124.72 465.288 124.344C466.005 123.967 466.727 123.659 466.893 123.659C467.391 123.659 470.008 121.987 473.408 119.497C473.967 119.087 476.04 116.794 478.112 114.291C478.499 113.824 480.083 110.732 481.185 108.29C481.45 107.705 481.784 106.535 481.929 105.69C482.074 104.844 482.366 103.621 482.58 102.971C483.192 101.106 483.12 94.3686 482.462 91.8579C482.19 90.8175 481.896 89.4344 481.81 88.7842C481.724 88.134 481.458 87.3249 481.22 86.9863C480.981 86.6475 480.672 85.9559 480.533 85.4494C480.395 84.9427 479.961 84.0494 479.569 83.4643C479.177 82.8791 478.856 82.3213 478.856 82.2251C478.852 81.5311 473.096 75.2503 471.55 74.2535C470.945 73.8629 470.183 73.3642 469.858 73.1451C468.325 72.1132 467.562 71.6758 467.017 71.5167C466.691 71.4216 466.154 71.1538 465.824 70.9213C465.493 70.6889 464.587 70.3326 463.811 70.1293C463.035 69.9259 461.866 69.555 461.214 69.305C460.562 69.0549 458.964 68.7284 457.663 68.5792C456.361 68.43 454.748 68.1538 454.077 67.9654C453.087 67.6876 450.679 67.6228 441.35 67.6228C430.052 67.6228 429.836 67.614 429.357 67.1362C428.885 66.6647 428.872 66.4458 428.943 60.1418C429.012 54.0187 429.043 53.6142 429.476 53.2987C429.865 53.0148 433.438 52.9635 452.809 52.9635C470.283 52.9635 475.749 52.8966 475.966 52.6797C476.362 52.2847 476.37 37.8802 475.975 37.0149L475.701 36.4127L443.48 36.4313C425.758 36.4415 411.123 36.5044 410.958 36.5708ZM176.034 83.3938C176.49 83.5501 177.715 83.7908 178.757 83.9289C179.858 84.075 180.899 84.3597 181.243 84.6089C181.568 84.8448 182.203 85.1647 182.653 85.3196C183.893 85.7468 185.847 87.1797 186.916 88.4458C187.442 89.0686 187.872 89.6739 187.872 89.7909C187.872 89.9077 188.19 90.483 188.579 91.0691C189.17 91.9605 189.331 92.532 189.562 94.5642C189.968 98.1252 189.589 101.238 188.484 103.426C186.901 106.558 183.772 108.988 180.177 109.877C179.396 110.07 178.118 110.39 177.336 110.589C176.204 110.877 173.87 110.969 165.853 111.041C157.031 111.12 155.732 111.086 155.317 110.765C154.855 110.407 154.842 110.079 154.779 97.4291L154.714 84.4601L155.284 83.7849L155.853 83.1096H165.53C172.446 83.1096 175.442 83.1907 176.034 83.3938ZM451.967 83.7293C453.756 84.0249 455.19 84.4062 455.874 84.7685C456.468 85.0834 457.363 85.5203 457.863 85.7398C458.986 86.2327 461.603 88.7307 462.167 89.8481C462.397 90.3033 462.772 90.9154 463.001 91.2086C463.635 92.022 464.028 95.4184 463.864 98.6754C463.733 101.272 463.662 101.598 462.868 103.202C461.89 105.179 459.104 108.171 458.021 108.408C457.661 108.487 457.014 108.812 456.582 109.13C456.15 109.449 455.616 109.709 455.395 109.709C455.174 109.709 453.943 109.996 452.659 110.346L450.325 110.984L440.144 111.071C431.414 111.146 429.896 111.109 429.49 110.808C429.026 110.464 429.016 110.182 429.016 97.34C429.016 84.8013 429.036 84.2015 429.464 83.7286C429.9 83.2474 430.136 83.2321 438.106 83.1663C447.65 83.0878 448.226 83.1113 451.967 83.7293Z" fill="#1D3D5D"/>
</svg>
