<svg width="624" height="83" viewBox="0 0 624 83" fill="none" xmlns="http://www.w3.org/2000/svg">
<path fill-rule="evenodd" clip-rule="evenodd" d="M474.544 3.14555C474.374 2.29465 474.384 1.449 474.566 1.26655C475.586 0.243952 475.789 1.88336 475.789 11.135C475.789 17.5772 475.592 21.3352 475.254 21.3352C474.959 21.3352 474.702 21.0335 474.681 20.6642C474.177 11.5586 473.542 9.91916 469.778 7.99822C467.656 6.91534 466.398 6.69514 462.016 6.63878L456.787 6.57167L456.489 21.3352L461.991 21.3397C469.444 21.3449 473.745 22.1127 478.198 24.2337C483.347 26.6862 486.606 29.7354 488.75 34.1055C490.416 37.5023 490.509 38.0063 490.509 43.6064C490.509 48.8884 490.357 49.846 489.085 52.567C487.08 56.8574 483.818 60.1834 479.48 62.3596C474.884 64.6654 472.821 64.9205 458.013 65.014L446.081 65.089L445.975 72.3366C445.916 76.3229 445.856 80.1276 445.841 80.7921C445.826 81.4568 445.601 82 445.341 82C445.082 82 444.699 79.9462 444.49 77.4351C443.995 71.4663 442.205 67.7091 439.123 66.1627C437.16 65.1787 435.911 65.089 424.135 65.089C414.748 65.089 410.741 65.2835 409.255 65.8102C405.722 67.0637 403.8 71.315 403.411 78.7343C403.321 80.4647 402.988 81.7326 402.59 81.8658C402.072 82.0388 401.921 80.0235 401.921 72.9508V63.8119L405.936 63.4784L413.183 32.6126C418.66 9.284 420.629 1.70772 421.249 1.58819C421.869 1.46892 422.568 3.04882 424.099 8.02706C430.794 29.7941 439.517 57.1319 440.492 59.4064C441.9 62.6878 443.838 63.7469 448.437 63.7469H451.702V36.0988C451.702 9.16631 451.674 8.42289 450.631 7.37696C449.968 6.71244 448.847 6.30325 447.687 6.30325C446.379 6.30325 445.814 6.06077 445.814 5.49796C445.814 4.80225 447.784 4.69268 460.333 4.69268H474.852L474.544 3.14555ZM433.82 54.0787C432.522 49.7999 429.243 38.9309 426.531 29.9249C423.82 20.9192 421.426 13.3587 421.212 13.1246C420.758 12.6286 410.437 54.1705 410.061 57.9998C409.85 60.1564 410.01 60.7889 411.044 61.892L412.278 63.21H424.228C433.479 63.21 436.179 63.0577 436.179 62.5342C436.179 62.1623 435.117 58.3573 433.82 54.0787ZM485.853 41.8131C485.329 32.7188 480.162 26.7816 470.601 24.2837C468.844 23.8247 465.182 23.4826 462.027 23.4826H456.519V62.584L459.222 63.1655C463.258 64.0337 469.764 63.8499 472.686 62.7848C481.153 59.7 486.403 51.3386 485.853 41.8131Z" fill="#00543E"/>
<path fill-rule="evenodd" clip-rule="evenodd" d="M154.115 32.8037C157.962 16.3093 161.209 2.51196 161.33 2.14261C161.754 0.842411 163.143 1.49041 163.631 3.21632C166.162 12.1701 180.734 57.5961 181.682 59.4858C183.045 62.2055 183.82 62.999 185.396 63.2929C185.981 63.4016 186.53 63.8507 186.614 64.2898C186.765 65.0772 185.087 65.154 174.028 64.8657C171.18 64.7918 172.055 63.7469 174.964 63.7469C176.436 63.7469 177.639 63.5655 177.637 63.3442C177.636 63.1233 175.028 54.6069 171.843 44.42L166.052 25.8985L162.211 25.7407C160.099 25.6542 158.37 25.775 158.369 26.0091C158.368 26.2437 156.815 32.8674 154.917 40.7286C150.476 59.1288 150.351 60.0476 152.065 61.7659C152.954 62.6582 154.276 63.209 156.143 63.4667C159.347 63.9086 159.839 64.8077 156.899 64.8486C152.785 64.9055 145.743 64.9178 144.32 64.8701C142.17 64.798 142.516 63.7469 144.69 63.7469C145.703 63.7469 146.664 63.5322 146.825 63.2703C146.987 63.0082 150.267 49.2979 154.115 32.8037ZM164.691 21.0733C164.456 20.1913 164.171 19.1438 163.865 18.0378C163.059 15.127 162.256 12.7455 162.08 12.7455C161.813 12.7455 159.429 22.497 159.438 23.5498C159.44 23.7346 160.766 23.8853 162.385 23.8853C164.005 23.8853 165.329 23.7603 165.329 23.6077C165.329 23.5133 165.076 22.5135 164.691 21.0733Z" fill="#00543E"/>
<path fill-rule="evenodd" clip-rule="evenodd" d="M494.159 63.4784L501.42 32.475C507.112 8.1694 508.857 1.47364 509.497 1.48124C510.105 1.48832 512.422 8.25381 518.552 27.9214C523.083 42.458 527.257 55.6243 527.827 57.179C529.076 60.581 530.975 62.9723 532.794 63.4302C533.531 63.6155 534.134 64.0046 534.134 64.294C534.134 64.8819 533.388 64.9383 526.105 64.9011C520.235 64.8714 519.314 64.8759 519.172 64.544C519.141 64.4735 519.146 64.3881 519.146 64.2837C519.146 63.9886 520.31 63.7469 521.733 63.7469C523.157 63.7469 524.448 63.6192 524.604 63.4625C524.855 63.2105 522.768 56.2225 515.351 32.475L513.212 25.6301H505.806L505.284 27.6433C502.26 39.3055 498.271 56.9664 498.271 58.6882C498.271 61.7751 499.125 62.6249 502.964 63.3566C506.274 63.9875 507.408 64.7862 505.095 64.8578C503.913 64.8942 494.606 64.883 491.713 64.8416C489.532 64.8104 489.928 63.8381 492.2 63.6449L494.159 63.4784ZM512.013 23.5665C512.457 23.5076 512.323 22.3473 511.55 19.5904C510.383 15.4267 509.838 13.4735 509.35 13.4879C508.918 13.5007 508.532 15.0518 507.802 17.9731C506.218 24.3089 506.239 24.338 512.013 23.5665Z" fill="#00543E"/>
<path d="M110.387 25.0932C109.798 25.0932 109.661 22.9099 109.661 13.5508C109.661 3.64911 109.775 2.0084 110.464 2.0084C110.963 2.0084 111.267 2.51537 111.267 3.35054V4.69268H143.383V3.35054C143.383 2.51537 143.687 2.0084 144.186 2.0084C144.875 2.0084 144.989 3.64911 144.989 13.5508C144.989 22.9099 144.851 25.0932 144.263 25.0932C143.716 25.0932 143.466 23.6963 143.248 19.4245C142.765 9.93096 140.238 6.68623 133.268 6.61047L129.734 6.57167V33.6829C129.734 54.4937 129.89 61.0691 130.408 61.9759C130.937 62.9046 131.768 63.236 134.288 63.522C137.842 63.9251 138.626 64.7986 135.488 64.8594C131.847 64.9302 126.042 64.9388 122.534 64.8793C118.635 64.8132 118.616 63.9183 122.507 63.6465L124.916 63.4784V6.57167L121.382 6.61047C114.374 6.68675 111.886 9.88902 111.399 19.4583C111.184 23.7028 110.934 25.0932 110.387 25.0932Z" fill="#00543E"/>
<path d="M183.796 25.0932C183.107 25.0932 182.994 23.4528 182.994 13.5508C182.994 3.64911 183.107 2.0084 183.796 2.0084C184.296 2.0084 184.599 2.51537 184.599 3.35054V4.69268H200.925C209.904 4.69268 217.223 4.51128 217.188 4.29004C217.01 3.15996 217.312 2.0084 217.786 2.0084C218.127 2.0084 218.322 6.2136 218.322 13.5508C218.322 20.888 218.127 25.0932 217.786 25.0932C217.492 25.0932 217.239 25.0332 217.224 24.959C217.209 24.8851 216.999 22.2506 216.756 19.1042C216.413 14.6408 216.037 12.8818 215.044 11.099C213.172 7.73792 211.662 6.8477 207.192 6.4718L203.334 6.14754L203.342 33.7393C203.347 48.9146 203.544 61.6377 203.781 62.0118C204.292 62.8186 207.272 63.7469 209.352 63.7469C210.164 63.7469 210.828 63.9886 210.828 64.2837C210.828 64.8104 209.227 64.9291 202.263 64.9178C194.682 64.9055 193.164 64.7996 193.164 64.2837C193.164 63.9886 194.368 63.7469 195.84 63.7469H198.516V6.15881L194.849 6.42252C190.517 6.73341 188.341 7.85693 186.821 10.5693C185.605 12.7403 184.61 17.9911 184.604 22.2747C184.6 24.4206 184.408 25.0932 183.796 25.0932Z" fill="#00543E"/>
<path fill-rule="evenodd" clip-rule="evenodd" d="M299.079 13.2685C304.222 8.17202 309.277 5.24238 315.296 3.87088C320.534 2.67684 330.039 3.13899 334.541 4.80644C339.656 6.70169 342.83 8.71124 346.881 12.6179C352.972 18.4942 355.887 25.5399 355.887 34.3894C355.887 43.6197 353.291 49.7593 346.51 56.5586C341.128 61.9549 335.549 64.9629 328.588 66.2207C317.074 68.3018 306.243 65.0091 298.341 57.027C290.879 49.4893 287.981 39.1406 290.283 28.2488C291.506 22.4637 293.879 18.4208 299.079 13.2685ZM341.894 13.8177C337.877 9.8282 333.666 7.34367 328.779 6.07991C324.777 5.04551 318.597 5.03529 314.813 6.05736C303.451 9.1262 295.266 19.6114 294.504 32.0724C293.108 54.8911 314.933 71.1845 334.795 62.152C339.302 60.1021 345.852 53.6588 348.001 49.16C353.762 37.1017 351.363 23.2208 341.894 13.8177Z" fill="#00543E"/>
<path fill-rule="evenodd" clip-rule="evenodd" d="M244.793 6.30325C243.982 6.30325 243.48 5.99524 243.48 5.49796C243.48 4.81772 244.728 4.69268 251.509 4.69268C258.289 4.69268 259.538 4.81772 259.538 5.49796C259.538 6.10638 258.884 6.30325 256.861 6.30325H254.185V10.9811L258.988 11.3444C271.291 12.2758 278.924 16.27 282.555 23.6748C284.476 27.5919 285.201 32.5783 284.63 37.9408C283.347 49.9857 274.091 57.2897 258.333 58.6934C254.474 59.0376 254.185 59.1487 254.185 60.2935C254.185 62.0107 255.405 63.0501 257.921 63.4769C261.077 64.0116 260.544 64.8138 256.995 64.868L252.312 64.9393C247.299 65.0151 244.015 64.7556 244.015 64.2837C244.015 63.9886 245.219 63.7469 246.691 63.7469H249.368V59.1482L243.324 58.5047C228.279 56.902 220.546 50.8828 218.764 39.3875C216.326 23.6557 226.507 12.7429 244.952 11.3182C247.614 11.1119 249.365 10.7415 249.36 10.3845C249.329 7.86296 247.584 6.30325 244.793 6.30325ZM249.368 56.9064V13.2824L246.29 13.3248C237.045 13.4533 228.701 17.7786 225.508 24.0979C223.593 27.8886 222.817 33.2299 223.544 37.6257C225.389 48.7954 232.937 55.283 245.538 56.5279L249.368 56.9064ZM279.818 32.4273C278.637 22.9492 272.528 16.4333 262.626 14.0921C260.78 13.6557 258.126 13.2947 256.728 13.2905L254.185 13.2824V56.9161L258.066 56.5617C273.733 55.132 281.564 46.443 279.818 32.4273Z" fill="#00543E"/>
<path d="M361.84 6.45843C360.475 6.27494 359.634 5.88199 359.634 5.42718C359.634 4.83816 361.227 4.69268 367.663 4.69268C374.444 4.69268 375.693 4.81772 375.693 5.49796C375.693 6.10638 375.038 6.30325 373.016 6.30325H370.34V21.3352H389.61V14.9954C389.61 7.67763 389.283 6.91009 385.978 6.46551C384.573 6.27651 383.722 5.88461 383.722 5.42718C383.722 4.83816 385.314 4.69268 391.751 4.69268C398.531 4.69268 399.78 4.81772 399.78 5.49796C399.78 6.10638 399.126 6.30325 397.104 6.30325H394.427V33.9133C394.427 57.6834 394.289 62.0307 396.072 63.0724C396.599 63.3807 397.295 63.3995 398.212 63.5466C400.165 63.8601 401.163 64.7729 399.646 64.8583C394.139 65.169 384.257 64.7996 384.257 64.2837C384.257 63.9886 385.461 63.7469 386.933 63.7469H389.61V23.4826H370.34V42.503C370.34 58.2994 370.252 61.8338 371.819 62.8823C372.355 63.241 373.084 63.3088 374.076 63.4769C375.259 63.6771 376.228 64.0614 376.228 64.3312C376.228 64.4318 376.228 64.5149 376.197 64.5834C376.049 64.9045 375.201 64.9013 370.34 64.8866C361.014 64.8589 360.17 64.8088 360.17 64.2837C360.17 63.9886 361.38 63.7469 362.86 63.7469H365.55L365.402 35.8568C365.298 16.0353 365.08 7.7914 364.65 7.36097C364.318 7.02805 363.054 6.62174 361.84 6.45843Z" fill="#00543E"/>
<path d="M536.968 6.55883C534.026 6.06759 533.491 5.839 533.864 5.23347C534.064 4.90973 537.403 4.69268 542.195 4.69268C548.947 4.69268 550.192 4.8185 550.192 5.49796C550.192 6.10638 549.538 6.30325 547.516 6.30325H544.839V21.3352H564.109V14.9954C564.109 7.67763 563.783 6.91009 560.477 6.46551C559.073 6.27651 558.221 5.88461 558.221 5.42718C558.221 4.83816 559.814 4.69268 566.25 4.69268C573.031 4.69268 574.28 4.81772 574.28 5.49796C574.28 6.10638 573.625 6.30325 571.603 6.30325H568.927V33.5634C568.927 57.5033 568.831 61.8844 570.676 62.9814C571.181 63.2818 571.832 63.3358 572.671 63.4779C573.85 63.6777 574.815 64.0614 574.815 64.3312C574.815 64.4295 574.819 64.5113 574.79 64.5794C574.644 64.9254 573.657 64.9147 567.053 64.8927C559.913 64.8691 558.908 64.8825 558.774 64.5469C558.746 64.4759 558.757 64.3894 558.757 64.2837C558.757 63.9886 559.961 63.7469 561.433 63.7469H564.109V23.4826H544.839V42.503C544.839 58.3298 544.757 61.9043 546.341 62.9589C546.883 63.3199 547.621 63.3857 548.624 63.5466C549.781 63.7325 550.727 64.0947 550.727 64.3524C550.727 64.9661 550.127 64.9915 538.55 64.8636C534.235 64.8159 533.23 63.8984 537.212 63.6423L539.754 63.4784L539.893 36.5494C539.978 20.2041 539.829 9.08531 539.516 8.25905C539.13 7.24222 538.486 6.81232 536.968 6.55883Z" fill="#00543E"/>
<path d="M581.303 6.45843C579.937 6.27494 579.097 5.88199 579.097 5.42718C579.097 4.83816 580.689 4.69268 587.126 4.69268C593.906 4.69268 595.155 4.81772 595.155 5.49796C595.155 6.10638 594.501 6.30325 592.479 6.30325H589.803V18.2292C589.803 28.5275 589.906 30.0479 590.561 29.3689C590.978 28.9367 594.482 24.1377 598.349 18.7042C606.062 7.86506 606.48 6.76015 603.033 6.30325C601.919 6.15566 601.016 5.79339 601.026 5.49796C601.036 5.16583 603.999 4.96111 608.805 4.96111C613.615 4.96111 616.57 5.16531 616.576 5.49796C616.582 5.79339 615.27 6.15566 613.66 6.30325L610.733 6.57167L595.242 27.3067L597.8 31.7025C615.068 61.3785 616.087 62.8074 620.447 63.4425C622.896 63.799 623.718 64.4546 622.321 64.9372C621.953 65.0639 619.002 65.0966 615.763 65.0091C612.525 64.9215 608.852 64.8431 607.6 64.8353C606.349 64.8271 605.326 64.5792 605.326 64.2837C605.326 63.9886 606.409 63.7469 607.734 63.7469C609.211 63.7469 610.143 63.5049 610.143 63.1214C610.143 62.778 609.209 60.7845 608.069 58.6924C605.83 54.5876 603.407 50.0948 597.764 39.5883C594.384 33.2944 593.37 31.2846 592.581 31.3701C592.17 31.4146 591.82 32.0283 591.228 32.9012L589.803 35.0059V48.2195C589.803 58.7018 589.769 61.6288 591.16 62.707C591.733 63.1513 592.548 63.2816 593.707 63.4973C594.823 63.7052 595.656 64.1207 595.556 64.42C595.445 64.753 592.681 64.9538 588.44 64.9362C580.882 64.9045 579.807 64.9081 579.656 64.5356C579.628 64.4659 579.632 64.3828 579.632 64.2837C579.632 63.9886 580.843 63.7469 582.323 63.7469H585.013L584.865 35.8568C584.76 16.0353 584.542 7.7914 584.113 7.36097C583.781 7.02805 582.516 6.62174 581.303 6.45843Z" fill="#00543E"/>
<path fill-rule="evenodd" clip-rule="evenodd" d="M6.91024 19.9918C6.87208 19.9918 6.84098 17.2818 6.84098 13.9697V7.94737H40.427V18.0834L41.7308 17.951C42.8983 17.8326 43.1001 17.7398 43.6605 17.0627C44.0047 16.6469 45.6944 14.6523 47.4154 12.6304C49.1365 10.6086 50.7167 8.72775 50.9269 8.45093L51.3095 7.94737H90.2966L87.9436 11.432C87.3032 12.3806 86.4872 13.5912 85.6855 14.7818C84.8674 15.9965 84.0641 17.1908 83.4769 18.0656L81.3631 21.2149L81.1303 20.0413C80.8493 18.6239 80.0726 17.2199 79.2355 16.6162C78.8961 16.3714 78.075 15.9654 77.411 15.714C76.2697 15.2817 75.7834 15.2523 68.5714 15.1803L60.9394 15.104L59.4166 16.8152C58.5791 17.756 57.9301 18.5547 57.9741 18.5896C57.9983 18.6087 58.2604 18.6612 58.6533 18.7283C58.9762 18.7836 59.3876 18.8489 59.8276 18.9133C65.091 19.6866 70.3115 21.2002 74.1173 23.0564C80.1023 25.9758 82.3717 29.5163 80.604 33.1759C78.322 37.9004 67.8238 42.1117 55.4469 43.2674C52.1754 43.5728 41.8478 43.6504 38.4351 43.3951L36.3393 43.2383L28.8393 51.8833C24.7144 56.6382 21.2688 60.5362 21.1828 60.5451C21.0969 60.5546 21.0264 55.9611 21.0264 50.3383V40.1144L19.8269 39.6368C19.1673 39.3739 17.5948 38.6258 16.3327 37.9744C13.4727 36.4985 11.0872 34.2832 10.5233 32.5796C10.0469 31.1399 10.0951 30.0083 10.6874 28.7196C11.7656 26.374 14.2273 24.4269 18.418 22.605L20.9221 21.5164L21.0373 14.877L16.8075 14.9553C12.7549 15.0306 12.5281 15.057 11.394 15.5921C9.98533 16.2563 8.53724 17.5568 7.63461 18.9676C7.27432 19.5309 6.94827 19.9918 6.91024 19.9918ZM88.3292 9.18859C88.3779 9.09343 88.4069 9.01689 88.4069 8.97547C88.4069 8.87481 84.0621 8.79276 78.7517 8.79276H69.0962L67.1739 11.3368C66.1165 12.7361 65.2514 13.9721 65.2514 14.0837C65.2514 14.2077 67.224 14.2866 70.329 14.2866C74.6711 14.2866 75.6357 14.3459 76.9885 14.6963C79.3957 15.32 80.8689 16.4534 81.5171 18.1804C81.5978 18.3956 81.647 18.5637 81.7416 18.5954C81.9955 18.6803 82.5763 17.7833 84.9732 14.181C86.4425 11.9727 87.8162 9.93935 88.0258 9.66227C88.1492 9.49896 88.2594 9.3249 88.3292 9.18859ZM39.3167 16.3266C39.3737 16.2692 39.4217 14.6216 39.4238 12.6658L39.4273 9.10968L18.9767 8.99985L17.1853 11.3916C16.2001 12.7073 15.394 13.8491 15.394 13.9293C15.394 14.0095 16.8959 14.0753 18.7318 14.0753H22.0694V21.1011L22.6431 20.9714C22.9587 20.9001 23.8739 20.6623 24.677 20.4432L26.1373 20.0447L26.2537 14.2505L30.6806 14.3362C35.4811 14.4292 36.5476 14.6442 38.4119 15.8938C38.8528 16.1892 39.26 16.3842 39.3167 16.3266ZM49.71 17.8784L50.933 16.4933C51.6053 15.7315 52.1216 15.0767 52.0803 15.0374C51.9915 14.954 45.4808 17.5489 45.2873 17.7453C45.2148 17.8184 46.1802 17.8787 47.4328 17.8784H49.71ZM38.8342 17.3604C37.954 16.5651 35.9077 15.622 34.4955 15.3609C33.8147 15.2348 31.8668 15.1318 30.1667 15.1318H27.0761V17.4561C27.0761 18.7346 27.1259 19.7805 27.1868 19.7805C27.2476 19.7805 28.5567 19.5448 30.0959 19.2567C31.635 18.9689 34.33 18.5815 36.0851 18.3959C37.84 18.2106 39.311 18.0231 39.354 17.9793C39.374 17.9589 39.3336 17.8873 39.2514 17.7864C39.1576 17.6716 39.0094 17.5188 38.8342 17.3604ZM38.9294 29.9821C43.1953 25.1918 46.6853 21.222 46.6853 21.1601C46.6853 20.9617 42.2849 21.0917 39.2796 21.3793C34.8426 21.8042 32.3954 22.2967 28.6899 23.512L27.0705 24.0431L27.1804 37.6082L29.1031 38.2452C30.1606 38.5954 31.059 38.8394 31.0997 38.7872C31.1403 38.7348 34.6638 34.7726 38.9294 29.9821ZM69.5302 27.2946C67.3264 25.1252 62.9468 23.2108 57.9266 22.2226C56.9642 22.033 55.9808 21.8359 55.7414 21.7845C55.5016 21.7331 55.1639 21.8081 54.9908 21.951C54.8176 22.0936 52.1976 25.0547 49.1681 28.5314C46.1389 32.0079 42.6538 36.0015 41.4237 37.4061C40.1936 38.8106 39.1845 40.0172 39.1812 40.0872C39.1623 40.4951 48.3875 40.6275 51.9305 40.2702C57.5442 39.7034 62.2981 38.5096 65.773 36.7932C71.4307 33.9991 72.8068 30.5205 69.5302 27.2946ZM22.9561 35.3533C23.973 36.0893 26.0323 37.1783 26.1613 37.048C26.2089 36.9995 26.223 34.1535 26.1926 30.7231L26.1373 24.4861L25.6159 24.6814C24.959 24.927 23.1582 26.0595 22.5388 26.6165C22.0847 27.0246 22.0694 27.1623 22.0694 30.8749V34.7113L22.9561 35.3533ZM20.9176 33.4095L20.982 32.0889C21.0173 31.3625 21.0173 30.174 20.982 29.4476L20.9176 28.1269L20.4551 29.0777C20.2008 29.6007 19.9926 30.3614 19.9926 30.7682C19.9926 31.1751 20.2008 31.9355 20.4551 32.4585L20.9176 33.4095ZM26.2416 41.611L22.4345 40.5415C22.0916 40.445 22.0694 40.9208 22.0694 48.4226C22.0694 52.8137 22.1151 56.3599 22.1711 56.3032C22.1888 56.2854 22.2961 56.0112 22.4694 55.5457C22.8403 54.5488 23.5132 52.6747 24.2572 50.5603C26.1211 45.2628 26.2416 44.8195 26.2416 43.2656V41.611ZM27.243 42.8124C27.4589 42.8124 27.9105 42.3549 27.9105 42.1363C27.9105 42.0433 27.7227 41.9672 27.4932 41.9672C27.2151 41.9672 27.0761 42.1083 27.0761 42.3898C27.0761 42.6223 27.1511 42.8124 27.243 42.8124Z" fill="#00543E"/>
<path fill-rule="evenodd" clip-rule="evenodd" d="M1 33.8677C1 16.5124 1.06273 2.24904 1.13957 2.17118C1.21628 2.09359 22.2926 2.05401 47.9761 2.08337L94.6731 2.13658L94.6654 65.3163L1 65.4227V33.8677ZM93.2049 63.9437V3.51018H47.9304C11.9027 3.51018 2.63549 3.56392 2.55669 3.77415C2.50193 3.91964 2.48155 17.4931 2.51095 33.9377L2.56453 63.8371L93.2049 63.9437Z" fill="#00543E"/>
</svg>
