<svg width="468" height="79" viewBox="0 0 468 79" fill="none" xmlns="http://www.w3.org/2000/svg">
<g clip-path="url(#clip0_8_1344)">
<path d="M175.16 23.45H194.21V73.11H214.62V23.45H233.67V5.07996H175.16V23.45Z" fill="#E30611"/>
<path d="M277.21 23.45H307.14V5.07996H277.21C249.7 5.07996 235.02 18.75 235.02 39.08C235.02 59.41 249.7 73.08 277.21 73.08H307.14V54.74H277.21C264.48 54.74 256.11 50.19 256.11 39.1C256.11 28.01 264.48 23.45 277.21 23.45Z" fill="#E30611"/>
<path d="M133.65 5.07996L122.77 45.69L111.89 5.07996H75.83V73.11H96.24V17.78L111.07 73.11H134.47L149.31 17.74V73.11H169.72V5.07996H133.65Z" fill="#E30611"/>
<path d="M28.21 77.19C9.4 77.19 1 62.1 1 47.19C1 36.97 4.45 25.19 10.24 15.69C15.8 6.46002 22.53 1.02002 28.21 1.02002C33.89 1.02002 40.61 6.48002 46.21 15.66C51.97 25.17 55.43 36.94 55.43 47.16C55.43 62.16 47.01 77.21 28.21 77.21" fill="#E30611"/>
<path d="M346.19 39.1H327.55V5.09998H355.02V13.24H337.22V17.68H346.22C353.77 17.68 357.41 21.42 357.41 28.03C357.38 34.95 353.74 39.1 346.19 39.1ZM344.37 24.8H337.17V31.45H344.37C346.19 31.45 347.28 30.52 347.28 28.79V27.56C347.28 25.78 346.34 24.8 344.37 24.8Z" fill="#E30611"/>
<path d="M383.67 5.06995L394.17 39.07H383.77L381.77 32.5599H369.77L367.84 39.07H358.84L369.34 5.06995H383.67ZM372.02 25.1899H379.62L375.82 12.6199L372.02 25.1899Z" fill="#E30611"/>
<path d="M418.49 39.0999V25.9299H407.49V39.0999H397.63V5.09995H407.49V17.5499H418.49V5.06995H428.35V39.07L418.49 39.0999Z" fill="#E30611"/>
<path d="M444.13 17.5499H445.86L454.69 5.06995H465.09L453.75 21.2899L466.08 39.0999H454.69L445.56 25.9299H444.13V39.0999H434.27V5.09995H444.13V17.5499Z" fill="#E30611"/>
</g>
<defs>
<clipPath id="clip0_8_1344">
<rect width="465.08" height="76.2" fill="white" transform="translate(1 1)"/>
</clipPath>
</defs>
</svg>
