<svg width="473" height="95" viewBox="0 0 473 95" fill="none" xmlns="http://www.w3.org/2000/svg">
<g clip-path="url(#clip0_8_1328)">
<path fill-rule="evenodd" clip-rule="evenodd" d="M406.192 71.1142V64.0068C406.934 63.9044 407.614 63.5386 408.109 62.9763C408.418 62.4327 408.594 61.8239 408.624 61.1994C408.624 58.9073 408.5 56.2242 408.624 53.3991C408.624 53.0259 408.375 52.635 407.985 52.7594C407.345 53.1149 406.75 53.5443 406.21 54.0387V46.2917C406.873 46.0392 407.453 45.6057 407.882 45.0405C408.312 44.4752 408.575 43.8006 408.642 43.0934C408.642 41.814 408.766 39.7707 407.488 39.0066C407.079 38.8485 406.648 38.7585 406.21 38.7401V31.6327C410.434 31.384 414.782 32.6633 416.557 36.6257C418.101 39.824 417.338 43.9107 417.338 47.4999V63.5271C417.36 63.8157 417.453 64.0945 417.608 64.3391C417.762 64.5838 417.974 64.7869 418.225 64.9308C418.616 65.0551 419.255 64.9308 419.255 65.4461L419.113 71.5762C419.113 71.8427 418.864 71.9671 418.616 71.9671C415.918 71.8427 412.475 72.7311 410.31 70.8121C409.926 70.2876 409.582 69.7352 409.28 69.1597C409.28 69.0175 409.032 68.7688 408.642 69.0175C408.189 69.4169 407.763 69.8441 407.364 70.2968C406.973 70.5634 406.601 70.9365 406.21 71.203L406.192 71.1142ZM436.736 32.0236H444.403C444.454 32.015 444.507 32.0185 444.557 32.0339C444.607 32.0493 444.653 32.0762 444.691 32.1124C444.729 32.1486 444.758 32.1932 444.776 32.2425C444.793 32.2919 444.799 32.3447 444.793 32.3968L444.917 71.2919C444.913 71.4271 444.857 71.5556 444.762 71.6513C444.666 71.747 444.538 71.8027 444.403 71.8072H436.86C436.345 71.8072 436.345 71.6828 436.345 71.2919L436.487 53.2569C436.493 53.1879 436.483 53.1185 436.459 53.0536C436.435 52.9886 436.397 52.9297 436.348 52.8807C436.299 52.8318 436.241 52.794 436.176 52.77C436.111 52.746 436.042 52.7363 435.973 52.7416H431.749C431.376 52.7416 431.11 52.866 431.11 53.2569L431.376 71.2919C431.376 71.5584 430.986 71.9315 430.737 71.8072H423.39C422.999 71.8072 422.875 71.6828 422.875 71.2919V32.4679C422.875 32.2191 422.999 32.0947 423.265 32.0947H430.932C431.181 32.0947 431.447 32.2191 431.447 32.4679L431.181 44.9058C431.175 44.9748 431.185 45.0441 431.209 45.1091C431.233 45.174 431.271 45.233 431.32 45.2819C431.369 45.3309 431.427 45.3687 431.492 45.3927C431.557 45.4167 431.627 45.4264 431.695 45.421H436.044C436.113 45.4264 436.182 45.4167 436.247 45.3927C436.312 45.3687 436.37 45.3309 436.419 45.2819C436.468 45.233 436.506 45.174 436.53 45.1091C436.554 45.0441 436.564 44.9748 436.558 44.9058L436.416 32.4679C436.41 32.4158 436.416 32.363 436.434 32.3136C436.451 32.2642 436.48 32.2197 436.518 32.1835C436.556 32.1473 436.602 32.1204 436.652 32.105C436.702 32.0896 436.755 32.086 436.807 32.0947L436.736 32.0236ZM470.722 31.8992C471.113 31.8992 471.361 32.148 471.237 32.6633L464.599 48.9037C464.599 49.1702 464.457 49.2946 464.599 49.5433L472 71.1675C472 71.5584 471.876 71.8072 471.627 71.8072H464.333C463.818 71.6828 463.818 71.4162 463.694 71.0431L458.21 54.4119C457.944 53.7722 457.305 54.1453 457.305 54.6606L457.429 71.1675C457.429 71.5584 457.305 71.8072 456.932 71.8072H449.514C449.123 71.8072 448.875 71.6828 448.999 71.1675V32.61C448.999 32.2191 449.123 32.0947 449.514 32.0947H456.613C456.689 32.0848 456.766 32.0905 456.84 32.1113C456.914 32.1321 456.983 32.1676 457.042 32.2158C457.102 32.2639 457.151 32.3237 457.187 32.3914C457.223 32.4592 457.245 32.5335 457.252 32.61C457.252 37.9405 456.879 39.7174 457.128 45.0479C457.252 45.6876 457.891 45.6876 458.015 45.1723L463.002 32.5034C463.126 32.1302 463.392 32.1302 463.907 32.1302C466.321 32.1302 468.38 32.0059 470.669 32.0059L470.722 31.8992ZM406.192 31.6327V38.7401C405.463 38.7382 404.75 38.9615 404.151 39.3798C402.874 40.6591 403.264 42.9335 403.122 44.7103C403.122 45.2078 402.749 45.2078 402.359 45.2078L395.597 43.8041C395.527 43.8127 395.457 43.8054 395.39 43.7825C395.324 43.7597 395.264 43.722 395.214 43.6723C395.164 43.6226 395.127 43.5623 395.104 43.4958C395.081 43.4293 395.074 43.3586 395.082 43.2888C395.095 42.7297 395.178 42.1744 395.331 41.6363C395.455 37.9227 396.875 33.6939 400.833 32.5567C402.552 31.9874 404.347 31.6819 406.157 31.6505L406.192 31.6327ZM406.192 46.2206V54.0209C406.068 54.1453 405.944 54.1453 405.944 54.2875C403.903 55.6912 403.761 57.9833 403.761 60.2932C403.635 61.4 403.858 62.5184 404.4 63.4915C404.898 63.9075 405.526 64.134 406.175 64.1312V71.0431C404.45 72.0837 402.4 72.4447 400.424 72.0559C399.386 71.8392 398.419 71.3619 397.615 70.6688C396.811 69.9758 396.196 69.0897 395.828 68.0936C394.57 63.6677 394.527 58.9844 395.704 54.5362C396.857 49.6677 401.968 47.8908 405.926 46.345C406.05 46.345 406.05 46.2206 406.175 46.2206H406.192ZM381.151 72.2691V65.1618C381.34 65.1751 381.531 65.147 381.708 65.0795C381.886 65.012 382.047 64.9067 382.18 64.7709C383.192 63.8824 383.458 61.3238 383.582 59.2627C383.706 54.9272 383.706 50.3784 383.582 45.7053C383.754 43.5435 383.495 41.3691 382.819 39.3087C382.635 39.0348 382.387 38.8104 382.096 38.6554C381.805 38.5005 381.48 38.4197 381.151 38.4203V32.148C382.804 31.7992 384.524 31.9394 386.099 32.5514C387.675 33.1634 389.039 34.2209 390.024 35.5951C392.456 39.9484 392.19 45.4566 392.332 50.6983C392.474 55.9399 392.19 61.9635 391.178 65.2862C389.776 70.2791 385.676 72.0559 381.08 72.1981L381.151 72.2691ZM381.151 28.5055V21.096C381.79 20.8295 382.429 20.5807 383.192 20.3142C383.897 19.9118 384.49 19.3377 384.915 18.6451C385.34 17.9525 385.583 17.1637 385.623 16.3519C385.623 15.9787 386.013 15.8366 386.262 15.8366L393.361 16.9915C393.488 17.0386 393.596 17.1273 393.667 17.2434C393.738 17.3595 393.768 17.4961 393.751 17.6312C393.627 21.1849 392.474 22.9617 389.403 24.934C387.096 26.2134 383.777 27.3505 381.346 28.3811C381.222 28.3811 381.222 28.5055 381.097 28.5055H381.151ZM381.151 21.096V28.5055C380.237 28.9217 379.443 29.5615 378.841 30.3657C378.24 31.1699 377.85 32.1128 377.708 33.1075C377.566 33.8893 378.205 33.7472 378.471 33.6228C379.19 33.0117 380.014 32.5361 380.902 32.2191H381.151V38.4913C380.821 38.4908 380.496 38.5716 380.205 38.7265C379.915 38.8815 379.666 39.1058 379.482 39.3798C378.892 41.4583 378.635 43.6172 378.719 45.7764C378.595 50.254 378.595 54.6606 378.719 59.3337C378.719 61.3949 379.11 64.2023 380.121 64.9663C380.448 65.1109 380.795 65.2009 381.151 65.2329V72.3402C376.678 72.1981 372.721 70.1547 371.319 65.2329C370.647 62.8565 370.3 60.3997 370.289 57.93C370.289 56.4019 370.041 47.6954 370.165 43.7153C370.165 37.8339 370.041 29.1274 374.247 24.6497C376.198 22.8804 378.578 21.655 381.151 21.096V21.096ZM321.732 72.2691V65.1618C321.981 65.1618 322.371 65.1618 322.495 65.0374C323.525 64.149 323.773 61.4837 323.773 59.4048C323.897 54.8028 323.773 50.3251 323.773 45.8475C324.036 43.644 323.774 41.4095 323.01 39.3265C322.885 39.1046 322.696 38.9251 322.469 38.8111C322.241 38.6972 321.985 38.6539 321.732 38.6868V31.7749C323.762 31.5451 325.814 31.9484 327.607 32.9298C328.749 33.5845 329.717 34.5047 330.428 35.6128C332.718 40.2149 332.469 45.5987 332.594 50.8404C332.835 55.7209 332.537 60.6131 331.706 65.4283C331.305 66.8512 330.575 68.1599 329.576 69.2492C328.578 70.3386 327.338 71.1782 325.956 71.7006C324.567 72.0251 323.155 72.239 321.732 72.3402V72.2691ZM337.705 32.0947C340.509 32.0947 342.568 32.2191 345.886 32.0947C346.259 32.0947 346.65 32.3435 346.65 32.61L350.998 50.5206C350.998 50.6384 351.045 50.7514 351.128 50.8347C351.211 50.918 351.324 50.9648 351.441 50.9648C351.559 50.9648 351.672 50.918 351.755 50.8347C351.838 50.7514 351.885 50.6384 351.885 50.5206L356.233 32.61C356.298 32.46 356.404 32.3316 356.539 32.2403C356.675 32.1489 356.833 32.0984 356.996 32.0947C359.818 32.2191 362.108 32.0947 365.302 32.0947C365.387 32.0895 365.473 32.1025 365.553 32.1328C365.633 32.1631 365.705 32.2101 365.765 32.2705C365.826 32.331 365.873 32.4036 365.903 32.4836C365.933 32.5635 365.946 32.649 365.941 32.7344V71.2386C365.946 71.3239 365.933 71.4094 365.903 71.4894C365.873 71.5693 365.826 71.6419 365.765 71.7024C365.705 71.7629 365.633 71.8098 365.553 71.8401C365.473 71.8704 365.387 71.8834 365.302 71.8782H358.398C358.313 71.8834 358.228 71.8704 358.148 71.8401C358.068 71.8098 357.996 71.7629 357.935 71.7024C357.875 71.6419 357.828 71.5693 357.798 71.4894C357.767 71.4094 357.754 71.3239 357.76 71.2386C357.901 65.3572 357.76 56.2775 357.76 50.254C357.76 49.7388 357.121 49.7388 356.996 50.254L353.926 66.37C353.926 66.7609 353.553 66.8853 353.163 66.8853H349.844C349.454 66.8853 349.081 66.7609 349.081 66.37L346.011 50.254C345.886 49.7388 345.123 49.7388 345.123 50.254C345.248 56.2775 345.123 65.4816 345.248 71.2386C345.23 71.4241 345.139 71.5951 344.997 71.7147C344.854 71.8344 344.67 71.8931 344.484 71.8782H337.705C337.519 71.8931 337.335 71.8344 337.193 71.7147C337.05 71.5951 336.96 71.4241 336.942 71.2386V32.7344C336.96 32.5489 337.05 32.3779 337.193 32.2582C337.335 32.1386 337.519 32.0798 337.705 32.0947V32.0947ZM321.732 31.7038V38.6513C321.093 38.6513 320.703 38.7756 320.454 39.2909C319.71 41.3795 319.408 43.6002 319.567 45.8119C319.567 50.2896 319.567 54.6962 319.691 59.3693C319.691 61.4304 319.94 64.1134 320.969 65.0019C321.093 65.1262 321.484 65.1262 321.732 65.1262V72.2336C320.308 72.1429 318.895 71.9289 317.508 71.5939C316.125 71.0698 314.883 70.2275 313.885 69.1349C312.886 68.0424 312.157 66.7301 311.758 65.3039C310.927 60.4888 310.63 55.5965 310.871 50.716C310.995 45.4743 310.622 40.055 312.912 35.4885C313.896 34.0944 315.245 32.9987 316.81 32.3217C318.376 31.6447 320.097 31.4124 321.785 31.6505L321.732 31.7038ZM271.773 72.2691V65.1618C272.19 65.1631 272.596 65.0256 272.927 64.7709C273.814 63.8824 274.063 61.3238 274.204 59.2627C274.453 54.9272 274.329 50.3784 274.204 45.7053C274.38 43.5422 274.115 41.3658 273.424 39.3087C273.245 39.0339 273 38.8085 272.712 38.6532C272.423 38.498 272.101 38.4179 271.773 38.4203V32.148C273.427 31.7756 275.154 31.9045 276.734 32.5184C278.315 33.1323 279.677 34.2034 280.647 35.5951C283.078 39.9484 282.812 45.4566 282.936 50.6983C283.179 55.5839 282.839 60.481 281.925 65.2862C280.523 70.2791 276.299 72.0559 271.702 72.1981L271.773 72.2691ZM271.773 28.5055V21.096C272.412 20.8295 273.051 20.5807 273.814 20.3142C274.519 19.9118 275.112 19.3377 275.537 18.6451C275.962 17.9525 276.206 17.1637 276.245 16.3519C276.295 16.2161 276.381 16.0965 276.494 16.0058C276.606 15.9151 276.741 15.8566 276.884 15.8366L283.983 16.9915C284.111 17.0386 284.219 17.1273 284.29 17.2434C284.36 17.3595 284.39 17.4961 284.374 17.6312C284.443 19.1258 284.082 20.609 283.333 21.9039C282.584 23.1987 281.479 24.2506 280.15 24.934C277.718 26.2134 274.4 27.3505 271.968 28.3811C271.844 28.3811 271.844 28.5055 271.72 28.5055H271.773ZM308.954 32.0592C309.344 32.0592 309.593 32.3079 309.469 32.8232L302.813 49.0636C302.813 49.3301 302.689 49.4545 302.813 49.7032L310.232 71.3274C310.232 71.7183 310.108 71.9671 309.841 71.9671H302.565C302.05 71.8427 302.05 71.5762 301.926 71.203L296.3 54.5718C296.052 53.9321 295.413 54.3053 295.413 54.8205L295.537 71.3274C295.537 71.7183 295.413 71.9671 295.022 71.9671H287.622C287.231 71.9671 287.107 71.8427 287.107 71.3274V32.61C287.107 32.2191 287.231 32.0947 287.622 32.0947H294.721C294.873 32.0797 295.026 32.1253 295.145 32.2216C295.265 32.318 295.342 32.4574 295.359 32.61C295.359 37.9405 294.969 39.7174 295.359 45.0479C295.359 45.6876 295.998 45.6876 296.123 45.1723L301.234 32.5034C301.358 32.1302 301.624 32.1302 302.121 32.1302C304.553 32.1302 306.594 32.0059 308.901 32.0059L308.954 32.0592ZM168.909 53.5412C168.785 56.3664 168.909 59.0494 168.909 61.3416C168.87 61.9646 168.695 62.5714 168.394 63.1184C167.915 63.7 167.226 64.0701 166.477 64.149V71.2564C166.868 70.9898 167.241 70.6167 167.631 70.3501C168.021 70.0836 168.394 69.4617 168.909 69.0708C169.423 68.6799 169.548 69.0708 169.548 69.213C169.843 69.7883 170.181 70.3407 170.559 70.8654C172.742 72.7844 176.185 71.896 178.865 72.0204C179.131 72.0204 179.38 71.896 179.38 71.6295L179.646 65.4994C179.504 64.9841 178.865 65.1085 178.617 64.9841C178.329 64.8728 178.079 64.6815 177.897 64.4328C177.715 64.1841 177.607 63.8883 177.587 63.5804V47.5355C177.729 43.9818 178.368 39.8595 176.824 36.6612C175.049 32.6988 170.701 31.3307 166.477 31.6683V38.7757C166.916 38.7846 167.349 38.875 167.755 39.0422C169.033 39.8062 168.909 41.8496 168.909 43.1289C168.842 43.8362 168.579 44.5107 168.15 45.076C167.72 45.6413 167.141 46.0747 166.477 46.3272V54.1276C167.039 53.661 167.632 53.2336 168.252 52.8482C168.625 52.7239 168.891 53.1148 168.891 53.4879L168.909 53.5412ZM271.844 21.1849V28.5943C270.928 29.0096 270.131 29.6487 269.527 30.4528C268.922 31.2569 268.529 32.2003 268.383 33.1963C268.383 33.9781 269.022 33.836 269.164 33.7116C269.895 33.1264 270.708 32.6533 271.578 32.3079H271.844V38.5802C271.514 38.5796 271.19 38.6604 270.899 38.8153C270.608 38.9703 270.36 39.1947 270.176 39.4686C269.586 41.5471 269.328 43.7061 269.413 45.8652C269.413 50.3429 269.288 54.7495 269.413 59.4226C269.537 61.4837 269.927 64.2911 270.939 65.0552C271.221 65.2007 271.528 65.2911 271.844 65.3217V72.429C269.646 72.5131 267.483 71.8593 265.698 70.5716C263.913 69.2839 262.61 67.4361 261.994 65.3217C261.337 62.9428 260.996 60.4871 260.983 58.0188C260.983 56.4908 260.858 47.7842 260.858 43.8041C260.983 37.9227 260.716 29.2162 264.94 24.7386C266.907 22.9924 269.281 21.7703 271.844 21.1849V21.1849ZM234.397 63.8291L234.521 32.6278C234.488 32.5606 234.473 32.4863 234.476 32.4116C234.48 32.337 234.502 32.2644 234.541 32.2006C234.58 32.1368 234.634 32.0839 234.699 32.0468C234.764 32.0096 234.837 31.9894 234.912 31.9881C237.467 32.1125 239.899 32.1125 242.454 32.1125C242.523 32.1072 242.592 32.1168 242.657 32.1408C242.722 32.1648 242.781 32.2026 242.83 32.2516C242.879 32.3005 242.917 32.3595 242.941 32.4244C242.965 32.4894 242.974 32.5587 242.969 32.6278V63.1895C242.961 63.4987 243.021 63.8059 243.143 64.0901C243.264 64.3743 243.446 64.6288 243.675 64.8362C243.904 65.0437 244.176 65.1992 244.47 65.2922C244.765 65.3852 245.076 65.4134 245.383 65.375C246.927 65.1084 247.566 64.3444 247.566 63.1895L247.69 32.4856C247.69 32.2369 247.814 32.1125 248.08 32.1125H255.747C255.996 32.1125 256.244 32.2369 256.12 32.6278L256.244 71.3807C256.252 71.4488 256.245 71.5179 256.223 71.5829C256.201 71.6479 256.165 71.7072 256.118 71.7565C256.07 71.8059 256.012 71.844 255.948 71.8681C255.884 71.8922 255.815 71.9018 255.747 71.896C253.316 71.896 250.76 71.896 248.204 72.0204C248.08 72.0204 247.814 71.896 247.814 71.5051C247.752 70.9977 247.752 70.4845 247.814 69.977C247.757 69.8642 247.66 69.7765 247.542 69.7307C247.424 69.6848 247.293 69.6839 247.175 69.7283C246.42 70.2336 245.697 70.7854 245.01 71.3807C243.83 72.0107 242.514 72.3402 241.176 72.3402C239.839 72.3402 238.523 72.0107 237.343 71.3807C234.663 69.7283 234.397 66.6543 234.397 63.8291V63.8291ZM229.676 35.8261C231.078 38.7579 230.439 41.1566 230.688 44.7103C230.688 45.35 230.688 46.114 230.191 46.114L223.092 47.5177C222.826 47.5177 222.453 47.2689 222.453 47.0024C222.701 44.9191 222.701 42.8135 222.453 40.7302C222.443 40.2553 222.29 39.7946 222.015 39.4079C221.739 39.0212 221.354 38.7266 220.909 38.5624C220.602 38.4984 220.286 38.5002 219.98 38.5676C219.674 38.635 219.386 38.7664 219.134 38.9533C217.732 40.2326 217.998 42.4004 217.998 44.2839C217.998 50.0408 217.856 55.6734 217.998 61.2883C218.122 62.7097 218.123 64.2378 219.649 64.8419C220.003 65.0346 220.412 65.1009 220.809 65.0299C221.205 64.9588 221.566 64.7547 221.832 64.451C222.503 63.672 222.863 62.6722 222.843 61.6436C223.11 58.9606 222.843 55.7623 222.968 53.2036C222.968 52.6883 223.234 52.5639 223.482 52.5639L230.581 53.9676C230.972 54.092 231.096 54.2164 231.096 54.6073C231.096 54.9982 230.972 55.4957 230.972 55.8866C230.723 61.5192 232.001 69.1952 225.985 71.6295C222.247 73.0913 218.097 73.0913 214.36 71.6295C212.998 71.0824 211.825 70.1483 210.986 68.9423C210.147 67.7363 209.679 66.311 209.639 64.8419C209.125 54.8561 209.497 53.2036 209.373 42.8446C209.249 38.8645 210.136 34.9021 213.721 32.8588C216.906 31.5015 220.427 31.1422 223.819 31.8282C225.035 31.9518 226.201 32.3816 227.206 33.0775C228.211 33.7734 229.025 34.7129 229.57 35.8083L229.676 35.8261ZM205.007 71.363C205.007 71.7539 204.883 71.8782 204.634 71.8782H196.968C196.701 71.8782 196.453 71.7538 196.453 71.4873L196.222 38.8645C196.228 38.7961 196.218 38.7274 196.194 38.6632C196.17 38.599 196.132 38.541 196.083 38.4933C196.034 38.4457 195.974 38.4096 195.909 38.3878C195.844 38.3659 195.775 38.3588 195.707 38.367H192.389C192.314 38.357 192.238 38.362 192.165 38.3818C192.093 38.4015 192.025 38.4355 191.965 38.4818C191.906 38.5281 191.856 38.5857 191.819 38.6514C191.782 38.7172 191.759 38.7896 191.75 38.8645V71.363C191.75 71.6295 191.608 71.8782 191.359 71.8782H183.799C183.73 71.8836 183.661 71.8739 183.596 71.8499C183.531 71.8259 183.472 71.7881 183.423 71.7391C183.374 71.6902 183.337 71.6312 183.313 71.5663C183.289 71.5013 183.279 71.432 183.284 71.363V32.61C183.284 32.2191 183.408 32.0947 183.799 32.0947C189.94 32.2191 196.826 32.2191 204.368 32.0947C204.438 32.0861 204.509 32.0934 204.575 32.1163C204.641 32.1391 204.702 32.1768 204.751 32.2265C204.801 32.2762 204.839 32.3366 204.861 32.403C204.884 32.4695 204.892 32.5403 204.883 32.61L205.007 71.363V71.363ZM166.548 64.0779V64.2023C165.9 64.2051 165.271 63.9786 164.774 63.5626C164.232 62.5895 164.009 61.471 164.135 60.3643C164.135 58.0544 164.259 55.7623 166.318 54.3586C166.318 54.2164 166.442 54.2164 166.566 54.092V46.2917C166.442 46.2917 166.442 46.4161 166.318 46.4161C162.342 47.9619 157.231 49.7388 156.095 54.6073C154.919 59.0555 154.962 63.7388 156.219 68.1646C156.606 69.1497 157.226 70.0255 158.027 70.716C158.828 71.4065 159.786 71.8908 160.816 72.127C162.792 72.514 164.841 72.1531 166.566 71.1142V64.0068L166.548 64.0779ZM166.548 31.7038V38.8112C165.854 38.7915 165.175 39.0181 164.632 39.4508C163.23 40.7302 163.602 43.0045 163.478 44.7814C163.478 45.2789 163.105 45.2789 162.715 45.2789L155.935 43.8752C155.867 43.8809 155.798 43.8714 155.734 43.8473C155.67 43.8232 155.612 43.7851 155.565 43.7357C155.517 43.6864 155.481 43.6271 155.459 43.5621C155.437 43.4971 155.43 43.428 155.438 43.3599C155.438 42.8624 155.687 42.0806 155.687 41.7074C155.935 37.9938 157.213 33.7649 161.313 32.6278C163 32.0549 164.767 31.7491 166.548 31.7216V31.7038ZM129.101 20.3142C127.699 23.7791 127.965 27.6171 127.823 31.5794C127.699 32.0947 127.965 32.2191 128.214 32.2191L136.395 33.7472C136.768 33.7472 137.034 33.6228 137.034 33.2497C136.863 30.8785 136.946 28.4957 137.283 26.1423C137.407 25.1295 138.046 23.8502 139.199 23.7258C139.569 23.6251 139.955 23.6063 140.332 23.6707C140.709 23.7352 141.068 23.8813 141.382 24.0989C143.033 25.7691 142.518 30.6199 142.518 32.9831C142.239 34.4064 141.501 35.6986 140.417 36.6615C139.334 37.6244 137.964 38.2048 136.52 38.3137C136.005 38.3137 135.881 38.5624 135.881 39.0777C136.129 41.2455 135.881 43.2888 136.005 45.4743C136.005 45.7231 136.271 46.2384 136.644 46.114C140.105 46.114 142.66 47.2689 142.66 49.1879L142.518 59.4226C142.518 60.8263 142.394 62.7453 140.744 63.3849C140.281 63.6153 139.756 63.6896 139.247 63.5968C138.738 63.5039 138.274 63.2488 137.922 62.8696C137.23 61.9885 136.827 60.9149 136.768 59.7957C136.52 56.7217 136.91 53.5234 136.644 50.5917C136.644 50.2007 136.52 50.0764 136.129 50.0764L127.965 51.7466C127.699 51.7466 127.451 51.7466 127.575 52.635C127.823 59.0316 126.297 68.3779 133.201 71.0609C137.519 72.722 142.299 72.722 146.618 71.0609C148.145 70.4241 149.458 69.3628 150.401 68.0025C151.345 66.6422 151.88 65.0398 151.942 63.3849C152.331 58.8295 152.461 54.2557 152.333 49.6855C152.333 46.2384 150.931 43.1644 148.375 42.1516C147.86 42.0095 147.985 41.3698 148.375 41.1211C149.568 40.2216 150.544 39.0644 151.229 37.7355C151.914 36.4066 152.292 34.9401 152.333 33.4451V28.2034C152.208 23.8501 151.303 19.3192 147.221 17.0626C144.027 15.2858 139.288 15.2858 135.597 15.9254C134.242 16.0763 132.943 16.5483 131.807 17.3023C130.672 18.0563 129.732 19.0705 129.066 20.2609L129.101 20.3142Z" fill="#28645C"/>
<path fill-rule="evenodd" clip-rule="evenodd" d="M45.2089 66.2457V49.7389L59.9038 60.3999H69.4875L52.3612 47.5356L67.198 34.4935H58.626L45.2089 46.0075V28.8609C45.9313 28.7534 46.662 28.7118 47.3919 28.7365C51.6958 28.6232 55.8865 30.1253 59.1407 32.9477H68.4404C66.0792 29.5412 62.9264 26.7603 59.2536 24.8443C55.5807 22.9283 51.4978 21.9347 47.3564 21.949H45.1734V14.8416C45.8958 14.7341 46.6265 14.6925 47.3564 14.7173C53.9727 14.769 60.4183 16.8252 65.8449 20.6153C71.2715 24.4054 75.4246 29.7517 77.7578 35.9505L63.1161 47.5356L77.9353 58.8007C75.631 65.0435 71.4679 70.4275 66.0086 74.2249C60.5493 78.0223 54.0571 80.05 47.4096 80.034H45.2267V72.9266C45.9491 73.0341 46.6797 73.0758 47.4096 73.051C51.4778 73.0679 55.4909 72.1088 59.1128 70.2539C62.7348 68.3991 65.8602 65.7025 68.2274 62.39H59.1584C55.7992 64.9969 51.6597 66.393 47.4096 66.3523C46.6799 66.3659 45.9502 66.3243 45.2267 66.228L45.2089 66.2457ZM45.2089 93.8756C45.9298 93.9979 46.6613 94.0456 47.3919 94.0178C53.5687 94.1387 59.7076 93.025 65.4493 90.742C71.1911 88.459 76.4205 85.0525 80.8315 80.7218C85.2425 76.3911 88.7465 71.2231 91.1386 65.5203C93.5307 59.8174 94.7627 53.6942 94.7627 47.5089C94.7627 41.3236 93.5307 35.2004 91.1386 29.4975C88.7465 23.7947 85.2425 18.6267 80.8315 14.296C76.4205 9.96528 71.1911 6.55877 65.4493 4.27577C59.7076 1.99278 53.5687 0.879137 47.3919 1.00002H45.2089V8.30285H47.3919C56.033 8.3179 64.4317 11.164 71.3056 16.4065C78.1795 21.649 83.1507 28.9998 85.4602 37.3365L71.9899 47.5356L85.6732 57.8946H85.4069C83.0255 66.1798 78.0316 73.4719 71.1707 78.6821C64.3097 83.8923 55.9497 86.7414 47.3386 86.8038H45.1557V93.9112L45.2089 93.8756ZM45.2089 66.2457C40.6482 65.6657 36.452 63.4504 33.3977 60.0103C30.3433 56.5701 28.6379 52.1382 28.5973 47.5356C28.6524 42.6666 30.4683 37.9826 33.7086 34.3514C36.8208 31.2851 40.8701 29.3519 45.2089 28.8609V34.4935H39.0861V60.3288L45.2089 60.4532V66.2102V66.2457ZM45.2089 21.9845V14.8772C39.7005 15.2763 34.3838 17.0708 29.7582 20.0918C25.1325 23.1129 21.3498 27.2616 18.7652 32.1481L11.471 31.8993C14.3459 25.2112 19.0222 19.4555 24.9772 15.2759C30.9322 11.0962 37.931 8.65724 45.1912 8.23178V0.928955C33.3048 1.54505 22.1083 6.70634 13.9125 15.3476C5.71676 23.9888 1.14734 35.4504 1.14734 47.3668C1.14734 59.2831 5.71676 70.7447 13.9125 79.3859C22.1083 88.0272 33.3048 93.1885 45.1912 93.8046V86.6972C37.6762 86.2261 30.4484 83.6327 24.3454 79.2174C18.2423 74.8022 13.5138 68.7459 10.7079 61.7503L18.0021 61.6259C20.5157 66.8231 24.3552 71.2638 29.1324 74.4992C33.9097 77.7346 39.4553 79.65 45.2089 80.0518V72.9444C40.4909 72.5301 35.98 70.8141 32.1776 67.9869C28.3753 65.1598 25.4305 61.3324 23.6706 56.9302C21.9107 52.5279 21.4046 47.7233 22.2085 43.0503C23.0125 38.3773 25.095 34.0191 28.2246 30.4601C32.6398 25.6091 38.6874 22.5596 45.2089 21.8957V21.9845Z" fill="#28645C"/>
</g>
<defs>
<clipPath id="clip0_8_1328">
<rect width="471" height="93" fill="white" transform="translate(1 1)"/>
</clipPath>
</defs>
</svg>
