<svg width="559" height="117" viewBox="0 0 559 117" fill="none" xmlns="http://www.w3.org/2000/svg">
<g clip-path="url(#clip0_8_1337)">
<path d="M538.896 23.1086L519.891 44.4071V23.1086H506.138V76.8745H519.891V54.2383L540.234 76.8745H558L532.979 48.7034L556.188 23.1086H538.896Z" fill="#EF3124"/>
<path d="M481.888 43.161H462.883V23.1086H449.123V76.8745H462.883V55.6755H481.888V76.8745H495.641V23.1086H481.888V43.161Z" fill="#EF3124"/>
<path d="M82.6617 52.22C82.333 62.25 81.041 64.2529 75.3992 64.2529V76.8745H77.5015C91.5603 76.8745 94.9393 69.6196 95.4591 53.4814L96.0325 35.6155H109.212V76.8974H122.973V23.1086H83.6173L82.6617 52.22Z" fill="#EF3124"/>
<path d="M157.153 39.4379H147.214V23.1086H133.454V76.8745H157.336C172.328 76.8745 177.679 67.135 177.679 57.9689C177.679 46.1271 170.225 39.4379 157.145 39.4379H157.153ZM156.09 65.0327H147.214V51.3791H156.098C160.876 51.3791 163.742 53.4814 163.742 57.9689C163.742 62.8387 160.975 65.0327 156.098 65.0327" fill="#EF3124"/>
<path d="M222.477 21.8627V1.9021H208.717V21.8627C192.969 23.1699 182.365 34.3772 182.365 49.9267C182.365 65.4762 192.969 76.7676 208.724 78.1055V98.3565H222.485V78.1207C238.241 76.8746 248.844 65.6062 248.844 49.9267C248.844 34.2472 238.241 23.0935 222.477 21.8474V21.8627ZM208.717 65.1169C201.072 64.062 196.302 58.336 196.302 49.9267C196.302 41.5174 201.08 35.7915 208.717 34.7442V65.1169ZM222.477 65.1169V34.7594C230.122 35.8068 234.931 41.5174 234.931 49.9267C234.931 58.336 230.16 64.062 222.516 65.1169" fill="#EF3124"/>
<path d="M300.416 60.3543V42.282C300.416 29.1024 292.007 20.7925 277.879 20.7925C263.262 20.7925 255.526 29.5764 254.861 38.7501H268.805C269.279 36.7395 271.381 33.2994 277.879 33.2994C283.231 33.2994 286.663 35.7839 286.663 42.282H273.002C260.77 42.282 253.523 48.6807 253.523 59.3758C253.523 70.5678 261.458 78.2126 272.91 78.2126C281.319 78.2126 285.968 74.2449 288.001 71.2405C289.813 74.8718 293.826 76.8747 299.078 76.8747H303.856V64.4519C301.372 64.4519 300.416 63.3052 300.416 60.3467V60.3543ZM286.656 56.8148C286.656 63.0224 282.26 66.5542 276.534 66.5542C271.565 66.5542 267.651 64.7424 267.651 59.3911C267.651 54.0397 271.947 53.2752 275.67 53.2752H286.656V56.8148Z" fill="#EF3124"/>
<path d="M359.35 30.7459H343.969V15.5634H379.593V1.9021H329.551V76.8746H359.365C375.886 76.8746 385.358 68.6641 385.358 53.5733C385.358 39.3463 375.901 30.7459 359.365 30.7459H359.35ZM358.692 63.3128H343.969V43.8109H358.677C366.322 43.8109 370.618 47.3428 370.618 53.5504C370.618 59.9491 366.322 63.2898 358.677 63.2898" fill="#EF3124"/>
<path d="M437.954 60.3543V42.282C437.954 29.1024 429.544 20.7925 415.409 20.7925C400.823 20.8154 393.063 29.5993 392.414 38.773H406.358C406.839 36.7625 408.942 33.3223 415.432 33.3223C420.784 33.3223 424.224 35.8069 424.224 42.3049H410.54C398.308 42.3049 391.053 48.7036 391.053 59.3987C391.053 70.5678 398.996 78.2126 410.448 78.2126C418.857 78.2126 423.497 74.2449 425.531 71.2405C427.35 74.8718 431.364 76.8747 436.616 76.8747H441.386V64.4519C438.909 64.4519 437.954 63.3052 437.954 60.3467V60.3543ZM424.193 56.8148C424.193 63.0224 419.797 66.5542 414.064 66.5542C409.102 66.5542 405.181 64.7424 405.181 59.3911C405.181 54.0397 409.485 53.2752 413.208 53.2752H424.193V56.8148Z" fill="#EF3124"/>
<path d="M74.543 99.8013H1V115.083H74.543V99.8013Z" fill="#EF3124"/>
<path d="M51.1422 12.192C49.0399 5.93854 46.6242 1 38.3448 1C30.0655 1 27.4892 5.92325 25.2875 12.192L2.52896 76.8746H17.6198L22.8718 61.5009H51.922L56.807 76.8746H72.8611L51.1422 12.192ZM27.2675 48.5124L37.5804 17.8186H37.9626L47.7021 48.5124H27.2675Z" fill="#EF3124"/>
</g>
<defs>
<clipPath id="clip0_8_1337">
<rect width="557" height="114.083" fill="white" transform="translate(1 1)"/>
</clipPath>
</defs>
</svg>
