<svg width="492" height="96" viewBox="0 0 492 96" fill="none" xmlns="http://www.w3.org/2000/svg">
<path fill-rule="evenodd" clip-rule="evenodd" d="M102.031 8.01996V15.0399H109.038H116.044V8.01996V1H109.038H102.031V8.01996ZM476.987 16.7211V32.0168L474.917 30.7632C466.366 25.5843 454.869 24.8808 444.748 28.9167C433.472 33.4126 426.147 43.101 424.528 55.6598C424.204 58.1733 424.271 64.2445 424.653 66.8657C425.39 71.9397 427.159 76.9749 429.553 80.8123C433.131 86.5484 438.989 91.1393 445.497 93.3074C455.348 96.5896 467.832 94.8935 475.819 89.1869L476.881 88.4285L476.94 91.0887L477 93.7486H484H491V47.587V1.42545H483.993H476.987V16.7211ZM159.251 25.392C157.642 25.588 154.434 26.4191 152.988 27.0147C150.58 28.0069 148.988 29.0167 147.521 30.4811L146.194 31.8059V29.0573V26.3087L139.24 26.3646L132.287 26.4208V59.7124V93.0041L139.231 93.0602L146.175 93.1162L146.25 73.2767C146.333 51.4423 146.285 52.2759 147.675 48.7694C149.622 43.859 153.493 40.2316 157.895 39.1918C159.786 38.7453 162.528 38.7957 164.347 39.3105C165.164 39.5419 166.024 39.7821 166.258 39.8442C166.637 39.9453 166.929 39.3505 168.998 34.2527C170.271 31.1152 171.353 28.3968 171.402 28.2117C171.512 27.7946 169.805 26.9945 167.189 26.2368C164.319 25.4052 161.557 25.1114 159.251 25.392ZM410.411 25.568C408.175 25.9636 405.46 26.8303 403.737 27.6982C402.015 28.5657 399.863 30.1718 399.229 31.0629L398.747 31.7389L398.641 29.0798L398.535 26.4208H391.528H384.522V59.7124V93.0041H391.528H398.535L398.645 72.7951L398.755 52.5861L399.241 50.8843C400.995 44.7503 404.978 40.5375 410.317 39.1677C412.145 38.6989 415.375 38.8478 417.399 39.4943C418.198 39.7498 418.896 39.9148 418.95 39.8612C419.133 39.6774 423.695 28.3759 423.695 28.1051C423.695 27.8069 422.058 26.9851 420.404 26.4525C417.193 25.4186 413.235 25.0683 410.411 25.568ZM199.592 26.5016C186.5 28.9073 177.44 37.1779 174.117 49.7577C173.077 53.6952 172.856 55.6468 172.86 60.8824C172.862 65.3639 172.91 65.9997 173.428 68.4465C174.921 75.5031 177.575 80.5438 182.275 85.2529C185.937 88.9229 189.715 91.2291 194.804 92.9019C198.626 94.1585 202.037 94.6688 206.598 94.6669C212.533 94.6644 217.769 93.8111 223.478 91.9162C227.203 90.6796 233.032 87.8897 233.032 87.343C233.032 87.2623 231.977 85.009 230.687 82.3356L228.342 77.475L225.323 78.975C219.67 81.7828 215.553 82.8674 209.861 83.0489C204.19 83.2297 201.084 82.6647 197.2 80.7455C191.836 78.0958 188.411 72.9108 187.277 65.7228L187.134 64.8196L211.941 64.7655L236.748 64.7115L236.7 60.4663C236.647 55.6908 236.279 52.5114 235.371 48.9814C232.309 37.0843 224.367 29.2156 212.904 26.7216C209.901 26.0683 202.606 25.9477 199.592 26.5016ZM331.442 26.2353C326.921 26.9098 323.531 27.9511 319.765 29.8214C316.204 31.5898 313.649 33.452 310.908 36.2762C306.502 40.8166 303.795 46.1107 302.446 52.8245C301.854 55.7687 301.651 62.0443 302.033 65.519C303.311 77.1126 309.429 86.4776 318.86 91.2791C324.071 93.9317 330.592 95.1509 336.644 94.6044C342.749 94.0532 348.48 92.1432 352.862 89.199C353.665 88.6593 354.358 88.2177 354.401 88.2177C354.444 88.2177 354.479 89.4143 354.479 90.8768V93.5359H361.486H368.493L368.439 60.191L368.386 26.8462L361.432 26.7901L354.479 26.7341V29.1832C354.479 30.5304 354.433 31.6326 354.377 31.6326C354.321 31.6326 353.771 31.3103 353.156 30.9163C350.306 29.092 346.921 27.691 343.226 26.8062C341.285 26.3414 340.419 26.2638 336.538 26.2063C334.085 26.17 331.792 26.1829 331.442 26.2353ZM102.031 59.7124V93.1104H109.038H116.044V59.7124V26.3144H109.038H102.031V59.7124ZM275.284 26.4503C274.992 26.4933 274.036 26.6305 273.16 26.755C261.434 28.4234 251.694 36.0445 247.476 46.8506C244.09 55.5283 244.038 66.4299 247.341 75.0002C249.528 80.6723 253.274 85.7124 257.767 89.0261C261.902 92.0753 267.657 94.2013 273.425 94.8101C280.72 95.5802 290.175 93.9577 296.442 90.86L298.386 89.8993L296.466 84.1127C295.41 80.9299 294.522 78.297 294.493 78.2617C294.465 78.2264 293.675 78.7203 292.738 79.3594C290.621 80.8038 288.25 81.9427 286.139 82.5298C284.762 82.9125 283.916 82.9819 280.486 82.9927C276.967 83.004 276.211 82.944 274.567 82.5247C265.51 80.2139 260.218 72.8057 259.64 61.6269C259.317 55.3819 261.083 49.0502 264.251 45.0883C266.487 42.2927 270.029 40.0491 273.797 39.041C275.355 38.6242 276.125 38.5581 279.424 38.557C282.661 38.5562 283.529 38.6276 285.094 39.0235C287.702 39.683 290.035 40.6256 292.024 41.8232L293.734 42.8537L294.184 41.5507C296.447 34.9964 297.763 30.9108 297.664 30.7506C297.433 30.3754 294.536 29.045 292.409 28.3374C288.34 26.9834 283.699 26.2985 278.901 26.3433C277.204 26.3593 275.576 26.4076 275.284 26.4503ZM1.22591 28.173C1.35011 28.6133 5.33959 43.5718 10.0915 61.4142L18.7316 93.855L24.6802 93.9113L30.6287 93.9679L38.4323 72.2133C42.7241 60.2483 46.2974 50.3948 46.3728 50.3167C46.4482 50.2386 50.0387 60.0281 54.3518 72.0712L62.1938 93.9679L68.1491 93.9113L74.1047 93.855L82.937 60.6697L91.7692 27.4844L84.3336 27.4285C80.2441 27.3976 76.836 27.4455 76.7597 27.5348C76.6835 27.6242 74.4363 37.577 71.7658 49.6524C69.0954 61.7278 66.8818 71.5789 66.8466 71.5438C66.8115 71.5085 63.4511 61.5808 59.3793 49.482L51.9759 27.4844L46.4537 27.4278C41.3419 27.3753 40.9205 27.3991 40.7829 27.7469C40.7011 27.9535 37.3864 37.791 33.4171 49.6079C29.4476 61.4249 26.1284 71.1677 26.0407 71.2588C25.9532 71.3498 23.6891 61.5378 21.0092 49.4543L16.1369 27.4844L8.56854 27.4285L1 27.3727L1.22591 28.173ZM208.377 37.9033C210.53 38.0669 213.635 39.1371 215.491 40.3548C217.23 41.496 219.232 43.5761 220.262 45.3111C221.65 47.6491 222.719 50.9896 222.98 53.8003L223.114 55.2452H205.222H187.329L187.468 54.1928C187.545 53.6138 187.791 52.4223 188.015 51.5446C190.137 43.2319 195.517 38.4649 203.52 37.8067C204.512 37.725 205.659 37.6867 206.068 37.7214C206.476 37.7561 207.516 37.838 208.377 37.9033ZM341.623 38.7483C346.605 40.2301 350.336 43.3351 352.756 48.0125C354.438 51.2627 355.294 54.7716 355.48 59.1838C355.698 64.349 354.846 68.8447 352.9 72.7951C351.003 76.645 348.481 79.2732 345.048 80.9759C339.193 83.88 331.078 83.4188 325.657 79.8737C318.83 75.408 315.426 66.3707 316.783 56.3088C318.119 46.4 323.872 39.7963 332.538 38.2235C333.103 38.1209 334.951 38.0699 336.644 38.1099C339.218 38.1709 340.034 38.2756 341.623 38.7483ZM463.505 38.8521C473.524 41.4063 479.252 51.6846 477.821 64.5407C476.973 72.1548 473.375 78.1583 467.941 81.0235C465.183 82.4779 463.439 82.9204 459.938 83.0548C456.778 83.1763 454.699 82.9436 452.494 82.2216C443.641 79.3243 438.574 70.7152 439.056 59.3933C439.26 54.6149 440.312 50.6915 442.31 47.2524C443.556 45.1081 446.583 42.0351 448.642 40.8245C450.349 39.8208 453.323 38.7704 455.33 38.4617C457.387 38.1456 461.505 38.3424 463.505 38.8521Z" fill="#112032"/>
</svg>
