<svg width="405" height="121" viewBox="0 0 405 121" fill="none" xmlns="http://www.w3.org/2000/svg">
<g clip-path="url(#clip0_8_1330)">
<path d="M2.39453 117.946L60.8325 117.88L60.8025 60.0275C48.6407 83.1027 25.8309 98.1177 2.42453 103.857C2.49029 108.227 2.39453 117.946 2.39453 117.946Z" fill="#008FB4"/>
<path d="M21.0793 88.8199C43.1334 77.6815 53.7676 57.3107 53.7676 57.3107C53.7676 57.3107 53.6915 50.6224 53.6915 50.4805C41.5389 46.2116 30.5228 39.9593 21.1012 30.5989C21.1508 46.4746 21.0793 88.8199 21.0793 88.8199Z" fill="#008FB4"/>
<path d="M24.2243 1.27893C24.2243 1.27893 24.2186 18.9684 24.1967 23.3804C29.9885 28.7627 32.9006 31.2813 38.9233 35.1303L38.9706 11.4159C32.0872 7.63269 29.4324 5.62168 24.2243 1.27893Z" fill="#008FB4"/>
<path d="M110.921 19.9202C110.424 16.76 108.64 14.6498 105.627 13.6483C104.194 13.1718 102.539 12.8822 100.559 12.7657C99.3533 12.6953 98.1464 12.7853 96.98 12.8742C96.8231 12.888 96.665 12.8984 96.5081 12.9111V5.98391L102.133 6.00698L108.353 6.89538L108.591 1.26733H89.3721L90.137 8.29143L90.2097 24.0103L89.3271 31.4693L90.4405 31.4589C90.4428 31.4566 93.0745 31.4324 94.3194 31.4647C94.9932 31.4809 95.667 31.5189 96.3385 31.5512C97.2753 31.6032 98.2341 31.6528 99.1964 31.6528C99.4179 31.6528 99.6405 31.6505 99.8586 31.6447C103.479 31.5466 106.239 30.6536 108.298 28.9137C111.495 26.207 111.326 22.4827 110.921 19.9202ZM104.665 21.4628C104.663 22.1204 104.618 22.6927 104.529 23.2142C104.28 24.6529 103.531 25.6474 102.298 26.1655C100.669 26.8612 98.8987 27.0458 96.485 26.7654V17.7915C98.676 17.4984 100.805 17.4211 102.8 18.433C104.058 19.0722 104.667 20.0632 104.665 21.4628Z" fill="#191646"/>
<path d="M130.018 4.73357L129.094 1L122.767 1.07961L122.036 4.3609L114.386 24.1802L111.048 31.2908L117.691 31.3924L118.847 25.9778L120.437 21.8519L129.971 21.8335L132.159 27.0946L133.324 31.3208L141.903 31.3289L138.978 26.2939L130.018 4.73357ZM128.156 17.2553C127.156 17.2692 126.136 17.2934 125.115 17.3176C124.112 17.3419 123.108 17.3672 122.124 17.3788C122.701 15.94 123.313 14.4944 123.923 13.058C124.38 11.9792 124.835 10.9073 125.27 9.84473L128.156 17.2553Z" fill="#191646"/>
<path d="M191.456 31.3678L200.194 31.2778L186.293 15.5429L199.325 1.18201L191.658 1.23854L189.365 4.44946C189.365 4.44946 183.486 10.9071 180.303 14.4295L180.306 6.6093L181.206 1.26392H173.173L173.661 6.53661L173.777 25.1225L173.167 31.3148H181.183L180.299 25.1687L180.303 17.7777L191.456 31.3678Z" fill="#191646"/>
<path d="M167.711 22.3281C167.694 20.309 167.799 6.7385 167.792 6.7408L168.501 1.33313H160.567L161.214 6.55966C161.214 6.55966 161.234 10.5355 161.237 12.8915H150.02C149.96 9.47637 149.977 5.97355 150.845 2.56535L151.155 1.34351H142.901L143.038 2.4442C143.087 2.83533 143.557 7.02463 143.616 8.95833C143.736 13.0138 143.701 17.15 143.666 21.1524L143.659 22.0454C143.645 23.7634 143.259 28.9945 143.078 29.9279L142.851 31.0967H150.807L150.683 30.0052C150.603 29.3072 150.514 28.6149 150.427 27.9215C150.227 26.3605 150.039 24.886 149.951 23.385C149.868 21.8747 149.885 20.3171 149.91 18.8068C149.913 18.4469 149.918 18.0915 149.921 17.7292H161.338C161.338 18.4792 161.349 19.2303 161.361 19.9779C161.409 23.408 161.454 26.6489 160.574 29.8633L160.237 31.1002H168.571L168.348 29.9383C167.819 27.1797 167.731 24.421 167.711 22.3281Z" fill="#191646"/>
<path d="M267.693 46.2191L267.93 45.0284H250.921L251.056 46.1464C251.67 51.2472 252.106 56.0342 252.385 60.7773C252.588 64.182 252.541 67.6883 252.493 71.0815C252.475 72.2872 252.458 73.4917 252.452 74.7055H220.635C220.461 65.3669 220.372 55.7365 222.767 46.293L223.08 45.0515H205.56L205.702 46.1776C205.716 46.2768 207.03 57.646 207.192 63.0433C207.507 73.4433 207.416 84.0348 207.329 94.279L207.309 96.7111C207.269 101.174 206.26 114.787 205.787 117.225L205.556 118.412H222.439L222.312 117.301C222.109 115.529 221.886 113.769 221.662 112.015C221.166 108.144 220.654 104.138 220.434 100.217C220.21 96.2889 220.266 92.2576 220.316 88.3625C220.336 86.9411 220.355 85.5185 220.36 84.0971H252.699C252.682 86.5327 252.719 88.9809 252.752 91.3577C252.877 100.28 253 108.706 250.68 117.171L250.334 118.436H267.917L267.689 117.248C266.311 110.035 266.079 102.864 266.033 97.423C265.986 91.9992 266.035 67.9744 266.258 61.3368C266.477 54.9612 266.946 50.0161 267.693 46.2191Z" fill="#191646"/>
<path d="M163.919 109.462V83.4583C172.047 83.6867 187.544 84.9143 187.706 84.9247L188.781 85.0089L188.826 73.079L163.917 74.4912V53.9993C171.351 53.9093 185.239 53.8378 192.466 56.0761L193.596 56.4245L193.753 55.2546C194.255 51.4829 193.906 46.2241 193.889 46.0014L193.825 45.075H148.863L149.045 46.2229C150.547 55.8568 150.453 65.6303 150.362 75.0785C150.34 77.266 150.317 79.4582 150.317 81.6584C150.439 95.6385 148.914 117.077 148.898 117.289L148.824 118.354L193.523 118.571L193.556 117.598C193.627 115.219 193.837 108.843 193.941 107.918L194.098 106.553L192.75 106.823C183.859 108.633 175.445 109.409 163.919 109.462Z" fill="#191646"/>
<path d="M125.73 77.3088C125.727 77.3065 125.721 77.3042 125.715 77.3008C125.932 77.1727 126.134 77.0435 126.332 76.9085C130.368 74.1579 135.039 70.1163 135.316 63.2283C135.702 53.6925 130.504 46.9696 121.051 44.7751C112.887 42.8852 104.481 43.1841 95.3529 45.6889L95.234 45.7235C90.814 46.9396 90.0582 47.3341 90.1955 48.3806C90.4448 50.3074 90.8255 52.4753 91.1947 54.5751C91.4635 56.1131 91.7358 57.6638 91.9654 59.159C92.0496 59.7128 92.4362 60.1616 92.9738 60.3324C93.5045 60.4951 94.0779 60.3497 94.461 59.9459L95.031 59.3436C99.3068 54.8347 104.896 52.7026 112.027 52.8537C116.557 52.9391 120.32 55.8027 121.184 59.8121C122.369 65.3443 120.37 70.1428 116.091 72.0419C114.043 72.9465 111.658 73.6399 108.799 74.1498C106.029 74.6448 100.544 75.0071 100.486 75.0117L99.5122 75.0763L99.9217 84.4183L100.907 84.3837C100.956 84.3825 105.83 84.2245 109.909 84.2233H109.916C111.757 84.2233 117.655 84.6271 120.663 86.427C123.323 88.0238 125.234 90.6244 125.769 93.3899C126.581 97.5493 127.289 107.483 116.457 109.851C107.088 111.895 99.4579 109.837 93.7757 103.724C93.2899 103.202 92.7996 102.679 92.2285 102.075L91.6308 101.439C91.2709 101.059 90.7424 100.927 90.2463 101.088C89.7513 101.249 89.4029 101.669 89.3395 102.186L89.0579 104.471C88.7845 106.714 88.5318 108.827 88.1949 110.904C87.9076 112.704 88.5099 113.868 90.2175 114.805C96.5424 118.259 103.503 120 110.96 120C112.386 120 113.828 119.939 115.289 119.811C121.288 119.29 126.791 117.097 131.2 113.475C137.628 108.203 140.546 101.801 139.867 94.4606C139.094 86.0843 134.341 80.3121 125.73 77.3088Z" fill="#191646"/>
<path d="M339.976 86.4275C339.983 84.8688 339.987 83.3181 339.987 81.779C339.986 80.3438 339.98 78.9027 339.975 77.4594C339.931 67.0674 339.886 56.3271 341.74 46.2351L341.958 45.0594H324.435L324.658 46.2397C325.248 49.3676 325.757 52.695 326.171 56.1321C326.297 57.1889 326.161 57.7208 325.602 58.3138C320.035 64.2742 314.588 70.3383 309.32 76.2041C304.512 81.5598 299.543 87.0886 294.49 92.5321C294.605 87.9401 294.512 83.3562 294.423 78.8992C294.198 67.6582 293.985 57.0378 296.763 46.354L297.088 45.1021H279.128L279.525 46.3909C281.202 51.8505 281.209 57.2212 281.214 62.9035L281.23 68.3689C281.262 77.9185 281.296 87.7924 281.203 97.499C281.189 98.9608 281.227 100.436 281.266 101.868C281.335 104.546 281.405 107.319 281.127 110C280.961 111.616 280.588 113.205 280.191 114.891C280.011 115.664 279.83 116.439 279.666 117.227L279.416 118.425H296.699L296.517 117.273C296.144 114.893 295.889 112.52 295.645 110.222C295.503 108.883 295.361 107.552 295.196 106.217C295.129 105.673 295.382 104.842 295.726 104.47C300.658 99.1258 305.521 93.7147 310.223 88.4789C315.554 82.5405 321.066 76.4048 326.683 70.3683C326.686 70.9833 326.686 71.5936 326.688 72.1924C326.695 75.033 326.703 77.7293 326.672 80.4234C326.634 83.6735 326.674 86.9709 326.712 90.1611C326.769 95.0657 326.829 100.139 326.611 105.109C326.488 107.863 326.022 110.558 325.531 113.413C325.308 114.697 325.088 115.981 324.898 117.273L324.731 118.417H341.964L341.738 117.235C339.905 107.552 339.942 96.8148 339.976 86.4275Z" fill="#191646"/>
<path d="M384.209 54.8274C384.209 54.6878 384.225 54.4629 384.247 54.2148L406.381 57.0634L404.964 44.9316H349.627L348.402 57.0588L372.1 54.2033V55.4932C372.1 64.6656 372.084 98.8249 372.082 100.493L369.797 118.408H386.576L384.479 100.809C384.477 100.504 384.263 69.9775 384.209 54.8274Z" fill="#191646"/>
</g>
<defs>
<clipPath id="clip0_8_1330">
<rect width="404" height="119" fill="white" transform="translate(1 1)"/>
</clipPath>
</defs>
</svg>
