<svg width="661" height="119" viewBox="0 0 661 119" fill="none" xmlns="http://www.w3.org/2000/svg">
<path fill-rule="evenodd" clip-rule="evenodd" d="M52.6536 1.44523C30.3491 4.04223 10.4581 20.2397 3.85507 41.1827C0.0535674 53.2407 0.048068 65.9202 3.84007 77.2567C9.63957 94.5952 22.7261 108.164 39.6371 114.374C49.1471 117.867 60.6346 118.669 71.0106 116.567C90.3951 112.638 106.883 98.8552 113.98 80.6457C116.579 73.9792 117.523 69.4062 117.858 61.8552C119.185 31.9762 97.1301 5.58973 67.5106 1.61923C61.7576 0.847728 58.1491 0.805728 52.6536 1.44523ZM67.1646 3.43623C81.0061 5.51773 92.8966 11.9452 102.208 22.3802C107.748 28.5902 112.145 36.8777 114.344 45.2572C116.082 51.8762 116.495 62.1552 115.285 68.6457C112.946 81.1932 107.534 91.4337 98.6876 100.053C76.7236 121.453 41.1791 121.042 19.2716 99.1347C8.58007 88.4437 3.01057 74.9182 3.01057 59.6457C3.01057 44.1332 8.72407 30.2167 19.5276 19.4127C28.3716 10.5692 38.9916 5.35773 52.5106 3.22873C55.2141 2.80323 63.7571 2.92423 67.1646 3.43623ZM51.7356 17.0997C46.5851 18.0742 42.6956 19.2882 39.4116 20.9457C37.8161 21.7512 36.5106 22.4797 36.5106 22.5647C36.5106 22.6497 38.0526 22.2022 39.9366 21.5702C49.1821 18.4697 63.0631 18.0572 71.7606 20.6247C76.2291 21.9437 81.0496 24.2622 81.3791 25.2507C81.4741 25.5367 79.3686 25.2277 76.6556 24.5577C70.4136 23.0167 60.6221 22.5092 53.7141 23.3692C47.6206 24.1272 37.1016 26.7717 31.8091 28.8752C27.4346 30.6142 26.2611 31.3157 25.2056 32.8227C24.5621 33.7417 24.7996 33.7022 27.6261 32.4217C41.8206 25.9912 63.1911 24.0872 77.6356 27.9647C79.7666 28.5372 81.5106 29.1042 81.5106 29.2252C81.5106 29.8537 79.9526 32.3317 79.4531 32.4982C79.1351 32.6042 76.8241 32.3817 74.3176 32.0037C67.4046 30.9607 52.8151 30.9922 47.0106 32.0627C35.6241 34.1622 19.8486 41.2727 18.5946 44.8702L18.0861 46.3282L21.6736 44.1537C31.1761 38.3927 42.1011 35.1632 55.5106 34.1517C59.5011 33.8507 71.5626 34.5672 73.7546 35.2357C75.2891 35.7032 71.6671 36.6332 60.5106 38.6367C38.2346 42.6362 26.2816 46.7457 20.2036 52.4937C15.9931 56.4757 14.9711 60.8037 17.4861 64.0012C18.1301 64.8197 18.2891 65.4392 17.9806 65.9267C17.7306 66.3222 17.5226 67.6012 17.5181 68.7692C17.5121 70.5262 17.8341 71.2512 19.3856 72.9687C20.9876 74.7422 21.2616 75.3867 21.2671 77.3917C21.2761 80.4297 23.0846 83.2242 26.4571 85.4092C28.2776 86.5892 29.0531 87.4512 29.2986 88.5682C29.7181 90.4792 33.8436 94.5452 37.6851 96.8342C47.9271 102.937 63.1736 104.188 74.7101 99.8717C76.2886 99.2812 77.4921 98.7107 77.3851 98.6037C77.2786 98.4967 75.4066 98.7657 73.2256 99.2017C67.6921 100.307 56.7636 100.331 52.3901 99.2472C46.2641 97.7292 37.3581 93.2662 34.7871 90.4252C33.5841 89.0957 34.0106 89.1272 36.9021 90.5827C40.0981 92.1907 46.2031 94.1912 51.1646 95.2562C56.7976 96.4652 68.6616 96.4357 74.5106 95.1982C80.5481 93.9212 89.2776 91.0317 90.0801 90.0447C90.6831 89.3037 90.6466 89.2527 89.7606 89.5957C89.2106 89.8092 86.3981 90.5277 83.5106 91.1932C66.6441 95.0792 51.4161 93.6122 36.3856 86.6532C33.4631 85.3002 32.9316 84.4987 34.2386 83.4137C34.8201 82.9312 35.6506 83.0837 38.3636 84.1712C46.9211 87.6012 54.3686 88.8887 65.6821 88.8927C71.6746 88.8952 74.8126 88.6492 78.5686 87.8837C86.7541 86.2157 96.1746 82.9927 96.6746 81.6892C96.8331 81.2767 95.5716 81.4652 92.8356 82.2637C74.9281 87.4892 59.0291 87.6217 44.4346 82.6677C41.6436 81.7202 39.1581 80.7432 38.9111 80.4962C38.6461 80.2312 39.5701 79.6992 41.1676 79.1967C43.7751 78.3767 44.0161 78.3837 47.8166 79.3852C53.7111 80.9382 63.9871 82.0322 69.0106 81.6417C79.8851 80.7957 94.8916 76.5407 100.114 72.8227C102.769 70.9317 101.493 70.9882 96.6356 72.9757C86.1656 77.2602 75.3121 79.2252 65.0106 78.7012C59.5506 78.4237 52.8761 77.4277 52.2451 76.7972C52.1291 76.6807 54.5601 76.1882 57.6471 75.7022C67.1321 74.2092 80.0421 71.5297 84.5106 70.1272C98.9501 65.5947 106.235 57.3982 101.171 51.3802C100.198 50.2242 100.014 49.6922 100.441 49.2657C101.219 48.4877 101.158 45.7062 100.32 43.7547C99.9406 42.8697 98.8156 41.3702 97.8201 40.4227C96.7926 39.4442 96.0106 38.2157 96.0106 37.5802C96.0106 34.8117 93.7186 31.9372 89.3851 29.2707C88.0641 28.4582 86.6576 27.1637 86.2601 26.3947C84.6281 23.2387 78.3931 19.3277 72.2431 17.6022C68.2596 16.4847 56.5091 16.1967 51.7356 17.0997ZM150.511 39.3957V62.3957H155.761H161.011V53.1127V43.8292L162.356 43.9877C163.636 44.1382 163.845 44.5917 166.622 53.2707L169.542 62.3957H175.58C181.122 62.3957 181.591 62.3237 181.291 61.5207C181.111 61.0392 179.038 55.6367 176.685 49.5147L172.407 38.3837L176.175 28.2647C178.248 22.6992 180.095 17.7522 180.281 17.2707C180.59 16.4687 180.141 16.3957 174.917 16.3957H169.216L166.238 24.6457C163.589 31.9852 163.137 32.8957 162.136 32.8957C161.015 32.8957 161.011 32.8682 161.011 24.6457V16.3957H155.761H150.511V39.3957ZM185.511 39.3957V62.3957H190.761H196.011V54.9932V47.5907L200.263 47.0642C205.722 46.3877 208.589 44.7307 210.864 40.9362C215.809 32.6907 213.063 21.2027 205.281 17.5792C202.945 16.4912 202.131 16.4052 194.136 16.4007L185.511 16.3957V39.3957ZM217.011 39.3957V62.3957H229.011H241.011V56.6457V50.8957H234.236H227.461L227.611 48.0207L227.761 45.1457L232.386 45.0017L237.011 44.8582V39.3957V33.9332L232.386 33.7897L227.761 33.6457L227.611 30.7707L227.461 27.8957H234.236H241.011V22.1457V16.3957H229.011H217.011V39.3957ZM253.8 24.2707C253.043 42.2667 252.076 50.2357 250.402 52.2707C250.12 52.6147 249.011 52.8957 247.939 52.8957H245.99L246.125 62.7707L246.261 72.6457L250.886 72.7897L255.511 72.9332V67.9147V62.8957H264.511H273.511V67.8957V72.8957H278.261H283.011V62.8957V52.8957H281.011H279.011V34.6457V16.3957H266.571H254.132L253.8 24.2707ZM289.011 39.3957V62.3957H294.262H299.513L305.632 50.1457C308.998 43.4082 311.922 37.8957 312.131 37.8957C312.34 37.8957 312.511 43.4082 312.511 50.1457V62.3957H317.761H323.011V39.3787V16.3617L317.666 16.5037L312.322 16.6457L305.927 29.1457L299.532 41.6457L299.521 29.0207L299.511 16.3957H294.261H289.011V39.3957ZM328.011 22.1457V27.8957H333.261H338.511V45.1457V62.3957H344.011H349.511V45.1632V27.9307L354.636 27.7882L359.761 27.6457L359.902 22.0207L360.044 16.3957H344.027H328.011V22.1457ZM379.74 19.7707C387.518 42.2107 390.011 49.7212 390.011 50.7152C390.011 52.1332 388.577 52.2902 385.888 51.1667L384.143 50.4377L383.811 53.2917C383.627 54.8612 383.344 56.9867 383.181 58.0147C382.887 59.8697 382.904 59.8927 385.573 61.1347C388.598 62.5427 390.786 62.7117 393.16 61.7202C395.121 60.9007 397.731 58.0232 398.8 55.5022C399.687 53.4072 411.011 17.5717 411.011 16.8572C411.011 16.6032 408.91 16.3957 406.342 16.3957H401.673L398.78 26.2707C397.188 31.7017 395.771 36.3432 395.63 36.5842C395.489 36.8252 394.86 35.3627 394.232 33.3342C393.604 31.3057 392.162 26.6642 391.029 23.0207L388.968 16.3957H383.769H378.57L379.74 19.7707ZM414.511 39.3957V62.3957H419.761H425.011V54.9677V47.5392L428.636 47.2082C433.336 46.7787 437.067 44.9967 439.089 42.2162C441.648 38.6947 442.172 37.0107 442.218 32.1457C442.255 28.2087 442.085 27.2707 440.857 24.6457C439.088 20.8637 437.424 19.0827 434.261 17.5872C431.935 16.4877 431.159 16.4052 423.136 16.4007L414.511 16.3957V39.3957ZM445.301 38.7572C442.853 51.0712 440.75 61.4272 440.627 61.7707C440.457 62.2462 441.718 62.3957 445.902 62.3957H451.399L451.68 60.7707C451.834 59.8772 452.11 58.0772 452.292 56.7707L452.624 54.3957H456.568C459.916 54.3957 460.511 54.5217 460.511 55.2297C460.511 55.6887 460.759 57.4887 461.062 59.2297L461.613 62.3957H466.812C471.442 62.3957 472.007 62.3002 471.978 61.5207C471.961 61.0392 469.983 50.7457 467.584 38.6457L463.223 16.6457L456.487 16.5072L449.752 16.3692L445.301 38.7572ZM483.3 17.5207C483.174 18.1392 482.946 23.9332 482.794 30.3957C482.384 47.8567 481.449 51.4122 477.056 52.2037C476.069 52.3817 475.128 52.6012 474.966 52.6912C474.691 52.8447 475.103 56.9372 475.785 60.8357L476.08 62.5252L478.833 62.2017C485.851 61.3767 489.558 56.8507 490.961 47.3927C491.482 43.8822 492.497 31.3232 492.506 28.2707C492.511 26.9022 492.527 26.8957 496.011 26.8957H499.511V44.6457V62.3957H504.261H509.011V39.3957V16.3957H496.27H483.53L483.3 17.5207ZM528.011 39.4387V62.4817L536.136 62.3092C543.326 62.1562 544.548 62.0047 546.761 60.9907C552.155 58.5177 554.641 54.3247 554.673 47.6457C554.713 38.9837 550.448 34.4082 541.562 33.5822L538.011 33.2522V30.3237V27.3957H545.261H552.511V21.8957V16.3957H540.261H528.011V39.4387ZM565.359 20.7572C564.891 23.1707 562.858 33.5267 560.841 43.7707L557.175 62.3957H562.536H567.897L568.229 60.0207C568.412 58.7142 568.689 56.9057 568.845 56.0007L569.13 54.3557L572.933 54.5007L576.736 54.6457L577.105 56.8957C577.308 58.1332 577.605 59.8772 577.765 60.7707L578.056 62.3957H583.283C587.937 62.3957 588.508 62.2997 588.489 61.5207C588.478 61.0392 586.506 50.7457 584.107 38.6457L579.746 16.6457L572.978 16.5072L566.21 16.3687L565.359 20.7572ZM593.511 39.3957V62.3957H598.761H604.011V53.1457V43.8957H607.761H611.511V53.1457V62.3957H616.761H622.011V39.3957V16.3957H616.761H611.511V24.6457V32.8957H607.761H604.011V24.6457V16.3957H598.761H593.511V39.3957ZM629.011 39.3957V62.3957H634.261H639.511V53.1457V43.8957H640.739C641.889 43.8957 642.154 44.4727 644.942 53.0207L647.919 62.1457L654.012 62.2867C657.408 62.3647 660.029 62.2312 659.933 61.9847C659.838 61.7412 657.758 56.3337 655.31 49.9682L650.86 38.3947L653.66 30.7702C655.2 26.5767 657.032 21.6272 657.731 19.7707L659.002 16.3957H653.323H647.643L644.694 24.5207C642.173 31.4682 641.584 32.6687 640.628 32.8057L639.511 32.9652V24.6807V16.3957H634.261H629.011V39.3957ZM201.283 27.6232C202.265 28.6047 202.511 29.3597 202.511 31.3977C202.511 32.7992 202.167 34.6092 201.748 35.4207C201.058 36.7542 200.746 36.8957 198.498 36.8957H196.011V31.6457V26.3957H198.033C199.514 26.3957 200.385 26.7242 201.283 27.6232ZM430.245 27.4727C431.538 28.4897 431.604 28.7392 431.425 31.9117C431.185 36.1587 430.597 36.8957 427.45 36.8957H425.011V31.6457V26.3957H426.943C428.165 26.3957 429.38 26.7922 430.245 27.4727ZM268.894 40.5207L269.028 52.8957H265.269C261.234 52.8957 261.028 52.7292 261.98 50.2252C262.532 48.7757 263.322 41.4697 263.791 33.4957L264.123 27.8457L266.442 27.9957L268.761 28.1457L268.894 40.5207ZM573.783 36.2162C574.176 38.9272 574.624 41.8772 574.777 42.7707C575.054 44.3822 575.039 44.3957 573.033 44.3957C571.921 44.3957 571.006 44.2267 570.999 44.0207C570.968 42.9912 572.726 30.9447 572.885 31.1032C572.986 31.2042 573.39 33.5047 573.783 36.2162ZM88.7431 32.9477C90.4956 34.4862 91.1751 36.2577 89.8126 35.7347C89.4286 35.5877 88.1351 35.1852 86.9376 34.8412C85.7401 34.4972 84.6821 34.1587 84.5866 34.0897C84.3271 33.9027 86.2031 31.4297 86.6181 31.4112C86.8151 31.4027 87.7711 32.0942 88.7431 32.9477ZM457.69 37.8957C458.148 41.0582 458.52 43.8147 458.517 44.0207C458.513 44.2267 457.582 44.3957 456.447 44.3957H454.383L454.677 42.5207C454.839 41.4897 455.246 38.5607 455.582 36.0117C455.918 33.4632 456.343 31.5507 456.526 31.7617C456.708 31.9732 457.233 34.7332 457.69 37.8957ZM85.6591 38.1952C87.8051 38.9097 89.4791 39.7397 89.3791 40.0397C89.2791 40.3397 88.6051 41.0272 87.8816 41.5677C86.5691 42.5472 86.5526 42.5467 82.4131 41.4277C75.8506 39.6532 75.9931 39.7777 78.8061 38.2667C80.1561 37.5412 81.3721 36.9362 81.5091 36.9217C81.6456 36.9072 83.5131 37.4807 85.6591 38.1952ZM96.5106 45.3677C96.5106 46.8177 95.9656 46.8997 93.9701 45.7512L92.0541 44.6487L93.4076 43.5412L94.7606 42.4332L95.6356 43.4702C96.1171 44.0402 96.5106 44.8942 96.5106 45.3677ZM77.7606 44.0642C79.2756 44.4912 79.9651 44.8842 79.5106 45.0612C77.7366 45.7522 71.9071 46.9992 59.2606 49.3922C45.1261 52.0672 39.9141 53.2452 34.5106 54.9882C30.5216 56.2747 24.7606 59.1082 22.8096 60.7432C21.1806 62.1082 20.5316 61.6962 20.5181 59.2882C20.4846 53.3197 36.5486 47.4147 64.2606 43.2077C66.8886 42.8087 75.1711 43.3342 77.7606 44.0642ZM543.283 44.1232C544.137 44.9772 544.511 45.9042 544.511 47.1722C544.511 50.8422 542.347 53.3957 539.237 53.3957C538.013 53.3957 538.011 53.3857 538.011 48.1457V42.8957H540.033C541.514 42.8957 542.385 43.2242 543.283 44.1232ZM90.7471 48.4952C91.9921 49.1002 93.0106 49.7567 93.0106 49.9547C93.0106 50.6817 89.6126 52.3807 85.2061 53.8567C79.0526 55.9187 69.8061 57.9967 57.2606 60.1382C45.3711 62.1682 36.7841 64.2682 32.4836 66.1982C29.4256 67.5702 28.1121 67.5517 26.2606 66.1097C25.2696 65.3377 25.2721 65.3217 26.5056 64.3107C31.0656 60.5757 39.3241 58.1802 62.3136 53.9247C71.3811 52.2462 77.7521 50.7767 81.5636 49.4842C84.6971 48.4217 87.5356 47.5172 87.8721 47.4742C88.2086 47.4312 89.5026 47.8907 90.7471 48.4952ZM97.5106 55.3782C97.5106 57.5107 94.9661 60.1537 90.9811 62.1607C85.0876 65.1287 76.8786 67.2127 57.5106 70.6587C53.5231 71.3682 48.5196 72.3912 46.3921 72.9312L42.5231 73.9137L39.3921 72.6082C37.6696 71.8902 36.0716 71.1237 35.8411 70.9047C34.8316 69.9467 43.9721 67.7177 60.5106 64.8897C70.1666 63.2382 82.7936 60.2272 87.5211 58.4482C89.0396 57.8767 91.5146 56.6417 93.0211 55.7032C96.5586 53.5002 97.5106 53.4317 97.5106 55.3782ZM24.0976 69.6907C25.5041 70.4182 25.5671 70.5537 24.8381 71.2822C24.1096 72.0112 23.9551 72.0007 23.0261 71.1597C22.0956 70.3177 21.6301 68.8957 22.2856 68.8957C22.4366 68.8957 23.2521 69.2532 24.0976 69.6907ZM33.7481 74.5207C35.2666 75.1397 36.5096 75.7727 36.5101 75.9282C36.5101 76.0832 35.7386 76.5787 34.7956 77.0282C33.1281 77.8237 33.0101 77.8082 30.5571 76.4667C28.1876 75.1707 28.0851 75.0352 28.8796 74.2412C29.9751 73.1457 30.4391 73.1722 33.7481 74.5207ZM28.2371 79.4762C29.5541 80.0762 29.7836 80.6912 29.0951 81.7762C28.7956 82.2482 28.4396 82.1227 27.6771 81.2762C25.5501 78.9137 25.7306 78.3342 28.2371 79.4762ZM248.192 82.0077C247.201 83.6107 239.661 101.699 239.85 102.021C239.971 102.227 240.697 102.396 241.464 102.396C242.627 102.396 242.99 102.063 243.645 100.396L244.43 98.3957H248.895H253.359L254.145 100.396C254.824 102.126 255.138 102.396 256.471 102.396C257.443 102.396 258.011 102.143 258.011 101.709C258.011 100.391 249.938 81.9747 249.243 81.7082C248.858 81.5602 248.385 81.6952 248.192 82.0077ZM304.326 81.7902C303.363 83.3482 295.677 101.895 295.901 102.12C296.053 102.271 296.781 102.396 297.518 102.396C298.618 102.396 299 102.037 299.645 100.396L300.43 98.3957H304.895H309.359L310.145 100.396C310.82 102.114 311.143 102.396 312.441 102.396C313.272 102.396 314.052 102.227 314.174 102.021C314.506 101.461 305.854 81.7457 305.182 81.5292C304.863 81.4267 304.478 81.5442 304.326 81.7902ZM321.095 81.8927C319.403 82.2922 316.511 84.6427 316.511 85.6192C316.511 85.9137 316.973 86.4437 317.538 86.7967C318.431 87.3547 318.763 87.2722 320.077 86.1672C321.703 84.7982 324.377 84.4617 325.411 85.4957C325.741 85.8257 326.011 86.6807 326.011 87.3957C326.011 89.2387 325.13 89.8957 322.661 89.8957C320.627 89.8957 320.511 89.9732 320.511 91.3312C320.511 92.6847 320.66 92.7867 323.123 93.1132C326.339 93.5402 327.011 94.0642 327.011 96.1457C327.011 98.1817 326.105 98.9517 323.342 99.2632C321.447 99.4767 320.949 99.3107 319.401 97.9517C317.403 96.1972 316.898 96.0767 316.013 97.1432C315.513 97.7457 315.551 98.1327 316.209 99.1367C318.565 102.732 325.611 103.526 328.604 100.534C330.809 98.3287 331.153 94.7357 329.363 92.6082C328.226 91.2572 328.172 90.9997 328.791 89.8812C330.028 87.6467 329.689 85.4742 327.811 83.5957C326.876 82.6607 325.657 81.8957 325.102 81.8957C324.547 81.8957 323.793 81.8067 323.427 81.6977C323.06 81.5892 322.011 81.6767 321.095 81.8927ZM379.748 81.6922C379.48 81.7592 378.412 81.9557 377.375 82.1292C375.236 82.4877 372.356 84.7852 371.151 87.0947C367.363 94.3572 372.199 102.351 380.402 102.385C383.892 102.399 385.933 101.48 388.145 98.8957C393.549 92.5822 390.24 83.4322 381.998 81.8992C381.028 81.7187 380.016 81.6257 379.748 81.6922ZM394.011 91.8957V102.396H395.501C397.331 102.396 397.468 101.928 397.637 95.1517L397.761 90.1582L400.232 93.5267C401.591 95.3797 402.976 96.8957 403.31 96.8957C403.643 96.8957 405.119 95.2727 406.588 93.2892L409.261 89.6822L409.401 96.0697L409.541 102.457L411.151 102.301L412.761 102.146L412.896 92.0782C413.067 79.3237 413.034 79.2922 407.43 86.9147L403.386 92.4162L400.213 88.0307C396.339 82.6767 395.245 81.3957 394.549 81.3957C394.182 81.3957 394.011 84.7367 394.011 91.8957ZM440.652 82.0427C439.663 83.5672 432.121 101.669 432.332 102.011C432.463 102.222 433.114 102.396 433.78 102.396C434.689 102.396 435.245 101.897 436.011 100.396L437.031 98.3957L441.396 98.4007L445.761 98.4057L446.599 100.401C447.318 102.113 447.654 102.396 448.974 102.396C449.841 102.396 450.511 102.133 450.511 101.792C450.511 100.594 442.322 81.9302 441.69 81.6877C441.334 81.5512 440.867 81.7107 440.652 82.0427ZM499.051 82.5207C498.812 83.1397 496.905 87.6702 494.813 92.5887C492.722 97.5077 491.011 101.726 491.011 101.964C491.011 102.201 491.688 102.396 492.515 102.396C493.803 102.396 494.134 102.108 494.819 100.396L495.619 98.3957H500.024H504.428L505.345 100.271C506.085 101.786 506.572 102.176 507.886 102.302C508.779 102.389 509.511 102.24 509.511 101.971C509.511 101.263 501.557 82.8042 500.923 82.0402C500.14 81.0962 499.543 81.2492 499.051 82.5207ZM150.011 92.1302V102.396H151.457C152.315 102.396 153.027 102.074 153.207 101.605C153.374 101.17 153.511 97.2322 153.511 92.8547V84.8957H158.044H162.577L162.419 83.5207L162.261 82.1457L156.136 82.0052L150.011 81.8647V92.1302ZM164.753 83.0207C164.601 83.6397 164.54 88.1957 164.618 93.1457L164.761 102.146L166.386 102.302L168.011 102.459V98.4272V94.3957L170.636 94.3847C172.112 94.3787 174.164 93.9637 175.325 93.4367C176.993 92.6787 177.557 92.0587 178.267 90.1977C179.048 88.1537 179.068 87.6862 178.446 86.0207C177.387 83.1842 174.487 81.8957 169.164 81.8957C165.292 81.8957 165.012 81.9672 164.753 83.0207ZM179.511 82.4792C179.511 82.8002 181.224 86.3347 183.317 90.3342C187.458 98.2442 187.546 98.9412 184.459 99.3957C183.048 99.6037 182.761 99.8567 182.761 100.896C182.761 101.984 183.009 102.166 184.674 102.303C187.914 102.57 188.736 101.594 193.313 92.0522C195.622 87.2382 197.511 82.9837 197.511 82.5977C197.511 82.1632 196.981 81.8957 196.12 81.8957C194.835 81.8957 194.527 82.3322 192.054 87.6457C190.582 90.8082 189.235 93.3957 189.059 93.3957C188.884 93.3957 187.453 90.8082 185.878 87.6457C183.043 81.9502 183 81.8957 181.263 81.8957C180.261 81.8957 179.511 82.1457 179.511 82.4792ZM200.511 92.1457V102.396H201.999H203.487L203.624 93.7707L203.761 85.1457L208.374 85.0022L212.987 84.8587L213.124 93.5022L213.261 102.146L214.886 102.302L216.511 102.459V92.1772V81.8957H208.511H200.511V92.1457ZM221.011 92.1457V102.396H222.499H223.987L224.124 93.7707L224.261 85.1457L228.874 85.0022L233.487 84.8587L233.624 93.5022L233.761 102.146L235.386 102.302L237.011 102.459V92.1772V81.8957H229.011H221.011V92.1457ZM285.511 92.1622V102.459L287.136 102.302L288.761 102.146L288.898 93.5207L289.034 84.8957H293.556H298.077L297.919 83.5207L297.761 82.1457L291.636 82.0052L285.511 81.8647V92.1622ZM333.739 82.5232C333.601 82.8827 333.549 87.4447 333.624 92.6612L333.761 102.146L335.374 102.302L336.987 102.457L337.124 93.8017L337.261 85.1457L341.874 85.0022L346.487 84.8587L346.624 93.5022L346.761 102.146H348.261H349.761V92.1457V82.1457L341.875 82.0077C335.747 81.9007 333.933 82.0157 333.739 82.5232ZM354.234 82.5362C354.098 82.8882 354.049 87.4447 354.124 92.6612L354.261 102.146L355.886 102.302L357.511 102.459V98.4272V94.3957H360.027C364.997 94.3957 368.011 92.0047 368.011 88.0607C368.011 85.2647 366.972 83.6892 364.471 82.6882C361.978 81.6907 354.6 81.5812 354.234 82.5362ZM417.234 82.5362C417.098 82.8882 417.049 87.4447 417.124 92.6612L417.261 102.146L421.011 102.303C427.635 102.582 430.464 100.929 430.882 96.5372C431.067 94.5912 430.898 93.8782 429.976 92.7102C428.504 90.8457 426.159 89.8957 423.027 89.8957H420.511V87.3957V84.8957H425.011H429.511V83.3957V81.8957H423.495C419.067 81.8957 417.415 82.0647 417.234 82.5362ZM453.234 82.5362C453.098 82.8882 453.049 87.4447 453.124 92.6612L453.261 102.146L454.886 102.302L456.511 102.459V97.6592V92.8597L461.386 93.0027L466.261 93.1457L466.405 97.7707L466.548 102.396H468.03H469.511V92.1457V81.8957H468.011H466.511V85.8957V89.8957H461.511H456.511V85.8957V81.8957H454.995C454.161 81.8957 453.369 82.1837 453.234 82.5362ZM474.125 91.9882L474.261 102.146H475.761H477.261L477.511 97.5177L477.761 92.8897L482.17 97.6427C486.089 101.866 486.771 102.396 488.295 102.396C489.239 102.396 490.011 102.198 490.011 101.957C490.011 101.715 488.505 99.8587 486.665 97.8317C484.825 95.8042 482.754 93.5222 482.062 92.7602L480.804 91.3747L484.907 87.2497C487.164 84.9812 489.011 82.8482 489.011 82.5102C489.011 82.1492 488.335 81.8957 487.374 81.8957C485.992 81.8957 485.117 82.5207 481.749 85.9117L477.761 89.9277L477.511 86.0367L477.261 82.1457L475.625 81.9882L473.99 81.8307L474.125 91.9882ZM173.345 85.2002C173.941 85.3602 174.699 86.1432 175.029 86.9402C175.529 88.1457 175.491 88.6007 174.809 89.6427C174.084 90.7487 173.637 90.8957 170.999 90.8957H168.011V88.2292C168.011 86.7622 168.161 85.4122 168.344 85.2292C168.752 84.8207 171.864 84.8027 173.345 85.2002ZM363.518 85.8007C364.757 86.8042 365.001 88.9522 364.012 90.1442C363.587 90.6567 362.454 90.8957 360.45 90.8957H357.511V88.2292C357.511 86.7622 357.661 85.4122 357.844 85.2292C358.551 84.5217 362.42 84.9117 363.518 85.8007ZM385.045 86.6787C388.864 90.3367 387.876 96.7497 383.193 98.7062C378.056 100.853 373.347 97.5412 373.327 91.7687C373.321 90.1642 373.646 88.9457 374.325 88.0187C376.835 84.5952 382.174 83.9277 385.045 86.6787ZM251.551 94.2707C251.972 95.3602 251.892 95.3957 248.998 95.3957C247.355 95.3957 246.009 95.2267 246.007 95.0207C246.005 94.8147 246.624 93.1192 247.382 91.2532L248.761 87.8607L249.938 90.5032C250.586 91.9567 251.312 93.6517 251.551 94.2707ZM306.578 91.8082L307.903 95.1457L305.15 95.2972C303.636 95.3807 302.305 95.3567 302.192 95.2437C302.079 95.1307 302.605 93.4442 303.361 91.4957C304.116 89.5472 304.851 88.0692 304.993 88.2117C305.136 88.3542 305.849 89.9727 306.578 91.8082ZM502.764 94.4052C503.051 95.3117 502.842 95.3957 500.294 95.3957C497.161 95.3957 497.028 95.1722 498.32 92.0817C498.765 91.0167 499.346 89.5832 499.611 88.8957C500.067 87.7087 500.151 87.7912 501.271 90.5302C501.919 92.1167 502.591 93.8607 502.764 94.4052ZM443.182 92.2707L444.441 95.3957H441.422C438.519 95.3957 438.413 95.3512 438.692 94.2427C439.279 91.9012 441.117 88.3027 441.514 88.7177C441.739 88.9532 442.49 90.5522 443.182 92.2707ZM426.399 93.6742C427.187 94.2257 427.511 94.9607 427.511 96.1997C427.511 97.7207 427.286 98.0407 425.777 98.6712C424.823 99.0697 423.248 99.3957 422.277 99.3957H420.511V96.1457V92.8957H422.899C424.252 92.8957 425.77 93.2332 426.399 93.6742Z" fill="#2058B0"/>
</svg>
