<svg width="559" height="42" viewBox="0 0 559 42" fill="none" xmlns="http://www.w3.org/2000/svg">
<path d="M33.5845 2.99743V39.1536H24.6725V25.6645H9.912V39.2926H1V3.13649H9.912V17.5989H24.6725V3.13649H33.5845V2.99743ZM136.908 39.1536H127.996V21.0755L119.92 33.452H114.907L106.83 20.9364V39.1536H97.918V2.99743H104.602L117.274 22.3271L130.085 2.99743H136.769V39.1536H136.908V39.1536ZM65.7513 1.46774C62.4413 1.39376 59.1489 1.97198 56.0628 3.16931C52.9765 4.36635 50.1566 6.15887 47.7643 8.44477C45.372 10.7307 43.454 13.4646 42.12 16.4909C40.7862 19.5172 40.0624 22.7759 39.99 26.0817C39.9571 30.7295 41.3148 35.2812 43.889 39.1536H56.2823C54.113 37.5582 52.3902 35.4337 51.279 32.9831C50.1675 30.5326 49.7046 27.8381 49.935 25.1575C50.165 22.4772 51.0804 19.9007 52.5932 17.6749C54.1063 15.4488 56.1661 13.6482 58.5757 12.445C60.985 11.2419 63.6633 10.6767 66.3545 10.8035C69.0454 10.9304 71.6585 11.745 73.9439 13.1693C76.229 14.5938 78.11 16.5802 79.4061 18.9384C80.7025 21.2966 81.3709 23.948 81.3473 26.638C81.3659 29.0699 80.8081 31.4718 79.7189 33.647C78.6297 35.8225 77.0405 37.7093 75.081 39.1536H87.6135C90.1272 35.2532 91.4794 30.72 91.5125 26.0817C91.4585 22.7704 90.7472 19.503 89.4196 16.4681C88.092 13.4335 86.1745 10.692 83.7786 8.40277C81.3823 6.11325 78.5553 4.32158 75.4609 3.13121C72.3665 1.94056 69.066 1.37541 65.7513 1.46774V1.46774Z" fill="#C8102E"/>
<path d="M57.3964 30.2536C57.9639 32.0353 59.0738 33.5956 60.5713 34.7172C62.069 35.8392 63.8798 36.4661 65.7514 36.5114C67.6176 36.4461 69.4189 35.8114 70.9128 34.6925C72.4064 33.5736 73.5212 32.0244 74.1064 30.2536H57.3964ZM153.34 10.924V17.4599H169.353V25.1083H153.34V31.3661H171.581V39.0145H144.149V2.85839H171.581V10.6459H153.34V10.924V10.924ZM439.081 29.2802C439.081 35.2599 434.207 39.2927 426.13 39.2927H407.889V3.13651H425.156C433.093 3.13651 437.549 6.89119 437.549 12.7318C437.605 14.4025 437.156 16.0512 436.262 17.4646C435.368 18.8781 434.07 19.9906 432.536 20.6583C434.444 21.1428 436.129 22.2595 437.318 23.8259C438.507 25.3923 439.128 27.3152 439.081 29.2802ZM416.801 10.5068V18.0162H423.485C426.966 18.0162 428.776 16.3474 428.776 14.1224C428.776 11.8974 426.827 10.6459 423.485 10.6459H416.801V10.5068ZM430.308 28.1677C430.308 25.9427 428.358 24.6911 425.156 24.6911H416.94V31.9224H425.016C428.637 31.9224 430.308 30.3927 430.308 28.1677V28.1677ZM466.791 33.1739H451.474L449.107 39.4317H439.498L454.816 3.27557H463.449L478.767 39.4317H469.159C469.019 39.1536 466.791 33.0349 466.791 33.0349V33.1739V33.1739ZM463.867 25.6646L459.133 13.4271L454.259 25.6646H463.867ZM515.111 3.13651V39.2927H508.149L490.742 19.5458V39.2927H481.83V3.13651H488.793L506.199 23.4396V3.13651H515.111ZM536.973 25.9427L531.682 32.0614V39.4317H522.77V3.27557H531.682V19.824L546.164 3.27557H556.886L543.1 19.1287L558 39.2927H546.86L536.973 25.8036V25.9427ZM256.245 39.2927L249.283 28.863H242.599V39.2927H233.548V3.13651H249.422C258.334 3.13651 264.461 8.00369 264.461 15.9302C264.505 18.104 263.975 20.2512 262.924 22.1555C261.872 24.0595 260.338 25.6537 258.473 26.7771L266.968 39.2927H256.245V39.2927ZM242.46 20.9365H249.144C252.625 20.9365 255.41 18.9896 255.41 16.0693C255.41 13.149 252.625 11.2021 249.144 11.2021H242.46V20.9365ZM280.196 11.0631V17.599H296.21V25.1083H280.196V31.3661H298.438V39.0145H271.145V2.85839H298.577V10.6459H280.336V10.924L280.196 11.0631V11.0631ZM338.681 21.2146C338.681 31.9224 330.605 39.4317 319.186 39.4317H304.704V3.27557H319.186C330.326 2.99745 338.681 10.3677 338.681 21.0755V21.2146ZM329.491 21.2146C329.485 19.8843 329.21 18.5691 328.686 17.3467C328.16 16.1244 327.394 15.0199 326.433 14.0991C325.472 13.1779 324.333 12.4592 323.088 11.9856C321.846 11.5119 320.518 11.2928 319.186 11.3412H313.616V31.3661H319.186C320.557 31.4037 321.918 31.1642 323.194 30.6622C324.47 30.1602 325.631 29.4059 326.606 28.4447C327.58 27.4835 328.352 26.3351 328.873 25.0686C329.391 23.8023 329.65 22.4439 329.63 21.0755L329.491 21.2146V21.2146ZM352.467 3.13651V39.2927H343.555V3.13651H352.467ZM386.862 11.2021H376.557V39.2927H367.645V11.0631H357.48V2.99745H387.001V11.0631L386.862 11.2021V11.2021ZM218.787 26.2208C218.146 27.8515 217.008 29.239 215.534 30.1877C214.059 31.1361 212.323 31.597 210.571 31.5052C209.222 31.5374 207.88 31.2913 206.631 30.7821C205.381 30.2728 204.251 29.511 203.309 28.5451C202.368 27.5792 201.637 26.4294 201.161 25.1678C200.686 23.9065 200.476 22.5607 200.545 21.2146C200.476 19.8685 200.686 18.5226 201.161 17.2613C201.637 15.9998 202.368 14.85 203.309 13.8841C204.251 12.9179 205.381 12.1564 206.631 11.6471C207.88 11.1376 209.222 10.8914 210.571 10.924C212.323 10.8322 214.059 11.2931 215.534 12.2415C217.008 13.1899 218.146 14.5777 218.787 16.2083H228.256C227.391 12.2081 225.146 8.63836 221.914 6.12218C218.682 3.60599 214.667 2.30325 210.571 2.4412C208.066 2.35359 205.569 2.77745 203.233 3.68609C200.898 4.595 198.772 5.97004 196.986 7.72723C195.201 9.48442 193.793 11.5868 192.849 13.9058C191.904 16.2248 191.443 18.7117 191.494 21.2146C191.443 23.7174 191.904 26.2044 192.849 28.5234C193.793 30.8424 195.201 32.9447 196.986 34.7019C198.772 36.4591 200.898 37.8339 203.233 38.7428C205.569 39.6517 208.066 40.0753 210.571 39.988C214.678 40.1707 218.714 38.8846 221.956 36.3612C225.198 33.8375 227.431 30.2419 228.256 26.2208H218.787V26.2208Z" fill="#C8102E"/>
</svg>
