<svg width="559" height="126" viewBox="0 0 559 126" fill="none" xmlns="http://www.w3.org/2000/svg">
<path d="M4.02834 62.9373C4.02834 95.3185 29.7993 121.701 61.4815 121.701C93.1052 121.701 118.847 95.3185 118.847 62.9373C118.847 30.498 93.1052 4.11579 61.4815 4.11579C29.7701 4.08668 4.02834 30.4691 4.02834 62.9373ZM1 62.9373C1 28.78 28.1102 1 61.4815 1C94.765 1 121.876 28.7511 121.876 62.9373C121.876 97.0365 94.765 124.787 61.4815 124.787C28.1102 124.787 1 97.0365 1 62.9373Z" fill="#0D356C"/>
<path d="M43.427 23.8298C41.3303 24.7618 39.3502 25.9266 37.5159 27.2662C51.9008 20.7141 69.4598 21.1218 78.8947 25.4316C81.8649 26.8293 83.845 27.7027 84.7477 29.3918C74.9637 26.7127 70.7705 26.2176 62.5878 26.4216C50.9399 26.6253 35.4484 31.3427 29.5369 34.9535L26.9162 38.3024C35.4484 33.1481 51.3476 29.7703 60.1708 29.4792C70.0134 29.3337 77.6717 30.2653 84.6896 32.8571C84.2819 34.6917 83.3792 35.5944 81.8649 36.526C53.7646 31.5175 37.1664 37.4286 22.1698 47.4459L21.0631 50.7657C37.8069 39.0011 58.3073 35.7399 78.0794 39.2633C71.0034 41.7966 62.5293 42.379 55.4245 44.0388C49.3674 45.4658 46.1351 45.8735 38.069 48.6397C29.8864 51.377 25.0527 54.2017 22.024 57.8124C20.5681 59.5015 19.4618 61.4816 19.1996 63.6073C19.083 64.8595 19.1411 66.0243 19.5488 67.1307C19.8694 68.1207 20.6555 69.1108 21.4708 70.1009C20.51 71.79 19.6654 73.9738 21.0631 76.5363C21.6748 77.7304 23.2762 78.9241 24.7905 80.06L24.3536 81.3119C24.15 82.797 23.946 84.5735 24.9071 86.0293C26.5378 88.7085 28.5468 90.4846 31.721 92.1737C32.216 94.3575 32.944 96.134 34.6038 97.6772C38.1272 100.997 45.9603 107.345 59.9379 108.335C70.421 109.034 77.9046 105.802 80.7293 104.375L84.1653 102.54C78.3123 104.928 68.4698 106.355 60.4037 105.627C48.6977 104.637 38.2438 96.8038 36.9335 94.5323C37.3411 94.8237 37.8943 95.0273 38.3601 95.2313C52.0755 102.016 69.7512 105.685 92.4354 96.2214L94.2989 94.3868C73.6822 100.938 55.6574 100.735 36.2926 90.3684C36.4966 89.3783 36.9335 88.5045 37.8069 87.8347C42.7573 90.077 47.5328 91.9408 53.2985 93.1053C60.0542 94.3868 67.7711 94.6778 74.0899 94.3868C80.4964 94.0954 93.1633 90.8634 99.1618 87.6018C99.7154 87.1068 99.9772 86.2622 100.531 85.709C88.8246 90.077 74.9052 92.1153 66.5189 91.4747C58.3073 90.8342 51.0273 89.8441 41.3888 85.3306C43.2523 84.5735 45.1743 83.9329 47.0963 83.3505C53.4443 85.3306 59.9087 86.5244 67.5382 86.8739C75.1092 87.2234 92.8138 84.3406 103.967 77.439C104.316 76.4489 104.666 75.3715 104.666 75.3715C104.666 75.3715 89.1738 83.8455 71.6147 83.8455C63.4032 83.8455 58.3947 82.6515 54.6673 81.7195C62.937 80.1763 73.3327 78.8952 85.0391 75.8665C90.9503 74.3233 98.2592 70.7707 101.579 67.8297C104.404 65.209 106.617 61.8312 105.859 58.3659C105.714 57.434 104.491 55.2499 102.947 54.493C104.404 52.5999 104.258 50.9693 104.054 49.5716C103.909 48.4941 103.413 47.3004 102.831 46.2519C101.87 44.9708 100.967 43.9807 99.1037 42.8451C99.3951 41.36 99.1911 39.8457 98.5505 38.4772C97.0943 35.9435 94.5029 33.7598 90.0183 31.4301C89.8147 30.4982 89.2612 29.3045 88.3003 28.1104C82.6513 22.4032 73.4201 19.6367 65.6454 19.4912H64.364C55.2786 19.5785 47.9697 21.675 43.427 23.8298ZM87.5143 37.9529C88.213 37.1669 89.2323 35.9728 89.4944 34.9827C91.4453 36.2642 93.6291 38.1569 93.8912 40.1371C91.853 39.3506 89.6399 38.5061 87.5143 37.9529ZM89.2323 46.5433C85.9418 45.6113 83.0297 44.505 79.1861 43.806C81.5446 42.874 83.1171 41.9132 84.4856 40.7776C87.5724 41.6222 90.4552 42.6704 92.8138 43.7478C92.4061 44.3591 90.0476 46.6014 89.3196 46.6014C89.2904 46.5725 89.2612 46.5725 89.2323 46.5433ZM95.2308 49.0184C96.1335 48.3194 96.9488 47.5333 97.706 46.6306C99.5695 48.2613 100.123 49.3679 99.2203 51.1441C97.9681 50.2121 96.6578 49.7171 95.2308 49.0184ZM24.4991 66.5194C19.4033 59.3268 37.079 54.1724 40.4568 53.1242C49.0472 50.5035 59.1226 48.5526 68.208 47.4167C74.4686 46.6306 77.788 47.3586 83.6995 48.9603C68.4697 53.1242 53.4443 54.4638 39.1465 58.7736C27.6152 62.1803 24.5576 66.5194 24.4991 66.5194ZM28.285 69.9846C33.6719 65.3253 44.6211 62.7046 48.6103 61.8019C61.3356 58.9772 73.1872 57.2011 78.0794 55.9489C83.9906 54.4638 88.1256 53.0661 91.0084 51.6391C91.1539 51.4355 95.8425 53.7648 96.3083 54.3183C94.7358 55.6575 92.5228 56.7934 90.1057 57.6377C82.8842 60.3168 69.722 63.1415 62.7626 64.2189C55.7448 65.4127 49.8625 66.3154 42.1167 68.441C37.6322 69.6643 34.6038 71.062 32.3908 72.5471C30.7602 71.5278 29.799 71.2368 28.285 69.9846ZM38.2727 75.6336C40.5442 74.6436 43.0194 73.8575 45.4072 73.2458C57.5209 70.1883 68.208 69.6351 82.9424 65.5582C90.0183 63.6365 95.2016 61.5979 98.4339 59.0646C98.9001 58.6277 99.3951 58.2785 99.8901 57.8709C104.171 64.6555 88.1256 69.868 77.1475 72.285C71.4111 73.4498 65.6743 74.5562 59.9379 75.6047C52.7745 76.7984 50.4449 77.439 45.4653 78.9241C43.0194 77.8759 40.5442 76.8277 38.2727 75.6336ZM25.3729 73.508C26.4793 74.2359 27.2949 74.7891 28.6053 75.4881C28.1102 75.925 27.4986 76.3327 27.0328 76.8277C25.9553 76.1871 24.8487 74.7891 25.3729 73.508ZM31.1093 80.0015C31.8084 79.361 32.6818 78.7493 33.643 78.1088C35.7105 79.0989 37.8362 80.0015 39.8452 80.9335C38.5059 81.4285 37.2245 82.0691 36.0015 82.8555C34.3417 81.8943 32.7111 80.9627 31.1093 80.0015ZM29.304 83.4379C30.4688 84.224 31.6336 84.8645 32.8273 85.4762C32.3323 86.1748 31.9831 86.7284 31.8084 87.4563C30.0611 86.0004 29.2458 84.8064 29.304 83.4379Z" fill="#0D356C"/>
<path d="M523.173 36.8426H534.881L534.822 55.7413H537.356L544.023 36.8426H556.691L547.605 61.8272L558 89.491H544.284L537.53 68.3208H534.763L534.822 89.491H523.114V36.8426H523.173ZM483.717 36.8426H495.365V55.8287H503.692V36.8426H515.309V89.491H503.692V68.3793H495.365V89.491H483.717V36.8426ZM443.153 89.5783H455.265L456.723 80.4637H465.051L466.506 89.5783H478.62L468.427 36.93H453.402L443.153 89.5783ZM460.915 52.8874L463.129 68.9032H458.645L460.915 52.8874ZM410.656 89.491H424.835C427.923 89.491 440.824 88.1514 440.88 72.1937C440.88 58.7989 430.893 56.4692 424.428 56.4692H422.304V49.4806H438.085V36.8426H410.684L410.656 89.491ZM422.273 78.9205V67.0104H423.993C425.448 67.0104 429.145 67.0686 429.145 72.5139C429.145 78.0178 425.42 78.9205 423.993 78.9205H422.273ZM364.442 36.8426H374.576L383.516 49.2766L392.543 36.8426H402.59V89.491H390.681V57.4011L383.516 66.5735L376.352 57.4011V89.491H364.442V36.8426ZM339.837 90.1315C353.96 90.1315 358.705 76.5616 358.705 63.1083C358.705 49.655 353.96 36.0855 339.837 36.0855C325.714 36.0855 320.965 49.6261 320.965 63.1083C320.965 76.5908 325.741 90.1315 339.837 90.1315ZM339.837 77.348C335.642 77.348 333.487 72.3395 333.487 63.1083C333.487 53.8774 335.614 48.8397 339.837 48.8397C344.06 48.8397 346.155 53.8485 346.155 63.1083C346.155 72.3684 344.06 77.3769 339.837 77.348ZM286.49 89.491H298.4V72.1355H302.389C314.152 72.1355 317.822 61.274 317.822 54.3436C317.822 47.5879 313.63 36.8426 302.389 36.8426H286.49V89.491ZM298.4 48.4321H301.223C303.903 48.4321 305.62 50.1212 305.62 54.4891C305.62 60.1381 302.709 60.5458 301.223 60.5458H298.4V48.4321ZM247.148 36.8426H279.646V89.491H267.736V49.568H259.058V89.491H247.148V36.8426ZM222.717 57.2553C224.639 57.2553 228.162 55.9742 228.162 52.1013C228.162 47.5294 224.115 47.2383 222.921 47.2383C221.552 47.2383 218.931 47.4712 216.369 48.7234L216.223 37.2795C220.271 36.231 223.183 35.9399 226.619 35.9399C236.403 35.9399 240.742 42.9285 240.742 49.7716C240.742 56.4111 237.015 60.4295 233.375 61.9727V62.4678C236.898 63.6033 241.557 67.0686 241.557 75.1057C241.557 85.0646 234.802 90.5684 226.124 90.5684C221.523 90.5099 218.466 89.8694 214.826 87.8311L215.029 76.8819C218.408 78.367 220.679 78.5128 222.95 78.5128C226.794 78.5128 228.308 75.6008 228.308 73.504C228.308 70.5338 226.444 68.5537 222.397 68.5537H217.563V57.2553H222.717ZM175.893 89.491H187.948L189.462 80.3764H197.791L199.247 89.491H211.302L201.11 36.8426H186.114C186.084 36.8426 175.893 89.491 175.893 89.491ZM193.568 52.7418L195.84 68.8158H191.297L193.568 52.7418ZM152.83 36.8426H177.261V49.9756H164.944V89.491H152.83V36.8426Z" fill="#0D356C"/>
</svg>
