<svg width="559" height="141" viewBox="0 0 559 141" fill="none" xmlns="http://www.w3.org/2000/svg">
<path d="M152.454 58.7625C155.762 58.7625 159.444 58.8773 162.637 61.0348C164.766 62.4444 167.268 65.2348 167.268 70.2113C167.268 75.6769 163.817 82.1204 154.237 82.1204H146.183V97.1078H139.135V58.7625H152.454V58.7625ZM152.742 76.5111C154.295 76.5111 156.539 76.5685 158.322 74.9002C159.559 73.7784 160.221 71.8796 160.221 70.2689C160.221 68.7731 159.617 66.9608 158.38 65.8965C157.143 64.8321 155.187 64.3141 153 64.3141H146.183V76.5111H152.742V76.5111ZM173.77 71.5058C175.726 69.6647 178.632 68.0537 182.975 68.0537C187.348 68.0537 190.253 69.6647 192.209 71.5058C195.114 74.2385 196.61 78.4959 196.61 82.8398C196.61 87.1834 195.114 91.4408 192.209 94.1735C190.253 96.0146 187.348 97.6541 182.975 97.6541C178.632 97.6541 175.726 96.0146 173.77 94.1735C170.865 91.4408 169.369 87.1834 169.369 82.8398C169.34 78.4673 170.865 74.2385 173.77 71.5058V71.5058ZM178.516 90.8942C179.12 91.6133 180.53 92.9652 182.975 92.9652C185.449 92.9652 186.83 91.6421 187.434 90.8942C187.894 90.4053 189.563 88.1615 189.563 82.8398C189.563 77.518 187.894 75.3028 187.434 74.7851C186.83 74.066 185.42 72.7141 182.975 72.7141C180.53 72.7141 179.12 74.0371 178.516 74.7851C178.085 75.3028 176.388 77.518 176.388 82.8398C176.388 88.1327 178.085 90.3765 178.516 90.8942ZM218.904 79.0425C218.789 77.6043 218.242 75.9071 217.494 74.8428C216.804 73.8358 215.481 72.7141 213.237 72.7141C211.051 72.7141 209.612 73.8358 208.721 75.3317C207.311 77.6328 207.225 81.2 207.225 82.8398C207.225 85.4574 207.599 88.593 208.721 90.3765C209.44 91.4982 210.907 92.9367 213.237 92.9367C214.905 92.9367 216.315 92.275 217.379 90.808C218.213 89.6285 218.789 87.9599 218.875 86.4929L224.801 87.2123C224.456 89.8299 223.305 92.7639 221.234 94.6339C219.508 96.1871 216.804 97.5967 213.007 97.5967C208.778 97.5967 206.017 95.9284 204.406 94.4037C202.219 92.3324 200.148 88.6504 200.148 82.8398C200.148 77.4315 201.989 74.1811 203.456 72.455C205.527 69.9811 209.037 67.9963 213.179 67.9963C216.718 67.9963 219.623 69.2331 221.435 71.132C223.276 72.9728 224.398 75.7632 224.801 78.266L218.904 79.0425V79.0425ZM246.635 79.0425C246.52 77.6043 245.973 75.9071 245.225 74.8428C244.564 73.8358 243.211 72.7141 240.968 72.7141C238.782 72.7141 237.343 73.8358 236.452 75.3317C235.071 77.6328 234.956 81.2 234.956 82.8398C234.956 85.4574 235.358 88.593 236.452 90.3765C237.171 91.4982 238.638 92.9367 240.968 92.9367C242.636 92.9367 244.046 92.275 245.11 90.808C245.944 89.6285 246.52 87.9599 246.606 86.4929L252.532 87.2123C252.215 89.8299 251.036 92.7639 248.965 94.6339C247.239 96.1871 244.564 97.5967 240.766 97.5967C236.509 97.5967 233.776 95.9284 232.165 94.4037C229.979 92.3324 227.908 88.6504 227.908 82.8398C227.908 77.4315 229.749 74.1811 231.216 72.455C233.287 69.9811 236.797 67.9963 240.939 67.9963C244.449 67.9963 247.354 69.2331 249.195 71.132C251.036 72.9728 252.158 75.7632 252.56 78.266L246.635 79.0425V79.0425ZM282.449 88.8229C281.443 92.1599 279.428 94.1161 277.76 95.2955C275.516 96.7911 272.611 97.6541 269.533 97.6541C265.678 97.6541 261.766 96.0146 259.407 93.6269C257.221 91.412 255.61 87.5284 255.61 82.9546C255.61 77.1439 258.026 73.2892 260.644 71.1031C262.168 69.8086 265.016 68.0252 269.302 68.0252C274.739 68.0252 278.191 70.5277 280.032 73.1167C281.988 75.792 282.908 79.5317 282.908 82.7821V84.0766H262.686C262.686 84.393 262.629 86.9821 263.636 89.0531C265.132 92.1887 267.893 92.9652 269.792 92.9652C271.287 92.9652 273.186 92.5052 274.768 90.8942C275.717 89.8873 276.12 88.938 276.264 88.0464L282.449 88.8229V88.8229ZM275.861 79.8192C275.861 78.2083 275.459 76.3672 274.624 75.1303C273.56 73.5768 271.661 72.5124 269.59 72.5124C267.462 72.5124 265.62 73.5768 264.498 74.9002C263.607 76.0222 262.83 77.7479 262.83 79.8192H275.861V79.8192ZM310.494 68.6003V97.1078H303.996V73.4331H296.629C296.459 77.2879 296.343 78.8411 296.228 81.4876C296.055 84.4504 295.853 90.6929 293.323 94.1161C291.913 95.9569 290.185 96.6763 288.951 97.0213C288.23 97.2515 287.454 97.3377 286.649 97.3377C286.101 97.3377 285.527 97.2803 284.979 97.1078V92.1887H285.527C286.361 92.131 287.483 91.6995 288.201 91.1244C290.445 89.3407 290.647 85.3135 290.878 82.1204C291.166 77.9207 291.224 75.4179 291.25 71.6209L291.307 68.6003H310.494V68.6003ZM323.815 78.7549H330.977C332.817 78.7549 336.385 78.9851 338.744 81.3151C340.873 83.3861 341.075 86.2916 341.075 87.8451C341.075 91.9297 339.405 94.001 338.11 95.0654C337.651 95.4106 335.551 97.079 331.525 97.079H317.342V68.6003H323.815V78.7549V78.7549ZM323.815 92.3901H328.906C330.143 92.3901 331.467 92.3324 332.589 91.3831C333.249 90.7503 334.054 89.7148 334.054 87.9025C334.054 86.3492 333.596 85.1121 332.329 84.2779C331.207 83.5589 329.797 83.4438 328.934 83.4438H323.843V92.3901H323.815V92.3901ZM350.51 68.6003L355.774 77.4604L361.24 68.6003H367.164L358.823 81.4876L368.719 97.079H361.124L354.652 86.3492L347.833 97.079H341.908L351.632 82.2932L342.915 68.6003H350.51V68.6003ZM373.724 71.5058C375.679 69.6647 378.587 68.0537 382.928 68.0537C387.3 68.0537 390.208 69.6647 392.164 71.5058C395.068 74.2385 396.565 78.4959 396.565 82.8398C396.565 87.1834 395.039 91.4408 392.164 94.1735C390.208 96.0146 387.3 97.6541 382.928 97.6541C378.587 97.6541 375.679 96.0146 373.724 94.1735C370.819 91.4408 369.322 87.1834 369.322 82.8398C369.322 78.4673 370.819 74.2385 373.724 71.5058ZM378.471 90.8942C379.074 91.6133 380.485 92.9652 382.928 92.9652C385.403 92.9652 386.784 91.6421 387.416 90.8942C387.848 90.4053 389.545 88.1615 389.545 82.8398C389.545 77.518 387.877 75.3028 387.416 74.7851C386.813 74.066 385.403 72.7141 382.928 72.7141C380.485 72.7141 379.074 74.0371 378.471 74.7851C378.01 75.3028 376.343 77.518 376.343 82.8398C376.343 88.1327 378.039 90.3765 378.471 90.8942ZM400.044 76.3098C400.88 72.8577 403.064 70.9592 404.618 70.0099C405.567 69.4059 408.187 68.0537 412.672 68.0537C415.464 68.0537 418.311 68.5429 420.439 69.7223C423.575 71.4484 424.351 73.9509 424.351 75.7632C424.351 77.7194 423.402 81.459 418.542 82.0053V82.1204C420.209 82.3506 422.052 83.0697 423.174 84.2491C424.181 85.3135 424.956 87.0972 424.956 88.9957C424.956 91.8435 423.286 94.3463 421.158 95.7556C418.599 97.4242 415.06 97.6541 412.444 97.6541C409.796 97.6541 405.798 97.3665 402.98 95.1516C401.425 93.9148 399.957 91.7861 399.527 89.1108L405.394 88.1038C405.625 88.9957 406.115 90.3476 406.776 91.1244C408.244 92.8216 410.514 92.9652 411.982 92.9652C413.451 92.9652 415.002 92.7927 416.24 91.9586C417.362 91.1818 417.91 90.1174 417.91 88.7078C417.91 87.5287 417.679 86.5791 416.672 85.745C415.377 84.6806 413.652 84.5081 412.04 84.5081H409.078V80.1356H412.04C413.162 80.1356 414.772 79.9055 415.666 79.474C416.846 78.87 417.506 77.863 417.506 76.2235C417.506 75.3317 417.16 74.4686 416.326 73.807C415.031 72.7426 413.191 72.6852 412.242 72.6852C410.947 72.6852 409.049 72.8577 407.494 74.1811C406.834 74.7277 405.942 75.792 405.654 77.4604L400.044 76.3098V76.3098ZM458.124 65.465H439.627V73.9509H447.853C450.818 73.9509 453.665 74.1811 456.57 76.1947C459.419 78.1509 461.202 81.0561 461.202 85.2561C461.202 89.1682 459.734 92.0736 457.894 93.9145C455.104 96.7049 451.911 97.1078 448.574 97.1078H430.682V58.7625H458.124V65.465ZM439.627 90.3765H446.846C448.199 90.3765 449.436 90.3188 450.703 89.0242C451.94 87.7874 452.11 86.4066 452.11 85.3423C452.11 84.134 451.767 82.8972 450.703 81.8328C449.436 80.5672 447.795 80.4232 446.618 80.4232H439.627V90.3765V90.3765ZM465.805 76.5111C466.697 72.6564 469.198 70.7002 470.723 69.8086C472.939 68.5141 475.901 68.0252 479.613 68.0252C484.3 68.0252 489.048 68.6292 491.177 73.059C492.299 75.3605 492.183 77.8056 492.183 79.9343V90.9516C492.183 93.2531 492.498 95.3818 493.017 97.1078H484.906C484.675 95.9858 484.502 94.4899 484.473 92.5914C483.409 94.4899 480.819 97.683 474.923 97.683C472.304 97.683 469.601 97.0213 467.761 95.4969C465.976 94.0296 464.854 91.6995 464.854 89.1393C464.854 86.2916 466.091 82.8683 470.954 80.8547C474.09 79.5602 479.181 79.1287 481.453 79.0136L484.127 78.8988V78.2945C484.127 77.5178 484.07 75.8494 483.294 74.929C482.229 73.6919 480.101 73.6345 479.267 73.6345C478.116 73.6345 476.706 73.7496 475.526 74.4686C474.808 74.9002 473.859 75.8206 473.513 77.3741L465.805 76.5111V76.5111ZM481.626 83.6163C478.834 83.8464 476.045 84.134 474.462 86.0614C474.032 86.608 473.57 87.471 473.57 88.6216C473.57 89.8587 474.176 90.6929 474.808 91.1244C475.584 91.7284 476.763 92.016 477.885 92.016C479.555 92.016 481.511 91.2969 482.633 89.945C482.806 89.7722 484.127 88.1038 484.127 84.8534V83.3575L481.626 83.6163ZM506.969 68.6003V79.2726H515.971V68.6003H524.287V97.079H515.971V85.1121H506.969V97.079H498.656V68.6003H506.969V68.6003ZM539.101 68.6003V79.5602H541.345C543.76 79.5602 544.766 78.3808 545.372 77.0865C546.552 74.5837 546.494 72.6275 547.558 70.6716C548.392 69.1181 549.514 68.7154 550.232 68.6003H557.109C556.217 69.5496 555.439 70.6716 554.922 71.6783C554.031 73.5194 553.197 76.5399 552.678 77.8345C552.018 79.6179 550.896 81.4013 548.046 81.6315V81.7466C549.572 81.9768 551.126 82.7533 552.303 84.4793C553.024 85.5436 553.512 86.9244 554.319 89.1108C555.095 91.3546 555.439 92.131 556.16 93.8571C556.734 95.1516 557.051 95.9284 558 97.1078H550.175C548.94 96.7049 548.104 95.8707 547.097 92.9652C546.321 90.7503 546.206 89.945 545.689 88.7078L545.285 87.7012C544.452 85.5725 543.33 85.141 541.602 85.141H539.101V97.1078H530.788V68.6003H539.101V68.6003Z" fill="#19502E"/>
<path d="M62.5023 139.452C28.5868 139.452 1 111.894 1 77.9783C1 58.5036 9.94629 40.5822 25.5377 28.8458L26.1705 28.3278V1H61.4665V16.505H62.5023C96.3886 16.505 123.975 44.0917 123.975 78.0071C123.975 111.894 96.3886 139.452 62.5023 139.452Z" fill="#19502E"/>
<path d="M44.7554 78.2521L57.4455 65.6378V57.0647L44.7554 69.6213V78.2521ZM44.7554 46.2979L57.4455 33.6547V25.5724L44.7554 38.1288V46.2979ZM44.7554 56.8626L57.4455 44.2484V36.1661L44.7554 48.7225V56.8626ZM41.134 25.659L39.4515 24.0137V4.00982H37.5125V22.1086L35.8584 20.4343V4.00982H33.9194V18.5581L32.2369 16.8839V4.00982H30.3263V23.09L43.0446 35.7042V4.00982H41.134V25.659ZM44.7554 67.4274L57.4455 54.8131V46.7309L44.7554 59.2872V67.4274ZM30.3263 65.6378L43.0446 78.2521V69.6213L30.3263 57.0647V65.6378ZM55.5348 16.8839L53.8523 18.5581V4.00982H51.9417V20.4632L50.2592 22.1086V4.00982H48.3486V23.9848L46.6661 25.659V4.00982H44.7554V35.7042L57.4455 23.09V4.00982H55.5348V16.8839ZM30.3263 33.6547L43.0446 46.2979V38.1288L30.3263 25.5724V33.6547ZM30.3263 44.2484L43.0446 56.8626V48.7225L30.3263 36.1661V44.2484ZM30.3263 54.8131L43.0446 67.4274V59.2872L30.3263 46.7309V54.8131ZM105.981 61.4812H75.0977C75.7537 60.4421 76.1243 59.2296 76.1243 57.9306C76.1243 54.207 73.1299 51.205 69.4513 51.205C65.7727 51.205 62.8069 54.236 62.8069 57.9306C62.8069 59.403 63.2632 60.7307 64.0616 61.8276C63.4914 62.2027 63.0919 62.8667 63.0919 63.6462C63.0919 64.3967 63.4914 65.0607 64.0616 65.4358C63.2918 66.5327 62.8069 67.8893 62.8069 69.3328C62.8069 73.0564 65.7727 76.0584 69.4513 76.0584C73.1299 76.0584 76.1243 73.0564 76.1243 69.3328C76.1243 68.0338 75.7537 66.7924 75.0977 65.7822H98.0822V67.1967H95.801V69.1883H98.0822V71.2378H95.801V75.019H98.0822V73.316H101.447V75.019H103.7V71.2378H101.447V69.1883H103.7V67.1967H101.447V65.7822H105.981C106.865 65.7822 107.578 65.0317 107.578 64.1368V63.1266C107.578 62.2317 106.837 61.4812 105.981 61.4812ZM72.902 69.3328C72.902 71.2378 71.3619 72.7964 69.4513 72.7964C67.5692 72.7964 66.0294 71.2378 66.0294 69.3328C66.0294 68.6398 66.229 67.9759 66.5996 67.4274L67.5406 65.7822C66.9419 65.2627 66.571 64.4832 66.571 63.6172C66.571 62.7512 66.9419 61.9721 67.5406 61.4522L66.5996 59.8071C66.229 59.2586 66.0294 58.6236 66.0294 57.902C66.0294 55.9966 67.5692 54.438 69.4513 54.438C71.3333 54.438 72.902 55.9966 72.902 57.902C72.902 59.3162 71.2764 62.6936 71.2764 62.6936V64.5122C71.2764 64.5411 72.902 67.9183 72.902 69.3328Z" fill="#FFCB05"/>
<path d="M18.4895 58.1583V66.5295C18.4895 74.5265 21.9701 79.6755 23.9837 81.6605C25.1632 82.8111 37.0723 94.5478 37.2451 94.6914C40.9559 98.316 41.5888 99.4954 42.4229 101.567V92.304C42.4229 84.0479 38.2518 80.8549 36.0942 78.755C31.0604 73.8648 27.7234 70.6429 24.9907 67.9388C19.8702 62.7898 18.4895 58.1583 18.4895 58.1583ZM36.0945 99.438C31.0892 94.5189 27.7234 91.3259 25.0195 88.6218C19.8703 83.4728 18.5183 79.9919 18.5183 79.9919V87.2121C18.5183 95.2092 22.1429 100.301 23.984 102.401C25.1632 103.551 37.1012 115.23 37.2451 115.374C40.9559 118.999 41.5888 120.725 42.4229 122.767V112.987C42.4229 104.731 38.2232 101.538 36.0945 99.438Z" fill="white"/>
<path d="M62.5019 20.4458C61.5815 20.4458 60.6608 20.4746 59.7403 20.5033V24.4155C60.6608 24.358 61.5526 24.358 62.5019 24.358C92.1023 24.358 116.093 48.3489 116.093 77.9782C116.093 107.579 92.1023 131.57 62.5019 131.57C32.9015 131.57 8.8817 107.579 8.8817 77.9782C8.8817 61.5526 16.2746 46.8531 27.925 37.0152V32.0099C13.9733 42.5094 4.96948 59.1937 4.96948 77.9782C4.96948 109.736 30.7151 135.482 62.5019 135.482C94.2598 135.482 120.006 109.736 120.006 77.9782C120.006 46.2202 94.2598 20.4458 62.5019 20.4458Z" fill="white"/>
<path d="M103.178 108.01C104.069 106.802 104.904 105.536 105.709 104.242V96.5325H103.178V108.01ZM110.542 93.7132C110.916 92.5915 111.232 91.4697 111.52 90.3477H103.178V92.3902H104.443C106.658 92.3325 109.161 92.3039 110.542 93.7132Z" fill="white"/>
<path d="M54.994 90.0601H52.7214V112.987H54.994V90.0601Z" fill="white"/>
<path d="M54.994 85.6586C56.9214 85.6586 58.2736 86.0613 59.0501 86.8092C59.8268 87.5571 60.2009 88.9093 60.2009 90.8367V112.267C60.2009 114.195 59.8268 115.547 59.0501 116.295C57.8706 117.474 55.6845 117.474 53.8723 117.474C53.4696 117.445 53.0669 117.445 52.7217 117.445V127.6C53.4696 127.744 54.2175 127.888 54.994 128.003V119.66C58.4461 119.66 60.6898 118.481 61.7542 116.122V128.549H62.5021C62.9625 128.549 63.4514 128.549 63.9117 128.52V91.2105C63.9117 89.2258 64.3144 87.845 65.0623 87.0682C65.8103 86.2914 67.1622 85.8888 69.0607 85.8888C70.9881 85.8888 73.8361 85.6012 75.3031 87.0682C76.0511 87.845 76.396 89.2543 76.396 91.2105V102.199H71.2759V90.4626H69.0607V128.118C69.8086 128.031 70.528 127.916 71.2759 127.772V104.414H76.396V126.593C77.4604 126.305 78.4962 125.96 79.5317 125.586V105.277C79.5317 102.976 80.0783 101.25 82.4083 100.473L79.8193 86.3491H84.9974L85.8604 101.768H86.4932L87.3562 86.3491H92.8216L89.8876 100.473C92.3327 101.336 92.8216 102.832 92.8216 105.277V118.395C94.3463 117.244 95.7845 116.036 97.1653 114.712V86.2052H112.354C112.469 85.515 112.555 84.8533 112.642 84.1342H77.144L77.6332 86.6941C76.5111 84.6231 74.3824 83.5876 71.2471 83.5876H69.0321C65.2637 83.5876 62.991 85.0835 62.0995 88.0752C61.2938 84.9395 58.9064 83.3863 54.9654 83.3863H45.2424V125.471C45.9903 125.73 46.7382 125.989 47.4862 126.219V85.6586H54.994ZM94.6627 101.854L92.2176 99.524L94.6627 86.8669V101.854Z" fill="white"/>
<path d="M85.026 123.256C85.8028 122.853 86.5793 122.451 87.356 122.019V104.673H85.026V123.256Z" fill="white"/>
</svg>
