<svg width="494" height="152" viewBox="0 0 494 152" fill="none" xmlns="http://www.w3.org/2000/svg">
<path fill-rule="evenodd" clip-rule="evenodd" d="M49.3995 25.9667C49.3995 45.7148 49.3324 50.9548 49.0779 51.0346C48.9011 51.0902 47.902 51.1879 46.8579 51.252L44.9592 51.3681L45.1499 36.4764L45.3408 21.5845H43.3819H41.423L41.4215 24.4792C41.4181 30.3276 40.7491 45.1878 40.2459 50.5912L40.0966 52.195L39.0229 52.4637C30.4437 54.6114 22.6229 58.9764 16.2559 65.171C11.8806 69.4282 8.75073 73.6683 6.216 78.7735C-3.33805 98.0154 0.474719 121.235 15.6702 136.351C17.9703 138.64 22.9839 142.776 23.4571 142.776C23.7136 142.776 26.6518 139.089 27.9679 137.115C34.9577 126.635 40.4221 108.09 43.2072 85.3966C43.7738 80.7785 44.5107 72.6141 44.5107 70.9519V69.9129L43.4172 70.0804C42.8156 70.1725 41.3361 70.4216 40.1288 70.6342L37.9339 71.0201L37.4641 73.641C35.7314 83.3073 31.7511 95.4781 27.6031 103.794C25.2101 108.591 24.3837 110.042 21.7403 114.086C18.9977 118.282 16.9259 120.923 13.9133 124.063L11.7476 126.321L10.7513 124.745C8.75794 121.593 7.20123 117.998 6.19053 114.215C4.57542 108.17 4.77586 100.838 6.71775 94.9314C12.239 78.1364 30.5207 66.36 51.072 66.36C70.4218 66.36 87.6122 76.6302 94.3492 92.2152C97.1804 98.7645 97.7863 107.063 95.9489 114.126C94.9917 117.806 92.521 123.307 90.8236 125.536L90.3339 126.18L88.4999 124.379C83.5737 119.541 77.9819 111.255 74.0979 103.037C69.9823 94.329 67.0266 85.3338 64.9679 75.2507C64.2533 71.7514 64.0526 71.1225 63.5959 70.9535C62.8191 70.6661 57.8158 69.9474 57.6619 70.101C57.4473 70.3159 58.1212 78.8762 58.8015 84.573C61.9046 110.562 68.2079 130.281 76.7103 140.597C78.7366 143.056 78.4206 143.017 80.9986 141.12C90.5779 134.068 97.6299 123.001 100.064 111.201C104.732 88.5702 93.3336 65.7291 72.4323 55.8287C70.227 54.7841 65.4179 53.0477 63.116 52.4652C62.0974 52.2074 62.0297 52.1315 61.9003 51.1046C61.4749 47.7251 60.7244 31.662 60.7226 25.8944L60.721 21.5845H58.7501H56.7788L56.9597 36.5426L57.1404 51.5008L56.3255 51.3377C55.8772 51.2481 54.8881 51.1748 54.1275 51.1748H52.7445V26.0874V1H51.072H49.3995V25.9667ZM48.5 69.8136C48.4591 69.9639 48.2357 74.1973 48.0039 79.2212C46.4969 111.848 42.8372 133.888 36.9328 145.894L35.5891 148.627L36.898 149.032C42.7873 150.858 50.9223 151.481 57.5387 150.614C60.4498 150.232 65.4264 149.126 66.0985 148.71C66.345 148.558 66.1932 148.05 65.4755 146.624C59.3038 134.369 55.3956 110.841 54.0228 77.6774C53.8615 73.7856 53.6785 70.3364 53.6158 70.0122C53.5051 69.4423 53.4218 69.4251 51.0381 69.4817C49.5658 69.5167 48.5445 69.6502 48.5 69.8136ZM126.592 76.2795C126.592 76.3597 130.943 84.1904 136.261 93.6809C141.579 103.171 146.047 111.191 146.188 111.501C146.403 111.972 146.211 112.473 145.047 114.492C144.277 115.825 142.482 118.972 141.058 121.484L138.468 126.051L147.261 126.041L156.053 126.031L168.147 103.608C174.798 91.2758 180.855 80.049 181.606 78.6595L182.972 76.1336H174.201H165.43L160.249 86.6831C157.399 92.4854 155 97.2314 154.917 97.2301C154.788 97.2278 146.164 79.8447 144.93 77.0985L144.496 76.1336H135.544C130.62 76.1336 126.592 76.1992 126.592 76.2795ZM184.486 101.083V126.051H192.462C199.883 126.051 200.439 126.02 200.449 125.601C200.455 125.353 200.457 122.121 200.453 118.418L200.446 111.686L211.056 111.573C222.837 111.447 223.35 111.386 226.905 109.676C230.539 107.928 233.141 104.467 234.434 99.6622C235.106 97.1648 235.25 90.6189 234.689 88.1145C233.647 83.4647 231.067 79.9391 227.343 78.076C223.612 76.21 224.559 76.2844 203.462 76.1951L184.486 76.1148V101.083ZM247.408 77.9998C246.99 79.0254 242.279 90.2275 236.941 102.893L227.234 125.922L235.626 125.99C242.052 126.042 244.063 125.984 244.213 125.742C244.321 125.567 245.248 123.25 246.274 120.592L248.14 115.759L257.289 115.761L266.438 115.763L268.344 120.91L270.251 126.055L283.907 125.989L297.564 125.922L300.712 117.174C302.443 112.362 305.328 104.344 307.123 99.3555C308.919 94.3671 310.463 90.2854 310.554 90.2854C310.646 90.2854 311.891 93.5563 313.321 97.5544C314.75 101.552 317.63 109.6 319.719 115.437L323.517 126.051H332.082H340.648L339.909 124.314C339.502 123.359 337.295 118.177 335.004 112.8C332.712 107.422 329.234 99.259 327.275 94.6597C325.316 90.0603 322.749 84.0393 321.57 81.2797L319.427 76.2622H310.456H301.484L297.397 85.9112C295.15 91.2182 291.333 100.25 288.915 105.981C286.498 111.713 284.369 116.692 284.184 117.045C283.852 117.68 283.837 117.665 283.103 116.016C282.693 115.096 278.776 105.746 274.398 95.2389L266.438 76.1341L257.303 76.1346L248.169 76.1354L247.408 77.9998ZM355.209 76.3163C351.093 76.8918 346.848 79.018 343.872 81.9945C339.745 86.1212 337.475 91.406 336.756 98.5617C335.645 109.62 340.53 119.651 349.013 123.73C353.569 125.92 353.229 125.879 367.719 125.987C378.879 126.069 380.505 126.033 380.634 125.696C380.716 125.484 380.76 122.727 380.732 119.57L380.682 113.829L370.904 113.683C360.559 113.528 359.93 113.457 357.396 112.15C354.121 110.461 352.478 106.042 352.851 99.9324C353.12 95.5448 354.425 92.4255 356.676 90.7892C359.478 88.7529 361.257 88.4843 371.951 88.4843H380.544L380.686 87.9053C380.764 87.5868 380.795 84.837 380.755 81.7943L380.682 76.2622L368.331 76.2352C361.538 76.2203 355.633 76.2568 355.209 76.3163ZM384.156 101.095V126.057L393.864 125.99L403.573 125.922L407.596 118.461C419.55 96.2892 422.203 91.4546 422.464 91.3677C422.674 91.2977 422.752 95.9714 422.752 108.662V126.051H430.728H438.705V101.092V76.1336H428.849H418.994L411.038 90.8644C406.662 98.9664 402.5 106.691 401.789 108.03L400.495 110.465L400.428 93.2993L400.362 76.1336H392.259H384.156V101.095ZM442.307 101.106V126.079L461.026 125.982C477.807 125.895 479.945 125.838 481.675 125.43C487.577 124.04 490.841 120.884 491.854 115.59C492.338 113.062 492.328 107.411 491.835 105.085C490.812 100.257 487.887 97.3683 482.536 95.9045C480.667 95.3935 479.693 95.341 469.453 95.199L458.389 95.0456L458.317 91.7649L458.244 88.4843H473.948H489.651V82.3089V76.1336H465.979H442.307V101.106ZM215.691 88.7933C216.258 88.9631 217.098 89.4566 217.557 89.8897C219.432 91.6582 219.432 95.6397 217.558 97.6272C216.181 99.0876 214.915 99.2912 207.21 99.2912H200.439V93.8877V88.4843H207.549C212.337 88.4843 214.996 88.5851 215.691 88.7933ZM259.989 97.3884C261.342 101.083 262.45 104.18 262.45 104.271C262.45 104.363 260.134 104.437 257.303 104.437C254.473 104.437 252.157 104.339 252.157 104.219C252.157 104.039 256.322 92.258 256.93 90.7185C257.031 90.4612 257.208 90.3454 257.322 90.4612C257.436 90.5767 258.636 93.694 259.989 97.3884ZM474.67 107.269C475.771 107.94 476.079 108.814 475.963 110.938C475.878 112.496 475.781 112.766 475.036 113.511L474.203 114.344H466.296H458.389L458.317 110.548L458.246 106.753L466.037 106.754C473.369 106.755 473.877 106.785 474.67 107.269Z" fill="#002967"/>
</svg>
