<svg width="559" height="104" viewBox="0 0 559 104" fill="none" xmlns="http://www.w3.org/2000/svg">
<path d="M1 1H103.218V52.1089H1V1Z" fill="#E7002A"/>
<path d="M168.1 51.5183C169.158 51.5789 170.217 51.4153 171.208 51.0376C172.198 50.6602 173.098 50.0778 173.847 49.3283C174.597 48.5787 175.179 47.6792 175.556 46.6888C175.934 45.6984 176.098 44.6394 176.037 43.5811C176.14 42.4138 175.996 41.2378 175.613 40.1301C175.23 39.0227 174.618 38.0083 173.816 37.154C173.014 36.2993 172.041 35.624 170.96 35.1718C169.879 34.7195 168.714 34.5006 167.543 34.5298H145.681V51.3791L168.1 51.5183V51.5183ZM167.682 26.3141C170.042 26.1229 172.416 26.4377 174.644 27.2369C176.873 28.0366 178.905 29.3024 180.605 30.9497C182.305 32.5974 183.635 34.5886 184.503 36.7909C185.373 38.9931 185.762 41.3555 185.645 43.7203C185.645 54.1641 178.683 60.1518 167.682 60.1518H145.82V77.1403H136.351V26.3141H167.682ZM220.458 33.2766C208.761 33.2766 200.684 41.2138 200.684 51.5183C200.684 61.8228 208.343 69.7601 220.458 69.7601C232.573 69.7601 240.092 61.9621 240.092 51.5183C240.092 41.0746 232.573 33.2766 220.458 33.2766ZM220.458 78.2543C204.305 78.2543 190.937 67.5321 190.937 51.5183C190.937 35.5046 204.305 24.6431 220.458 24.6431C236.611 24.6431 249.979 35.6438 249.979 51.6576C249.979 67.6713 236.889 78.3936 220.597 78.3936L220.458 78.2543ZM288.969 78.3936C271.98 78.3936 259.169 67.6713 259.169 51.5183C259.169 35.3653 272.12 24.7823 288.969 24.7823C297.48 24.5567 305.822 27.2056 312.641 32.3018L307.628 39.8213C302.452 35.6946 296.008 33.4813 289.387 33.5551C276.993 33.5551 269.335 41.3531 269.335 51.5183C269.335 61.6836 277.133 69.4816 289.526 69.4816C296.259 69.5954 302.831 67.437 308.185 63.3546L313.198 70.4563C306.191 75.7231 297.588 78.4263 288.83 78.1151L288.969 78.3936ZM397.862 56.5313H417.357L407.749 35.6438L397.862 56.5313ZM393.963 64.7471L388.115 77.0011H377.95L402.597 26.3141H412.484L437.27 77.0011H427.105L421.256 64.7471H393.963V64.7471ZM486.982 77.1403V55.2781H453.841V77.0011H444.511V26.3141H453.841V46.9231H486.982V26.3141H496.451V77.0011L486.982 77.1403V77.1403ZM510.376 77.1403V26.3141H519.706V49.8473L545.189 26.3141H556.747L530.568 50.6828L558 77.0011H545.328L519.706 52.3538V77.0011L510.376 77.1403V77.1403ZM355.53 68.5068H332.972V53.0501H355.53C361.379 53.0501 364.721 56.1136 364.721 60.7088C364.721 65.3041 362.075 68.3676 355.53 68.3676V68.5068ZM354.973 44.6951H332.972V34.1121H369.177V26.1748H323.503V76.8618H354.834C365.835 76.8618 373.494 70.8741 373.494 60.8481C373.494 50.8221 365.835 44.8343 354.834 44.8343" fill="black"/>
<path d="M1 52.1089H103.218V102.351H1V52.1089Z" fill="black"/>
<path d="M18.3252 48.6438H85.0266V54.7076H18.3252V48.6438Z" fill="white"/>
</svg>
