<svg width="559" height="137" viewBox="0 0 559 137" fill="none" xmlns="http://www.w3.org/2000/svg">
<path d="M174.247 67.971H189.597V94.0154H200.774V67.971H216.124V58.5206H174.247V67.971ZM230.878 79.1331V58.6696H220.074V94.0154H229.612L248.24 73.3288V94.0154H259.045V58.5206H249.507L230.878 79.1331ZM295.019 71.6916H277.655V58.6696H266.85V94.0154H277.655V80.7699H295.019V94.0154H305.821V58.6696H295.019V71.6916ZM343.509 68.9386C340.956 68.1571 338.273 67.8409 335.608 67.971H324.431V58.6696H313.629V94.0154L335.534 93.8667C337.827 93.9038 340.098 93.6433 342.317 93.0482C347.943 91.6715 351.817 86.5557 351.631 80.7699C351.854 75.4681 348.556 70.6314 343.509 68.9386ZM337.994 84.937C336.633 85.4021 335.181 85.5882 333.746 85.4581H324.431V76.4542H333.746C335.144 76.3612 336.558 76.5287 337.92 76.9007C339.634 77.4029 340.789 78.9841 340.751 80.7699C340.77 82.5931 339.69 84.2489 337.994 84.937ZM396.897 58.6696H383.337L370.297 71.9895H367.317V58.6696H356.511V94.0154H367.317V80.6213H370.297L383.189 94.0154H397.568L379.611 75.4125L396.897 58.6696Z" fill="#222220"/>
<path d="M420.149 57.5534C405.543 57.5534 396.823 65.7387 396.823 76.3053C396.823 86.8718 405.617 95.0571 420.071 95.0571C434.529 95.0571 443.246 86.8718 443.246 76.3053C443.246 65.7387 434.751 57.5534 420.149 57.5534ZM420.071 86.4253C412.846 86.4253 408.226 82.1096 408.226 76.3053C408.226 70.5013 412.92 66.2597 420.071 66.2597C427.226 66.2597 431.92 70.5013 431.92 76.3053C431.92 82.1096 427.3 86.4253 420.071 86.4253ZM478.847 60.0833V56.5117H468.041V60.0833C454.478 60.3809 446.359 66.1108 446.359 76.2308C446.359 86.3511 454.478 91.6344 468.041 91.932V95.5036H478.847V91.932C492.481 91.6344 500.604 86.3511 500.604 76.2308C500.604 66.1108 492.5 60.3809 478.847 60.0833ZM468.041 84.3419C460.59 84.0443 457.31 80.9934 457.31 76.2308C457.31 71.4685 460.59 68.0455 468.041 67.7479V84.3419ZM478.847 84.3419V67.7479C486.373 68.0455 489.576 71.4685 489.576 76.2308H489.594C489.594 80.9934 486.391 84.0443 478.847 84.3419ZM536.24 60.0833V56.5117H525.437V60.0833C511.874 60.3809 503.751 66.1108 503.751 76.2308C503.751 86.3511 511.874 91.6344 525.437 91.932V95.5036H536.24V91.932C549.877 91.6344 558 86.3511 558 76.2308C558 66.1108 549.877 60.3809 536.24 60.0833ZM525.437 84.3419C517.986 84.0443 514.706 80.9934 514.706 76.2308C514.706 71.4685 517.986 68.0455 525.437 67.7479V84.3419ZM546.953 76.2308C546.953 80.9934 543.769 84.0443 536.24 84.3419V67.7479C543.769 68.0455 546.971 71.4685 546.971 76.2308H546.953Z" fill="#222220"/>
<path d="M149.9 63.9343L151.893 57.6835L145.41 57.8884C142.374 57.7765 139.449 56.7534 136.99 54.949H137.865C141.815 54.9305 145.429 52.6793 147.18 49.1447L150.03 43.0617C147.795 43.0802 145.559 42.9498 143.342 42.6708C141.219 42.1686 139.319 41.0154 137.884 39.3782C135.947 37.3133 133.264 36.1412 130.433 36.1227C129.333 36.1227 128.234 36.3087 127.173 36.6434C127.322 36.1412 127.452 35.6391 127.545 35.1181C127.992 31.4905 126.968 27.8256 124.713 24.9422L119.795 18.8962L116.778 25.9653C116.293 26.9699 115.567 27.8444 114.635 28.4767C114.114 25.9467 112.884 23.64 111.059 21.8169C108.004 18.6915 103.812 16.9429 99.4343 16.9801C98.6706 16.9801 97.9069 17.0359 97.1617 17.1475L91.2749 18.3009C91.778 16.3289 92.5789 14.4501 93.6594 12.7199L96.9009 7.6785L88.7414 8.44125L86.1334 2.86032L81.1037 5.59498L76.4466 1L71.7891 5.59498L66.7594 2.99054L64.1514 8.44125L55.992 7.51108L59.2334 12.5711C60.314 14.3012 61.1149 16.1801 61.618 18.1521L56.0294 17.0545H55.8432C55.0606 16.9429 54.2783 16.8871 53.4957 16.8871C49.118 16.8499 44.9266 18.5985 41.8714 21.7238C40.0271 23.5656 38.7606 25.9097 38.2574 28.4767C37.3634 27.863 36.6369 27.0258 36.1526 26.0397L33.116 18.9148L28.1609 24.9794C25.944 27.863 24.9566 31.5091 25.3852 35.1181C25.4783 35.6391 25.6086 36.1412 25.7577 36.6434C24.6957 36.3087 23.5966 36.1227 22.4977 36.1227C19.666 36.1412 16.9834 37.3133 15.046 39.3782C13.6303 40.9965 11.7489 42.1501 9.64371 42.6708C7.40829 43.0058 5.13573 43.1359 2.86286 43.0617L5.63857 49.2377C7.38972 52.7723 11.0037 55.0235 14.9529 55.042H15.8286C13.4069 56.8093 10.5194 57.8325 7.52 57.9626L1 57.6835L2.99313 63.9343C4.48373 68.827 8.71229 72.4172 13.798 73.0683C13.2763 76.3612 11.19 79.2076 8.20944 80.6958L3.21686 82.7233L5.89943 87.3928C8.11629 90.8344 11.9351 92.8807 16.0149 92.8436C17.0766 92.8436 18.1386 92.7318 19.1817 92.5086C19.4426 93.6434 19.7777 94.7781 20.1503 95.8757C21.0817 98.3315 21.1377 101.01 20.3366 103.503L17.9149 108.582L23.336 110.014C24.5469 110.33 25.8134 110.479 27.0617 110.479C27.9557 110.479 28.8314 110.386 29.7069 110.182C30.3403 110.033 30.9737 109.847 31.5697 109.605C32.2592 110.851 33.1346 112.005 34.122 113.028C37.5869 116.581 42.5049 118.386 48.7454 118.386H53.1977L44.0137 122.199L50.9809 125.641C53.794 127.017 56.6629 128.264 59.5874 129.361L58.7492 131.78L61.1523 132.877C65.1389 134.44 69.3674 135.314 73.6523 135.463H79.3712C83.6372 135.314 87.8471 134.421 91.8152 132.859L94.1437 131.78L93.324 129.361C96.286 128.227 99.1923 126.943 102.024 125.511L108.861 122.199L99.6951 118.479H104.166C110.407 118.479 115.343 116.618 118.79 113.121C119.795 112.098 120.653 110.944 121.342 109.698C121.938 109.94 122.571 110.126 123.205 110.275C124.08 110.479 124.956 110.572 125.85 110.572C127.098 110.572 128.365 110.405 129.576 110.107L135.015 108.675L132.649 103.689C131.755 101.159 131.793 98.3871 132.743 95.8757C133.134 94.741 133.451 93.5877 133.711 92.4342C134.755 92.6576 135.835 92.7691 136.897 92.7691C141.014 92.8062 144.851 90.6854 147.031 87.1883L149.676 82.5746L144.758 80.5654C141.777 79.0772 139.691 76.2308 139.169 72.9382C144.255 72.2686 148.484 68.6966 149.974 63.7854L149.9 63.9343Z" fill="white"/>
<path d="M98.8386 83.6908H54.1295V100.433C54.1295 107.317 59.1035 111.595 66.4617 111.595C72.6092 111.595 74.23 111.837 76.5026 114.107C77.9372 112.563 79.9674 111.688 82.0912 111.726V111.465L83.5072 107.112L81.104 104.489C80.1352 104.787 79.1292 104.898 78.1235 104.842C76.6143 104.824 75.124 104.675 73.6523 104.377H73.1866C72.9817 104.377 72.9817 104.377 72.926 104.489L72.1434 105.791L71.1749 105.568L66.8714 104.563L66.2755 105.531V105.643L66.7972 106.219L66.5735 106.963C66.1823 107.875 65.6235 108.693 64.9154 109.4L63.8352 110.554L62.8477 109.326L62.1212 108.414C61.3389 107.391 61.1526 106.052 61.5998 104.842L60.3889 105.345L59.8486 104.154L59.5506 103.317C58.7866 101.55 59.364 99.5033 60.9103 98.3871L64.3752 96.5268L67.6726 97.1779C67.6726 96.8618 67.8774 95.7271 67.9706 95.448H67.7843L65.9215 96.1547L64.0586 94.8899C63.686 94.5179 63.6675 93.9039 64.0586 93.5133L65.8283 90.8344L61.3389 85.2535L68.0637 87.895L69.4609 86.2207L70.5229 87.2254C70.8023 87.5044 70.9886 87.8394 71.0817 88.23C72.9446 88.9741 76.3909 91.1505 76.6703 94.6851L75.6083 95.1131C75.7389 95.2991 75.9066 95.448 76.1115 95.541L81.0295 96.0247L81.4766 95.8943C82.3149 95.5781 83.2089 95.4106 84.1032 95.3921C84.9975 95.3921 85.8729 95.5967 86.674 95.9873C87.0277 95.8572 87.4192 95.7827 87.7917 95.7642H88.0337C90.6606 95.7642 91.9832 97.736 93.0263 99.2987L93.5666 100.08C94.4795 101.382 95.6903 103.28 95.746 103.354L96.2863 104.191L95.6157 104.973C95.0009 105.791 94.0323 106.256 93.0077 106.256C92.7097 106.275 92.4114 106.275 92.1134 106.256C91.8526 106.201 91.592 106.126 91.3312 106.015C91.3312 106.275 91.3312 106.591 91.182 106.852L90.4183 111.242C95.4855 110.219 99.062 105.68 98.8572 100.508L98.8386 83.6908ZM54.0738 82.3327H88.8909C87.4749 80.8444 86.9906 78.7051 87.624 76.7518C87.1583 76.5287 86.7112 76.2308 86.32 75.8961C84.96 76.9007 80.7315 79.9143 79.7255 80.6769L79.502 80.8259L65.8283 78.4075H65.5489C65.1017 78.4261 64.6549 78.4261 64.2078 78.4075C64.0772 79.0212 63.5372 79.4492 62.9223 79.4492H62.6989C61.9723 79.3191 61.4692 78.6306 61.5812 77.9051V77.6075C59.8112 76.3427 58.9729 74.1474 59.4386 72.0266V71.7846L59.6437 71.636C59.6437 71.636 59.9043 71.45 60.2583 71.2454L59.2712 71.0965C58.8986 71.022 58.6563 70.6873 58.7123 70.3153C58.768 69.9432 59.1035 69.7012 59.476 69.7572H59.4946L61.8606 70.1292L62.084 61.8136L65.6049 58.093L67.8032 62.7063L65.4932 70.7059L67.5795 71.0405C67.952 71.115 68.1943 71.45 68.1383 71.822C68.0826 72.1567 67.8032 72.3801 67.4677 72.3801H67.356L65.6606 72.1011V72.2312C65.8469 72.5661 66.1266 72.8266 66.4803 72.9938L76.8937 73.1613L79.5577 70.5384C77.5272 69.8313 76.0743 68.0455 75.832 65.9062C74.528 65.404 73.4663 64.4365 72.87 63.1902C72.3672 62.0181 72.274 60.6974 72.628 59.4697C70.9886 58.8186 69.4983 57.8325 68.2875 56.5673H52.8255C53.5706 58.3906 53.9992 60.3253 54.0738 62.2786V82.3327Z" fill="#FCE527"/>
<path d="M126.092 43.415C128.178 44.6057 129.985 46.2243 131.401 48.1591C132.463 49.7959 133.972 51.0981 135.76 51.8796C136.43 52.1027 137.157 52.2143 137.865 52.2143C140.715 52.2143 143.323 50.596 144.627 48.066L145.708 45.6477L143.081 45.4987C140.249 44.9777 137.697 43.5269 135.816 41.3501C134.419 39.8434 132.463 38.9688 130.395 38.9503C128.793 38.9688 127.246 39.4528 125.905 40.3084L123.484 42.0012L126.092 43.415ZM130.451 40.755L130.395 40.7735C131.978 40.7735 133.468 41.4617 134.53 42.6338C136.71 45.1267 139.69 46.7824 142.969 47.3219C141.963 49.2007 140.007 50.3725 137.865 50.3914C137.343 50.3914 136.822 50.2984 136.319 50.1309C133.301 49.1077 132.239 44.55 127.004 41.7967C128.029 41.127 129.221 40.7735 130.451 40.755V40.755ZM127.321 67.3945L127.284 67.3574C125.756 55.0792 116.833 46.2057 106.904 40.8294C105.991 40.327 105.134 39.9178 104.315 39.5272C108.413 40.3644 112.679 39.3598 115.976 36.7924C115.976 36.7924 110.22 41.0155 98.4464 37.183C101.707 39.3038 108.04 42.2803 113.834 47.117C128.29 59.8044 117.951 72.1942 117.951 72.1942C122.273 68.1015 123.782 61.8507 121.844 56.2328C124.899 61.3112 126.371 67.1899 126.054 73.1058C125.644 82.8538 120.224 91.374 114.635 98.1641C112.958 100.303 111.803 102.815 111.319 105.494C112.269 102.833 113.704 100.378 115.566 98.2571C121.621 91.1694 126.744 83.821 127.47 73.2359C128.104 75.0962 130.674 80.5099 134.773 82.5373C134.773 82.5373 129.631 79.4493 127.321 67.3945V67.3945ZM50.1982 112.768C49.3039 110.87 48.8196 108.787 48.801 106.684C48.745 102.833 47.1616 99.1687 44.4044 96.4898C44.9633 96.2293 45.485 95.8946 45.9507 95.4852C47.7205 93.9784 48.745 91.7832 48.7265 89.4578L48.6147 87.8021H46.9379C43.1004 87.9881 39.3747 86.4069 36.8599 83.4863C36.3196 82.8538 35.8353 82.1653 35.4067 81.44C37.0647 81.9422 38.7787 82.1841 40.511 82.1841H42.2065C44.2367 81.9792 46.1556 81.161 47.7019 79.8399L49.4342 78.2587L47.4596 76.9938C43.0259 74.166 38.4993 68.8083 41.9827 59.3953C44.2367 53.2748 49.4342 47.7496 57.9105 42.4292C60.7604 40.5689 62.3253 38.5041 62.3253 36.4763C62.3253 33.3509 59.6987 32.1046 57.7799 31.2301C56.9045 30.8951 56.1033 30.4115 55.3956 29.7978C53.9053 28.0676 55.1533 24.7749 56.5504 22.989L58.4133 20.6636L55.5444 20.1055C54.8924 19.9939 54.2219 19.9567 53.5513 19.9567C49.9187 19.845 46.4165 21.2403 43.8456 23.7889C41.7407 25.8538 40.6416 28.7558 40.8465 31.6952H39.7287C35.5373 31.6952 33.5624 27.2676 33.4882 27.0815L32.3145 24.3098L30.4516 26.6353C28.719 28.9047 27.9182 31.7511 28.2347 34.5972C28.8682 37.7411 30.8242 40.4574 33.6185 42.0386C33.8793 42.2058 34.1402 42.3918 34.3636 42.5967C28.477 44.457 25.1796 48.6986 21.7147 53.1074L21.2116 53.7399C17.8959 57.9627 12.8662 60.4929 7.50103 60.6789H4.94873L5.73132 63.1158C5.73132 63.4134 8.07845 70.3153 14.8779 70.3153H15.2133C15.8467 70.2965 16.4613 70.2223 17.0762 70.0919C16.7967 73.8125 15.4182 80.8074 9.15903 83.3933L7.29618 84.1745L8.32075 86.0348C9.99732 88.6207 12.8847 90.1463 15.977 90.1089C17.8584 90.1274 19.7027 89.6998 21.3793 88.8441C21.6402 91.002 22.1244 93.1227 22.8139 95.1691C23.9873 98.313 23.9873 101.792 22.8139 104.936L21.8825 106.907L24.0059 107.466C24.9747 107.689 25.9807 107.819 26.9867 107.819C27.6573 107.819 28.3279 107.745 28.9799 107.596C30.3585 107.279 31.6253 106.647 32.7056 105.736C33.3576 107.819 34.4753 109.735 35.9845 111.317C38.909 114.312 43.1004 115.8 48.5587 115.818H51.8747L50.1982 112.768V112.768ZM48.5959 113.809C33.5253 113.809 33.8979 100.899 33.8979 100.899C33.0967 103.298 31.1222 105.122 28.6444 105.717C28.1416 105.847 27.6013 105.903 27.0799 105.903C26.2227 105.903 25.3844 105.791 24.565 105.587C25.9247 101.996 25.9247 98.0151 24.565 94.4249C23.503 91.4485 23.0002 88.286 23.0559 85.1232C21.3422 87.2254 18.7156 88.379 15.9956 88.2115H15.9024C13.4807 88.2486 11.2082 87.0394 9.8853 85.0302C19.9265 80.8631 18.939 67.413 18.939 67.413C17.7839 68.1201 16.4427 68.4921 15.0827 68.4736H14.8779C9.28931 68.4736 7.42645 62.5578 7.42645 62.5578H7.53816C13.4436 62.3717 18.9762 59.5813 22.6276 54.9491C26.465 50.0938 29.5947 45.8148 35.7982 44.1406L36.4127 44.029L36.5433 43.4153C36.7107 42.4663 36.0587 41.5547 34.6802 40.6246C26.1296 35.0437 31.9419 27.9001 31.9419 27.9001C31.9419 27.9001 34.3636 33.6114 39.859 33.6114H40.1199C40.7533 33.5929 41.3679 33.5369 41.9827 33.4254L42.9887 33.2208C42.1319 30.3185 42.9887 27.1746 45.187 25.0911C47.3479 22.8587 50.347 21.6123 53.4582 21.6496C53.9985 21.6496 54.5573 21.6868 55.0973 21.7798C53.2344 24.254 51.8559 28.3467 54.0356 30.858C55.8984 33.0348 60.5185 33.1278 60.5185 36.4389C60.5185 37.8156 59.233 39.4154 56.9416 40.848C50.0119 45.2011 43.1379 50.9866 40.2876 58.7256C36.7296 68.3806 40.7533 74.7986 46.491 78.4635C45.2427 79.5052 43.6967 80.1563 42.0759 80.3238H40.5296C37.5304 80.4539 34.5684 79.5423 32.1653 77.738C32.6499 80.2864 33.7862 82.6677 35.4813 84.621C38.3316 87.9136 42.5602 89.7368 46.9193 89.5508C46.8822 91.3181 46.0996 92.9923 44.7399 94.1274C43.2496 95.1317 41.5541 95.7642 39.7659 95.9877C39.7659 95.9877 46.2673 97.3084 46.9753 106.889C46.9567 109.326 47.5527 111.726 48.689 113.884L48.5959 113.809V113.809Z" fill="#222220"/>
<path d="M15.0086 52.1956H15.0274C15.7351 52.1956 16.4617 52.0841 17.1323 51.861C18.9209 51.0795 20.4297 49.7773 21.4914 48.1401C22.8886 46.2056 24.6957 44.587 26.782 43.3963L29.39 42.0011L26.9683 40.3083C25.6271 39.4526 24.0808 38.9687 22.4974 38.9502C20.4297 38.9687 18.4737 39.8432 17.0766 41.3686C15.2137 43.5267 12.6429 44.9964 9.83 45.5171L7.20312 45.6475L8.26514 48.0659C9.56914 50.5958 12.1586 52.1771 15.0086 52.1956V52.1956ZM18.362 42.6337C19.4051 41.4616 20.8954 40.7734 22.4788 40.7734C23.6897 40.7919 24.882 41.164 25.9066 41.8151C20.6346 44.6241 19.5354 49.1262 16.5923 50.1493C16.1077 50.3168 15.5863 50.4098 15.0646 50.4098C12.9037 50.4098 10.9291 49.2192 9.92314 47.3218C13.2017 46.7822 16.1823 45.1265 18.362 42.6337V42.6337ZM26.8754 73.1801C26.5589 67.2643 28.012 61.3855 31.0857 56.3071C29.1483 61.9251 30.6572 68.1759 34.9792 72.2685C34.9792 72.2685 24.6214 59.8787 39.096 47.1914C44.8894 42.3546 51.2049 39.3782 54.4649 37.2574C42.6914 41.0895 36.9352 36.8668 36.9352 36.8668C40.2323 39.4341 44.4797 40.4384 48.578 39.6013C47.7583 39.9922 46.9014 40.4199 45.9886 40.9035C36.0594 46.2986 27.0806 55.1721 25.6089 67.4503V67.3573C23.2989 79.4121 18.1575 82.5001 18.1575 82.5001C22.2369 80.4909 24.8263 75.059 25.4412 73.1987C26.1303 83.8023 31.3092 91.1505 37.3634 98.2199C39.2077 100.34 40.6609 102.796 41.6109 105.456C41.108 102.796 39.9529 100.285 38.2577 98.1639C32.6692 91.3739 27.2669 82.8536 26.8754 73.1801ZM73.0371 50.7819C73.6891 50.1493 74.602 49.8517 75.5148 49.9633V53.4793C75.4963 54.3535 75.2725 55.1906 74.8443 55.9536H78.3651C77.9365 55.1906 77.7131 54.3535 77.6946 53.4793V49.9633C78.5885 49.8517 79.5014 50.1493 80.1534 50.7819V48.345H73.0371V50.7819V50.7819ZM71.5657 33.9089H71.5286C72.0689 34.3739 72.7023 34.746 73.3914 34.9691L73.8386 35.174V32.8672L69.7028 31.137C69.9077 32.2902 70.5786 33.2948 71.5657 33.9089V33.9089ZM81.3834 33.8903L81.3649 33.9089C82.352 33.2948 83.0226 32.2902 83.2277 31.137L79.092 32.8672V35.1551L79.5206 34.9506C80.2097 34.7274 80.8432 34.3554 81.3834 33.8903V33.8903Z" fill="#222220"/>
<path d="M88.7973 24.5702C88.7973 21.0914 82.9293 17.9661 76.465 17.9661C70.0007 17.9661 64.1327 21.0914 64.1327 24.5702L64.2633 25.4259L66.8524 40.3084L64.2633 41.8152L57.501 45.6476C57.501 45.6476 55.9918 46.4288 55.2841 46.8939C52.7318 48.7542 52.1918 51.247 53.6632 52.3261C54.0358 49.7959 56.2527 47.9356 58.8235 48.01C60.9658 48.066 62.9593 49.1448 64.1701 50.912C64.5427 51.3586 64.8778 51.8422 65.1758 52.3261C65.5673 52.9584 65.9584 53.5164 66.3495 54.056H49.0992C50.5524 56.5488 51.3907 59.3578 51.577 62.2416V100.508C51.577 109.81 58.7118 114.181 66.4798 114.181C72.4413 114.181 73.2421 113.902 76.521 117.176C79.7995 113.902 80.6007 114.181 86.5618 114.181C94.2741 114.181 101.465 109.772 101.465 100.508V62.2787C101.651 59.3952 102.489 56.5862 103.942 54.0934H86.5058C86.897 53.5538 87.2884 52.9958 87.6795 52.3632C87.9961 51.8796 88.3315 51.396 88.6855 50.9494C89.915 49.1822 91.9081 48.1031 94.0504 48.0471C96.6213 47.973 98.8381 49.8333 99.2107 52.3632C100.701 51.303 100.161 48.6426 97.5901 46.931C96.9007 46.4473 95.3918 45.6847 95.3918 45.6847L88.6855 41.7407L86.0961 40.2339L88.6855 25.3515L88.7973 24.5702ZM66.629 26.2817L75.7198 29.3512V43.6013L69.0321 40.0664L66.629 26.2817V26.2817ZM52.825 56.5674H68.4918C69.7027 57.8325 71.193 58.8371 72.8324 59.4697C72.4784 60.6974 72.5715 62.0182 73.0744 63.1903C73.6707 64.4365 74.7324 65.4041 76.0364 65.9062C76.2787 68.0456 77.7318 69.8314 79.7621 70.5384C78.6444 71.6731 77.5455 72.7337 77.0984 73.1614L66.685 72.9942C66.331 72.8267 66.0515 72.5662 65.8653 72.2312V72.1011L67.5604 72.3802H67.6721C68.0075 72.3802 68.287 72.157 68.343 71.8221C68.3987 71.45 68.1564 71.115 67.7838 71.0406L65.6975 70.7059L68.0075 62.7066L65.8092 58.093L62.2884 61.8136L62.065 70.1293L59.699 69.7572C59.3264 69.6827 58.9913 69.9244 58.9167 70.2964V70.3153C58.8607 70.6873 59.103 71.022 59.4755 71.0965L60.463 71.2454C60.109 71.45 59.8667 71.5986 59.8481 71.636L59.6433 71.7847V72.0266C59.1775 74.1474 60.0344 76.3427 61.7855 77.6075V77.9054C61.6738 78.6307 62.1767 79.3192 62.9032 79.4493H63.1267C63.7415 79.4493 64.2818 79.0216 64.4121 78.4076C64.8592 78.4261 65.2878 78.4261 65.7347 78.4076H66.0141L79.6689 80.8819L79.8927 80.7329C80.9733 79.9703 85.1272 77.0123 86.4872 75.9518C86.8784 76.2868 87.3255 76.5843 87.7912 76.8078C87.1578 78.7611 87.6421 80.9004 89.0581 82.3886H54.0733V62.2787C53.9987 60.3253 53.5701 58.3906 52.825 56.5674V56.5674ZM85.3135 74.966C83.8978 76.0077 80.4144 78.5377 79.1475 79.4307L66.7592 77.2728V76.9379C66.9644 76.1007 67.0761 75.2451 67.0947 74.3894L77.5267 74.5566L77.7318 74.352C77.8992 74.1845 81.1967 71.0035 82.8732 69.1617C83.3204 69.7198 83.8418 70.1849 84.4381 70.5569C84.1401 72.0826 84.4567 73.6638 85.3135 74.966V74.966ZM64.617 72.7337V72.7893C64.8964 73.3103 65.3064 73.7568 65.8092 74.0544C65.7907 74.8171 65.7161 75.5612 65.5858 76.3053C65.5858 76.4728 65.5858 76.6403 65.4552 76.8078V77.068C64.5984 77.068 63.7601 76.9379 62.9404 76.6774C61.4501 75.8776 60.6118 74.2404 60.8541 72.5662C61.5247 72.1011 62.2884 71.8035 63.0895 71.6917C63.7787 71.6731 64.3935 72.0826 64.617 72.7337V72.7337ZM63.3318 70.2594L63.5367 62.3902L65.3995 60.5299L66.5358 62.8927L64.319 70.5569L63.3318 70.2594ZM85.2204 111.707H83.4321L84.8293 107.149C85.0527 106.517 83.8978 105.698 83.4135 104.973C84.5498 105.661 85.7235 106.275 86.9344 106.833C86.9344 106.982 85.2204 111.707 85.2204 111.707ZM90.0081 106.61L89.859 106.48L88.8904 111.502C88.2755 111.502 87.6235 111.633 87.0275 111.67L88.0521 106.833C88.3501 105.401 84.4938 104.973 82.5938 102.127C81.3458 103.168 79.7435 103.652 78.1415 103.484C76.7258 103.466 75.3287 103.317 73.9501 103.038C73.7078 103.019 73.4658 103.019 73.2235 103.038C72.6461 103.001 72.0873 103.298 71.7893 103.801L71.5098 104.266L66.2004 102.982L64.9338 105.177C64.729 105.475 64.7661 105.884 65.027 106.145L65.381 106.535C65.027 107.224 64.5798 107.856 64.0395 108.396L63.2573 107.428C62.661 106.461 62.717 105.215 63.3875 104.303L65.4741 100.787L69.9264 101.457L69.237 99.8754C68.3055 97.792 69.7212 95.1316 69.8704 93.6063C69.8704 94.0714 69.3861 94.1644 68.9018 94.1644H67.6164C67.5233 94.1458 67.4112 94.1458 67.3181 94.1644L66.1072 94.89L65.1572 94.0154C65.0084 93.7364 65.0641 93.4017 65.2878 93.1969L67.4858 90.7229L64.8778 87.6905L68.6035 89.5507L69.7212 88.2115C70.0195 88.509 69.889 89.2902 69.889 89.2902C72.5901 89.9602 74.4718 92.4157 74.3973 95.2061V95.7456C74.7698 96.3408 75.3658 96.7503 76.0364 96.9178L81.085 97.4199C82.091 97.1038 83.1155 96.8989 84.1587 96.7688C85.0527 96.7688 85.947 97.0478 86.6921 97.5315C87.0461 97.2898 87.4747 97.1409 87.903 97.1223H88.0707C90.3247 97.1223 91.2747 99.1686 92.4858 100.843C93.3984 102.127 94.6281 104.061 94.6281 104.061C94.2741 104.582 93.6967 104.898 93.0633 104.898C92.8395 104.917 92.6347 104.917 92.4113 104.898C89.9895 104.452 89.6355 99.4662 88.257 99.0756H88.0335C87.7727 99.0756 87.5304 99.2243 87.4001 99.4662C88.0335 101.159 87.661 101.848 88.3501 103.187C88.853 103.987 89.4864 104.712 90.213 105.326C90.213 105.326 90.1198 106.07 90.0081 106.61V106.61ZM62.8661 101.736H62.8287L63.0524 102.313C62.9033 102.815 61.1892 103.54 61.1892 103.54L60.8167 102.722C60.3324 101.55 60.6864 100.21 61.711 99.4477L64.5238 97.736L67.5233 98.3686C67.5044 98.9641 67.6907 99.5407 68.0447 100.024L64.8964 99.4291L63.0335 100.731C62.7355 100.992 62.6795 101.401 62.8661 101.736V101.736ZM98.8941 100.526C99.099 105.698 95.5035 110.237 90.4178 111.242L91.2747 106.74C91.2747 106.48 91.3678 106.163 91.4053 105.903C91.6661 106.015 91.927 106.089 92.1875 106.145C92.4858 106.163 92.7838 106.163 93.0818 106.145C94.1064 106.145 95.0749 105.68 95.6898 104.861L96.3604 104.08L95.8015 103.317C95.8015 103.317 94.5535 101.345 93.6221 100.043L93.1004 99.2617C92.0572 97.6989 90.7347 95.7271 88.1078 95.7271H87.8658C87.4933 95.7456 87.1021 95.8201 86.7481 95.9502C85.947 95.5596 85.0715 95.355 84.1772 95.355C83.283 95.3736 82.389 95.5411 81.5507 95.8572L81.1035 95.9876L76.1855 95.5037C75.9807 95.4107 75.813 95.262 75.6827 95.076L76.7444 94.648C76.4464 91.0949 73.0187 88.9182 71.1558 88.1926C71.0627 87.802 70.8764 87.4673 70.597 87.1883L69.535 86.1837L68.6035 87.2999L68.1378 87.858L61.2452 85.0301L65.7347 90.6113L63.965 93.2899C63.5924 93.6619 63.5738 94.276 63.965 94.6666L65.8278 95.9317L67.6907 95.2246H67.8769C67.8769 95.5037 67.6721 96.6387 67.579 96.9548L64.3375 96.3967L60.8727 98.257C59.2707 99.4103 58.7118 101.531 59.5501 103.317L59.9412 104.154L60.4815 105.345L61.6924 104.843C61.2452 106.052 61.4315 107.391 62.2138 108.414L62.9404 109.345L63.9093 110.572L64.9895 109.419C65.6975 108.712 66.2564 107.893 66.6475 106.982L66.8713 106.238L66.3495 105.661V105.55L66.9455 104.582L71.249 105.587L72.2175 105.81L72.7393 104.954L73.0187 104.489C73.0187 104.396 73.0187 104.377 73.2795 104.377H73.7453C75.217 104.675 76.7073 104.824 78.1975 104.843C79.2032 104.898 80.2092 104.787 81.1781 104.489L83.5624 107.205L82.1467 111.558V111.819C80.023 111.782 77.9924 112.656 76.5581 114.2C74.2667 111.93 72.6461 111.689 66.5173 111.689C59.159 111.689 54.185 107.391 54.185 100.526V83.7839H98.8941V100.526V100.526ZM100.105 56.5674C99.3409 58.372 98.9313 60.3068 98.8567 62.2787V74.8171C97.2361 74.4636 96.0253 73.0872 95.9132 71.4315V70.8545H95.3544C94.3858 70.7804 93.4915 70.3338 92.821 69.6453C92.0012 68.6967 91.5541 67.506 91.5355 66.2597C90.7347 67.5619 90.8089 69.2362 91.7407 70.4639C92.467 71.3755 93.529 71.9896 94.6838 72.1382C95.0192 74.2964 96.7515 75.9706 98.9127 76.2497V82.3886H91.0884C89.0392 81.3469 88.1824 78.9097 89.0952 76.8078L89.3932 76.1378L88.7041 75.8776C86.4687 75.0961 85.2389 72.6963 85.947 70.4269L86.0961 69.8688L85.5744 69.6268C83.6184 68.4921 82.5378 66.2783 82.8547 64.0459C81.8301 65.0876 81.5693 66.6689 82.2213 67.9711C81.8487 68.3991 81.3644 68.9012 80.8241 69.4593C78.8681 69.0502 77.4524 67.3574 77.3778 65.3667V64.9016L76.9492 64.7341C75.813 64.3995 74.8815 63.6179 74.3412 62.5762C73.9872 61.7206 73.9127 60.7533 74.155 59.8603C74.5275 59.9348 74.9001 59.9904 75.2727 60.0278C75.6452 60.0463 76.0364 60.0463 76.409 60.0278C79.427 60.0278 82.2958 58.7256 84.3075 56.4932L100.105 56.5674V56.5674ZM88.0335 43.8803L91.0884 45.7406L91.8524 46.1868C90.269 46.6148 88.8344 47.4705 87.6981 48.6612L87.5678 48.7727C87.307 49.0517 87.0647 49.3308 86.8227 49.6287L86.6735 49.8147C86.4312 50.1123 86.2078 50.4284 86.003 50.7634L85.8913 50.9309C85.6304 51.3029 85.3881 51.7121 85.1458 52.1212C83.4507 55.4886 80.1535 57.7395 76.409 58.1115C72.6647 57.7395 69.3675 55.4886 67.6721 52.1212C67.4301 51.7121 67.1878 51.3215 66.9455 50.9309L66.7967 50.726L66.2004 49.7588L66.033 49.5542C65.7907 49.2566 65.5484 48.9773 65.3064 48.7171L65.1758 48.5867C64.0395 47.396 62.6053 46.5404 61.0218 46.1127L61.8041 45.6661L64.8778 43.8059L68.0261 41.9456L76.4278 46.5033L84.8293 42.0942L88.0335 43.8803V43.8803ZM83.8978 40.1594L77.2101 43.6755V29.3698L86.2824 26.3003L83.8978 40.1594V40.1594ZM76.4464 27.863L66.4987 23.8818C67.337 21.8727 71.249 20.1612 76.4464 20.1612C81.6438 20.1612 85.5558 21.8727 86.3941 23.8818L76.4464 27.863V27.863Z" fill="#222220"/>
<path d="M68.3619 91.002C68.1381 91.002 67.9333 91.1695 67.9147 91.3926V91.4111C67.8961 91.6531 68.0824 91.8762 68.3244 91.8947H68.343C68.6038 91.8947 68.7901 91.6902 68.7901 91.4485C68.7901 91.188 68.6038 91.002 68.3619 91.002ZM68.3433 90.9831C68.3619 90.9831 68.3619 91.002 68.3619 91.002C68.3804 91.002 68.3804 90.9831 68.399 90.9831H68.3433ZM98.7824 121.492L96.2116 120.506L96.9196 117.846L97.7018 114.944C94.181 116.748 90.4927 118.2 86.6924 119.279C84.8296 119.799 83.4881 120.041 83.4881 120.041V121.92C81.197 122.292 78.887 122.497 76.5584 122.516H76.3533C74.0247 122.497 71.7147 122.292 69.4236 121.92V120.06C69.4236 120.06 68.0636 119.799 66.2007 119.279C62.4004 118.2 58.7118 116.748 55.191 114.944L55.955 117.846L56.6813 120.506L54.0921 121.492L51.2979 122.553C55.1353 124.543 59.1404 126.199 63.2761 127.501L62.2887 130.18C66.7781 131.892 71.5844 132.729 76.3907 132.617H76.5024C81.3087 132.729 86.115 131.892 90.6044 130.18L89.6355 127.501C93.7527 126.199 97.7578 124.543 101.595 122.553L98.7824 121.492ZM54.4087 122.72L58.5816 121.325L57.3336 117.232C60.0718 118.59 62.9036 119.725 65.8281 120.618L63.779 126.199C60.5561 125.343 57.4078 124.171 54.4087 122.72ZM76.5584 131.296L76.4653 131.222C72.3667 131.203 68.287 130.645 64.3378 129.566L66.8527 122.757C69.9824 123.539 73.205 123.966 76.4464 123.985H76.6516C79.893 123.948 83.1155 123.539 86.2453 122.757L88.7601 129.566C84.7921 130.682 80.6753 131.259 76.5584 131.296ZM89.263 126.311V126.255L87.2138 120.674C90.1387 119.781 92.9701 118.646 95.7087 117.288L94.4604 121.381L98.6893 122.795C95.6713 124.264 92.5044 125.455 89.263 126.311ZM76.4464 15.3059C80.6564 15.1943 84.7921 16.4593 88.2195 18.8963C88.7598 16.143 89.7844 13.5014 91.2561 11.1016L87.0275 11.5852L84.8292 6.87868L80.5633 9.07385L76.4464 4.99976L72.3292 9.07385L68.0632 6.87868L65.8653 11.5852L61.6364 11.1016C63.1081 13.5014 64.1327 16.143 64.673 18.8963C68.1007 16.4593 72.2361 15.1943 76.4464 15.3059ZM65.679 13.2223L66.8524 13.3526L67.3555 12.2922L68.8273 9.12966L71.5655 10.5435L72.6275 11.083L73.4844 10.3016L76.4464 7.30655L79.4084 10.3016L80.2653 11.1388L81.327 10.5993L84.047 9.18547L85.5373 12.348L86.0401 13.4084L87.2138 13.2781L88.3315 13.1479C87.8844 14.1711 87.4933 15.2315 87.1764 16.3104C80.4516 12.8689 72.4598 12.8689 65.7347 16.3104C65.4181 15.2315 65.027 14.1711 64.5798 13.1479L65.679 13.2223ZM131.7 53.7025L131.196 53.0888C127.732 48.6798 124.434 44.4941 118.548 42.5779C118.79 42.3733 119.032 42.1873 119.293 42.0198C122.087 40.4386 124.062 37.7226 124.695 34.5786C125.012 31.7323 124.211 28.8862 122.46 26.6165L120.597 24.2912L119.423 27.063C119.423 27.2305 117.355 31.6766 113.182 31.6766H111.953C112.176 28.7558 111.115 25.8724 109.047 23.7889C106.532 21.2217 103.067 19.7892 99.4719 19.8078C98.801 19.8078 98.1304 19.8637 97.4784 19.9567L94.6281 20.5148L96.3978 22.8402C97.7764 24.7004 99.0247 27.9187 97.553 29.6489C96.845 30.2629 96.0441 30.7465 95.1684 31.0812C93.3056 31.9557 90.623 33.202 90.623 36.3274C90.623 38.3552 92.2064 40.4759 95.0567 42.2803C103.458 47.601 108.656 53.0888 110.91 59.2649C114.393 68.6782 109.848 74.0359 105.433 76.8635L103.458 78.1286L105.191 79.7098C106.737 81.0306 108.637 81.8492 110.668 82.0537H112.363C114.095 82.0537 115.809 81.8121 117.467 81.3096C117.057 82.0352 116.554 82.7234 116.014 83.3559C113.499 86.2768 109.773 87.8766 105.917 87.672H104.259L104.129 89.3277C104.11 91.6531 105.135 93.848 106.905 95.3551C107.37 95.7643 107.892 96.0992 108.451 96.3594C105.694 99.0383 104.129 102.703 104.073 106.554C104.073 108.656 103.589 110.74 102.676 112.637L100.813 115.428H104.129C109.606 115.428 113.797 113.921 116.703 110.926C118.212 109.345 119.33 107.428 119.982 105.345C121.062 106.256 122.329 106.889 123.708 107.205C124.36 107.354 125.03 107.428 125.701 107.428C126.707 107.428 127.713 107.298 128.682 107.075L130.805 106.517L129.874 104.545C128.7 101.401 128.7 97.9221 129.874 94.7782C130.563 92.7319 131.048 90.6111 131.308 88.4532C132.985 89.3089 134.848 89.7368 136.729 89.7183C139.822 89.7554 142.709 88.2301 144.386 85.6442L145.41 83.7839L143.547 83.0024C137.307 80.4169 135.928 73.4593 135.649 69.7013C136.264 69.8314 136.878 69.9059 137.512 69.9245L138.033 70.278C144.814 70.278 147.087 63.3764 147.18 63.0788L147.944 60.6416H145.392C140.026 60.4555 135.015 57.9256 131.7 53.7025ZM138.052 68.3991H137.791C136.431 68.4177 135.09 68.0456 133.935 67.3389C133.935 67.3389 132.948 80.7889 142.988 84.956V85.0117C141.666 87.0209 139.393 88.2115 136.99 88.1741C134.27 88.3416 131.644 87.1884 129.93 85.0861C129.986 88.2486 129.464 91.4111 128.402 94.3876C127.042 97.9781 127.042 101.959 128.402 105.55C127.564 105.754 126.726 105.866 125.869 105.866C125.347 105.866 124.807 105.81 124.304 105.68C121.826 105.085 119.852 103.261 119.05 100.862C119.05 100.862 119.442 113.772 104.371 113.772H104.259C105.396 111.614 105.992 109.214 105.973 106.777C106.625 97.2339 113.108 95.8758 113.108 95.8758C111.32 95.6527 109.624 95.0201 108.134 94.0155C106.774 92.8808 105.992 91.2065 105.954 89.4393C110.314 89.6253 114.524 87.8206 117.374 84.5095C119.088 82.5562 120.224 80.1749 120.708 77.6261C118.305 79.4308 115.343 80.3424 112.344 80.212H110.817C109.196 80.0448 107.65 79.4122 106.402 78.3517C112.139 74.6311 116.163 68.269 112.605 58.6138C109.736 50.875 102.862 45.0896 95.951 40.7364C93.6596 39.3224 92.281 37.7226 92.281 36.3459C92.281 33.1089 96.8824 33.0159 98.7824 30.765C100.962 28.2351 99.6021 24.1424 97.7018 21.6867C98.2421 21.5937 98.801 21.5565 99.3413 21.5565C102.452 21.5193 105.452 22.7657 107.612 24.9981C109.811 27.0815 110.649 30.2255 109.811 33.1278L110.817 33.3324C111.431 33.4439 112.046 33.4999 112.68 33.5184H113.089C118.548 33.5184 121.006 27.8071 121.006 27.8071C121.006 27.8071 126.819 34.9507 118.268 40.5316C116.796 41.4806 116.144 42.3919 116.405 43.322L116.536 43.936L117.15 44.0476C123.354 45.7218 126.465 50.0008 130.321 54.8561C133.972 59.4883 139.486 62.2787 145.392 62.4833H145.503C145.503 62.4833 143.64 68.3991 138.052 68.3991Z" fill="#222220"/>
</svg>
