<svg width="559" height="110" viewBox="0 0 559 110" fill="none" xmlns="http://www.w3.org/2000/svg">
<path fill-rule="evenodd" clip-rule="evenodd" d="M549.492 65.6975L554.866 72.3742C552.799 75.017 545.772 80.3027 534.198 80.3027C519.73 80.3027 509.809 70.2877 509.809 55.2652C509.809 40.2426 521.797 29.8103 535.025 29.8103C548.252 29.8103 559.826 41.9118 557.76 57.3516H520.557C520.832 61.9418 523.946 71.1223 534.198 71.1223C544.449 71.1223 548.666 67.5057 549.492 65.6975ZM520.557 49.8404H547.012C546.185 46.2238 542.63 38.9907 535.025 38.9907C525.517 38.9907 520.557 46.0847 520.557 49.8404ZM298.994 31.4795H289.487V99.9155H298.994C299.655 99.9155 299.27 82.9456 298.994 74.4606C301.336 76.6862 308.005 81.1373 315.942 81.1373C325.863 81.1373 338.677 71.5396 338.677 56.0997C338.677 40.6599 327.103 30.2276 315.942 30.2276C307.013 30.2276 300.923 34.9569 298.994 37.3216V31.4795ZM184.492 55.2652C184.492 68.4431 174.348 79.8854 160.931 79.8854C147.513 79.8854 137.369 68.4431 137.369 55.2652C137.369 42.0872 147.513 30.6449 160.931 30.6449C174.348 30.6449 184.492 42.0872 184.492 55.2652ZM160.931 71.5396C169.378 71.5396 176.225 64.2533 176.225 55.2652C176.225 46.277 169.378 38.9907 160.931 38.9907C152.484 38.9907 145.636 46.277 145.636 55.2652C145.636 64.2533 152.484 71.5396 160.931 71.5396ZM188.626 40.2426V31.4795H230.376V40.2426H214.668V78.6335H204.747V40.2426H188.626ZM238.23 31.4795H248.15V50.2576H252.284L269.232 31.4795H281.633L262.205 53.596V55.6824L281.633 78.6335H269.232L252.284 59.8554H248.15V78.6335H238.23V31.4795ZM346.944 31.4795H356.452V46.9193H368.439C377.114 46.9193 384.147 54.0188 384.147 62.7764C384.147 71.5341 377.114 78.6335 368.439 78.6335H346.944V31.4795ZM367.199 70.705H356.452V54.8479H367.199C371.537 54.8479 375.053 58.3976 375.053 62.7764C375.053 67.1552 371.537 70.705 367.199 70.705ZM400.268 31.4795H391.174V78.6335H400.268V31.4795ZM408.535 31.4795H450.698V40.2426H434.164V78.6335H424.657V40.2426H408.535V31.4795ZM468.06 31.4795H459.379V78.6335H466.406L492.862 46.9193V78.6335H501.129V31.4795H492.862L468.06 61.1073V31.4795ZM313.875 71.5488C321.865 71.5488 328.343 64.2625 328.343 55.2744C328.343 46.2863 321.865 39 313.875 39C305.885 39 299.407 46.2863 299.407 55.2744C299.407 64.2625 305.885 71.5488 313.875 71.5488Z" fill="#211703"/>
<path d="M108.559 54.7793C108.559 84.4808 84.4808 108.559 54.7793 108.559C25.0778 108.559 1 84.4808 1 54.7793C1 25.0778 25.0778 1 54.7793 1C84.4808 1 108.559 25.0778 108.559 54.7793Z" fill="#05BFF2"/>
<path d="M42.3687 19.6159L47.3329 31.6128C41.8171 33.4055 30.7855 40.4657 30.7855 54.3656C30.7855 68.2655 41.8171 76.1531 47.3329 78.3595L42.3687 90.7701C34.095 87.0469 17.5475 74.5535 17.5475 54.3656C17.5475 34.1777 34.095 22.7875 42.3687 19.6159Z" fill="white"/>
<path d="M68.0173 90.7701L63.053 78.7732C68.5689 76.9805 79.6005 69.9203 79.6005 56.0204C79.6005 42.1205 68.5689 34.2329 63.0531 32.0265L68.0173 19.6159C76.291 23.3391 92.8385 35.8324 92.8385 56.0204C92.8385 76.2083 76.291 87.5985 68.0173 90.7701Z" fill="white"/>
</svg>
