<svg width="482" height="94" viewBox="0 0 482 94" fill="none" xmlns="http://www.w3.org/2000/svg">
<path d="M428.327 79.6824H444.494V65.2777L449.482 59.389L462.407 79.773H481L461.84 50.3294L479.98 28.4958H460.82L444.721 48.8799H444.516V28.4958H428.349L428.327 79.6824ZM367.876 79.6824H384.315V61.3141H400.55V79.6824H417.08V28.3146H400.55V48.0645H384.315V28.3146H367.876V79.6824ZM330.259 66.0931C323.729 66.0931 319.216 61.3141 319.216 54.0212C319.216 46.7282 323.933 41.836 330.259 41.836C336.585 41.836 341.12 47.0227 341.12 53.9532C341.12 61.3821 336.154 66.0931 330.259 66.0931ZM326.79 80.5884C329.518 80.7651 332.248 80.276 334.745 79.1632C337.241 78.0505 339.429 76.3475 341.12 74.2014H341.324V79.6145H356.947V28.3146H340.508V33.5692L340.281 33.7277C338.531 31.6756 336.35 30.0335 333.893 28.9179C331.436 27.8023 328.763 27.2407 326.064 27.2728C312.686 27.3407 302.573 38.2802 302.573 53.9532C302.573 69.6263 312.686 80.5884 326.79 80.5884ZM269.445 66.0931C263.346 66.0931 258.63 61.1103 258.63 53.9532C258.587 52.5516 258.827 51.1557 259.334 49.8481C259.841 48.5405 260.605 47.3477 261.582 46.3405C262.559 45.3332 263.728 44.5318 265.02 43.9837C266.312 43.4357 267.701 43.1521 269.105 43.1497C270.582 43.1223 272.048 43.3999 273.413 43.965C274.777 44.5301 276.01 45.3705 277.033 46.4337C278.057 47.4969 278.85 48.7598 279.363 50.1434C279.875 51.5269 280.096 53.0013 280.012 54.4742C280.012 61.518 275.069 66.0931 269.445 66.0931V66.0931ZM270.148 80.5884C273.678 80.674 277.187 80.0378 280.461 78.7188C283.736 77.3999 286.705 75.4262 289.188 72.9189C291.67 70.4116 293.613 67.4237 294.897 64.1388C296.182 60.854 296.78 57.3415 296.655 53.8173C296.655 39.1182 286.247 29.062 274.252 29.062C270.721 28.915 267.216 29.7364 264.118 31.4372C261.021 33.138 258.448 35.6533 256.68 38.7105L256.475 38.5746C257.11 26.933 259.673 21.5199 271.531 19.3683L292.846 15.4727L288.968 1L268.561 4.60118C246.907 8.33826 242.1 22.5618 241.964 45.8449C241.896 64.6435 249.265 80.5884 270.148 80.5884V80.5884ZM205.956 66.0931C199.426 66.0931 194.914 61.3141 194.914 54.0212C194.914 46.7282 199.63 41.836 205.956 41.836C212.283 41.836 216.772 47.0227 216.772 54.0212C216.772 61.3821 211.874 66.0931 205.956 66.0931V66.0931ZM202.487 80.5884C205.187 80.7468 207.885 80.2484 210.349 79.1359C212.814 78.0234 214.971 76.3301 216.636 74.2014H216.84V79.6145H232.531V28.3146H216.024V33.5692L215.797 33.7277C214.066 31.6711 211.898 30.0249 209.45 28.9085C207.003 27.7921 204.338 27.2333 201.648 27.2728C188.383 27.2728 178.18 38.2122 178.18 53.9532C178.18 69.6942 188.383 80.5884 202.487 80.5884V80.5884ZM143.079 79.6824H159.587V41.6096H173.463V28.3146H129.112V41.6096H143.079V79.6824ZM95.4627 66.0931C88.9324 66.0931 84.4201 61.3141 84.4201 54.0212C84.4201 46.7282 89.2044 41.836 95.4627 41.836C101.721 41.836 106.278 47.0227 106.278 54.0212C106.278 61.3821 101.358 66.0931 95.4627 66.0931V66.0931ZM91.9934 80.5884C94.703 80.7464 97.4107 80.2482 99.886 79.1362C102.361 78.0241 104.531 76.3312 106.21 74.2014H106.415V79.6145H122.037V28.3146H105.598V33.5692L105.303 33.7957C103.547 31.7454 101.361 30.1049 98.9008 28.9896C96.4406 27.8743 93.7654 27.3115 91.0638 27.3407C77.7991 27.3407 67.6862 38.2802 67.6862 54.0212C67.6862 69.7622 77.8898 80.5884 91.9934 80.5884V80.5884ZM24.4683 66.0251C25.7221 63.2703 26.7386 60.4137 27.5067 57.4865C28.7118 52.2756 29.4704 46.9717 29.7741 41.6322H38.844V66.0251H24.4683ZM63.1966 66.0251H54.9884V28.3146H14.7408C15.0533 36.5714 14.4985 44.8381 13.0856 52.9793C12.1833 57.4948 10.7129 61.8782 8.70939 66.0251H1.13605L1 93H14.6048L15.149 79.6824H48.6168L49.5918 93H63.1966V66.0251Z" fill="#1D478C"/>
</svg>
