<svg width="515" height="119" viewBox="0 0 515 119" fill="none" xmlns="http://www.w3.org/2000/svg">
<path fill-rule="evenodd" clip-rule="evenodd" d="M12.0051 1.62923C6.41767 3.12953 2.60767 7.14598 1.38986 12.82C1.03134 14.4906 0.940181 26.7948 1.03502 60.8147L1.16216 106.563L2.14859 109.011C3.48209 112.32 6.8465 115.682 10.1586 117.014L12.6085 118H59.6416H106.675L109.807 116.454C114.329 114.22 116.907 110.787 117.837 105.76C118.437 102.514 118.454 17.3834 117.855 13.6933C116.809 7.25504 112.322 2.57728 106.051 1.38905C104.649 1.12314 87.7719 0.984264 59.0538 1.00142C20.9562 1.02429 13.9085 1.11824 12.0051 1.62923ZM84.3502 45.1909C84.349 60.8842 84.1949 70.3524 83.9251 71.3225C82.9648 74.7777 81.4469 76.0375 73.1029 80.3039C68.8351 82.4863 65.1068 84.2783 64.8178 84.2864C64.3935 84.2987 64.3146 79.4294 64.409 59.0788C64.5247 34.1109 64.5349 33.8396 65.4098 32.2221C66.8925 29.4821 68.7231 28.1632 76.3811 24.3187C80.4282 22.2866 83.8776 20.6143 84.0461 20.6025C84.2145 20.5906 84.3514 31.6552 84.3502 45.1909ZM191.335 26.9574C182.894 31.2647 181.338 32.3675 179.872 35.0814C179.011 36.6756 178.985 37.2009 178.785 56.7301C178.583 76.5096 178.57 76.7686 177.645 78.7721C176.446 81.3712 175.69 82.2004 173.675 83.1248C172.222 83.7914 170.844 83.8763 161.309 83.8841L150.578 83.8931V92.7025V101.512L165.397 101.36C179.157 101.219 180.449 101.144 183.486 100.306C190.162 98.4627 194.237 95.447 196.737 90.4984C199.381 85.2651 199.355 85.5804 199.523 56.1174C199.607 41.4024 199.62 27.8924 199.553 26.0951L199.429 22.8274L191.335 26.9574ZM210.368 48.4525L210.529 74.2941L211.624 78.7873C215.358 94.1125 225.004 101.67 241.945 102.542C250.122 102.963 257.12 101.719 263.35 98.7347C271.191 94.9788 275.709 88.5516 278.234 77.5619C279.029 74.103 279.089 72.3707 279.242 48.2544L279.404 22.6232H267.522H255.639V46.6671C255.639 61.2232 255.476 71.5733 255.224 72.8968C253.721 80.819 247.568 84.4192 240.418 81.5603C238.427 80.7646 236.277 78.2526 235.1 75.3476C234.186 73.0887 234.176 72.8473 233.973 47.9481L233.769 22.8274L221.988 22.7192L210.208 22.6105L210.368 48.4525ZM313.425 23.041C299.288 24.4069 290.545 30.3334 288.755 39.7624C288.528 40.9559 288.346 43.6077 288.349 45.6549C288.364 54.7956 291.754 60.8589 298.844 64.4268C302.542 66.2878 304.144 66.7203 316.55 69.2112C322.284 70.3622 327.98 71.7008 329.208 72.1864C332.149 73.3477 333.311 75.0081 333.311 78.0471C333.311 81.4153 332.16 83.3082 329.323 84.6058C325.205 86.4901 314.759 86.3618 310.851 84.3796C309.032 83.4568 307.557 80.7299 307.557 78.2922V76.5407H297.95H288.343V79.3444C288.343 91.705 296.061 98.7792 311.823 100.865C326.162 102.763 340.174 99.9654 346.736 93.8952C350.95 89.9972 352.525 85.8137 352.525 78.5173C352.525 76.1044 352.318 73.1561 352.066 71.9655C350.862 66.2759 347.599 61.9736 342.473 59.3161C338.451 57.2317 336.911 56.8069 324.162 54.2662C317.893 53.0167 312.069 51.6406 311.221 51.208C309.164 50.1599 308.064 48.6776 307.74 46.5205C306.913 41.0115 311.361 38.1449 320.735 38.1449C328.966 38.1449 332.815 40.3424 333.224 45.2763L333.412 47.5396H342.968H352.525L352.518 44.5782C352.511 41.1402 351.675 37.2173 350.424 34.7624C348.426 30.8399 343.403 27.0697 337.437 25.0151C332.187 23.2077 321.119 22.2976 313.425 23.041ZM370.103 61.6562C361.447 83.1276 354.302 100.87 354.226 101.083C354.14 101.324 358.099 101.43 364.632 101.362L375.178 101.253L377.239 96.0445L379.301 90.8358L396.416 90.9387L413.532 91.0412L415.598 96.2492L417.664 101.457H428.194H438.723L427.242 72.9666C420.927 57.2966 413.801 39.6051 411.406 33.6517L407.053 22.8274L396.447 22.722L385.842 22.617L370.103 61.6562ZM446.139 62.0401V101.457H456.768H467.397V79.3758C467.397 65.9099 467.545 57.3861 467.776 57.5286C467.985 57.6573 470.281 61.5745 472.879 66.2326C475.476 70.8912 480.968 80.6764 485.082 87.9777L492.561 101.253L503.28 101.362L514 101.471V62.0471V22.6232H503.371H492.742L492.733 44.9867L492.725 67.3502L490.792 64.0163C489.729 62.1823 484.076 52.1267 478.23 41.6699L467.601 22.6575L456.87 22.6403L446.139 22.6232V62.0401ZM402.343 63.2655L407.598 76.3365L396.556 76.4451C390.483 76.5052 385.45 76.49 385.372 76.4116C385.26 76.3005 389.444 65.7605 396.173 49.2C396.461 48.4925 395.765 46.9061 402.343 63.2655ZM54.8399 73.9878C54.7205 85.1977 54.6739 85.808 53.8109 87.4198C53.3134 88.3486 52.3397 89.6753 51.6467 90.3677C50.4858 91.5277 36.3311 99.0063 35.2964 99.0063C34.9706 99.0063 34.8774 95.6826 34.9673 87.2629C35.0859 76.1371 35.139 75.4337 35.9746 73.8857C37.4426 71.1677 39.1134 69.9664 46.8707 66.0501C50.9604 63.9857 54.4544 62.2848 54.6355 62.2705C54.817 62.2562 54.9089 67.5291 54.8399 73.9878Z" fill="#FE5000"/>
</svg>
