<svg width="524" height="91" viewBox="0 0 524 91" fill="none" xmlns="http://www.w3.org/2000/svg">
<path d="M22.6722 1H67.8848L45.8389 23.1561L67.5111 44.9367L111.229 1H190.071L158.684 32.5443H124.681L67.5111 90L1 23.1561L22.6722 1Z" fill="#BB0032"/>
<path d="M127.67 38.5527L78.3472 88.1224H122.065L140.374 69.7215H159.431L190.445 38.5527H127.67Z" fill="#BB0032"/>
<path d="M234.536 1V90H253.593V30.6667L277.133 64.8397H286.101L308.147 30.6667V90H327.951V1H306.652L281.617 41.1814L255.835 1H234.536Z" fill="#BB0032"/>
<path d="M369.053 1H348.875V90H369.053V52.0717H378.021L406.419 90H432.201L395.956 42.6835L429.212 1H404.177L378.021 35.173H369.053V1Z" fill="#BB0032"/>
<path d="M517.021 1H446.774V49.443H489.744C496.142 49.443 501.328 54.655 501.328 61.0844C501.328 67.5137 496.142 72.7257 489.744 72.7257H446.774V90H494.415C510.202 90 523 77.1381 523 61.2721C523 45.4062 510.202 32.5443 494.415 32.5443H466.578V18.6498H500.207L517.021 1Z" fill="#BB0032"/>
<path d="M446.774 49.0675H466.204V73.1013H446.774V49.0675Z" fill="#BB0032"/>
</svg>
