<svg width="498" height="73" viewBox="0 0 498 73" fill="none" xmlns="http://www.w3.org/2000/svg">
<path fill-rule="evenodd" clip-rule="evenodd" d="M139.5 56.65V31.45L127.25 52.1H123.05L110.8 31.8V56.3H101V15H109.05L124.8 40.9L140.2 15H148.25V57H139.5V56.65ZM163.65 55.2507C166.45 56.6507 169.25 57.3507 172.75 57.3507C176.25 57.3507 179.05 56.6507 181.85 55.2507C184.3 53.8507 186.75 51.7507 188.15 49.3007C189.55 46.8507 190.25 44.0507 190.25 40.9007C190.25 37.7507 189.55 34.9507 188.15 32.5007C186.75 30.0507 184.65 27.9507 181.85 26.5507C179.05 25.1507 176.25 24.4507 172.75 24.4507C169.6 24.4507 166.45 25.1507 163.65 26.5507C161.2 27.9507 158.75 30.0507 157.35 32.5007C155.95 34.9507 155.25 37.7507 155.25 40.9007C155.25 44.0507 155.95 46.8507 157.35 49.3007C158.75 51.7507 160.85 53.8507 163.65 55.2507ZM178.7 47.2007C177.3 48.9507 175.2 49.6507 172.75 49.6507C170.3 49.6507 168.2 48.9507 166.8 47.2007C165.05 45.4507 164.35 43.3507 164.35 40.5507C164.35 38.1007 165.4 35.6507 166.8 34.2507C168.2 32.5007 170.3 31.8007 172.75 31.8007C175.2 31.8007 177.3 32.5007 178.7 34.2507C180.45 35.6507 181.15 37.7507 181.15 40.5507C181.15 43.3507 180.1 45.4507 178.7 47.2007ZM232.25 49.2993V63.9993H223.5V56.9993H200.75V63.9993H192V49.2993H193.4C195.5 49.2993 196.9 48.2493 197.6 45.7993C198.3 43.6993 198.65 40.1993 199 35.9993L199.35 24.7993H227.35V49.2993H232.25ZM207.4 36.3493C207.4 39.8493 207.05 42.2993 206.7 44.3993C206.35 46.4993 205.65 48.2493 204.6 49.2993H218.25V32.4993H207.75L207.4 36.3493ZM255 58.7486L269.7 24.4486L260.6 24.7986L251.5 46.4986L242.4 24.0986H232.6L246.6 56.6486V56.9986C245.9 58.3986 245.2 59.4486 244.5 60.1486C243.8 60.8486 242.75 61.1986 241.35 61.1986C240.519 61.1986 239.908 60.9795 239.168 60.7146C238.973 60.6447 238.769 60.5717 238.55 60.4986C237.5 60.1486 236.8 59.7986 236.1 59.0986L232.6 65.7486C234 66.7986 235.05 67.4986 236.8 67.8486C238.2 68.1986 239.95 68.5486 241.7 68.5486C244.5 68.5486 247.3 67.8486 249.4 66.4486C251.5 65.0486 253.6 62.5986 255 58.7486ZM302.25 56.6507H292.8V32.1507H282.65L282.3 37.7507C282.3 40.9592 281.892 43.7591 281.543 46.1506L281.541 46.1634C281.434 46.8977 281.332 47.5935 281.25 48.2507C280.55 51.0507 279.5 53.1507 278.1 54.9007C276.7 56.3007 274.6 57.3507 272.15 57.3507C271.125 57.3507 270.1 57.1631 268.801 56.9253C268.325 56.8382 267.813 56.7445 267.25 56.6507L267.6 48.9507H269C270.4 48.9507 271.45 48.6007 272.15 47.5507C272.85 46.5007 273.2 45.1007 273.55 43.7007C273.744 42.9266 273.83 41.8315 273.928 40.5928C274.007 39.5914 274.094 38.4959 274.25 37.4007L274.6 24.4507H302.25V56.6507ZM337.95 37.7507C335.5 36.0007 332.35 34.9507 328.15 34.9507H319.75V24.4507H310.65V56.6507H327.1C331.65 56.6507 335.15 55.6007 337.6 53.8507C340.05 51.7507 341.45 48.9507 341.45 45.4507C341.45 42.3007 340.05 39.5007 337.95 37.7507ZM330.6 49.3007C329.55 50.0007 328.15 50.3507 326.4 50.3507L320.45 50.0007V41.2507H326.4C328.5 41.2507 329.55 41.6007 330.6 42.3007C331.65 43.0007 332 44.4007 332 45.8007C332 47.2007 331.65 48.6007 330.6 49.3007ZM365.25 26.9C368.4 26.9 371.2 27.6 373.3 28.65C375.75 29.7 377.5 31.45 378.55 33.9C379.95 36 380.3 38.8 380.3 41.95C380.3 45.1 379.6 47.9 378.2 50C376.8 52.45 374.7 54.2 371.9 55.6C369.1 57 366.3 57.35 362.8 57.35C357.2 57.35 352.65 55.6 349.5 52.1C346.35 48.25 344.6 43.35 344.6 36C344.6 29.7 346 24.45 348.8 20.6C351.6 16.75 356.15 14.3 361.75 12.9L377.15 9.75L378.55 17.8L364.9 20.6C361.05 21.3 358.6 22.35 356.85 24.1C355.1 25.85 354.05 28.3 353.7 31.1C355.1 29.7 356.85 28.3 358.6 27.6C360.7 27.25 363.15 26.9 365.25 26.9ZM363.15 50.35C365.6 50.35 367.35 49.65 369.1 47.9C370.5 46.5 371.2 44.4 371.2 41.95C371.2 39.5 370.5 37.4 369.1 36C367.7 34.6 365.6 33.9 363.15 33.9C360.7 33.9 358.6 34.6 357.2 36C355.8 37.4 355.1 39.5 355.1 41.95C355.1 44.4 355.8 46.5 357.2 47.9C358.6 49.65 360.7 50.35 363.15 50.35ZM410.05 27.5986C407.25 25.1486 403.4 24.0986 398.5 24.0986C396.05 24.0986 393.25 24.4486 390.8 25.4986C388.35 26.1986 386.25 27.2486 384.5 28.2986L388 34.9486C389.05 33.8986 390.45 33.1986 392.2 32.8486C393.95 32.4986 395.7 32.1486 397.45 32.1486C399.9 32.1486 402 32.8486 403.05 33.8986C404.1 34.9486 404.8 36.3486 404.8 38.4486H397.45C392.9 38.4486 389.05 39.1486 386.95 40.8986C384.5 42.6486 383.45 45.0986 383.45 47.8986C383.45 49.6486 383.8 51.3986 384.85 52.7986C385.9 54.1986 387.3 55.5986 389.05 56.2986C391.15 57.3486 393.25 57.6986 395.7 57.6986C400.6 57.6986 403.75 55.9486 405.5 53.1486V56.9986H414.25V38.4486C414.25 33.5486 412.85 30.0486 410.05 27.5986ZM402 49.9986C400.6 50.6986 399.2 51.0486 397.8 51.0486C396.05 51.0486 395 50.6986 393.6 49.6486C392.55 48.9486 392.2 47.8986 392.2 46.8486C392.2 44.3986 394.3 42.9986 398.15 42.9986H404.45V46.4986C404.1 48.2486 403.05 49.2986 402 49.9986ZM421.6 24.4507H430.7V37.0507H444.7V24.4507H454.15V56.6507H444.7V44.7507H430.7V56.6507H421.6V24.4507ZM472 44.7493H476.9L485.65 56.9993H496.85L484.6 40.1993L495.8 24.7993H485.65L476.9 37.3993H472V24.7993H462.55V56.9993H472V44.7493Z" fill="#22428F"/>
<path d="M29 1V15H43V29H57V43H71V15H57V1H29Z" fill="#22428F"/>
<path d="M15 1H1V29H15V43H1V71.5H15V57H29V43H43V29H29V15H15V1Z" fill="#22428F"/>
<path d="M43 43H57V57H43V43Z" fill="#22428F"/>
<path d="M57 57H71V71H57V57Z" fill="#22428F"/>
<path d="M29 57H43V71H29V57Z" fill="#22428F"/>
</svg>
