<svg width="423" height="85" viewBox="0 0 423 85" fill="none" xmlns="http://www.w3.org/2000/svg">
<path d="M1 42.4812C1.00643 31.4816 5.38436 20.9347 13.172 13.1568C20.9597 5.37897 31.5198 1.00655 42.5332 1V16.0212C37.2793 16.0311 32.1467 17.5979 27.7851 20.5233C23.4235 23.4488 20.0293 27.6011 18.0326 32.4545C16.0355 37.308 15.5257 42.6442 16.5674 47.7873C17.6093 52.9303 20.156 57.6489 23.8848 61.3454C27.6136 65.0418 32.3572 67.55 37.5143 68.5521C42.6714 69.5541 48.0101 69.0052 52.8546 66.9746C57.6991 64.9438 61.8314 61.523 64.7278 57.1451C67.6242 52.7675 69.1547 47.6296 69.1253 42.3824H84.1653C84.1653 53.397 79.7844 63.9605 71.9861 71.749C64.1878 79.5373 53.6111 83.913 42.5826 83.913C31.5542 83.913 20.9775 79.5373 13.1792 71.749C5.3809 63.9605 1 53.397 1 42.3824" fill="#016438"/>
<path d="M55.421 19.1588C55.4309 17.0765 56.0575 15.0437 57.2219 13.3166C58.3863 11.5894 60.0364 10.2449 61.9644 9.45255C63.8924 8.66023 66.0121 8.45542 68.0564 8.86406C70.1006 9.27269 71.9782 10.2762 73.4525 11.7487C74.9268 13.2212 75.9316 15.0964 76.3408 17.1381C76.7499 19.1798 76.5451 21.2968 75.7518 23.2224C74.9582 25.1482 73.6123 26.7961 71.8827 27.9592C70.1533 29.1221 68.118 29.7477 66.0332 29.7576C64.6387 29.7608 63.2572 29.489 61.9682 28.9573C60.6794 28.4259 59.5081 27.6455 58.5221 26.6604C57.5361 25.6757 56.7544 24.5061 56.2223 23.2187C55.6902 21.9312 55.4178 20.5514 55.421 19.1588V19.1588Z" fill="#016438"/>
<path d="M24.2279 42.4812C24.2279 38.8458 25.3074 35.2921 27.3297 32.2693C29.3519 29.2463 32.2263 26.8904 35.5893 25.4992C38.952 24.108 42.6527 23.7441 46.2227 24.4534C49.7927 25.1624 53.0721 26.9131 55.6459 29.4837C58.2198 32.0544 59.9726 35.3296 60.6828 38.8952C61.3928 42.4607 61.0284 46.1567 59.6355 49.5155C58.2426 52.874 55.8836 55.7449 52.8571 57.7646C49.8305 59.7843 46.2721 60.8624 42.6321 60.8624C37.753 60.8558 33.0758 58.9171 29.6257 55.4714C26.1757 52.0256 24.2346 47.3542 24.2279 42.4812V42.4812Z" fill="#4FAE2E"/>
<path d="M379.993 29.6586L378.732 35.9586C375.689 49.621 374.526 54.1175 372.053 67.7057L371.409 68.2245L363.098 68.4222L362.677 67.9034L366.042 53.821L366.982 49.201H349.196C347.934 54.661 346.994 59.6022 345.411 67.681L344.768 68.1998L336.456 68.3975L336.036 67.8786L339.4 53.7963L340.76 47.7186C342.435 40.9356 343.731 34.0649 344.644 27.1386L345.164 26.6198C348.065 26.2789 350.945 25.7924 353.797 25.1622L354.217 25.681L353.376 29.7822L352.263 36.0575L350.903 42.0363H368.787C369.95 36.7986 370.37 33.9575 371.409 27.2128L371.929 26.6939C374.831 26.3619 377.712 25.8752 380.562 25.2363L380.983 25.7551L380.142 29.6339L379.993 29.6586V29.6586ZM279.809 47.941C280.373 45.6342 280.687 43.2738 280.749 40.8998C280.749 32.5986 275.381 31.2398 272.338 31.2398C259.401 31.2398 257.818 51.1775 257.818 54.241C257.818 60.7634 261.702 63.7034 266.228 63.7034C274.96 63.7034 278.226 54.6857 279.784 47.9657L279.809 47.941V47.941ZM288.294 50.5845C286.513 57.6257 281.466 69.8057 266.03 69.8057C255.097 69.8057 249.11 64.1234 249.11 53.0057C249.12 51.4277 249.227 49.8518 249.432 48.2869C249.447 47.8605 249.514 47.4372 249.63 47.0269C252.574 28.4975 260.564 10.8822 278.226 10.8822C281.681 10.8508 285.127 10.495 288.516 9.81982L287.354 17.2316C283.591 18.0538 279.752 18.476 275.9 18.4916C274.409 18.4587 272.927 18.7211 271.539 19.2639C270.152 19.8067 268.883 20.619 267.812 21.6539C267.017 22.4475 266.312 23.3255 265.709 24.2728C265.241 24.9608 264.851 25.698 264.546 26.4716C267.069 25.6872 269.696 25.2956 272.338 25.3104C283.074 25.3104 289.481 31.2892 289.481 41.8881C289.451 44.8315 289.06 47.7604 288.318 50.6092L288.294 50.5845V50.5845ZM394.093 42.9998C396.097 41.3198 397.136 40.2822 399.882 37.6386C402.627 34.9951 409.776 27.7563 411.038 26.2986L411.978 25.7798H421.328L421.551 26.521C420.71 27.2622 420.289 27.5586 417.024 30.301C415.763 31.3634 414.922 32.1786 413.338 33.5622L402.726 43.4445L415.441 67.4834L414.922 68.101L405.868 68.3234L405.225 67.8045C403.122 62.8634 402.479 61.6034 399.56 55.6245L393.895 44.0622C392.114 52.0422 390.952 57.0822 388.948 67.5822L388.428 68.101L380.117 68.3234L379.696 67.8045L383.06 53.7469L384.322 47.6692C385.997 40.8862 387.293 34.0155 388.206 27.0892L388.725 26.5704C391.627 26.2384 394.509 25.7517 397.358 25.1128L397.779 25.6316L396.938 29.7328L395.676 36.0328L394.093 42.9998V42.9998ZM321.862 57.8234C321.018 58.6132 320.098 59.3166 319.116 59.9234C316.949 61.1878 314.478 61.8371 311.967 61.801C304.546 61.801 302.394 55.501 302.394 51.6222C302.507 48.3499 303.351 45.1443 304.862 42.2381C306.371 39.332 308.511 36.7986 311.126 34.8222C314.997 32.4064 319.502 31.2018 324.063 31.3634H327.749L321.862 57.8234ZM337.421 25.8786L337 25.2363H325.745C318.176 25.2363 307.663 25.7551 299.994 34.6986C295.969 39.6828 293.676 45.8398 293.464 52.2398C293.464 62.4186 300.291 68.2987 308.603 68.2987C312.981 68.4499 317.253 66.9507 320.575 64.0987L320.105 67.261L320.526 67.8786L328.194 67.6563L328.837 67.1375C330.519 57.2551 331.039 54.3151 333.785 41.7151L337.421 25.8786V25.8786Z" fill="#4FAE2E"/>
<path d="M121.369 69.5587C112.439 69.5587 99.7246 66.7175 104.35 46.2363C106.131 38.5775 111.4 22.1975 133.367 22.1975C154.715 22.1975 151.548 39.6399 150.188 45.8163C146.18 63.1599 135.568 69.5587 121.369 69.5587V69.5587ZM124.214 60.4175C130.423 60.4175 133.367 53.8952 135.247 45.594C136.607 39.714 137.992 31.1163 130.522 31.1163C124.115 31.1163 121.27 37.3175 119.39 45.594C117.708 53.401 117.263 60.4422 124.214 60.4422V60.4175ZM173.416 68.521H159.736L159.316 68.101C160.157 65.3834 162.061 58.021 164.04 48.9787C165.723 41.7399 167.083 35.3163 167.726 32.401C164.263 32.401 158.994 32.401 156.372 32.6234L155.951 31.981C156.595 29.7822 157.634 25.8787 158.153 23.581L158.895 23.161C161.196 23.161 169.928 23.3834 176.879 23.3834C185.388 23.3834 193.601 23.161 195.382 23.0622L196.025 23.4822C195.382 25.4834 194.244 29.6834 193.725 31.8822L192.884 32.401H182.049C181.628 34.2787 180.268 39.8128 178.041 49.5222C176.359 56.934 174.999 63.5799 174.257 67.9034L173.515 68.6446L173.416 68.521V68.521ZM221.158 33.4387H213.91C213.489 35.3163 211.807 42.3575 210.224 49.201C208.443 57.2799 206.761 64.741 206.118 67.8787L205.277 68.3975H191.399L190.88 67.8787C191.721 64.4199 194.021 54.7599 196.149 45.2975C198.276 35.8352 200.156 26.2987 200.775 23.6552L201.368 23.2352C205.994 23.2352 210.62 23.4575 222.073 23.4575C231.127 23.4575 239.735 23.1363 244.336 23.1363L244.757 23.6552C244.114 25.9775 241.59 36.9963 239.092 47.9163C237.088 56.7363 235.307 65.5563 234.788 67.9775L234.145 68.4963H220.168L219.748 67.8787C220.49 64.9387 222.221 57.9963 224.052 49.3987C225.511 42.8763 226.996 35.9587 227.614 33.4387H220.985H221.158V33.4387Z" fill="#016438"/>
</svg>
