<svg width="494" height="103" viewBox="0 0 494 103" fill="none" xmlns="http://www.w3.org/2000/svg">
<g clip-path="url(#clip0_8_1316)">
<path fill-rule="evenodd" clip-rule="evenodd" d="M107.51 101.73H492.04V1H107.51V101.73Z" fill="#CC003D"/>
<path fill-rule="evenodd" clip-rule="evenodd" d="M1 101.73H101.08V1H1V101.73Z" fill="#001689"/>
<path fill-rule="evenodd" clip-rule="evenodd" d="M31.3801 33.54C32.1201 35.18 33.3801 36.87 36.6401 39.14C37.1391 39.4512 37.5084 39.9328 37.6794 40.4955C37.8504 41.0582 37.8116 41.6638 37.5701 42.2C36.9401 43.69 35.7801 45.8 36.4701 46.62C37.1601 47.44 39.6701 47.88 41.6901 47.06C41.9566 47.825 42.3524 48.5387 42.8601 49.17C42.8601 49.17 42.51 49.88 41.34 49.52C41.4626 49.8787 41.5116 50.2583 41.4841 50.6363C41.4566 51.0143 41.3532 51.3829 41.1801 51.72C40.7661 51.6319 40.3771 51.4524 40.0414 51.1946C39.7058 50.9368 39.432 50.6072 39.2401 50.23C38.8584 50.8451 38.2807 51.3136 37.6001 51.56C37.6001 51.56 36.7101 51.09 36.9101 49.28C36.6591 49.7994 36.2809 50.2469 35.8106 50.5808C35.3403 50.9148 34.7931 51.1243 34.2201 51.19C33.8765 50.6558 33.7241 50.0209 33.7876 49.3889C33.8512 48.757 34.127 48.1652 34.5701 47.71C34.133 48.0275 33.6281 48.2388 33.0952 48.3273C32.5624 48.4159 32.0162 48.3791 31.5001 48.22C31.5001 48.22 31.1901 47.22 32.9701 45.79C32.3892 45.7564 31.8269 45.5729 31.338 45.2575C30.8491 44.942 30.4501 44.5054 30.1801 43.99C30.567 43.6223 31.0384 43.3551 31.5528 43.2122C32.0672 43.0692 32.6088 43.0547 33.1301 43.17C32.5102 42.9824 31.9573 42.6206 31.5371 42.1278C31.117 41.6349 30.8472 41.0318 30.7601 40.39C30.7601 40.39 32.1601 39.49 34.3801 40.93C34.0315 40.3591 33.5806 39.8574 33.0501 39.45C32.1201 38.7 30.9901 36.63 31.3801 33.57V33.54Z" fill="white"/>
<path fill-rule="evenodd" clip-rule="evenodd" d="M39.53 57.19C39.2561 56.8294 39.0277 56.4365 38.85 56.02C39.2 58.87 39.32 60.79 40.85 62.63C40.85 62.63 41.77 61.4 41.18 58.4C40.8838 58.3164 40.6034 58.1846 40.35 58.01C40.5577 58.8096 40.6019 59.6429 40.48 60.46C40.48 60.46 39.94 60.05 39.48 57.19H39.53Z" fill="white"/>
<path fill-rule="evenodd" clip-rule="evenodd" d="M36.88 56.87C36.6158 56.5302 36.3753 56.1727 36.16 55.8C36.04 57.45 35.6 61.8 37.05 63.17C37.05 63.17 38.05 62.44 38.39 56.08C38.1671 56.4355 37.9128 56.7702 37.63 57.08C37.763 58.2447 37.6014 59.4241 37.16 60.5101C37.16 60.5101 36.44 59.96 36.88 56.92V56.87Z" fill="white"/>
<path fill-rule="evenodd" clip-rule="evenodd" d="M33.43 60.19C34.64 58.72 35.01 54.32 35.01 54.32C35.18 54.21 35.35 54.08 35.52 53.95L35.72 53.77C35.7102 53.9332 35.7102 54.0968 35.72 54.26C35.54 56.91 35.33 59.64 34.51 60.99C33.939 61.8455 33.1526 62.5354 32.23 62.99C30.84 60.5 32.52 57.17 33.92 54.86L34.45 54.62C33.96 56.4 33.02 58.52 33.45 60.16L33.43 60.19Z" fill="white"/>
<path fill-rule="evenodd" clip-rule="evenodd" d="M30 52.56C29.9971 52.7733 30.0275 52.9859 30.09 53.19C30.1036 53.2551 30.1237 53.3188 30.15 53.38C28.7618 54.8106 27.5097 56.3673 26.41 58.03C25.89 58.7405 25.2237 59.3313 24.4561 59.7625C23.6884 60.1938 22.8373 60.4555 21.96 60.53C22.1283 58.6139 22.9185 56.8054 24.21 55.38C25.6279 53.8279 27.203 52.427 28.91 51.2C29.3464 51.392 29.828 51.4578 30.3 51.39H30.43C30.2717 51.6037 30.1532 51.8442 30.08 52.1C29.08 52.7 26.08 54.24 24.8 56.72C24.8 56.72 26.71 56.12 30 52.58V52.56Z" fill="white"/>
<path fill-rule="evenodd" clip-rule="evenodd" d="M27.82 50.19L27.94 49.98C27.974 49.9131 28.0142 49.8495 28.06 49.79C26.94 50.23 22.94 51.79 21.65 52.42C19.607 53.5698 18.1037 55.4831 17.47 57.74C19.2506 57.815 20.9982 57.2432 22.39 56.13C24.62 54.27 27.21 51.68 28.32 50.86C28.2224 50.7775 28.1351 50.6835 28.06 50.58C26.2133 52.1853 24.1198 53.4819 21.86 54.42C22.3455 53.5505 23.006 52.7912 23.8 52.19C25.0548 51.3552 26.3959 50.6578 27.8 50.11L27.82 50.19Z" fill="white"/>
<path fill-rule="evenodd" clip-rule="evenodd" d="M25.54 48.3C25.5773 48.1942 25.6207 48.0907 25.67 47.99C24.35 48.26 21.06 48.66 19.58 49.11C18.3679 49.4474 17.2369 50.0274 16.2554 50.8146C15.274 51.6018 14.4625 52.58 13.87 53.69C13.87 53.69 16.19 54.41 20.56 52.34C22.6676 51.2284 24.8737 50.3145 27.15 49.61C26.6618 49.5813 26.1881 49.4337 25.77 49.18C23.7691 50.1728 21.5967 50.7736 19.37 50.95C20.1072 50.4381 20.8906 49.9962 21.71 49.63C22.9545 49.099 24.2342 48.6546 25.54 48.3V48.3Z" fill="white"/>
<path fill-rule="evenodd" clip-rule="evenodd" d="M25.65 46.12C26.0633 46.3222 26.5112 46.4443 26.97 46.48C26.6391 46.6908 26.348 46.9583 26.11 47.2701C23.3215 47.9668 20.4709 48.3855 17.6 48.5201C15.372 48.7653 13.1179 48.5993 10.95 48.03C12.6768 47.02 14.5487 46.2813 16.5 45.84C18.13 45.52 22.41 45.56 24.29 45.3C24.4822 45.4631 24.6898 45.6071 24.91 45.73C23.33 45.88 19.91 46.03 18.23 46.92C20.7317 47.1274 23.2499 46.8558 25.65 46.12V46.12Z" fill="white"/>
<path fill-rule="evenodd" clip-rule="evenodd" d="M25.32 43.61C25.5775 43.4582 25.8487 43.331 26.13 43.23C22.9806 42.143 19.703 41.4706 16.38 41.23C14.0444 40.9912 11.6866 41.0922 9.38 41.53C11.358 42.8672 13.5543 43.8487 15.87 44.43C19.34 45.19 22.15 44.71 24.21 44.73C24.3597 44.4896 24.5376 44.2681 24.74 44.07C22.092 44.0193 19.4597 43.65 16.9 42.97C19.7123 42.5665 22.5794 42.7989 25.29 43.65L25.32 43.61Z" fill="white"/>
<path fill-rule="evenodd" clip-rule="evenodd" d="M25.31 41.0099C25.4243 41.4513 25.6377 41.8609 25.934 42.2074C26.2303 42.554 26.6017 42.8284 27.02 43.0099C23.93 41.6599 17.86 40.8799 14.59 39.5099C10.18 37.6599 9.38 35.3599 9.38 35.3599C12.5404 35.3481 15.6794 35.8792 18.66 36.9299C21.45 37.7899 25.66 39.3899 27.17 40.0499C26.5756 40.0719 25.9983 40.2551 25.5 40.5799C23.8921 39.933 22.2495 39.3755 20.58 38.9099C19.4291 38.5971 18.25 38.3995 17.06 38.3199C18.1437 38.9823 19.3061 39.5063 20.52 39.8799C22.0855 40.3806 23.6868 40.7617 25.31 41.0199V41.0099Z" fill="white"/>
<path fill-rule="evenodd" clip-rule="evenodd" d="M25.08 37.62C25.2 37.84 25.57 38.37 25.71 38.57C20.84 37.75 15.48 34.04 13.82 31.74C12.16 29.44 12.63 26.01 12.63 26.01C14.24 26.33 17.73 29.36 18.63 30.28C20.3868 32.0653 22.2324 33.7608 24.16 35.36L24.75 37.09C23.12 35.77 21.2 34.31 20 33.4C18.8921 32.4999 17.6549 31.7717 16.33 31.24C17.0093 32.1313 17.7729 32.9551 18.61 33.7C19.6691 34.5521 20.7924 35.3211 21.97 36C22.85 36.48 23.3 36.76 25.07 37.62H25.08Z" fill="white"/>
<path fill-rule="evenodd" clip-rule="evenodd" d="M38.83 51.35C38.97 51.22 39.11 51.09 39.21 50.98C39.7553 51.6395 40.2094 52.3694 40.56 53.15C40.84 53.96 41.14 55.05 41.29 55.68C41.4956 56.5003 41.7838 57.2977 42.15 58.06C41.7592 58.0856 41.3679 58.0183 41.0081 57.8636C40.6483 57.709 40.3303 57.4712 40.08 57.17C39.3457 56.2991 38.8955 55.2243 38.79 54.09C38.6799 53.18 38.6799 52.26 38.79 51.35H38.83Z" fill="white"/>
<path fill-rule="evenodd" clip-rule="evenodd" d="M37 51.51C37.1235 51.6822 37.2799 51.8283 37.46 51.94L37.62 52.02L37.78 51.97C37.9252 51.9273 38.0659 51.8704 38.2 51.8C38.3461 52.1616 38.4404 52.542 38.48 52.93C38.6088 53.6274 38.6088 54.3426 38.48 55.04C38.286 55.6779 37.9432 56.2605 37.48 56.74C37.0608 56.2803 36.7227 55.7528 36.48 55.18C36.2191 54.3671 36.2191 53.4929 36.48 52.68C36.6092 52.2536 36.8197 51.8563 37.1 51.51H37Z" fill="white"/>
<path fill-rule="evenodd" clip-rule="evenodd" d="M34.28 51.59C34.9498 51.512 35.5875 51.2603 36.13 50.86C36.2993 51.236 36.3482 51.6551 36.27 52.06C36.1136 52.6742 35.7628 53.2214 35.27 53.62C34.8629 54.002 34.3803 54.2946 33.8533 54.4789C33.3263 54.6631 32.7665 54.7351 32.21 54.69C32.21 54.69 31.94 53.79 34.3 51.59H34.28Z" fill="white"/>
<path fill-rule="evenodd" clip-rule="evenodd" d="M33.3799 50.1C33.4407 50.5762 33.6119 51.0317 33.8799 51.43C33.5509 52.0152 33.0595 52.4928 32.4651 52.8051C31.8707 53.1174 31.1986 53.251 30.5299 53.19C30.3791 52.7993 30.3795 52.3664 30.5312 51.9761C30.6829 51.5858 30.9749 51.2662 31.3499 51.08C31.9616 50.6464 32.6361 50.3092 33.3499 50.08L33.3799 50.1Z" fill="white"/>
<path fill-rule="evenodd" clip-rule="evenodd" d="M33.5601 48.6199C32.8509 48.7965 32.1092 48.7965 31.4001 48.6199L31.1601 48.56L31.0901 48.33C30.0201 49.2 28.7501 49.33 28.3101 50.15C28.5119 50.4629 28.8021 50.7089 29.144 50.8566C29.4858 51.0044 29.8638 51.0473 30.2301 50.9799C30.8528 50.9092 31.4551 50.7144 32.0013 50.4069C32.5475 50.0995 33.0265 49.6857 33.4101 49.19C33.4101 49.05 33.5001 48.78 33.5601 48.6V48.6199Z" fill="white"/>
<path fill-rule="evenodd" clip-rule="evenodd" d="M31.16 47.39C31.3643 46.957 31.6158 46.5478 31.91 46.17C30.9756 45.986 30.0143 45.986 29.08 46.17C27.81 46.41 26.5 46.7101 25.84 48.6801C26.175 48.9099 26.5558 49.0647 26.9562 49.1337C27.3567 49.2028 27.7673 49.1845 28.16 49.0801C29.3444 48.9082 30.418 48.2891 31.16 47.3501V47.39Z" fill="white"/>
<path fill-rule="evenodd" clip-rule="evenodd" d="M30.6201 45.26C30.2654 44.949 29.9793 44.5676 29.7801 44.14L29.6801 43.89C28.6213 43.373 27.4051 43.28 26.2801 43.63C25.559 43.8451 24.945 44.3234 24.5601 44.97C25.3308 45.5967 26.2708 45.9797 27.2601 46.07C28.4353 46.1354 29.6038 45.8537 30.6201 45.26Z" fill="white"/>
<path fill-rule="evenodd" clip-rule="evenodd" d="M31 42.9599C31.2117 42.8807 31.429 42.8172 31.65 42.7699C31.0357 42.2188 30.6121 41.4871 30.44 40.6799C29.6895 40.8131 28.9193 40.7858 28.18 40.5999C27.7804 40.4746 27.358 40.4391 26.9431 40.4962C26.5282 40.5533 26.131 40.7014 25.78 40.9299C25.9217 41.4155 26.1946 41.8526 26.5686 42.1931C26.9427 42.5336 27.4033 42.7643 27.9 42.8599C28.8901 43.2536 29.9866 43.289 31 42.9599Z" fill="white"/>
<path fill-rule="evenodd" clip-rule="evenodd" d="M30.29 40.19L30.53 40.03C30.8844 39.837 31.277 39.7243 31.68 39.7C30.7178 38.9102 29.7165 38.1693 28.68 37.48C27.4786 36.7769 26.1819 36.2515 24.83 35.92C25.2648 37.0944 25.901 38.1841 26.71 39.14C27.1532 39.6263 27.7215 39.9814 28.3528 40.1666C28.9842 40.3518 29.6543 40.3599 30.29 40.19V40.19Z" fill="white"/>
<path fill-rule="evenodd" clip-rule="evenodd" d="M32.1601 39.09C31.6759 38.3908 31.3359 37.6021 31.1601 36.77C30.9036 35.6938 30.5694 34.6377 30.1601 33.61C29.4662 32.2915 28.2804 31.2998 26.8601 30.85C26.5703 32.1986 26.7356 33.6052 27.3301 34.85C28.5073 36.6951 30.1959 38.1579 32.1901 39.06L32.1601 39.09Z" fill="white"/>
<path fill-rule="evenodd" clip-rule="evenodd" d="M43.26 49.56C43.5105 49.8216 43.8093 50.0322 44.14 50.18C44.3296 50.6096 44.4157 51.0777 44.3914 51.5467C44.3671 52.0156 44.233 52.4723 44 52.88C43.3492 54.1253 42.7716 55.4075 42.27 56.72C42.27 56.72 41.85 56.65 41.39 54.34C41.2728 53.4111 40.8831 52.5377 40.27 51.83C40.5365 51.9668 40.8186 52.0709 41.11 52.14L41.42 52.19L41.56 51.91C41.7996 51.4573 41.9233 50.9522 41.92 50.44C41.92 50.3 41.92 50.17 41.92 50.05C42.1562 50.065 42.3926 50.0239 42.6098 49.93C42.8271 49.8362 43.019 49.6922 43.17 49.51V49.51L43.25 49.6L43.26 49.56Z" fill="white"/>
<path fill-rule="evenodd" clip-rule="evenodd" d="M26.27 31.79C26.27 32.01 26.27 32.24 26.27 32.5V33.05C25.09 31.53 23.67 29.71 22.33 28.05C21.6103 27.1056 20.7384 26.2878 19.75 25.63C20.3671 27.4104 21.3948 29.0206 22.75 30.33C23.8632 31.4738 25.0598 32.5333 26.33 33.5L26.45 33.93C26.5582 34.3456 26.7195 34.7455 26.93 35.1199C27.26 35.6942 27.656 36.2278 28.11 36.71C27.73 36.52 27.3 36.32 26.85 36.13L26.45 35.96C22.8704 33.8702 19.899 30.8815 17.83 27.29C16.38 24.52 16.99 21.29 17.37 19.58C19.2275 21.2817 20.9031 23.1719 22.37 25.22C23.8214 27.3022 25.1182 29.4881 26.25 31.76V31.82L26.27 31.79Z" fill="white"/>
<path fill-rule="evenodd" clip-rule="evenodd" d="M76.75 43.61C76.496 43.4581 76.2281 43.3308 75.95 43.23C79.0991 42.1419 82.3768 41.4695 85.7 41.23C88.0355 40.9912 90.3934 41.0922 92.7 41.53C90.7191 42.8685 88.5192 43.8499 86.2 44.43C82.74 45.19 79.9299 44.71 77.8699 44.73C77.7202 44.4896 77.5423 44.2681 77.34 44.07C79.988 44.0193 82.6202 43.65 85.1799 42.97C82.3643 42.5677 79.4943 42.8001 76.78 43.65L76.75 43.61Z" fill="white"/>
<path fill-rule="evenodd" clip-rule="evenodd" d="M76.77 41.01C76.6557 41.4514 76.4423 41.8609 76.146 42.2075C75.8497 42.554 75.4783 42.8285 75.06 43.01C78.14 41.66 84.22 40.88 87.48 39.51C91.9 37.66 92.7 35.36 92.7 35.36C89.5395 35.3471 86.4004 35.8782 83.42 36.93C80.63 37.79 76.42 39.39 74.9 40.05C75.5007 40.0718 76.0844 40.2549 76.59 40.58C78.1968 39.93 79.8395 39.3724 81.51 38.91C82.6574 38.5965 83.8333 38.3988 85.02 38.32C83.9363 38.9823 82.7739 39.5064 81.56 39.88C79.9942 40.3795 78.393 40.7606 76.77 41.02V41.01Z" fill="white"/>
<path fill-rule="evenodd" clip-rule="evenodd" d="M77 37.62C76.88 37.84 76.51 38.37 76.37 38.57C81.24 37.75 86.6 34.04 88.26 31.74C89.92 29.44 89.45 26.01 89.45 26.01C87.84 26.33 84.35 29.36 83.45 30.28C81.6933 32.0653 79.8476 33.7608 77.92 35.36L77.33 37.09C78.95 35.77 80.88 34.31 82.08 33.4C83.188 32.4999 84.4252 31.7717 85.75 31.24C85.0707 32.1313 84.3072 32.9551 83.47 33.7C82.4093 34.5547 81.2825 35.3238 80.1 36C79.23 36.48 78.78 36.76 77.01 37.62H77Z" fill="white"/>
<path fill-rule="evenodd" clip-rule="evenodd" d="M75.82 31.79C75.82 32.01 75.82 32.24 75.82 32.5V33.05C77 31.53 78.42 29.71 79.76 28.05C80.4796 27.1056 81.3516 26.2878 82.34 25.63C81.7205 27.4093 80.6931 29.0189 79.34 30.33C78.2244 31.4713 77.028 32.5308 75.76 33.5L75.63 33.93C75.5294 34.3465 75.3712 34.7471 75.16 35.1199C74.83 35.6942 74.434 36.2278 73.98 36.71C74.36 36.52 74.79 36.32 75.23 36.13L75.64 35.96C79.2195 33.8702 82.191 30.8815 84.26 27.29C85.7 24.52 85.1 21.29 84.72 19.58C82.8629 21.2821 81.1873 23.1722 79.72 25.22C78.2719 27.3024 76.9784 29.4883 75.85 31.76V31.82L75.82 31.79Z" fill="white"/>
<path fill-rule="evenodd" clip-rule="evenodd" d="M30.86 53.67C29.38 55.16 26.25 58.51 26.54 62.15C28.2084 61.6082 29.6525 60.533 30.65 59.09C31.3332 57.6815 32.1502 56.342 33.09 55.09C32.7584 55.139 32.4215 55.139 32.09 55.09H31.82C31.09 56.44 29.62 58.65 28.31 59.42C28.31 59.42 27.97 57.63 31.84 54C31.9028 53.8224 31.9832 53.6516 32.08 53.49C31.6916 53.6276 31.2819 53.6953 30.87 53.69L30.86 53.67Z" fill="white"/>
<path fill-rule="evenodd" clip-rule="evenodd" d="M70.7 33.54C69.96 35.18 68.7 36.87 65.45 39.14C64.9459 39.4466 64.5718 39.9274 64.3985 40.4914C64.2253 41.0554 64.2649 41.6633 64.51 42.2C65.13 43.69 66.3 45.8 65.6 46.62C64.9 47.44 62.41 47.88 60.38 47.06C60.1181 47.8251 59.7256 48.539 59.22 49.17C59.22 49.17 59.57 49.88 60.74 49.52C60.617 49.8782 60.567 50.2574 60.5927 50.6352C60.6185 51.013 60.7196 51.3818 60.89 51.72C61.3039 51.6319 61.693 51.4524 62.0286 51.1946C62.3643 50.9368 62.6381 50.6072 62.83 50.23C63.2116 50.8451 63.7894 51.3136 64.47 51.56C64.47 51.56 65.37 51.09 65.17 49.28C65.4233 49.7949 65.8028 50.2374 66.2731 50.5661C66.7435 50.8948 67.2894 51.0991 67.86 51.16C68.2022 50.6247 68.353 49.9892 68.2876 49.3572C68.2222 48.7252 67.9446 48.134 67.5 47.68C67.9392 47.9969 68.4458 48.2078 68.9801 48.2963C69.5145 48.3848 70.062 48.3484 70.58 48.19C70.58 48.19 70.89 47.19 69.1 45.76C69.6836 45.7269 70.2488 45.5438 70.741 45.2285C71.2332 44.9132 71.6358 44.4763 71.91 43.96C71.5163 43.5866 71.0364 43.3162 70.513 43.1732C69.9896 43.0301 69.4389 43.0187 68.91 43.14C69.5298 42.9524 70.0827 42.5906 70.5029 42.0978C70.9231 41.6049 71.1928 41.0018 71.28 40.36C71.28 40.36 69.88 39.46 67.66 40.9C68.0027 40.3279 68.4506 39.8257 68.98 39.42C69.92 38.67 71.05 36.6 70.66 33.54H70.7Z" fill="white"/>
<path fill-rule="evenodd" clip-rule="evenodd" d="M62.55 57.19C62.8201 56.8269 63.0482 56.4344 63.23 56.02C62.89 58.87 62.76 60.79 61.23 62.63C61.23 62.63 60.31 61.4 60.9 58.4C61.1962 58.3164 61.4766 58.1846 61.73 58.01C61.5219 58.8094 61.4743 59.6421 61.59 60.46C61.59 60.46 62.15 60.05 62.59 57.19H62.55Z" fill="white"/>
<path fill-rule="evenodd" clip-rule="evenodd" d="M65.1999 56.87C65.4675 56.5327 65.7082 56.1749 65.9199 55.8C66.0399 57.45 66.4799 61.8 65.0299 63.17C65.0299 63.17 64.0299 62.44 63.6799 56.08C63.9061 56.4331 64.1603 56.7675 64.4399 57.08C64.3101 58.2455 64.4752 59.425 64.9199 60.5101C64.9199 60.5101 65.6399 59.96 65.1999 56.92V56.87Z" fill="white"/>
<path fill-rule="evenodd" clip-rule="evenodd" d="M68.65 60.19C67.43 58.72 67.07 54.32 67.07 54.32C66.9 54.21 66.73 54.08 66.56 53.95L66.36 53.77C66.3698 53.9332 66.3698 54.0968 66.36 54.26C66.53 56.91 66.75 59.64 67.57 60.99C68.141 61.8455 68.9274 62.5354 69.85 62.99C71.24 60.5 69.56 57.17 68.16 54.86C67.98 54.79 67.81 54.71 67.63 54.62C68.12 56.4 69.06 58.52 68.63 60.16L68.65 60.19Z" fill="white"/>
<path fill-rule="evenodd" clip-rule="evenodd" d="M72.09 52.56C72.1001 52.773 72.073 52.9862 72.01 53.19C72.01 53.24 72.01 53.31 71.95 53.38C73.3352 54.8132 74.5871 56.3697 75.69 58.03C76.2096 58.741 76.8757 59.3321 77.6434 59.7634C78.4112 60.1947 79.2625 60.4561 80.14 60.53C79.9674 58.615 79.1778 56.8078 77.89 55.38C76.4742 53.8258 74.8988 52.4247 73.19 51.2C72.7536 51.392 72.272 51.4578 71.8 51.39H71.66C71.8172 51.6059 71.9387 51.8456 72.02 52.1C73.02 52.7 76.08 54.24 77.3 56.72C77.3 56.72 75.39 56.12 72.09 52.58V52.56Z" fill="white"/>
<path fill-rule="evenodd" clip-rule="evenodd" d="M74.26 50.19L74.14 49.98C74.1059 49.9131 74.0658 49.8495 74.02 49.79C75.14 50.23 79.14 51.79 80.43 52.42C82.4708 53.5723 83.9733 55.4846 84.61 57.74C82.8293 57.8159 81.0814 57.244 79.69 56.13C77.46 54.27 74.87 51.68 73.76 50.86C73.855 50.7748 73.942 50.6811 74.02 50.58C75.8641 52.1836 77.9541 53.4802 80.21 54.42C79.7213 53.5783 79.0643 52.8464 78.28 52.27C77.0252 51.4352 75.6841 50.7378 74.28 50.19H74.26Z" fill="white"/>
<path fill-rule="evenodd" clip-rule="evenodd" d="M76.5399 48.3C76.5399 48.19 76.4499 48.09 76.4099 47.99C77.7299 48.26 81.0199 48.66 82.4999 49.11C83.7115 49.4485 84.8421 50.0288 85.8234 50.8159C86.8047 51.6031 87.6166 52.5807 88.2099 53.69C88.2099 53.69 85.8899 54.41 81.5099 52.34C79.4052 51.2295 77.2026 50.3156 74.9299 49.61C75.4175 49.5778 75.8904 49.4304 76.3099 49.18C78.3113 50.1717 80.4835 50.7724 82.7099 50.95C81.971 50.4409 81.1878 49.9991 80.3699 49.63C79.1248 49.1005 77.8452 48.6562 76.5399 48.3V48.3Z" fill="white"/>
<path fill-rule="evenodd" clip-rule="evenodd" d="M76.43 46.12C76.0161 46.3208 75.5685 46.4429 75.11 46.48C75.4408 46.6908 75.7319 46.9583 75.97 47.2701C78.7584 47.9668 81.609 48.3855 84.48 48.5201C86.7046 48.7662 88.9556 48.6001 91.12 48.03C89.3975 47.0183 87.5287 46.2795 85.58 45.84C83.95 45.52 79.67 45.56 77.79 45.3C77.5956 45.4603 77.3882 45.6041 77.17 45.73C78.75 45.88 82.11 46.03 83.85 46.92C81.3483 47.1274 78.83 46.8558 76.43 46.12Z" fill="white"/>
<path fill-rule="evenodd" clip-rule="evenodd" d="M63.2501 51.35C63.1001 51.22 62.9801 51.09 62.8601 50.98C62.3188 51.6404 61.8681 52.3702 61.5201 53.15C61.2401 53.96 60.9401 55.05 60.7901 55.68C60.5844 56.5003 60.2963 57.2977 59.9301 58.06C60.3192 58.088 60.7095 58.0239 61.0692 57.8727C61.4288 57.7215 61.7478 57.4876 62.0001 57.19C62.7344 56.3191 63.1845 55.2443 63.29 54.11C63.3953 53.1997 63.3953 52.2803 63.29 51.37L63.2501 51.35Z" fill="white"/>
<path fill-rule="evenodd" clip-rule="evenodd" d="M65.12 51.51C65.0015 51.683 64.8483 51.8295 64.67 51.94L64.51 52.02L64.34 51.97C64.1994 51.9235 64.0623 51.8667 63.93 51.8C63.7839 52.1616 63.6897 52.542 63.65 52.93C63.5208 53.6274 63.5208 54.3426 63.65 55.04C63.8478 55.6762 64.1901 56.258 64.65 56.74C65.0665 56.2782 65.4043 55.7512 65.65 55.18C65.9064 54.3664 65.9064 53.4936 65.65 52.68C65.5108 52.2538 65.2938 51.8571 65.01 51.51H65.12Z" fill="white"/>
<path fill-rule="evenodd" clip-rule="evenodd" d="M67.7999 51.59C67.1298 51.5138 66.4916 51.262 65.9499 50.86C65.7807 51.236 65.7318 51.6551 65.8099 52.06C65.9588 52.6775 66.311 53.2269 66.8099 53.62C67.2171 54.002 67.6997 54.2946 68.2267 54.4789C68.7537 54.6631 69.3134 54.7351 69.8699 54.69C69.8699 54.69 70.1399 53.79 67.7799 51.59H67.7999Z" fill="white"/>
<path fill-rule="evenodd" clip-rule="evenodd" d="M68.6899 50.1C68.6395 50.5787 68.4674 51.0366 68.1899 51.43C68.5229 52.017 69.0176 52.496 69.6151 52.8098C70.2125 53.1236 70.8876 53.259 71.5599 53.2C71.7085 52.8091 71.7069 52.3771 71.5554 51.9874C71.404 51.5977 71.1134 51.2779 70.7399 51.09C70.1124 50.6527 69.4208 50.3154 68.6899 50.09V50.1Z" fill="white"/>
<path fill-rule="evenodd" clip-rule="evenodd" d="M68.51 48.6199C69.2226 48.7966 69.9675 48.7966 70.68 48.6199L70.92 48.56L70.99 48.33C72.06 49.2 73.33 49.33 73.77 50.15C73.5682 50.4629 73.2779 50.7089 72.9361 50.8566C72.5943 51.0044 72.2163 51.0473 71.85 50.9799C71.2292 50.914 70.628 50.7243 70.0818 50.422C69.5356 50.1197 69.0555 49.711 68.67 49.22C68.6304 49.0198 68.5769 48.8227 68.51 48.63V48.6199Z" fill="white"/>
<path fill-rule="evenodd" clip-rule="evenodd" d="M70.92 47.39C70.7119 46.959 70.4606 46.5503 70.17 46.17C71.101 45.9857 72.0591 45.9857 72.9901 46.17C74.2701 46.41 75.5801 46.71 76.2401 48.68C75.9047 48.9093 75.5239 49.0636 75.1236 49.1327C74.7233 49.2017 74.3128 49.1837 73.92 49.08C72.7356 48.9081 71.662 48.289 70.92 47.35V47.39Z" fill="white"/>
<path fill-rule="evenodd" clip-rule="evenodd" d="M71.46 45.26C71.8144 44.9511 72.0975 44.569 72.2899 44.14L72.3999 43.89C73.4587 43.373 74.6749 43.28 75.8 43.63C76.5211 43.8451 77.135 44.3234 77.52 44.97C76.7492 45.5967 75.8093 45.9797 74.82 46.07C73.6448 46.1354 72.4763 45.8537 71.46 45.26V45.26Z" fill="white"/>
<path fill-rule="evenodd" clip-rule="evenodd" d="M71.13 42.96C70.9179 42.882 70.7007 42.8185 70.48 42.77C71.089 42.2146 71.5116 41.4847 71.69 40.68C72.4405 40.8131 73.2107 40.7858 73.95 40.6C74.3479 40.474 74.7688 40.4383 75.1822 40.4954C75.5956 40.5525 75.9911 40.7009 76.34 40.93C76.2024 41.4177 75.9308 41.8571 75.5561 42.1983C75.1814 42.5394 74.7185 42.7687 74.22 42.86C73.2334 43.2538 72.14 43.2892 71.13 42.96V42.96Z" fill="white"/>
<path fill-rule="evenodd" clip-rule="evenodd" d="M71.79 40.19L71.55 40.03C71.1916 39.838 70.7959 39.7254 70.39 39.7C71.3511 38.9089 72.3524 38.1679 73.39 37.48C74.587 36.7754 75.8807 36.2498 77.23 35.92C76.7951 37.0944 76.159 38.1841 75.35 39.14C74.9053 39.6272 74.3352 39.9827 73.7021 40.1679C73.069 40.3531 72.3972 40.3607 71.76 40.19H71.79Z" fill="white"/>
<path fill-rule="evenodd" clip-rule="evenodd" d="M69.92 39.09C70.4178 38.3924 70.7745 37.6043 70.97 36.77C71.2265 35.6938 71.5607 34.6377 71.97 33.61C72.6688 32.2916 73.8575 31.3004 75.28 30.85C75.5637 32.1998 75.395 33.6055 74.8 34.85C73.6228 36.6951 71.9342 38.1579 69.94 39.06L69.92 39.09Z" fill="white"/>
<path fill-rule="evenodd" clip-rule="evenodd" d="M58.83 49.56C58.5698 49.8146 58.269 50.0242 57.94 50.18C57.7534 50.61 57.6681 51.077 57.6907 51.5451C57.7132 52.0133 57.843 52.47 58.07 52.88C58.7232 54.1255 59.3042 55.4076 59.81 56.72C59.81 56.72 60.23 56.65 60.69 54.34C60.8072 53.4111 61.1969 52.5377 61.81 51.83C61.5435 51.9668 61.2614 52.0709 60.97 52.14L60.66 52.19L60.51 51.91C60.2776 51.455 60.1576 50.9509 60.16 50.44C60.16 50.3 60.16 50.17 60.16 50.05C59.9251 50.0667 59.6896 50.0263 59.4737 49.9323C59.2578 49.8382 59.0678 49.6934 58.92 49.51V49.51L58.85 49.6L58.83 49.56Z" fill="white"/>
<path fill-rule="evenodd" clip-rule="evenodd" d="M71.22 53.67C72.7 55.16 75.83 58.51 75.53 62.15C75.53 62.15 72.62 61.23 71.43 59.09C70.7508 57.6793 69.9335 56.3394 68.99 55.09C69.3215 55.1388 69.6584 55.1388 69.99 55.09H70.26C70.99 56.44 72.45 58.65 73.77 59.42C73.77 59.42 74.1 57.63 70.24 54C70.1729 53.8242 70.0927 53.6537 70 53.49C70.3849 53.6276 70.7913 53.6954 71.2 53.69L71.22 53.67Z" fill="white"/>
<path fill-rule="evenodd" clip-rule="evenodd" d="M48.77 24.6799C48.77 24.4099 49.77 24.1899 51.04 24.1899C52.31 24.1899 53.31 24.4099 53.31 24.6799C53.31 24.9499 52.31 25.1599 51.04 25.1599C49.77 25.1599 48.77 24.9399 48.77 24.6799Z" fill="white"/>
<path fill-rule="evenodd" clip-rule="evenodd" d="M51.48 25.75C51.48 25.8677 51.434 25.9806 51.3517 26.0648C51.2695 26.1489 51.1576 26.1974 51.04 26.2C50.9206 26.2 50.8062 26.1526 50.7218 26.0683C50.6374 25.9839 50.59 25.8694 50.59 25.75C50.59 25.6307 50.6374 25.5162 50.7218 25.4319C50.8062 25.3475 50.9206 25.3 51.04 25.3C51.0986 25.3 51.1566 25.3117 51.2107 25.3345C51.2647 25.3572 51.3137 25.3905 51.3547 25.4324C51.3957 25.4744 51.4279 25.5241 51.4494 25.5786C51.4709 25.6331 51.4813 25.6914 51.48 25.75V25.75Z" fill="white"/>
<path fill-rule="evenodd" clip-rule="evenodd" d="M48.61 24.19C48.0499 23.0456 47.6334 21.8365 47.37 20.59C47.37 20.33 47.7 20.12 48 20.03C48.1185 19.9669 48.2507 19.934 48.385 19.934C48.5193 19.934 48.6514 19.9669 48.77 20.03C49.16 20.33 49.53 22.78 49.66 23.8C49.3089 23.858 48.9706 23.9764 48.66 24.15L48.61 24.19Z" fill="white"/>
<path fill-rule="evenodd" clip-rule="evenodd" d="M49.9999 23.81C50.1931 23.7997 50.3868 23.7997 50.5799 23.81C50.4342 22.7203 50.2171 21.6413 49.9299 20.58C49.7399 19.94 49.4899 19.48 49.0699 19.37C49.2756 19.9585 49.4426 20.5598 49.5699 21.17C49.7499 22.1 49.8799 22.97 49.9999 23.85V23.81Z" fill="white"/>
<path fill-rule="evenodd" clip-rule="evenodd" d="M47.6 27.05C48.2392 26.8264 48.8153 26.4526 49.28 25.96C48.9289 25.978 48.5887 26.0882 48.2938 26.2796C47.9988 26.471 47.7595 26.7367 47.6 27.05V27.05ZM48.84 26.97C48.0883 27.3843 47.2376 27.5849 46.38 27.55C46.651 26.9752 47.0726 26.4846 47.6 26.13C48.3092 25.6911 49.1378 25.4848 49.97 25.54C49.7508 26.1223 49.3559 26.6221 48.84 26.97V26.97Z" fill="white"/>
<path fill-rule="evenodd" clip-rule="evenodd" d="M44.51 28.89V28.8C43.6829 28.8859 42.851 28.916 42.02 28.89C42.0389 29.0769 42.0978 29.2577 42.1927 29.4198C42.2876 29.582 42.4162 29.7219 42.57 29.83C42.64 28.9 44.51 28.89 44.51 28.89ZM40.72 27.66C41.6478 27.9869 42.6264 28.146 43.61 28.13C45.05 28.06 47.71 28.03 48.61 27.61C48.5396 27.8035 48.4293 27.98 48.2863 28.1281C48.1433 28.2763 47.9708 28.3928 47.78 28.47C48.0477 28.4906 48.301 28.5996 48.5 28.78C48.3181 29.1007 48.0271 29.3456 47.68 29.47C48.2778 30.1 49.0929 30.479 49.96 30.53C49.7337 30.7519 49.4513 30.9082 49.1431 30.9822C48.8349 31.0562 48.5124 31.045 48.21 30.95C47.8428 30.8866 47.493 30.7471 47.183 30.5405C46.873 30.3338 46.6097 30.0645 46.41 29.75C46.4897 30.0463 46.5168 30.3543 46.49 30.66C46.3046 30.6352 46.1261 30.5738 45.9647 30.4794C45.8033 30.385 45.6624 30.2594 45.55 30.11C45.7244 30.4212 45.846 30.7591 45.91 31.11C45.5748 31.0997 45.2505 30.9882 44.98 30.79C45.0629 31.015 45.1134 31.2507 45.13 31.49C44.3816 31.2551 43.6808 30.8894 43.06 30.41C43.0443 30.6397 43.0443 30.8703 43.06 31.1C43.06 31.1 40.9 30.88 40.73 27.7L40.72 27.66Z" fill="white"/>
<path fill-rule="evenodd" clip-rule="evenodd" d="M40.39 27.8801C40.4324 28.5191 40.5882 29.1455 40.85 29.73C40.4364 29.4084 40.0956 29.0029 39.85 28.5401C39.63 28.0001 39.58 27.6201 40.44 27.8801H40.39Z" fill="white"/>
<path fill-rule="evenodd" clip-rule="evenodd" d="M38.68 30.49C38.7596 30.484 38.8347 30.4509 38.8929 30.3964C38.9511 30.3418 38.9889 30.269 39 30.19C39.0087 30.1384 39.0061 30.0855 38.9922 30.0351C38.9784 29.9846 38.9537 29.9377 38.9199 29.8978C38.8861 29.8578 38.844 29.8257 38.7966 29.8037C38.7491 29.7816 38.6974 29.7702 38.645 29.7702C38.5927 29.7702 38.541 29.7816 38.4935 29.8037C38.4461 29.8257 38.404 29.8578 38.3702 29.8978C38.3364 29.9377 38.3117 29.9846 38.2979 30.0351C38.284 30.0855 38.2814 30.1384 38.29 30.19C38.29 30.2828 38.3269 30.3719 38.3926 30.4375C38.4582 30.5031 38.5472 30.54 38.64 30.54L38.68 30.49ZM40.7601 30.08C41.1728 30.3019 41.5394 30.6006 41.84 30.96C41.4027 31.0395 40.9807 31.188 40.59 31.4C40.1614 31.0659 39.6335 30.8845 39.09 30.8845C38.5466 30.8845 38.0187 31.0659 37.59 31.4C37.1963 31.1554 36.912 30.7684 36.7965 30.3194C36.681 29.8705 36.7432 29.3943 36.97 28.99C37.42 28.33 38.4301 28.44 38.9001 28.56C39.2101 29.56 40.26 29.83 40.77 30.07L40.7601 30.08Z" fill="white"/>
<path fill-rule="evenodd" clip-rule="evenodd" d="M42 31.19C42.2955 31.6078 42.6304 31.9962 43 32.35C42.3948 32.3425 41.8022 32.5232 41.3041 32.8671C40.8061 33.2111 40.4273 33.7013 40.22 34.27C40.22 34.27 39.44 33.08 40.01 32.27C40.2398 31.947 40.5384 31.6791 40.8842 31.4854C41.2301 31.2917 41.6146 31.1772 42.01 31.15L42 31.19Z" fill="white"/>
<path fill-rule="evenodd" clip-rule="evenodd" d="M44.47 31.6499L45.47 31.9299C45.47 31.9299 45.47 31.5099 45.47 31.3099C45.7031 31.3729 45.9404 31.4197 46.18 31.4499C46.5283 32.245 46.9572 33.0023 47.46 33.7099C47.4528 34.0303 47.3558 34.3421 47.18 34.6099C46.8925 33.9834 46.5077 33.4063 46.04 32.8999C45.5835 32.4258 45.0734 32.0063 44.52 31.6499H44.47Z" fill="white"/>
<path fill-rule="evenodd" clip-rule="evenodd" d="M42.58 31.3099C43.2595 31.4934 43.9094 31.7729 44.51 32.1399C44.8706 32.3427 45.1658 32.6444 45.3607 33.0094C45.5556 33.3743 45.6421 33.7874 45.61 34.1999C45.286 33.7541 44.8867 33.3683 44.43 33.0599C43.7115 32.5946 43.0844 32.0015 42.58 31.3099V31.3099Z" fill="white"/>
<path fill-rule="evenodd" clip-rule="evenodd" d="M42.59 24.03C42.81 24.03 43.21 24.13 43.21 24.47C43.0487 25.0082 42.8238 25.5252 42.54 26.01V26.01C42.2572 25.5234 42.0292 25.0069 41.86 24.47C41.86 24.13 42.28 24.03 42.49 24.03H42.59Z" fill="white"/>
<path fill-rule="evenodd" clip-rule="evenodd" d="M42.13 26.7C42.0516 26.0052 41.8554 25.3289 41.55 24.7C41.2985 24.4918 40.9751 24.3912 40.65 24.42C40.5903 24.4232 40.5321 24.4401 40.48 24.4694C40.4279 24.4986 40.3831 24.5395 40.3493 24.5888C40.3155 24.638 40.2935 24.6945 40.2849 24.7536C40.2763 24.8128 40.2815 24.8731 40.3 24.93C40.6409 25.5678 41.0182 26.1855 41.43 26.78C41.6619 26.7444 41.8956 26.721 42.13 26.71V26.7Z" fill="white"/>
<path fill-rule="evenodd" clip-rule="evenodd" d="M42.9399 26.7C43.0215 26.0046 43.221 25.3283 43.5299 24.7C43.7814 24.4918 44.1048 24.3912 44.4299 24.42C44.4889 24.425 44.546 24.4431 44.5971 24.4729C44.6482 24.5027 44.6921 24.5434 44.7256 24.5922C44.7591 24.641 44.7813 24.6966 44.7907 24.755C44.8001 24.8134 44.7964 24.8732 44.7799 24.93C44.4394 25.5701 44.0586 26.188 43.6399 26.78C43.408 26.7444 43.1743 26.721 42.9399 26.71V26.7Z" fill="white"/>
<path fill-rule="evenodd" clip-rule="evenodd" d="M43.54 22.34H42.82V21.55H42.24V22.34H41.52V22.85H42.24V23.7801H42.82V22.85H43.54V22.34Z" fill="white"/>
<path fill-rule="evenodd" clip-rule="evenodd" d="M34.84 27.5C34.8301 27.3435 34.8301 27.1865 34.84 27.03C34.8902 26.6986 34.8902 26.3615 34.84 26.03C34.32 26.23 33.97 26.35 33.26 27.51C33.26 27.51 34.4 26.8 34.79 27.51L34.84 27.5Z" fill="white"/>
<path fill-rule="evenodd" clip-rule="evenodd" d="M35.83 29.33C35.9143 28.7067 36.0617 28.0935 36.27 27.5C36.5178 26.6281 36.4359 25.6954 36.04 24.88C35.6975 24.2715 35.5378 23.577 35.58 22.88C35.2133 23.0004 34.8585 23.1544 34.52 23.34C34.5464 24.0699 34.7637 24.7802 35.15 25.4C35.3485 25.9332 35.4003 26.5099 35.3 27.07C35.1956 27.8564 35.3843 28.6538 35.83 29.31V29.33Z" fill="white"/>
<path fill-rule="evenodd" clip-rule="evenodd" d="M35.91 23.19C35.87 23.0427 35.87 22.8874 35.91 22.74C36.4587 22.1927 37.1259 21.7787 37.86 21.53C38.0469 21.4853 38.2418 21.4865 38.4281 21.5335C38.6145 21.5805 38.7867 21.672 38.93 21.8C38.6346 21.8121 38.3553 21.9374 38.15 22.15C37.7117 22.5725 37.2 22.9114 36.64 23.15C36.3996 23.2351 36.1419 23.2591 35.89 23.22L35.91 23.19Z" fill="white"/>
<path fill-rule="evenodd" clip-rule="evenodd" d="M38.9999 21.9C39.3746 22.1978 39.63 22.62 39.7199 23.09C39.6014 23.6926 39.3744 24.2686 39.0499 24.79C38.7233 25.193 38.5371 25.6916 38.5199 26.21C38.578 26.5297 38.7397 26.8214 38.9799 27.04C38.9799 27.04 37.6799 26.73 37.5199 25.92C37.439 25.3515 37.5746 24.7733 37.8999 24.3C38.0899 23.92 38.6899 23.05 38.8399 22.69C38.9713 22.4487 39.027 22.1734 38.9999 21.9V21.9Z" fill="white"/>
<path fill-rule="evenodd" clip-rule="evenodd" d="M46.6 30.96C46.8569 31.833 47.2374 32.6647 47.73 33.43C48.0889 34.0389 48.298 34.7244 48.34 35.43C48.6538 34.7383 48.7514 33.968 48.62 33.22C48.4668 32.7262 48.2089 32.2713 47.8637 31.8864C47.5185 31.5015 47.0943 31.1957 46.62 30.99L46.6 30.96Z" fill="white"/>
<path fill-rule="evenodd" clip-rule="evenodd" d="M48.0601 31.27C48.5089 31.2744 48.9519 31.3732 49.3601 31.56C50.0148 32.0689 50.4568 32.8032 50.6001 33.62C50.1106 33.5341 49.6501 33.3279 49.2601 33.02C48.7409 32.5281 48.3319 31.9316 48.0601 31.27V31.27Z" fill="white"/>
<path fill-rule="evenodd" clip-rule="evenodd" d="M43.46 32.88C43.1761 32.9248 42.8955 32.9883 42.62 33.07C43.0235 33.1875 43.4051 33.3698 43.75 33.61C44.1539 33.961 44.4139 34.4489 44.48 34.98C44.6732 35.8 44.983 36.588 45.4 37.32H45.47C45.463 36.5466 45.6056 35.7792 45.89 35.06C45.5563 34.8534 45.259 34.5933 45.01 34.29C44.6022 33.718 44.0729 33.2433 43.46 32.9V32.88Z" fill="white"/>
<path fill-rule="evenodd" clip-rule="evenodd" d="M47.4 34.97C47.8574 35.6662 48.0458 36.505 47.93 37.33C47.66 38.33 47.04 38.68 46.67 39.48C46.4985 38.6377 46.4181 37.7794 46.43 36.92C46.4231 36.5377 46.5108 36.1597 46.6852 35.8195C46.8597 35.4793 47.1155 35.1874 47.43 34.97H47.4Z" fill="white"/>
<path fill-rule="evenodd" clip-rule="evenodd" d="M49.1 35.01C49.5095 35.7826 49.8605 36.5849 50.15 37.41C50.2257 37.6688 50.2379 37.9421 50.1857 38.2066C50.1335 38.4712 50.0183 38.7193 49.85 38.93C49.3756 39.4531 48.9505 40.0188 48.58 40.62C48.3176 40.2893 48.1115 39.9177 47.97 39.52C47.9333 38.9617 47.9874 38.4011 48.13 37.86C48.24 37.47 48.71 36.25 49.13 35.01H49.1Z" fill="white"/>
<path fill-rule="evenodd" clip-rule="evenodd" d="M49.56 40.51C49.049 41.0739 48.5905 41.683 48.19 42.33C48.0681 42.5649 47.9995 42.8238 47.9892 43.0883C47.9788 43.3528 48.0269 43.6162 48.13 43.86C48.5816 44.4956 49.1605 45.0303 49.83 45.43C49.452 44.829 49.2382 44.1394 49.21 43.43C49.21 42.86 49.69 42.35 49.78 41.99C49.8569 41.4858 49.7802 40.9701 49.56 40.51V40.51Z" fill="white"/>
<path fill-rule="evenodd" clip-rule="evenodd" d="M47.54 39.8199C47.7929 40.2049 47.9537 40.6429 48.01 41.0999C48.0352 41.6814 47.9221 42.2606 47.68 42.7899C47.3461 43.6419 46.9621 44.4733 46.53 45.2799C46.2414 44.863 45.9904 44.4213 45.78 43.9599C46.1845 43.3947 46.5455 42.7997 46.86 42.1799C47.1629 41.4173 47.3906 40.6269 47.54 39.8199V39.8199Z" fill="white"/>
<path fill-rule="evenodd" clip-rule="evenodd" d="M47.19 39.42C46.9445 40.9629 46.338 42.4259 45.42 43.69C44.42 44.92 43.66 45.3501 43.14 45.3501C42.7303 45.3166 42.3388 45.1658 42.0125 44.9158C41.6862 44.6657 41.4389 44.327 41.3 43.94C41.1495 43.5528 41.1008 43.1334 41.1586 42.722C41.2164 42.3106 41.3787 41.9209 41.63 41.59C41.63 41.59 42.1 43.06 43.11 43.12C44.12 43.18 45.72 41.89 47.19 39.42V39.42Z" fill="white"/>
<path fill-rule="evenodd" clip-rule="evenodd" d="M46.0001 38.39C46.1412 38.9648 46.1412 39.5652 46.0001 40.14C45.8639 40.7359 45.5065 41.2578 45.0001 41.6C44.8213 41.7074 44.6213 41.7743 44.414 41.7962C44.2066 41.8181 43.997 41.7944 43.7998 41.7268C43.6026 41.6592 43.4226 41.5492 43.2723 41.4047C43.1221 41.2601 43.0053 41.0845 42.9301 40.89C42.9301 40.89 45.0201 41.05 45.9301 38.39H46.0001Z" fill="white"/>
<path fill-rule="evenodd" clip-rule="evenodd" d="M49.4301 48.28C49.7101 49.02 50.7301 49.95 50.7301 50.53C50.6634 51.5779 50.3772 52.6 49.8901 53.53C49.22 52.9916 48.7228 52.2684 48.4601 51.45C48.3956 50.8872 48.4514 50.3172 48.6238 49.7776C48.7962 49.238 49.0812 48.7412 49.4601 48.32L49.4301 48.28Z" fill="white"/>
<path fill-rule="evenodd" clip-rule="evenodd" d="M48.07 49.36C48.2903 48.6673 48.6666 48.0344 49.17 47.51C49.3385 46.8957 49.2844 46.2416 49.0172 45.6633C48.75 45.085 48.287 44.6198 47.71 44.35C47.2035 45.0283 46.8272 45.7945 46.6 46.61C46.37 47.72 47.53 48.37 48.07 49.36Z" fill="white"/>
<path fill-rule="evenodd" clip-rule="evenodd" d="M45.41 44.42C45.0806 44.8765 44.6746 45.2723 44.21 45.59C44.1385 46.0699 44.1184 46.556 44.15 47.0401C44.3583 47.8683 44.6602 48.6701 45.05 49.4301C45.4963 48.8482 45.835 48.1912 46.05 47.4901C46.16 46.7701 46.15 46.18 46.18 45.84C46.18 45.84 45.66 44.99 45.38 44.42H45.41Z" fill="white"/>
<path fill-rule="evenodd" clip-rule="evenodd" d="M43 48.61C42.3959 47.712 42.0122 46.6842 41.88 45.61C42.1727 45.7651 42.4942 45.8584 42.8244 45.8842C43.1547 45.91 43.4868 45.8677 43.8 45.76C43.8598 46.383 43.843 47.011 43.75 47.63C43.6097 48.017 43.3462 48.3472 43 48.57V48.61Z" fill="white"/>
<path fill-rule="evenodd" clip-rule="evenodd" d="M43.2 48.9099C43.4788 48.6838 43.7458 48.4435 44 48.1899C44.301 48.7291 44.5747 49.2832 44.82 49.8499C44.5579 49.887 44.2918 49.8187 44.08 49.6599C43.7782 49.4428 43.497 49.1984 43.24 48.9299L43.2 48.9099Z" fill="white"/>
<path fill-rule="evenodd" clip-rule="evenodd" d="M46.42 48.19C46.0201 48.9292 45.5514 49.6289 45.02 50.28C45.1153 50.766 45.2839 51.2347 45.52 51.67C45.8591 52.2941 46.2982 52.8582 46.82 53.34C47.1524 52.7723 47.4561 52.1882 47.73 51.59C47.9206 51.134 47.9557 50.628 47.83 50.15C47.6 49.62 46.83 48.85 46.42 48.15V48.19Z" fill="white"/>
<path fill-rule="evenodd" clip-rule="evenodd" d="M48.11 52.27C48.5666 52.8848 48.9399 53.5573 49.22 54.27C49.3044 54.7068 49.2592 55.1586 49.09 55.57C48.95 55.91 48.51 56.57 48.21 57.13C47.6923 56.6543 47.2653 56.0885 46.95 55.46C46.7895 54.8851 46.8391 54.2717 47.09 53.73C47.34 53.27 47.87 52.73 48.09 52.28L48.11 52.27Z" fill="white"/>
<path fill-rule="evenodd" clip-rule="evenodd" d="M45.21 52.13C45.47 52.72 46.11 53.3 46.21 53.81C46.3136 54.0814 46.3617 54.3708 46.3514 54.6611C46.3411 54.9514 46.2726 55.2367 46.15 55.5C45.89 56.11 45.57 56.5 45.47 56.85C45.0834 56.3769 44.7482 55.864 44.47 55.32C44.3152 54.7741 44.3152 54.1959 44.47 53.65C44.6663 53.1303 44.8934 52.6227 45.15 52.13H45.21Z" fill="white"/>
<path fill-rule="evenodd" clip-rule="evenodd" d="M49.31 56.27C49.31 56.27 47.87 58.01 47.91 58.93C47.91 60.08 48.71 60.85 48.81 61.56C49.1868 61.1153 49.5216 60.6366 49.81 60.13C50.164 59.5511 50.3316 58.8773 50.29 58.2C50.2593 57.8282 50.1551 57.4661 49.9834 57.1348C49.8118 56.8035 49.5761 56.5096 49.29 56.27H49.31Z" fill="white"/>
<path fill-rule="evenodd" clip-rule="evenodd" d="M46.67 56.09C47.121 56.7154 47.3594 57.469 47.35 58.24C47.0545 58.9474 46.6787 59.6185 46.23 60.24C45.9559 59.6876 45.722 59.1161 45.53 58.53C45.41 57.99 45.53 57.12 46.67 56.04V56.09Z" fill="white"/>
<path fill-rule="evenodd" clip-rule="evenodd" d="M51.05 22.79C51.15 22.13 51.91 20.73 51.91 20.11C51.91 19.8792 51.8184 19.658 51.6552 19.4948C51.4921 19.3316 51.2708 19.24 51.04 19.24C50.8093 19.24 50.588 19.3316 50.4249 19.4948C50.2617 19.658 50.17 19.8792 50.17 20.11C50.17 20.73 50.93 22.11 51.02 22.79H51.05Z" fill="white"/>
<path fill-rule="evenodd" clip-rule="evenodd" d="M53.47 24.19C54.0346 23.0475 54.4513 21.8378 54.71 20.59C54.71 20.33 54.38 20.12 54.08 20.03C53.9615 19.9669 53.8293 19.934 53.695 19.934C53.5608 19.934 53.4286 19.9669 53.31 20.03C52.92 20.33 52.55 22.78 52.41 23.8C52.7818 23.8507 53.1411 23.9693 53.47 24.15V24.19Z" fill="white"/>
<path fill-rule="evenodd" clip-rule="evenodd" d="M52.09 23.81C51.8968 23.8001 51.7032 23.8001 51.51 23.81C51.6557 22.7203 51.8729 21.6413 52.16 20.58C52.35 19.94 52.6 19.48 53.02 19.37C52.8143 19.9585 52.6473 20.5598 52.52 21.17C52.34 22.1 52.21 22.97 52.09 23.85V23.81Z" fill="white"/>
<path fill-rule="evenodd" clip-rule="evenodd" d="M52.8 25.96C53.267 26.4545 53.8469 26.8285 54.49 27.05C54.3296 26.7353 54.0888 26.4686 53.7919 26.2772C53.4951 26.0857 53.1528 25.9763 52.8 25.96ZM52.1 25.54C52.9384 25.4853 53.7733 25.6914 54.49 26.13C55.0124 26.4874 55.43 26.9775 55.7 27.55C54.8424 27.5849 53.9916 27.3843 53.24 26.97C52.7273 26.6161 52.3307 26.1186 52.1 25.54V25.54Z" fill="white"/>
<path fill-rule="evenodd" clip-rule="evenodd" d="M59.51 29.8299C59.6637 29.7219 59.7924 29.582 59.8873 29.4198C59.9822 29.2576 60.0411 29.0769 60.06 28.8899C59.2256 28.9159 58.3904 28.8858 57.56 28.7999V28.8899C57.56 28.8899 59.44 28.8899 59.56 29.8299H59.51ZM59.03 31.0599C59.0477 30.8303 59.0477 30.5996 59.03 30.3699C58.4135 30.8503 57.7158 31.2161 56.97 31.4499C56.9861 31.2115 57.0331 30.9762 57.11 30.7499C56.8431 30.9479 56.5221 31.0595 56.19 31.0699C56.254 30.719 56.3756 30.3811 56.55 30.0699C56.3184 30.3715 55.9769 30.5692 55.6 30.6199C55.5803 30.3137 55.6107 30.0064 55.69 29.7099C55.4889 30.0233 55.2252 30.2916 54.9155 30.4981C54.6057 30.7046 54.2566 30.8448 53.89 30.9099C53.5879 31.0072 53.2648 31.0195 52.9561 30.9454C52.6474 30.8713 52.3651 30.7138 52.14 30.4899C53.007 30.4389 53.8222 30.06 54.42 29.4299C54.0729 29.3055 53.7819 29.0607 53.6 28.7399C53.799 28.5596 54.0523 28.4505 54.32 28.4299C54.1292 28.3527 53.9566 28.2363 53.8137 28.0881C53.6707 27.94 53.5604 27.7634 53.49 27.5699C54.35 27.9899 57.01 28.0199 58.49 28.0899C59.4704 28.1067 60.4458 27.9475 61.37 27.6199C61.21 30.7999 59.05 31.0199 59.05 31.0199L59.03 31.0599Z" fill="white"/>
<path fill-rule="evenodd" clip-rule="evenodd" d="M61.69 27.8801C61.6476 28.5191 61.4918 29.1455 61.23 29.73C61.6436 29.4084 61.9844 29.0029 62.23 28.5401C62.44 28.0001 62.49 27.6201 61.64 27.8801H61.69Z" fill="white"/>
<path fill-rule="evenodd" clip-rule="evenodd" d="M63.75 30.19C63.7587 30.1384 63.756 30.0855 63.7422 30.035C63.7284 29.9845 63.7037 29.9377 63.6699 29.8977C63.6361 29.8577 63.594 29.8256 63.5465 29.8036C63.4991 29.7816 63.4473 29.7702 63.395 29.7702C63.3427 29.7702 63.291 29.7816 63.2435 29.8036C63.196 29.8256 63.1539 29.8577 63.1201 29.8977C63.0863 29.9377 63.0616 29.9845 63.0478 30.035C63.034 30.0855 63.0313 30.1384 63.04 30.19C63.0541 30.2739 63.0976 30.3501 63.1625 30.4051C63.2275 30.46 63.3099 30.4902 63.395 30.4902C63.4801 30.4902 63.5625 30.46 63.6275 30.4051C63.6925 30.3501 63.7359 30.2739 63.75 30.19V30.19ZM63.18 28.62C63.66 28.5 64.67 28.39 65.12 29.05C65.3494 29.4536 65.413 29.9307 65.2973 30.3803C65.1816 30.83 64.8957 31.2171 64.5 31.46C64.0707 31.1275 63.543 30.9471 63 30.9471C62.457 30.9471 61.9294 31.1275 61.5 31.46C61.1138 31.2459 60.6948 31.0972 60.26 31.02C60.5582 30.658 60.9253 30.3589 61.34 30.14C61.84 29.9 62.9 29.59 63.2 28.63L63.18 28.62Z" fill="white"/>
<path fill-rule="evenodd" clip-rule="evenodd" d="M60.05 31.19C59.7546 31.6078 59.4197 31.9962 59.05 32.35C59.6553 32.3425 60.2479 32.5232 60.7459 32.8671C61.244 33.2111 61.6228 33.7013 61.83 34.27C61.83 34.27 62.61 33.08 62.04 32.27C61.8103 31.947 61.5117 31.6791 61.1658 31.4854C60.82 31.2917 60.4355 31.1772 60.04 31.15L60.05 31.19Z" fill="white"/>
<path fill-rule="evenodd" clip-rule="evenodd" d="M57.61 31.6499L56.61 31.9299C56.5975 31.7235 56.5975 31.5164 56.61 31.3099C56.3732 31.372 56.1327 31.4187 55.89 31.4499C55.5416 32.245 55.1127 33.0023 54.61 33.7099C54.6172 34.0303 54.7142 34.3421 54.89 34.6099C55.1762 33.985 55.5573 33.4082 56.02 32.8999C56.4826 32.4284 56.9957 32.0092 57.55 31.6499H57.61Z" fill="white"/>
<path fill-rule="evenodd" clip-rule="evenodd" d="M59.5 31.3099C58.8178 31.4948 58.1648 31.7742 57.56 32.1399C57.202 32.345 56.9096 32.6474 56.7166 33.0121C56.5237 33.3767 56.4382 33.7886 56.47 34.1999C56.7939 33.7541 57.1933 33.3683 57.65 33.0599C58.3685 32.5946 58.9955 32.0015 59.5 31.3099V31.3099Z" fill="white"/>
<path fill-rule="evenodd" clip-rule="evenodd" d="M59.48 24.03C59.27 24.03 58.86 24.13 58.86 24.47C59.0249 25.0085 59.2531 25.5254 59.54 26.01V26.01C59.8197 25.5231 60.0444 25.0066 60.21 24.47C60.21 24.13 59.8 24.03 59.59 24.03H59.48Z" fill="white"/>
<path fill-rule="evenodd" clip-rule="evenodd" d="M60 26.6999C60.0784 26.0052 60.2746 25.3289 60.58 24.6999C60.8355 24.4921 61.1618 24.3917 61.49 24.42C61.5488 24.4241 61.6058 24.4419 61.6565 24.4718C61.7072 24.5018 61.7503 24.5431 61.7823 24.5926C61.8143 24.642 61.8344 24.6983 61.8409 24.7568C61.8475 24.8154 61.8403 24.8747 61.82 24.93C61.4861 25.5696 61.112 26.1875 60.7 26.78C60.4681 26.7443 60.2344 26.721 60 26.71V26.6999Z" fill="white"/>
<path fill-rule="evenodd" clip-rule="evenodd" d="M59.13 26.7C59.0516 26.0052 58.8554 25.3289 58.55 24.7C58.2955 24.4903 57.9684 24.3896 57.64 24.42C57.5821 24.426 57.5262 24.445 57.4765 24.4754C57.4268 24.5059 57.3846 24.5471 57.353 24.596C57.3213 24.6449 57.301 24.7003 57.2936 24.7581C57.2862 24.8159 57.2918 24.8747 57.31 24.93C57.6439 25.5697 58.018 26.1876 58.43 26.78C58.65 26.78 58.6 26.78 59.13 26.71V26.7Z" fill="white"/>
<path fill-rule="evenodd" clip-rule="evenodd" d="M58.55 22.34H59.26V21.55H59.84V22.34H60.5601V22.85H59.84V23.7801H59.26V22.85H58.55V22.34Z" fill="white"/>
<path fill-rule="evenodd" clip-rule="evenodd" d="M50.03 17.6199H50.74V16.8199H51.33V17.6199H52.05V18.1199H51.33V19.0599H50.74V18.1199H50.03V17.6199Z" fill="white"/>
<path fill-rule="evenodd" clip-rule="evenodd" d="M67.24 27.5C67.24 27.34 67.24 27.19 67.24 27.03C67.1892 26.6986 67.1892 26.3614 67.24 26.03C67.75 26.23 68.1 26.35 68.82 27.51C68.82 27.51 67.68 26.8 67.29 27.51L67.24 27.5Z" fill="white"/>
<path fill-rule="evenodd" clip-rule="evenodd" d="M66.24 29.33C66.1651 28.7059 66.0209 28.0921 65.81 27.5C65.5591 26.6293 65.6374 25.6967 66.03 24.88C66.3798 24.274 66.5433 23.5784 66.5 22.88C66.8639 22.9995 67.2155 23.1535 67.55 23.34C67.5313 24.0698 67.3172 24.7812 66.93 25.4C66.7265 25.9321 66.6746 26.5102 66.78 27.07C66.8854 27.8579 66.6928 28.6567 66.24 29.31V29.33Z" fill="white"/>
<path fill-rule="evenodd" clip-rule="evenodd" d="M66.17 23.19C66.1999 23.0415 66.1999 22.8885 66.17 22.74C65.6069 22.1861 64.9219 21.7717 64.17 21.53C63.9815 21.4853 63.785 21.4865 63.5971 21.5334C63.4091 21.5804 63.2352 21.6719 63.09 21.8C63.3885 21.8106 63.6715 21.936 63.88 22.15C64.3169 22.5741 64.829 22.9132 65.39 23.15C65.6302 23.2355 65.888 23.2596 66.14 23.22L66.17 23.19Z" fill="white"/>
<path fill-rule="evenodd" clip-rule="evenodd" d="M63 21.9C62.6254 22.1978 62.3699 22.62 62.28 23.09C62.3986 23.6926 62.6256 24.2686 62.95 24.79C63.2778 25.1916 63.4609 25.6918 63.47 26.21C63.4199 26.5302 63.261 26.8233 63.02 27.04C63.02 27.04 64.32 26.73 64.47 25.92C64.559 25.3526 64.4265 24.7726 64.1 24.3C63.91 23.92 63.31 23.05 63.16 22.69C63.0287 22.4487 62.9729 22.1734 63 21.9V21.9Z" fill="white"/>
<path fill-rule="evenodd" clip-rule="evenodd" d="M55.48 30.96C55.2199 31.8335 54.836 32.6652 54.34 33.43C53.976 34.0354 53.7728 34.7239 53.75 35.43C53.431 34.7399 53.3298 33.969 53.46 33.22C53.612 32.7256 53.8695 32.2701 54.2148 31.885C54.5602 31.5 54.985 31.1946 55.46 30.99L55.48 30.96Z" fill="white"/>
<path fill-rule="evenodd" clip-rule="evenodd" d="M54 31.27C53.5511 31.2744 53.1082 31.3732 52.7 31.56C52.0423 32.0663 51.5995 32.8018 51.46 33.62C51.9494 33.5341 52.4099 33.3279 52.8 33.02C53.316 32.5254 53.7245 31.9296 54 31.27V31.27Z" fill="white"/>
<path fill-rule="evenodd" clip-rule="evenodd" d="M58.6199 32.88C58.9038 32.9248 59.1844 32.9883 59.4599 33.07C59.0557 33.1854 58.6737 33.3679 58.3299 33.61C57.9229 33.9586 57.6623 34.4478 57.5999 34.98C57.4067 35.8 57.0969 36.588 56.6799 37.32H56.6099C56.6227 36.5462 56.4798 35.7776 56.1899 35.06C56.5236 34.8534 56.8209 34.5933 57.0699 34.29C57.4777 33.718 58.007 33.2433 58.6199 32.9V32.88Z" fill="white"/>
<path fill-rule="evenodd" clip-rule="evenodd" d="M54.68 34.97C54.2233 35.6667 54.0317 36.504 54.14 37.33C54.42 38.33 55.04 38.68 55.41 39.48C55.5815 38.6377 55.6619 37.7794 55.65 36.92C55.6569 36.5377 55.5692 36.1597 55.3947 35.8195C55.2203 35.4793 54.9645 35.1874 54.65 34.97H54.68Z" fill="white"/>
<path fill-rule="evenodd" clip-rule="evenodd" d="M51.05 37.61C51.05 37.06 52.36 35.7301 52.3 35.0101C52.24 34.2901 51.3 33.78 51.04 33.67C50.81 33.78 49.86 34.2801 49.79 35.0101C49.72 35.7401 51 37.06 51.03 37.61H51.05Z" fill="white"/>
<path fill-rule="evenodd" clip-rule="evenodd" d="M53.0001 35.01C52.6085 35.7845 52.2743 36.5866 52.0001 37.41C51.9255 37.6683 51.9129 37.9406 51.9633 38.2047C52.0137 38.4688 52.1256 38.7173 52.2901 38.93C52.7683 39.4523 53.1969 40.0181 53.5701 40.62C53.8286 40.2868 54.0344 39.9158 54.1801 39.52C54.2218 38.9616 54.1677 38.4002 54.0201 37.86C53.9101 37.47 53.4401 36.25 53.0201 35.01H53.0001Z" fill="white"/>
<path fill-rule="evenodd" clip-rule="evenodd" d="M51.05 41.67C51.4214 41.3415 51.721 40.9398 51.93 40.49C52.0008 40.3102 52.0261 40.1156 52.0034 39.9237C51.9807 39.7317 51.9108 39.5484 51.8 39.39C51.48 38.98 51.07 38.52 51.05 38.14C50.9043 38.611 50.647 39.0398 50.3 39.39C50.1882 39.5481 50.1185 39.732 50.0975 39.9245C50.0765 40.1169 50.1049 40.3116 50.18 40.49C50.3813 40.9416 50.6781 41.3442 51.05 41.67V41.67Z" fill="white"/>
<path fill-rule="evenodd" clip-rule="evenodd" d="M52.5199 40.51C53.0309 41.0739 53.4894 41.683 53.8899 42.33C54.0044 42.5688 54.0638 42.8302 54.0638 43.095C54.0638 43.3598 54.0044 43.6212 53.8899 43.86C53.4436 44.5002 52.8636 45.0359 52.1899 45.43C52.5741 44.8312 52.7915 44.1408 52.8199 43.43C52.7699 42.86 52.3299 42.35 52.2499 41.99C52.173 41.4858 52.2497 40.9701 52.4699 40.51H52.5199Z" fill="white"/>
<path fill-rule="evenodd" clip-rule="evenodd" d="M54.54 39.8199C54.2824 40.2025 54.1212 40.6416 54.07 41.0999C54.0448 41.6814 54.1579 42.2606 54.4 42.7899C54.7339 43.6419 55.1179 44.4733 55.55 45.2799C55.8345 44.8605 56.0853 44.4191 56.3 43.9599C55.8955 43.3947 55.5345 42.7997 55.22 42.1799C54.9171 41.4173 54.6894 40.6269 54.54 39.8199V39.8199Z" fill="white"/>
<path fill-rule="evenodd" clip-rule="evenodd" d="M54.89 39.42C55.1355 40.9612 55.7382 42.4235 56.65 43.69C57.65 44.92 58.41 45.3501 58.94 45.3501C59.3497 45.3166 59.7412 45.1658 60.0675 44.9158C60.3938 44.6657 60.6411 44.327 60.78 43.94C60.9276 43.5523 60.9748 43.1335 60.9171 42.7226C60.8594 42.3117 60.6987 41.9221 60.45 41.59C60.45 41.59 59.98 43.06 58.97 43.12C57.96 43.18 56.36 41.89 54.89 39.42V39.42Z" fill="white"/>
<path fill-rule="evenodd" clip-rule="evenodd" d="M56.0699 38.39C55.9288 38.9648 55.9288 39.5652 56.0699 40.14C56.2061 40.7359 56.5635 41.2578 57.0699 41.6C57.2487 41.7074 57.4487 41.7743 57.656 41.7962C57.8634 41.8181 58.073 41.7944 58.2702 41.7268C58.4674 41.6592 58.6474 41.5492 58.7977 41.4047C58.9479 41.2601 59.0647 41.0845 59.1399 40.89C59.1399 40.89 57.0499 41.05 56.1399 38.39H56.0699Z" fill="white"/>
<path fill-rule="evenodd" clip-rule="evenodd" d="M51 45.68C51.3707 45.524 51.6823 45.2544 51.89 44.91C52.2136 44.4025 52.3449 43.7959 52.26 43.2C52.0804 42.7143 51.8275 42.259 51.51 41.85C51.3599 42.0086 51.1922 42.1495 51.01 42.27C50.8228 42.1523 50.6514 42.0112 50.5 41.85C50.1825 42.259 49.9296 42.7143 49.75 43.2C49.6652 43.7959 49.7964 44.4025 50.12 44.91C50.3232 45.2581 50.6363 45.529 51.01 45.68H51Z" fill="white"/>
<path fill-rule="evenodd" clip-rule="evenodd" d="M51 49.81C51.14 49.16 52.49 47.91 52.37 47.22C52.18 46.22 51.53 46.41 51.01 45.98C50.49 46.41 49.82 46.2 49.64 47.22C49.52 47.91 50.86 49.16 51 49.81Z" fill="white"/>
<path fill-rule="evenodd" clip-rule="evenodd" d="M52.66 48.28C52.37 49.02 51.35 49.95 51.35 50.53C51.4115 51.5787 51.698 52.6019 52.19 53.53C52.8631 52.9945 53.361 52.2703 53.62 51.45C53.6844 50.8872 53.6286 50.3172 53.4562 49.7776C53.2838 49.238 52.9988 48.7412 52.62 48.32L52.66 48.28Z" fill="white"/>
<path fill-rule="evenodd" clip-rule="evenodd" d="M54 49.36C53.7798 48.6673 53.4034 48.0344 52.9001 47.51C52.7274 46.8957 52.7795 46.2399 53.0472 45.6607C53.3148 45.0814 53.7803 44.6166 54.36 44.35C54.8623 45.0308 55.2383 45.7963 55.47 46.61C55.7 47.72 54.54 48.37 54 49.36Z" fill="white"/>
<path fill-rule="evenodd" clip-rule="evenodd" d="M56.67 44.42C56.9968 44.8786 57.4033 45.2749 57.87 45.59C57.9193 46.0721 57.9193 46.558 57.87 47.0401C57.6648 47.8679 57.3662 48.6697 56.98 49.4301C56.5368 48.8462 56.1985 48.1897 55.98 47.4901C55.87 46.7701 55.89 46.18 55.86 45.84C55.86 45.84 56.37 44.99 56.66 44.42H56.67Z" fill="white"/>
<path fill-rule="evenodd" clip-rule="evenodd" d="M59.12 48.61C59.7237 47.7109 60.1105 46.6839 60.25 45.61C59.9554 45.7648 59.6323 45.8579 59.3005 45.8837C58.9686 45.9095 58.635 45.8674 58.32 45.76C58.2544 46.3831 58.2746 47.0123 58.38 47.63C58.5086 48.0205 58.7706 48.3533 59.12 48.57V48.61Z" fill="white"/>
<path fill-rule="evenodd" clip-rule="evenodd" d="M58.8801 48.91C58.6144 48.6764 58.3607 48.4294 58.1201 48.17C57.819 48.7077 57.5486 49.2619 57.3101 49.83C57.4367 49.8516 57.5664 49.8458 57.6906 49.813C57.8148 49.7802 57.9306 49.7213 58.0301 49.64C58.3351 49.4232 58.6196 49.1788 58.8801 48.91Z" fill="white"/>
<path fill-rule="evenodd" clip-rule="evenodd" d="M55.66 48.19C56.0564 48.9313 56.5254 49.6314 57.06 50.28C56.9577 50.7655 56.786 51.2336 56.55 51.67C56.2177 52.2984 55.7777 52.8636 55.25 53.34C55.25 53.34 54.56 52.13 54.35 51.59C54.1549 51.1351 54.1197 50.6275 54.25 50.15C54.48 49.62 55.25 48.85 55.66 48.15V48.19Z" fill="white"/>
<path fill-rule="evenodd" clip-rule="evenodd" d="M51.0499 57.46C51.1599 57.03 51.8099 56.46 52.0499 55.77C52.2155 55.349 52.2155 54.881 52.0499 54.46C51.8399 54.04 51.1099 53.03 51.0499 52.74C50.9599 53.03 50.2399 54.04 50.0499 54.46C49.8834 54.8808 49.8834 55.3492 50.0499 55.77C50.3199 56.51 50.9699 57.03 51.0499 57.46Z" fill="white"/>
<path fill-rule="evenodd" clip-rule="evenodd" d="M53.9999 52.27C53.5433 52.8848 53.1701 53.5573 52.8899 54.27C52.8075 54.706 52.849 55.1565 53.0099 55.57C53.1499 55.91 53.6099 56.57 53.8999 57.13C54.4168 56.6559 54.8407 56.0896 55.1499 55.46C55.3207 54.8861 55.2708 54.269 55.0099 53.73C54.7699 53.27 54.2299 52.73 54.0099 52.28L53.9999 52.27Z" fill="white"/>
<path fill-rule="evenodd" clip-rule="evenodd" d="M56.8799 52.13C56.6099 52.72 55.9699 53.3 55.8799 53.81C55.7763 54.0814 55.7282 54.3708 55.7385 54.6611C55.7489 54.9514 55.8173 55.2367 55.9399 55.5C56.1999 56.11 56.51 56.5 56.62 56.85C57.0066 56.3769 57.3418 55.864 57.62 55.32C57.7748 54.7741 57.7748 54.1959 57.62 53.65C57.45 53.17 57.1499 52.56 56.9499 52.13H56.8799Z" fill="white"/>
<path fill-rule="evenodd" clip-rule="evenodd" d="M51 65.79C51 65.26 52.14 63.61 52.19 61.87C52.0668 60.8596 51.6573 59.9055 51.01 59.12V59.12C50.3705 59.9103 49.9621 60.862 49.83 61.87C49.89 63.61 50.97 65.26 51.03 65.79H51Z" fill="white"/>
<path fill-rule="evenodd" clip-rule="evenodd" d="M52.77 56.27C52.77 56.27 54.21 58.01 54.17 58.93C54.17 60.08 53.37 60.85 53.26 61.56C52.8816 61.1165 52.5467 60.6376 52.26 60.13C51.8971 59.5548 51.7288 58.8782 51.78 58.2C51.8074 57.8274 51.9101 57.4642 52.082 57.1324C52.2539 56.8007 52.4913 56.5073 52.78 56.27H52.77Z" fill="white"/>
<path fill-rule="evenodd" clip-rule="evenodd" d="M55.41 56.09C54.9544 56.7131 54.7155 57.4683 54.73 58.24C55.0291 58.9456 55.4046 59.6163 55.85 60.24C56.1241 59.6876 56.358 59.1161 56.55 58.53C56.67 57.99 56.55 57.12 55.41 56.04V56.09Z" fill="white"/>
<path fill-rule="evenodd" clip-rule="evenodd" d="M52 68.59C52.08 67.23 52.85 66.42 53 65.72C53.0947 65.305 53.1 64.8746 53.0155 64.4573C52.931 64.0401 52.7587 63.6456 52.51 63.3C52.1424 64.5839 51.6605 65.8323 51.07 67.03C51.0665 67.0533 51.0665 67.0768 51.07 67.1001C51.07 67.1001 51.07 67.04 51.07 67.03C50.4876 65.831 50.0125 64.5828 49.65 63.3C49.3978 63.644 49.2219 64.0377 49.134 64.455C49.046 64.8723 49.0481 65.3036 49.14 65.72C49.28 66.42 50.04 67.23 50.14 68.59C50.24 69.95 48.71 70.4601 48.71 70.4601C49.22 70.6501 49.8 70.7301 50.71 69.8501C50.8683 69.6961 51.0001 69.517 51.1 69.3201C51.1998 69.517 51.3316 69.6961 51.49 69.8501C52.41 70.7301 53 70.6501 53.49 70.4601C53.49 70.4601 51.97 69.94 52.06 68.59H52Z" fill="white"/>
<path fill-rule="evenodd" clip-rule="evenodd" d="M47.25 59.5699C47.4 60.0799 47.87 61.0199 47.94 61.2999C48.05 61.8399 47.94 62.4899 46.94 63.1799C46.5725 62.92 46.2711 62.5775 46.06 62.1799C45.9566 61.9858 45.9155 61.7646 45.9423 61.5462C45.9692 61.3279 46.0626 61.1232 46.21 60.9599C46.5961 60.5296 46.9504 60.0717 47.27 59.5899L47.25 59.5699Z" fill="white"/>
<path fill-rule="evenodd" clip-rule="evenodd" d="M49.29 61.58C49.2307 62.4667 49.0175 63.3363 48.66 64.15C48.4542 64.62 48.1389 65.0341 47.7406 65.3577C47.3422 65.6812 46.8723 65.9048 46.37 66.01C45.65 66.01 45.49 65.57 45.14 65.4C45.1949 65.1366 45.3153 64.8913 45.4901 64.6868C45.6649 64.4823 45.8884 64.3252 46.14 64.2299C47.4531 63.7131 48.5623 62.7829 49.3 61.58H49.29Z" fill="white"/>
<path fill-rule="evenodd" clip-rule="evenodd" d="M46.68 63.53C46.4866 63.4049 46.3115 63.2535 46.16 63.08C45.6672 63.2723 45.1948 63.5135 44.75 63.8C44.1585 64.2496 43.6246 64.7701 43.16 65.35C43.6666 65.4942 44.2034 65.4942 44.71 65.35C44.8467 64.8184 45.1651 64.3513 45.61 64.03C45.76 63.94 46.24 63.8 46.68 63.57V63.53Z" fill="white"/>
<path fill-rule="evenodd" clip-rule="evenodd" d="M45.89 62.75C45.6056 62.3674 45.4673 61.8957 45.5 61.42C45.5 61.42 44.16 62.2801 43.77 62.6001C43.2441 63.0503 42.762 63.5492 42.33 64.09C42.33 64.09 43.33 63.8601 44.13 63.6001C44.7466 63.3835 45.337 63.0984 45.89 62.75V62.75Z" fill="white"/>
<path fill-rule="evenodd" clip-rule="evenodd" d="M43.62 64.1899C42.9 64.4599 41.27 64.7199 40.62 64.9199C39.9019 65.1554 39.2689 65.5971 38.8 66.1899C38.8 66.1899 39.8 66.4699 40.33 66.6399C40.8864 66.2669 41.4795 65.952 42.1 65.6999C42.7 65.4699 43 64.8299 43.64 64.1899H43.62Z" fill="white"/>
<path fill-rule="evenodd" clip-rule="evenodd" d="M42.11 69.03C42.222 68.9382 42.3019 68.813 42.3378 68.6727C42.3738 68.5324 42.364 68.3843 42.31 68.25C42.2 67.95 41.62 67.63 41.31 67.45C40.4151 67.1143 39.504 66.824 38.58 66.58C38.4202 66.7756 38.2858 66.9906 38.18 67.22C38.12 67.34 38.18 67.47 38.43 67.51C38.88 67.59 39.96 67.39 40.22 67.56C40.48 67.73 40.4 68 40.4 68.25C40.6407 68.0924 40.9223 68.009 41.21 68.01C41.64 68.1 41.9 68.31 42.15 69.01L42.11 69.03Z" fill="white"/>
<path fill-rule="evenodd" clip-rule="evenodd" d="M40.67 66.76C41.1474 66.9138 41.6041 67.1253 42.03 67.39C42.2 67.3142 42.3429 67.1887 42.44 67.03C42.57 66.79 43.12 65.97 43.63 65.86C43.4004 65.8389 43.173 65.7988 42.95 65.74C42.6438 65.816 42.3431 65.9129 42.05 66.03C41.569 66.2313 41.1071 66.4756 40.67 66.76V66.76Z" fill="white"/>
<path fill-rule="evenodd" clip-rule="evenodd" d="M44.83 65.73C44.6287 65.8206 44.4107 65.8682 44.19 65.87C44.19 65.87 42.78 66.87 42.61 67.87C42.5387 68.1199 42.5498 68.3862 42.6417 68.6293C42.7335 68.8725 42.9012 69.0796 43.12 69.22C43.34 69.33 44.33 69.74 44.97 68.4C44.97 68.4 43.88 68.77 43.58 68.24C43.28 67.71 43.77 66.93 44.06 66.71C44.5005 66.3937 45.0395 66.2447 45.58 66.29C45.3544 66.0783 45.1023 65.8967 44.83 65.75V65.73Z" fill="white"/>
<path fill-rule="evenodd" clip-rule="evenodd" d="M35.54 77.06C35.6984 76.3094 35.9295 75.5759 36.23 74.87C36.88 73.5 38.45 69.87 41.73 69.22C42.04 69.16 41.37 68.39 41.08 68.44C40.669 68.5699 40.2834 68.7695 39.94 69.03V68.11C39.94 67.96 39.8 67.92 39.68 67.92C39.56 67.92 38.76 67.9201 38.5 68.2101C37.3982 69.7629 36.4851 71.4414 35.78 73.2101C35.07 74.9501 34.58 75.4901 33.78 75.2101C32.98 74.9301 32.58 74.07 31.27 74.33C30.7693 74.4813 30.3264 74.7813 30 75.19C30.11 75.4 30.25 75.66 30.86 75.66C31.7214 75.6883 32.5613 75.9362 33.3 76.3801C33.9863 76.8167 34.777 77.0619 35.59 77.09L35.54 77.06Z" fill="white"/>
<path fill-rule="evenodd" clip-rule="evenodd" d="M48.6301 65.78C48.7464 66.3613 48.9665 66.9169 49.2801 67.42C49.2801 67.42 48.2801 72.06 44.6701 72.42C44.7288 72.0721 44.8608 71.7406 45.0573 71.4475C45.2538 71.1544 45.5104 70.9064 45.8101 70.72C46.8801 69.99 48.4801 68.85 48.3601 67.13C48.3601 67.13 48.0801 67.19 47.5601 67.84C47.0401 68.49 45.9301 70.35 44.1801 70.36C44.3601 69.8091 44.7102 69.3294 45.1801 68.99C46.0412 68.5089 46.7909 67.8512 47.3801 67.06C47.6533 66.5236 48.0774 66.0787 48.6001 65.78H48.6301Z" fill="white"/>
<path fill-rule="evenodd" clip-rule="evenodd" d="M46.93 82.67L49.13 85.77L50.79 82.77L50.2 81.71L49 83.82L47.51 81.7299L46.89 82.67H46.93Z" fill="white"/>
<path fill-rule="evenodd" clip-rule="evenodd" d="M46.37 80.0501L41.31 72.9201L42.14 72.3201L39.53 71.3201V74.1901L40.42 73.5501L45.71 81.0101L46.33 80.0601L46.37 80.0501Z" fill="white"/>
<path fill-rule="evenodd" clip-rule="evenodd" d="M28.3 63.0999C28.95 62.3899 30.04 63.0099 31.15 64.0299C32.26 65.0499 32.95 66.0999 32.31 66.8099C31.67 67.5199 30.57 66.9099 29.46 65.8899C28.35 64.8699 27.65 63.8099 28.3 63.0999V63.0999Z" fill="white"/>
<path fill-rule="evenodd" clip-rule="evenodd" d="M30.0899 75.71L29.9799 75.62C29.6822 75.3394 29.4465 74.9996 29.2881 74.6225C29.1296 74.2453 29.0519 73.8391 29.0599 73.43C29.0599 72.6344 29.376 71.8713 29.9386 71.3087C30.5012 70.7461 31.2643 70.43 32.0599 70.43C32.8556 70.43 33.6186 70.7461 34.1813 71.3087C34.7439 71.8713 35.0599 72.6344 35.0599 73.43C35.0599 73.65 35.0599 74.03 35.0599 74.03C35.1899 73.77 35.6899 72.6 35.7899 72.39C35.5845 71.6337 35.1525 70.9584 34.5521 70.4547C33.9516 69.951 33.2114 69.6431 32.4309 69.5723C31.6504 69.5016 30.8669 69.6713 30.1856 70.0588C29.5044 70.4463 28.958 71.033 28.6199 71.74C28.7989 70.476 29.329 69.2876 30.1499 68.31C30.6549 67.9036 31.2527 67.6287 31.8899 67.51C31.3688 67.4958 30.8567 67.3707 30.3877 67.1431C29.9187 66.9155 29.5036 66.5906 29.1699 66.19C28.3734 65.6057 27.8213 64.7472 27.6199 63.78C27.7135 64.5451 27.6314 65.3214 27.3799 66.05C27.0199 67.05 26.0199 69.05 26.3799 71.26C26.7708 72.9701 27.6497 74.5298 28.9099 75.75C29.1611 76.0562 29.3206 76.4271 29.3699 76.82C29.3699 76.82 31.5199 76.82 32.0299 76.87C32.0299 76.87 32.5399 76.82 32.5299 76.5C32.5199 76.18 32.2399 76.1 31.9899 76.1C31.3316 76.148 30.6731 76.0094 30.0899 75.7V75.71Z" fill="white"/>
<path fill-rule="evenodd" clip-rule="evenodd" d="M42 76.4399C40.6758 76.9055 39.3093 77.2404 37.92 77.4399C37.0998 77.5666 36.2689 77.6102 35.44 77.5699C35.4618 77.7203 35.4374 77.8738 35.37 78.0099C35.4629 78.1238 35.5187 78.2634 35.53 78.4099C36.3728 78.4383 37.2165 78.3881 38.05 78.2599C39.5683 78.0584 41.0604 77.6929 42.5 77.1699L42 76.4599V76.4399Z" fill="white"/>
<path fill-rule="evenodd" clip-rule="evenodd" d="M44.25 76.34C46.3982 75.1224 48.2041 73.3819 49.5 71.28L49.79 70.79C49.4693 70.9054 49.1222 70.9262 48.79 70.85L48.65 71.07C47.4308 72.9737 45.7572 74.5441 43.78 75.64L44.26 76.34H44.25Z" fill="white"/>
<path fill-rule="evenodd" clip-rule="evenodd" d="M32.15 77.1301C31.6363 77.0948 31.1203 77.1115 30.61 77.1801C30.08 77.2701 29.48 77.3701 29.41 77.6701C29.34 77.9701 29.55 78.2401 29.81 78.6701C29.98 78.9301 30.37 78.7801 30.59 78.6701C31.1762 78.3946 31.7324 78.0595 32.25 77.6701C32.45 77.4501 32.53 77.1301 32.15 77.0701V77.1301Z" fill="white"/>
<path fill-rule="evenodd" clip-rule="evenodd" d="M33.4201 77.9499C33.2995 77.882 33.1662 77.8398 33.0285 77.826C32.8908 77.8122 32.7517 77.8272 32.6201 77.8699C32.2901 77.9999 31.0601 78.72 30.9801 79.07C30.9596 79.1264 30.9507 79.1863 30.9537 79.2462C30.9568 79.3062 30.9718 79.3649 30.9979 79.4189C31.024 79.473 31.0606 79.5213 31.1056 79.5609C31.1507 79.6006 31.2032 79.6309 31.2601 79.65C31.4482 79.7327 31.6467 79.7899 31.8501 79.82C31.9945 79.82 32.1372 79.7887 32.2684 79.7283C32.3996 79.6678 32.5162 79.5797 32.6101 79.4699C32.7601 79.2699 33.3401 78.5799 33.4201 78.4199C33.5001 78.2599 33.5401 78.0399 33.4201 77.9499V77.9499Z" fill="white"/>
<path fill-rule="evenodd" clip-rule="evenodd" d="M33.5701 78.72C33.3901 78.92 32.8901 79.52 32.8301 79.62C32.8196 79.6489 32.8167 79.6799 32.8217 79.7102C32.8266 79.7404 32.8392 79.7689 32.8582 79.793C32.8772 79.817 32.9021 79.8358 32.9304 79.8475C32.9587 79.8593 32.9896 79.8636 33.0201 79.86C33.5383 79.8162 34.042 79.6664 34.5001 79.42C34.9801 79.09 35.3101 78.42 34.9701 78.22C34.6301 78.02 34.1201 78.09 33.5701 78.72V78.72Z" fill="white"/>
<path fill-rule="evenodd" clip-rule="evenodd" d="M33.84 76.87C33.68 76.87 33.04 76.67 32.9 76.87C32.76 77.07 32.85 77.42 33.35 77.66C33.85 77.9 34.77 78.09 34.96 77.83C35.15 77.57 34.88 77.14 33.84 76.83V76.87Z" fill="white"/>
<path fill-rule="evenodd" clip-rule="evenodd" d="M54.83 59.5699C54.67 60.0799 54.2 61.0199 54.14 61.2999C54.03 61.8399 54.14 62.4899 55.14 63.1799C55.5075 62.92 55.8088 62.5775 56.02 62.1799C56.1247 61.9868 56.1675 61.7661 56.1424 61.5479C56.1174 61.3296 56.0258 61.1243 55.88 60.9599C55.4939 60.5296 55.1396 60.0717 54.82 59.5899L54.83 59.5699Z" fill="white"/>
<path fill-rule="evenodd" clip-rule="evenodd" d="M52.78 61.58C52.8388 62.4679 53.0555 63.3382 53.42 64.15C54.03 65.22 54.92 66.01 55.7 66.01C56.48 66.01 56.59 65.57 56.94 65.4C56.886 65.1362 56.7659 64.8905 56.591 64.6859C56.4161 64.4813 56.1921 64.3244 55.94 64.2299C54.6299 63.7081 53.5222 62.7791 52.78 61.58V61.58Z" fill="white"/>
<path fill-rule="evenodd" clip-rule="evenodd" d="M55.4 63.53C55.5901 63.4044 55.7618 63.2529 55.91 63.08C56.4039 63.27 56.8765 63.5113 57.32 63.8C57.9144 64.2496 58.4517 64.7701 58.92 65.35C58.41 65.494 57.87 65.494 57.36 65.35C57.2234 64.8184 56.905 64.3513 56.46 64.03C56.31 63.94 55.84 63.8 55.4 63.57V63.53Z" fill="white"/>
<path fill-rule="evenodd" clip-rule="evenodd" d="M56.1899 62.75C56.4783 62.3698 56.6139 61.8953 56.5699 61.42C56.5699 61.42 57.9099 62.2801 58.3099 62.6001C58.833 63.05 59.3118 63.549 59.7399 64.09C59.7399 64.09 58.7399 63.8601 57.9499 63.6001C57.3324 63.3857 56.7418 63.1004 56.1899 62.75V62.75Z" fill="white"/>
<path fill-rule="evenodd" clip-rule="evenodd" d="M58.46 64.1899C59.18 64.4599 60.8 64.7199 61.46 64.9199C62.1844 65.1541 62.8241 65.5957 63.3 66.1899C63.3 66.1899 62.3 66.4699 61.77 66.6399C61.2109 66.2656 60.6143 65.9506 59.99 65.6999C59.39 65.4699 59.1 64.8299 58.46 64.1899V64.1899Z" fill="white"/>
<path fill-rule="evenodd" clip-rule="evenodd" d="M60 69.03C59.8863 68.9395 59.8045 68.8149 59.7667 68.6745C59.7289 68.5341 59.7371 68.3853 59.79 68.25C59.9 67.95 60.49 67.63 60.85 67.45C61.741 67.113 62.6489 66.8226 63.57 66.58C63.7298 66.7756 63.8642 66.9906 63.97 67.22C64.03 67.34 63.97 67.47 63.72 67.51C63.27 67.59 62.19 67.39 61.92 67.56C61.65 67.73 61.74 68 61.74 68.25C61.5001 68.0908 61.218 68.0072 60.93 68.01C60.51 68.1 60.24 68.31 60 69.01V69.03Z" fill="white"/>
<path fill-rule="evenodd" clip-rule="evenodd" d="M61.4 66.76C60.9242 66.9177 60.4679 67.129 60.04 67.39C59.8719 67.3153 59.7319 67.1892 59.64 67.03C59.51 66.79 58.96 65.97 58.45 65.86C58.6763 65.8395 58.9005 65.7993 59.12 65.74C59.4292 65.8169 59.7332 65.9137 60.03 66.03C60.5086 66.2296 60.9673 66.474 61.4 66.76V66.76Z" fill="white"/>
<path fill-rule="evenodd" clip-rule="evenodd" d="M57.24 65.73C57.4413 65.8206 57.6593 65.8682 57.88 65.87C57.88 65.87 59.3 66.87 59.46 67.87C59.534 68.1103 59.5293 68.368 59.4465 68.6054C59.3638 68.8429 59.2074 69.0477 59 69.19C58.78 69.3 57.8 69.71 57.15 68.37C57.15 68.37 58.25 68.74 58.55 68.21C58.85 67.68 58.36 66.9 58.06 66.68C57.6198 66.3628 57.0806 66.2138 56.54 66.26C56.7656 66.0482 57.0177 65.8667 57.29 65.72L57.24 65.73Z" fill="white"/>
<path fill-rule="evenodd" clip-rule="evenodd" d="M66.5299 77.06C66.3762 76.3082 66.145 75.5743 65.8399 74.87C65.1999 73.5 63.6299 69.87 60.3399 69.22C60.0399 69.16 60.6999 68.39 60.9999 68.44C61.411 68.5699 61.7966 68.7695 62.1399 69.03V68.11C62.1399 67.96 62.2699 67.92 62.3999 67.92C62.5299 67.92 63.32 67.9201 63.57 68.2101C64.6789 69.7584 65.5925 71.4378 66.2899 73.2101C67.0099 74.9501 67.4999 75.4901 68.2899 75.2101C69.0799 74.9301 69.4999 74.07 70.8099 74.33C71.3443 74.4688 71.8227 74.7691 72.1799 75.19C72.1058 75.3524 71.9808 75.4861 71.8238 75.5709C71.6668 75.6558 71.4864 75.6871 71.3099 75.66C70.4456 75.6893 69.6027 75.937 68.8599 76.3801C68.1749 76.8195 67.3834 77.0648 66.57 77.09L66.5299 77.06Z" fill="white"/>
<path fill-rule="evenodd" clip-rule="evenodd" d="M53.44 65.78C53.3319 66.3621 53.1148 66.9186 52.8 67.42C52.8 67.42 53.8 72.06 57.41 72.42C57.3489 72.0729 57.216 71.7424 57.0196 71.4496C56.8233 71.1568 56.568 70.9083 56.27 70.72C55.2 69.99 53.6 68.85 53.71 67.13C53.71 67.13 54 67.19 54.51 67.84C55.02 68.49 56.15 70.35 57.89 70.36C57.7145 69.8068 57.3634 69.3259 56.89 68.99C56.0289 68.5089 55.2792 67.8512 54.69 67.06C54.4212 66.5205 53.9961 66.0744 53.47 65.78H53.44Z" fill="white"/>
<path fill-rule="evenodd" clip-rule="evenodd" d="M51 70.28C51.582 71.4109 52.3154 72.4572 53.18 73.39C53.78 73.94 55.18 75.39 56.01 76.14C54.753 75.8199 53.5753 75.2446 52.55 74.45C52.0784 74.7285 51.5539 74.9056 51.01 74.97V74.97C50.4661 74.9056 49.9416 74.7285 49.47 74.45C48.4475 75.2659 47.2654 75.8586 46 76.19C46.77 75.46 48.23 73.99 48.82 73.44C49.6914 72.5127 50.4255 71.4654 51 70.33V70.28Z" fill="white"/>
<path fill-rule="evenodd" clip-rule="evenodd" d="M51.05 75.43C51.4729 75.4064 51.8872 75.3011 52.27 75.12C51.9638 75.7858 51.5327 76.3866 51 76.89V76.89C50.4817 76.3853 50.0672 75.784 49.78 75.12C50.1588 75.3026 50.5701 75.4079 50.99 75.43H51.05Z" fill="white"/>
<path fill-rule="evenodd" clip-rule="evenodd" d="M53 85.7701L61.67 73.5401L62.55 74.1801V71.3101L59.93 72.3101L60.76 72.9101L53 83.8201L49.07 76.6601L48.59 77.4001L45.09 82.7201L44.22 82.1301V84.9501L46.87 83.9501L45.98 83.3501C46.46 82.6201 48.36 79.7401 48.98 78.7701L52.91 85.8201L53 85.7701Z" fill="white"/>
<path fill-rule="evenodd" clip-rule="evenodd" d="M54.53 80.97C53.94 80.08 53.36 79.18 53.06 78.72C52.84 79.14 52.39 79.94 51.89 80.83L51.27 79.72L52.96 76.66L53.45 77.4L55.19 80.04L54.53 80.97V80.97Z" fill="white"/>
<path fill-rule="evenodd" clip-rule="evenodd" d="M56.32 81.76L56.94 82.76L57.82 82.17V84.99L55.17 83.99L56.05 83.39C55.96 83.25 55.83 83.03 55.65 82.77L56.31 81.85L56.32 81.76Z" fill="white"/>
<path fill-rule="evenodd" clip-rule="evenodd" d="M73.77 63.0999C73.13 62.3899 72.0299 63.0099 70.9199 64.0299C69.8099 65.0499 69.1199 66.0999 69.7599 66.8099C70.3999 67.5199 71.5099 66.9099 72.6199 65.8899C73.7299 64.8699 74.42 63.8099 73.77 63.0999V63.0999Z" fill="white"/>
<path fill-rule="evenodd" clip-rule="evenodd" d="M72 75.71L72.1001 75.62C72.4011 75.3415 72.6397 75.0023 72.8 74.6248C72.9603 74.2473 73.0387 73.8401 73.03 73.43C73.03 72.6344 72.714 71.8713 72.1514 71.3087C71.5888 70.7461 70.8257 70.43 70.03 70.43C69.2344 70.43 68.4713 70.7461 67.9087 71.3087C67.3461 71.8713 67.03 72.6344 67.03 73.43C67.03 73.65 67.03 74.03 67.03 74.03C66.9 73.77 66.39 72.6 66.3 72.39C66.5029 71.6329 66.9332 70.9562 67.5329 70.4514C68.1325 69.9466 68.8726 69.6379 69.6533 69.567C70.4339 69.4961 71.2175 69.6665 71.8983 70.0551C72.579 70.4437 73.1241 71.0318 73.4601 71.74C73.2902 70.4734 72.759 69.2826 71.93 68.31C71.4295 67.9026 70.8346 67.6275 70.2 67.51C70.7202 67.4958 71.2314 67.3717 71.7001 67.1459C72.1689 66.9202 72.5846 66.5978 72.92 66.2C73.7166 65.6157 74.2687 64.7572 74.47 63.79C74.3685 64.5543 74.4473 65.3317 74.7 66.06C75.07 67.06 76.06 69.06 75.7 71.27C75.305 72.9762 74.4307 74.5341 73.18 75.76C72.9203 76.062 72.7567 76.4345 72.7101 76.83C72.7101 76.83 70.56 76.83 70.04 76.88C70.04 76.88 69.54 76.83 69.55 76.51C69.56 76.19 69.83 76.11 70.09 76.11C70.7483 76.1569 71.4066 76.0184 71.9901 75.71H72Z" fill="white"/>
<path fill-rule="evenodd" clip-rule="evenodd" d="M57.82 76.33C55.6793 75.1323 53.8767 73.4122 52.58 71.33L52.29 70.84C52.6109 70.9547 52.9578 70.9756 53.29 70.9C53.3377 70.9707 53.3811 71.0441 53.42 71.12C54.6427 73.0243 56.3197 74.5947 58.3 75.69L57.81 76.38L57.82 76.33Z" fill="white"/>
<path fill-rule="evenodd" clip-rule="evenodd" d="M60.09 76.4399C61.4104 76.9065 62.7737 77.2415 64.16 77.4399C64.9835 77.5664 65.8177 77.61 66.65 77.5699C66.6296 77.7193 66.6504 77.8715 66.71 78.0099C66.6217 78.1256 66.5696 78.2648 66.56 78.4099C65.7138 78.4383 64.8668 78.3881 64.03 78.2599C62.5151 78.0571 61.0265 77.6917 59.59 77.1699L60.09 76.4599V76.4399Z" fill="white"/>
<path fill-rule="evenodd" clip-rule="evenodd" d="M69.92 77.1301C70.437 77.0947 70.9563 77.1114 71.47 77.1801C72 77.2701 72.6 77.3701 72.66 77.6701C72.72 77.9701 72.53 78.2401 72.27 78.6701C72.09 78.9301 71.7 78.7801 71.49 78.6701C70.9018 78.3925 70.3424 78.0575 69.82 77.6701C69.63 77.4501 69.54 77.1301 69.92 77.0701V77.1301Z" fill="white"/>
<path fill-rule="evenodd" clip-rule="evenodd" d="M68.65 77.9499C68.7706 77.882 68.9039 77.8398 69.0416 77.826C69.1793 77.8122 69.3184 77.8272 69.45 77.8699C69.79 77.9999 71.01 78.72 71.1 79.07C71.1386 79.184 71.1308 79.3087 71.0785 79.4171C71.0261 79.5256 70.9333 79.6092 70.82 79.65C70.6314 79.7314 70.4331 79.7886 70.23 79.82C70.0856 79.82 69.9428 79.7887 69.8117 79.7283C69.6805 79.6678 69.5639 79.5797 69.47 79.4699C69.31 79.2699 68.74 78.5799 68.65 78.4199C68.56 78.2599 68.54 78.0399 68.65 77.9499V77.9499Z" fill="white"/>
<path fill-rule="evenodd" clip-rule="evenodd" d="M68.51 78.72C68.69 78.92 69.18 79.52 69.24 79.62C69.253 79.648 69.2583 79.6789 69.2551 79.7095C69.2519 79.7402 69.2405 79.7694 69.222 79.7941C69.2035 79.8187 69.1787 79.8379 69.1501 79.8495C69.1216 79.8611 69.0904 79.8648 69.06 79.86C68.5415 79.8173 68.0376 79.6675 67.58 79.42C67.09 79.09 66.77 78.42 67.11 78.22C67.45 78.02 67.95 78.09 68.51 78.72V78.72Z" fill="white"/>
<path fill-rule="evenodd" clip-rule="evenodd" d="M68.2401 76.87C68.4001 76.87 69.04 76.67 69.17 76.87C69.3 77.07 69.22 77.42 68.73 77.66C68.24 77.9 67.31 78.09 67.12 77.83C66.93 77.57 67.1901 77.14 68.2401 76.83V76.87Z" fill="white"/>
<path fill-rule="evenodd" clip-rule="evenodd" d="M180.18 51.51C180.25 39.51 183.18 35.51 186.31 35.51C189.44 35.51 192.38 39.51 192.44 51.51C192.38 63.24 189.44 67.25 186.31 67.31C183.18 67.37 180.25 63.24 180.18 51.51ZM279 44.69C279 43.79 279.18 37.47 279.19 36.61H280.72C286.63 36.61 287.62 37.67 288.17 44.69H279ZM200.55 49.86C200.41 43.51 199.33 38.96 197.65 35.73C195 30.19 190.76 28.19 186.41 28.09H186.21C181.87 28.09 177.65 30.2 175.01 35.73C173.33 38.96 172.24 43.51 172.1 49.86C172.1 49.86 172.1 51.28 172.1 51.3C172.054 54.9701 172.484 58.6306 173.38 62.19C175.61 71.28 180.76 74.5 186.13 74.6H186.5C191.87 74.5 197.02 71.28 199.24 62.19C200.147 58.6324 200.584 54.9712 200.54 51.3C200.54 51.3 200.54 49.87 200.54 49.86H200.55ZM241.09 29.19V36.57H247.83V73.57H256V36.57H262.74V29.19H241.09ZM224 44.69H219.59C218.131 44.8132 216.68 44.3691 215.54 43.45C215.232 43.1403 214.993 42.7692 214.837 42.3608C214.682 41.9525 214.615 41.5161 214.64 41.08V29.19H206.51V41.86C206.491 43.2638 206.788 44.6538 207.378 45.9276C207.968 47.2015 208.837 48.3266 209.92 49.22C212.182 51.1676 215.086 52.2079 218.07 52.14H224V73.58H232.12V29.19H224V44.69ZM138.18 29.19V73.58H146.29V36.58H156.34V73.58H164.47V29.19H138.18ZM295.78 41.19C294.85 33.33 291.19 29.19 282.53 29.19H271.53L270.03 73.59H278.03C278.03 73.59 278.77 53 278.81 52.02H289C289.1 52.92 290.61 73.58 290.61 73.58H298.9C298.9 73.58 296 43.13 295.78 41.19Z" fill="white"/>
<path fill-rule="evenodd" clip-rule="evenodd" d="M334.46 66.8399C333.67 66.8399 331.69 66.6599 331.69 66.6599V51.0299C332.13 50.9346 332.579 50.8843 333.03 50.8799C337.14 50.8799 342.03 50.6399 342.03 58.8799C342.03 66.4199 336.69 66.8799 334.49 66.8799L334.46 66.8399ZM367 44.7699C367 43.8699 367.18 37.5499 367.19 36.6899L368.63 36.5999C374.54 36.5999 375.63 37.7399 376.17 44.7699H367ZM463.1 73.6999L453.34 47.6999C455.527 45.7891 457.036 43.2207 457.64 40.3799C458.32 37.5599 459.22 29.3799 459.22 29.3799H451.22C451.22 30.2199 451 33.0299 450.75 35.8999C450.38 40.1399 449.14 44.0599 444.83 44.0599H441.5C441.5 43.6999 441.5 29.3799 441.5 29.3799H433.38V73.7899H441.5V51.1899C441.5 51.1899 445.79 51.1899 446.4 51.1899L454.4 73.7199L463.1 73.6999ZM335.44 43.8399C334.05 43.8399 332.81 43.8399 331.69 43.9199V36.6899H346.25V29.3099H323.58V73.6999H335.89C348.17 73.6999 350.07 62.6999 350.07 58.6999C350.07 53.8899 348.18 43.8899 335.44 43.8899V43.8399ZM414.58 29.3099V43.4999H403.45V29.3099H395.35V73.7199H403.45V50.8799H414.58V73.7199H422.68V29.3099H414.58ZM383.8 41.2599C382.87 33.3999 379.2 29.3099 370.55 29.3099H359.55L358.05 73.7099H366.05C366.05 73.7099 366.79 53.1199 366.83 52.1399H377C377.1 53.0399 378.61 73.6999 378.61 73.6999H386.9C386.9 73.6999 384 43.1899 383.8 41.2599Z" fill="white"/>
</g>
<defs>
<clipPath id="clip0_8_1316">
<rect width="491.04" height="100.73" fill="white" transform="translate(1 1)"/>
</clipPath>
</defs>
</svg>
