<svg width="391" height="177" viewBox="0 0 391 177" fill="none" xmlns="http://www.w3.org/2000/svg">
<path d="M191.056 106.153H200.915C205.948 106.153 209.497 108.731 209.497 113.287C209.497 115.865 208.253 118.081 206.138 119.212V119.291C209.181 120.185 210.627 123 210.627 125.804C210.627 131.344 206.184 133.832 201.074 133.832H191.056V106.153ZM200.949 117.459C203.133 117.459 204.377 115.899 204.377 113.909C204.377 111.919 203.167 110.483 200.869 110.483H196.076V117.459H200.949ZM201.459 129.512C204.034 129.512 205.472 127.839 205.472 125.498C205.472 123.203 203.992 121.519 201.459 121.519H196.076V129.512H201.459ZM224.422 113.491C227.111 113.491 230.155 114.384 232.065 116.453L229.839 119.845C228.595 118.602 226.64 117.697 224.692 117.697C221.028 117.697 218.643 120.467 218.643 123.859C218.643 127.217 221.017 130.101 224.84 130.101C226.944 130.101 229.204 129.004 230.687 127.568L232.597 131.073C230.722 133.063 227.61 134.307 224.41 134.307C217.817 134.307 213.614 129.671 213.614 123.893C213.625 118.24 217.84 113.491 224.422 113.491ZM244.547 113.491C250.234 113.491 253.358 117.663 253.358 122.921C253.358 123.543 253.278 124.21 253.198 124.832H239.517C239.833 128.303 242.477 130.101 245.486 130.101C247.51 130.101 249.58 129.207 251.174 127.918L253.118 131.469C251.094 133.266 247.974 134.318 245.125 134.318C238.532 134.318 234.404 129.558 234.404 123.904C234.416 117.776 238.589 113.491 244.547 113.491ZM238.859 106.153H242.683V110.676H238.859V106.153ZM248.416 121.44C248.382 118.782 246.662 117.234 244.436 117.234C241.903 117.234 240.103 118.907 239.639 121.44H248.416ZM246.03 106.153H249.816V110.676H246.03V106.153ZM267.251 113.955H285.386V133.843H280.437V118.172H272.204V133.843H267.251V113.955ZM290.655 113.955H295.179V115.436C295.179 116.182 295.099 116.837 295.099 116.837H295.179C296.468 114.689 298.888 113.479 301.578 113.479C306.961 113.479 310.389 117.731 310.389 123.893C310.389 130.214 306.531 134.307 301.296 134.307C299.036 134.307 296.967 133.289 295.563 131.502H295.483C295.483 131.502 295.597 132.204 295.597 133.221V141.644H290.644V113.955H290.655ZM300.402 130.134C303.13 130.134 305.39 127.907 305.39 123.972C305.39 120.196 303.366 117.731 300.471 117.731C297.861 117.731 295.441 119.608 295.441 124.006C295.453 127.093 297.168 130.134 300.402 130.134ZM324.195 113.491C330.278 113.491 335.147 117.821 335.147 123.904C335.147 130.021 330.278 134.318 324.225 134.318C318.176 134.318 313.303 130.032 313.303 123.904C313.314 117.81 318.187 113.491 324.195 113.491ZM324.225 130.101C327.459 130.101 330.152 127.602 330.152 123.904C330.152 120.241 327.459 117.708 324.225 117.708C320.991 117.708 318.336 120.241 318.336 123.904C318.347 127.602 320.991 130.101 324.225 130.101ZM339.13 113.955H343.844V129.625H350.041V113.955H354.755V129.625H360.952V113.955H365.666V129.625H368.47V138.513H364.026V133.832H339.108V113.955H339.13ZM380.761 113.491C386.449 113.491 389.568 117.663 389.568 122.921C389.568 123.543 389.489 124.21 389.409 124.832H375.728C376.044 128.303 378.692 130.101 381.697 130.101C383.721 130.101 385.791 129.207 387.385 127.918L389.333 131.469C387.309 133.266 384.185 134.318 381.336 134.318C374.747 134.318 370.619 129.558 370.619 123.904C370.619 117.776 374.792 113.491 380.761 113.491ZM384.615 121.44C384.581 118.782 382.865 117.234 380.636 117.234C378.102 117.234 376.306 118.907 375.842 121.44H384.615Z" fill="#222324"/>
<path d="M276.172 26.768V83.9013C276.172 84.7603 275.484 85.4501 274.624 85.4501H262.956C262.096 85.4501 261.408 84.7603 261.408 83.9013V26.768C261.408 25.909 262.096 25.2192 262.956 25.2192H274.624C275.484 25.2192 276.172 25.909 276.172 26.768ZM367.111 25.2192H354.055C353.374 25.2192 352.765 25.6602 352.571 26.3046L342.239 60.0667L330.886 26.2708C330.67 25.6373 330.084 25.2192 329.418 25.2192H320.303C319.637 25.2192 319.036 25.6488 318.834 26.2708L307.482 60.0667L297.146 26.3046C296.944 25.6602 296.343 25.2192 295.666 25.2192H282.605C282.107 25.2192 281.635 25.4566 281.35 25.8637C281.057 26.2593 280.977 26.7794 281.137 27.2542L300.311 84.41C300.528 85.043 301.114 85.4615 301.783 85.4615H312.15C312.82 85.4615 313.417 85.032 313.622 84.41L324.872 51.0211L336.121 84.41C336.334 85.043 336.924 85.4615 337.59 85.4615H347.96C348.626 85.4615 349.227 85.032 349.429 84.41L368.607 27.2542C368.763 26.7908 368.686 26.2708 368.39 25.8637C368.085 25.4566 367.61 25.2192 367.111 25.2192ZM386.753 25.2192H375.085C374.226 25.2192 373.537 25.909 373.537 26.768V83.9013C373.537 84.7603 374.226 85.4501 375.085 85.4501H386.753C387.613 85.4501 388.302 84.7603 388.302 83.9013V26.768C388.302 25.909 387.613 25.2192 386.753 25.2192ZM254.643 83.4942C255.324 84.2517 254.769 85.4615 253.742 85.4615H239.438C238.859 85.4615 238.308 85.2016 237.935 84.7493L235.515 81.8321C230.573 85.032 224.692 86.8976 218.384 86.8976C200.972 86.8976 186.815 72.7302 186.815 55.3291C186.815 37.928 200.983 23.7605 218.384 23.7605C235.797 23.7605 249.953 37.928 249.953 55.3291C249.953 61.6044 248.108 67.4498 244.931 72.3684L254.643 83.4942V83.4942ZM226.297 70.7626L220.035 63.2323C219.377 62.441 219.944 61.2426 220.964 61.2426H234.066C234.69 59.388 235.04 57.3983 235.04 55.3402C235.04 45.8993 228.017 37.7698 218.373 37.7698C208.729 37.7698 201.706 45.9103 201.706 55.3402C201.706 64.77 208.729 72.7979 218.373 72.7979C221.314 72.7979 223.98 72.0515 226.297 70.7626ZM139.904 118.737C140.412 122.152 139.338 123.565 138.253 123.565C137.077 123.565 135.585 122.186 133.843 119.45C132.113 116.759 131.491 113.672 132.339 112.1C132.905 111.071 134.092 110.619 135.585 111.185C138.467 112.281 139.598 116.702 139.904 118.737V118.737ZM123.927 126.177C127.387 129.106 128.438 132.588 126.607 135.042C125.589 136.387 123.938 137.133 121.96 137.133C120.015 137.133 118.036 136.41 116.668 135.211C113.525 132.464 112.598 127.998 114.656 125.465C115.458 124.47 116.759 123.927 118.33 123.927C120.23 123.927 122.22 124.73 123.927 126.177V126.177ZM118.138 154.433C133.052 154.433 149.231 159.544 167.142 175.418C168.939 177.012 171.325 175.034 169.765 173.055C152.16 150.826 135.878 146.597 119.642 143.024C99.7871 138.649 89.566 127.477 82.4427 115.198C81.0294 112.756 80.396 113.186 80.2605 116.329C80.1023 120.162 80.3735 125.25 81.2329 130.236C80.4298 130.27 79.6271 130.259 78.813 130.259C50.3991 130.259 27.3676 107.227 27.3676 78.813C27.3676 50.3991 50.3991 27.3676 78.813 27.3676C107.227 27.3676 130.259 50.3991 130.259 78.813C130.259 80.8369 130.157 82.8384 129.931 84.7946C126.177 84.1159 118.783 84.0367 113.593 84.4891C111.637 84.6588 111.919 85.5634 113.389 85.8347C130.395 88.9101 142.074 99.4482 144.754 118.568C144.811 119.009 145.387 119.144 145.614 118.76C152.612 107.08 156.626 93.4213 156.626 78.813C156.649 35.8474 121.801 1 78.8244 1C35.8475 1 1 35.8474 1 78.8244C1 121.801 35.8475 156.649 78.8244 156.649C90.2215 156.649 101.54 154.433 118.138 154.433V154.433Z" fill="#FF8C00"/>
</svg>
