<svg width="612" height="77" viewBox="0 0 612 77" fill="none" xmlns="http://www.w3.org/2000/svg">
<path d="M488.546 15.4545H480.004L459.565 62.2396H467.497L472.073 52.1487H496.173L500.749 62.2396H508.986L488.546 15.4545ZM475.428 44.8099L484.275 24.9338L493.122 44.8099H475.428ZM610.878 15.4545H600.811L581.287 35.0247H573.66V15.4545H566.033V62.2396H573.66V42.6694H581.287L600.506 62.2396H610.573L587.998 38.9999L610.878 15.4545ZM455.599 43.2809C454.989 41.752 453.769 40.2231 452.548 38.9999C451.328 37.7768 449.803 36.8594 447.972 35.9421C446.447 35.3305 444.617 35.0247 442.786 35.0247H422.957V22.7933H451.938V15.1487H415.635V62.2396H442.786C446.447 62.2396 449.803 60.7107 452.243 58.2644C454.684 55.8181 456.209 52.1487 456.209 48.7851C456.819 46.9504 456.514 45.1156 455.599 43.2809ZM447.362 53.0661C446.142 54.2892 444.617 54.9008 443.091 54.9008H423.567V42.6694H443.091C444.617 42.6694 446.142 43.2809 447.362 44.5041C448.582 45.7272 449.193 47.2561 449.193 48.7851C449.193 50.314 448.582 51.8429 447.362 53.0661ZM549.255 35.0247H522.104V15.4545H514.477V62.2396H522.104V42.6694H549.255V62.2396H556.881V15.4545H549.255V35.0247Z" fill="#003791"/>
<path d="M285.452 15.3292L266.244 34.8414H258.622V15.3292H251V61.9756H258.622V42.4634H266.244L285.452 61.9756H295.512L272.647 38.8049L295.817 15.3292H285.452ZM104.659 28.7439C106.183 26.6097 108.317 24.7804 110.756 23.5609C113.195 22.3414 115.939 21.7317 118.683 21.7317C122.646 21.7317 126.915 23.2561 129.964 26L136.061 19.9024C133.012 17.1585 129.354 15.0243 125.39 14.1097C121.427 13.1951 117.159 12.8902 113.195 14.1097C109.232 15.0243 105.573 16.8536 102.22 19.5975C99.1708 22.3414 96.7318 25.6951 95.2074 29.6585C93.683 33.6219 93.0733 37.5853 93.683 41.8536C94.2928 45.8171 95.5123 49.7805 97.9513 53.1341C100.39 56.4878 103.439 59.2317 107.098 61.3659C110.756 63.5 114.72 64.4146 118.988 64.4146C125.085 64.4146 131.183 62.2805 135.756 58.0122L129.659 52.2195C127.525 54.0488 125.085 55.2683 122.342 55.5732C119.598 56.1829 116.854 56.1829 114.415 55.2683C111.671 54.6585 109.537 53.1341 107.403 51.3049C105.268 49.4756 104.049 47.0366 103.134 44.5975C102.22 42.1585 101.915 39.4146 102.22 36.6707C102.22 33.6219 103.134 30.878 104.659 28.7439ZM184.537 20.5122C179.659 15.6341 173.256 13.1951 166.549 13.1951C161.671 13.1951 156.488 14.7195 152.525 17.4634C148.256 20.2073 145.207 24.1707 143.073 28.7439C141.244 33.317 140.634 38.5 141.549 43.378C142.464 48.2561 144.903 52.8293 148.561 56.4878C152.22 60.1463 156.488 62.5854 161.671 63.5C166.549 64.4146 171.732 64.1098 176.305 61.9756C180.878 60.1463 184.842 56.7927 187.586 52.5244C190.329 48.2561 191.854 43.378 191.854 38.5C192.159 31.7926 189.415 25.3902 184.537 20.5122ZM182.403 45.2073C181.488 47.3415 180.268 49.1707 178.744 50.6951C177.22 52.2195 175.39 53.439 173.256 54.3536C171.122 55.2683 168.988 55.5732 166.854 55.5732C163.5 55.5732 160.146 54.6585 157.403 52.8293C154.659 51 152.525 48.2561 151 45.2073C149.781 42.1585 149.476 38.8049 150.086 35.4512C150.695 32.0975 152.22 29.0487 154.659 26.6097C157.098 24.1707 160.146 22.6463 163.5 22.0365C166.854 21.4268 170.207 21.7317 173.256 22.9512C176.305 24.1707 179.049 26.3048 180.878 29.3536C182.707 32.0975 183.622 35.4512 183.622 38.8049C183.622 40.939 183.012 43.0732 182.403 45.2073Z" fill="#003791"/>
<path d="M339.11 20.5121C334.232 15.6341 327.83 13.1951 321.122 13.1951C316.244 13.1951 311.061 14.7195 307.098 17.4634C302.83 20.2073 299.781 24.1707 297.647 28.7439C295.817 33.317 295.208 38.5 296.122 43.378C297.037 48.2561 299.476 52.8293 303.134 56.4878C306.793 60.1463 311.061 62.5854 316.244 63.5C321.122 64.4146 326.305 64.1098 330.878 61.9756C335.452 60.1463 339.415 56.7927 342.159 52.5244C344.903 48.2561 346.427 43.378 346.427 38.5C346.732 31.7926 343.988 25.3902 339.11 20.5121ZM336.976 45.2073C336.061 47.3414 334.842 49.1707 333.317 50.6951C331.793 52.2195 329.964 53.439 327.83 54.3536C325.695 55.2683 323.561 55.5732 321.427 55.5732C318.073 55.5732 314.72 54.6585 311.976 52.8293C309.232 51 307.098 48.2561 305.573 45.2073C304.354 42.1585 304.049 38.8048 304.659 35.4512C305.269 32.0975 306.793 29.0487 309.232 26.6097C311.671 24.1707 314.72 22.6463 318.073 22.0365C321.427 21.4268 324.781 21.7317 327.83 22.9512C330.878 24.1707 333.622 26.3048 335.452 29.3536C337.281 32.0975 338.195 35.4512 338.195 38.8048C338.195 40.939 337.891 43.0731 336.976 45.2073ZM399.781 15.3292L380.878 37.8902L361.976 15.3292H354.354V61.9756H361.976V27.8292L380.878 50.3902L399.781 28.1341V61.9756H407.098V15.3292H399.781ZM237.281 38.5C238.5 37.2805 239.72 35.7561 240.329 33.9268C240.939 32.0975 241.549 30.5731 241.549 28.7439C241.549 26.9146 241.244 25.0853 240.634 23.5609C240.025 22.0365 239.11 20.5121 237.586 19.2926C236.366 18.0731 234.842 17.1585 233.317 16.2439C231.793 15.6341 229.964 15.3292 228.134 15.3292H200.695V61.9756H228.134C231.793 61.9756 235.147 60.4512 237.586 58.0122C240.025 55.5732 241.549 52.2195 241.549 48.561C241.549 46.7317 241.244 44.9024 240.329 43.0731C239.72 41.2439 238.5 39.7195 237.281 38.5ZM232.403 52.8293C231.183 54.0488 229.659 54.6585 228.134 54.6585H208.317V42.4634H228.134C229.659 42.4634 231.183 43.0732 232.403 44.2927C233.622 45.5122 234.232 47.0366 234.232 48.561C234.232 50.0854 233.622 51.6097 232.403 52.8293ZM234.842 31.4878C234.537 32.4024 233.927 33.0122 233.317 33.6219C232.708 34.2317 231.793 34.5366 230.878 34.8414C229.964 35.1463 229.049 35.1463 228.134 34.8414H208.317V22.9512H228.134C229.049 22.6463 229.964 22.6463 230.878 22.9512C231.793 23.2561 232.708 23.5609 233.317 24.1707C233.927 24.7804 234.537 25.3902 234.842 26.3048C235.147 27.2195 235.451 28.1341 235.451 29.0487C235.451 29.9634 235.147 30.5731 234.842 31.4878Z" fill="#003791"/>
<path d="M45.8938 2V21.5702H38.2671C33.6911 21.5702 29.4202 23.405 26.0644 26.7686C22.7087 30.1322 20.8783 34.4132 20.8783 39C20.8783 43.5868 22.7087 47.8678 26.0644 51.2314C29.4202 54.595 33.6911 56.4297 38.2671 56.4297H45.8938V76C54.4357 74.1653 62.0624 69.5785 67.5536 62.8512C73.0448 56.124 76.0955 47.562 76.0955 39C76.0955 30.438 73.0448 21.876 67.5536 15.1488C62.0624 8.1157 54.4357 3.52893 45.8938 2Z" fill="#003791"/>
<path d="M11.9756 11.9756C4.96342 18.9878 1 28.7439 1 38.5C1 48.2561 4.96342 58.0123 11.9756 65.0245C18.9878 72.0367 28.7439 76.0001 38.5 76.0001H40.0244V61.9757H38.5C32.4025 61.6708 26.6098 59.2318 22.6464 54.9635C18.3781 50.6952 16.2439 44.9025 16.2439 38.8049C16.2439 32.7073 18.6829 26.9147 22.6464 22.6464C26.9147 18.3781 32.7073 15.6342 38.5 15.6342H40.0244V1H38.5C28.7439 1 18.9878 4.96342 11.9756 11.9756Z" fill="#FF4B5F"/>
</svg>
