<svg width="344" height="69" viewBox="0 0 344 69" fill="none" xmlns="http://www.w3.org/2000/svg">
<path d="M94.8999 67.9822C86.1824 68.2647 77.6922 65.1762 71.2011 59.3615C67.7237 56.2002 64.9973 52.304 63.2204 47.9571C61.4438 43.6102 60.662 38.9222 60.9316 34.2352C60.7262 26.2899 63.4321 18.5428 68.5416 12.4468C73.3171 6.96211 79.8154 3.25598 86.974 1.9337C95.7599 -0.111625 104.995 1.23064 112.832 5.69213C117.556 8.2907 121.506 12.0912 124.281 16.7077C127.056 21.324 128.557 26.5916 128.631 31.9749C129.158 42.1463 126.735 51.2927 119.204 58.5467C112.724 64.6766 104.09 68.0182 95.1632 67.8508L94.8999 67.9822V67.9822ZM95.3475 17.2828C91.8941 17.0904 88.4799 18.0942 85.6826 20.1248C82.8854 22.1554 80.8765 25.088 79.996 28.4267C78.7094 32.4889 78.7094 36.8487 79.996 40.911C80.7791 43.673 82.3422 46.1515 84.4985 48.0509C86.6546 49.9501 89.313 51.1902 92.1561 51.6222C94.9989 52.0546 97.9065 51.6611 100.532 50.4889C103.157 49.3165 105.388 47.4149 106.96 45.0111C108.797 42.1384 109.844 38.8336 109.997 35.4289C110.15 32.0243 109.402 28.6393 107.829 25.6144C106.727 23.1255 104.91 21.0184 102.609 19.5589C100.308 18.0997 97.6255 17.3532 94.8999 17.4142L95.3475 17.2828V17.2828ZM237.988 40.8058C234.723 40.9898 231.642 41.2264 228.219 41.4104V66.4315H209.786V3.03757H227.85V26.4555C231.782 26.7953 235.742 26.4755 239.568 25.5093C241.827 24.8514 243.881 23.6269 245.529 21.9519C247.18 20.2772 248.373 18.2082 248.995 15.9424C250.206 11.7634 250.706 7.4005 251.628 2.80103H268.401C268.744 15.9424 266.163 27.4017 253.682 34.498C254.209 35.4442 254.551 36.2064 255.051 36.9686C260.317 45.5105 265.321 54.0523 270.455 62.6731C271.05 63.8661 271.569 65.095 272.009 66.3527H252.76C247.783 57.9685 242.833 49.3477 237.856 40.727L237.988 40.8058V40.8058ZM319.485 28.4267C319.615 26.6066 319.615 24.78 319.485 22.9599C319.23 21.5469 318.569 20.2383 317.582 19.193C316.597 18.148 315.328 17.4113 313.929 17.0725C309.105 15.4872 303.986 14.9933 298.947 15.627C294.217 15.9342 289.593 17.1572 285.333 19.2277C284.569 14.7071 283.779 10.423 282.937 6.08637C286.621 4.31018 290.539 3.07095 294.575 2.40679C302.97 0.683954 311.641 0.800647 319.986 2.74846C328.886 4.98249 335.127 10.1076 336.838 19.4906C337.194 21.8384 337.333 24.2136 337.26 26.5869V50.2413C337.602 55.1037 338.023 55.4979 343 56.3915V66.4841C338.084 68.0965 332.757 67.9478 327.938 66.0636C326.666 65.4091 325.568 64.4627 324.736 63.302C323.904 62.1414 323.359 60.7999 323.146 59.3877C323.001 58.7131 322.911 58.0273 322.882 57.3377C316.8 66.0635 308.163 68.1924 298.578 67.6668C287.887 67.0623 279.672 59.782 278.118 51.4241C275.643 37.6782 282.647 27.4279 296.55 25.2728C305.53 23.9849 308.031 24.5894 319.407 28.4267H319.485V28.4267ZM319.354 40.4642C316.47 38.5203 313.15 37.3194 309.69 36.9686C307.936 36.6132 306.127 36.6188 304.376 36.9849C302.623 37.351 300.964 38.0698 299.5 39.0975C298.104 40.1391 297.077 41.5967 296.563 43.2599C296.053 44.923 296.084 46.7053 296.656 48.349C297.135 49.8106 298.046 51.0942 299.265 52.032C300.487 52.9695 301.964 53.518 303.502 53.6055C306.622 53.9222 309.774 53.4523 312.666 52.2388C315.041 51.4469 317.037 49.8061 318.272 47.632C319.507 45.4579 319.894 42.9048 319.354 40.4642ZM177.582 2.95872H195.383V66.5104H177.424V46.1938C174.08 46.956 171.078 47.8233 167.919 48.2439C159.703 49.3477 151.909 48.2439 145.326 42.9873C140.467 38.817 137.248 33.0614 136.241 26.7446C134.688 18.8598 135.635 10.975 135.372 3.09014H153.936V5.90239C153.936 11.1589 153.936 16.1527 154.2 21.3566C154.25 22.8963 154.607 24.4104 155.249 25.8113C155.892 27.2119 156.807 28.4711 157.942 29.5156C159.076 30.5598 160.407 31.3685 161.858 31.8947C163.309 32.4206 164.85 32.6535 166.391 32.5794C170.405 32.7034 174.349 31.5026 177.609 29.1626L177.582 2.95872V2.95872ZM37.6278 66.2738H19.7484V19.2014H1V3.03757H56.2972V19.0175H37.6278V66.2738Z" fill="#333333"/>
</svg>
