<svg width="436" height="138" viewBox="0 0 436 138" fill="none" xmlns="http://www.w3.org/2000/svg">
<path d="M21.337 128H434.337V137H21.337V128Z" fill="#FFD101"/>
<path d="M200.837 74.898C198.061 71.0817 193.898 68.6531 189.388 67.6123C193.551 66.5715 197.367 64.1429 199.796 60.6735C202.225 57.2041 203.612 53.0408 203.265 48.8776C203.265 37.7755 195.286 28.0612 179.674 28.0612H137V109.592H181.408C197.02 109.592 205 99.8776 205 87.7348C205 83.2246 203.612 78.3674 200.837 74.898ZM154.347 42.9796H176.204C177.592 42.9796 178.633 42.9796 179.674 43.3265C180.714 43.6735 181.755 44.3674 182.796 45.0612C183.837 45.7551 184.531 46.7959 184.878 48.1837C185.225 49.2245 185.571 50.6123 185.571 51.6531C185.571 53.0408 185.225 54.0817 184.878 55.1225C184.531 56.1633 183.837 57.2041 182.796 58.2449C181.755 58.9388 180.714 59.6327 179.674 59.9796C178.633 60.3266 177.245 60.6735 176.204 60.3266H154.347V42.9796ZM176.551 94.6735H154.347V75.5919H176.551C177.939 75.5919 179.327 75.5919 180.367 75.9388C181.755 76.2858 182.796 76.9797 183.837 78.0205C184.878 79.0613 185.572 80.1021 186.265 81.1429C186.959 82.5307 186.959 83.5715 186.959 84.9593C187.306 91.2042 183.143 94.6735 176.551 94.6735ZM256.347 57.898H235.184V43.3265H277.163V28.0612H217.837V109.592H256.347C273.694 109.592 283.408 97.796 283.408 83.5715C283.408 69.347 273.694 57.898 256.347 57.898ZM264.327 88.0817C263.633 89.4695 262.939 90.5103 261.898 91.5511C260.857 92.5919 259.47 93.2858 258.082 93.9797C256.694 94.3266 255.306 94.6735 253.919 94.6735H235.184V73.5103H253.919C255.306 73.5103 256.694 73.5103 258.082 74.2041C259.47 74.5511 260.857 75.5919 261.898 76.6327C262.939 77.6735 263.633 78.7143 264.327 80.1021C265.021 81.4899 265.368 82.8776 265.368 84.2654C265.368 85.6531 265.021 86.6939 264.327 88.0817ZM332.327 28.0612H294.163V109.592H311.51V80.796H332.327C350.021 80.796 359.735 68.6531 359.735 54.4286C359.735 40.2041 350.021 28.0612 332.327 28.0612ZM341 58.9388C340.306 60.3266 339.613 61.7143 338.225 62.7551C337.184 63.796 335.796 64.4898 334.408 65.1837C333.021 65.5307 331.286 65.8776 329.898 65.5307H311.51V43.6735H329.898C331.286 43.6735 333.021 43.6735 334.408 44.0204C335.796 44.3674 337.184 45.4082 338.225 46.449C339.266 47.4898 340.306 48.8776 341 50.2653C341.694 51.6531 342.041 53.0408 342.041 54.7755C342.041 56.1633 341.694 57.5511 341 58.9388ZM406.919 28.0612H368.755V109.592H386.102V80.796H406.919C424.613 80.796 434.327 68.6531 434.327 54.4286C434.327 40.2041 424.96 28.0612 406.919 28.0612ZM415.939 58.9388C415.245 60.3266 414.551 61.7143 413.164 62.7551C412.123 63.796 410.735 64.4898 409.347 65.1837C407.96 65.5307 406.225 65.8776 404.837 65.5307H386.102V43.6735H404.49C405.878 43.6735 407.613 43.6735 409 44.0204C410.388 44.3674 411.776 45.4082 412.817 46.449C413.857 47.4898 414.898 48.8776 415.592 50.2653C416.286 51.6531 416.633 53.0408 416.633 54.7755C416.98 56.1633 416.633 57.5511 415.939 58.9388Z" fill="#1D1D1B"/>
<path d="M20.4286 66.2246L47.4899 64.8368L49.9184 108.204L22.8572 109.592L20.4286 66.2246ZM51.3062 98.4899L58.245 72.1225L100.225 83.2246L93.2858 109.592L51.3062 98.4899ZM68.6531 64.1429L92.245 27.7143L115.143 42.6327L91.5511 79.0613L68.6531 64.1429ZM36.7347 18L58.245 1L85.6532 34.6531L64.4899 51.6531C64.1429 52.0001 37.0817 18 36.7347 18ZM1 42.6327L41.5919 27.0204L51.3062 52.347L10.7143 67.9593L1 42.6327Z" fill="#1D1D1B"/>
</svg>
